<svg width="80" height="80" viewBox="0 0 80 80" fill="none" xmlns="http://www.w3.org/2000/svg">
<path d="M12.2156 39.9998H9.24588C9.25455 33.0257 12.4975 26.3395 18.2631 21.4081C24.0288 16.4767 31.8462 13.703 40 13.6956H41.4872V18.4956L50.2233 11.0196L41.4872 3.53953V8.33956H40C30.1849 8.34803 20.7744 11.6861 13.8332 17.6215C6.89195 23.5569 2.98678 31.6048 2.9744 39.9998H0C0.0117409 31.1494 4.02833 22.6464 11.2079 16.273C18.3875 9.89963 28.1728 6.15055 38.5128 5.81154V1.83552C38.5129 1.4727 38.6387 1.11805 38.8743 0.816332C39.1099 0.514615 39.4447 0.279362 39.8365 0.140273C40.2283 0.00118416 40.6595 -0.0355041 41.0756 0.0348399C41.4918 0.105184 41.8742 0.279406 42.1747 0.535512L54.423 11.0116L42.1747 21.4876C41.8745 21.7435 41.4925 21.9176 41.0768 21.9881C40.6611 22.0586 40.2303 22.0222 39.8387 21.8836C39.4471 21.7451 39.1122 21.5104 38.8763 21.2093C38.6403 20.9082 38.5139 20.5541 38.5128 20.1916V16.2676C31.4147 16.6018 24.7353 19.2468 19.8452 23.6599C14.9551 28.073 12.2252 33.9195 12.2156 39.9998Z" fill="black"/>
<path d="M39.3359 80C39.0542 79.9996 38.7754 79.9517 38.5154 79.8591C38.2553 79.7664 38.0193 79.6308 37.8206 79.46L25.5723 68.9879L37.8206 58.5119C38.1205 58.2546 38.503 58.0793 38.9195 58.008C39.336 57.9368 39.7679 57.9728 40.1604 58.1115C40.553 58.2503 40.8886 58.4856 41.1247 58.7875C41.3609 59.0895 41.487 59.4446 41.4872 59.8079V63.7279C48.5852 63.3957 55.2653 60.7518 60.1557 56.3391C65.0462 51.9265 67.7759 46.0799 67.7844 39.9998H70.7541C70.7454 46.9738 67.5025 53.66 61.7368 58.5914C55.9712 63.5228 48.1538 66.2965 40 66.3039H38.5128V61.5039L29.7766 68.9879L38.5128 76.46V71.6599H40C49.8147 71.6504 59.2244 68.312 66.1654 62.3769C73.1064 56.4417 77.012 48.3944 77.0256 39.9998H80C79.987 48.8494 75.9699 57.3514 68.7904 63.7239C61.6109 70.0965 51.8264 73.845 41.4872 74.184V78.164C41.4879 78.527 41.3624 78.8821 41.1268 79.184C40.8911 79.486 40.5559 79.7213 40.1636 79.86C39.9008 79.9517 39.6197 79.9992 39.3359 80Z" fill="black"/>
<path d="M40.0001 54.5398C36.6379 54.5398 33.3511 53.687 30.5555 52.0893C27.7599 50.4916 25.581 48.2208 24.2943 45.5639C23.0076 42.9071 22.671 39.9836 23.3269 37.1631C23.9828 34.3426 25.6019 31.7518 27.9794 29.7183C30.3569 27.6848 33.386 26.3 36.6836 25.739C39.9813 25.178 43.3994 25.4659 46.5057 26.5664C49.612 27.6669 52.2671 29.5305 54.135 31.9216C56.003 34.3128 57 37.1239 57 39.9997C56.9939 43.8543 55.2008 47.5496 52.014 50.2752C48.8273 53.0009 44.5069 54.5345 40.0001 54.5398ZM40.0001 27.9996C37.2252 27.9996 34.5126 28.7034 32.2054 30.022C29.8981 31.3406 28.0999 33.2147 27.038 35.4075C25.976 37.6002 25.6982 40.013 26.2396 42.3408C26.7809 44.6686 28.1172 46.8068 30.0793 48.485C32.0415 50.1633 34.5414 51.3062 37.263 51.7692C39.9846 52.2322 42.8056 51.9946 45.3693 51.0863C47.9329 50.1781 50.1241 48.64 51.6658 46.6666C53.2075 44.6932 54.0303 42.3731 54.0303 39.9997C54.0303 36.8171 52.5521 33.7648 49.921 31.5144C47.2898 29.2639 43.7212 27.9996 40.0001 27.9996Z" fill="black"/>
<path d="M38.4055 45.4558L31.989 39.9717L34.0889 38.1757L38.4008 41.8637L45.9116 35.4397L48.0115 37.2357L38.4055 45.4558Z" fill="black"/>
<path d="M21.7328 66.0798C20.7413 65.5678 19.7639 65.0118 18.8332 64.4198L20.8255 62.1518C21.6673 62.6878 22.5559 63.1958 23.4538 63.6558L21.7328 66.0798ZM16.1207 62.5238C15.2649 61.8598 14.4371 61.1518 13.6561 60.4158L16.102 58.5198C16.8082 59.1838 17.5611 59.8278 18.3422 60.4358L16.1207 62.5238ZM11.444 58.1238C10.7518 57.3238 10.0971 56.4918 9.50316 55.6438L12.3092 54.1878C12.8502 54.9622 13.4371 55.7125 14.0676 56.4358L11.444 58.1238ZM7.87098 53.0078C7.3701 52.1093 6.92366 51.1895 6.53344 50.2517L9.63878 49.2997C9.99421 50.1438 10.4011 50.9838 10.8501 51.7958L7.87098 53.0078ZM5.53262 47.4077C5.25201 46.4477 5.02285 45.4597 4.85449 44.4797L8.1282 44.0797C8.27785 44.9677 8.48831 45.8597 8.74085 46.7317L5.53262 47.4077Z" fill="black"/>
<path d="M71.8951 35.9397C71.7417 35.0474 71.5356 34.1622 71.2778 33.2877L74.4814 32.5997C74.762 33.5637 74.9911 34.5477 75.1595 35.5277L71.8951 35.9397ZM70.3612 30.6957C70.0057 29.8517 69.5989 29.0116 69.1499 28.1996L72.1336 26.9996C72.6013 27.8916 73.069 28.8196 73.4665 29.7517L70.3612 30.6957ZM67.6533 25.8156C67.1108 25.0476 66.5216 24.2876 65.8949 23.5676L68.5279 21.8836C69.22 22.6836 69.8701 23.5116 70.4687 24.3636L67.6533 25.8156ZM63.8839 21.4756C63.1777 20.8116 62.4248 20.1716 61.6437 19.5636L63.8512 17.4716C64.7117 18.1396 65.5441 18.8476 66.3205 19.5796L63.8839 21.4756ZM59.2072 17.8476C58.3654 17.3116 57.4768 16.8036 56.5789 16.3396L58.2765 13.9196C59.2727 14.4316 60.2454 14.9876 61.1761 15.5796L59.2072 17.8476Z" fill="black"/>
</svg>
