<svg width="1441" height="267" viewBox="0 0 1441 267" fill="none" xmlns="http://www.w3.org/2000/svg">
<path d="M1265.4 110.625H1262.85C1262.38 110.625 1262 111.017 1262 111.5V114.125C1262 114.608 1262.38 115 1262.85 115H1265.4C1265.87 115 1266.25 114.608 1266.25 114.125V111.5C1266.25 111.017 1265.87 110.625 1265.4 110.625ZM1264.76 108.438H1269.86V109.75H1271.14V108.438H1276.24V109.75H1277.51V108.175C1277.51 107.596 1277.05 107.125 1276.49 107.125H1271.14V105.375H1272.2C1272.67 105.375 1273.05 104.983 1273.05 104.5V101.875C1273.05 101.392 1272.67 101 1272.2 101H1268.8C1268.33 101 1267.95 101.392 1267.95 101.875V104.5C1267.95 104.983 1268.33 105.375 1268.8 105.375H1269.86V107.125H1264.51C1263.95 107.125 1263.49 107.596 1263.49 108.175V109.75H1264.76V108.438ZM1271.78 110.625H1269.23C1268.76 110.625 1268.38 111.017 1268.38 111.5V114.125C1268.38 114.608 1268.76 115 1269.23 115H1271.78C1272.24 115 1272.62 114.608 1272.62 114.125V111.5C1272.62 111.017 1272.24 110.625 1271.78 110.625ZM1278.15 110.625H1275.6C1275.13 110.625 1274.75 111.017 1274.75 111.5V114.125C1274.75 114.608 1275.13 115 1275.6 115H1278.15C1278.62 115 1279 114.608 1279 114.125V111.5C1279 111.017 1278.62 110.625 1278.15 110.625Z" fill="white"/>
<path d="M1440.09 0H0V267H1440.09V0Z" fill="#0E2503" fill-opacity="0.8"/>
<path fill-rule="evenodd" clip-rule="evenodd" d="M235.613 251.263C276.887 214.968 311.342 196.82 338.976 196.82C380.427 196.82 401.609 181.493 414.318 159.35C427.026 137.207 574.669 -17.0872 653.29 13.8124C705.704 34.4121 730.96 46.185 729.057 49.131C781.594 32.6232 825.779 31.0434 861.612 44.3917C897.446 57.74 1047.8 131.861 1312.69 266.753H209.773L235.613 251.263Z" fill="url(#paint0_linear)"/>
<path fill-rule="evenodd" clip-rule="evenodd" d="M463.402 225.282C457.674 186.231 463.45 165.472 480.729 163.006C506.648 159.306 483.781 146.713 498.579 146.713C508.445 146.713 547.487 143.56 615.707 137.253V125.459H843.805C886.747 128.766 912.831 135.851 922.055 146.713C931.28 157.575 936.705 180.872 938.328 216.604C953.189 214.9 962.537 217.793 966.375 225.282C970.212 232.772 982.881 238.397 1004.38 242.158V249.107H436.275L463.402 225.282Z" fill="#EAE1F2"/>
<path fill-rule="evenodd" clip-rule="evenodd" d="M763.191 125.807L768.012 236.76H827.601L795.781 126.072" fill="#CEC2DA"/>
<path opacity="0.790295" fill-rule="evenodd" clip-rule="evenodd" d="M847.078 130.572C887.989 135.798 910.75 142.299 915.363 150.076C922.281 161.741 926.82 176.928 931.751 217.46C933.125 222.464 936.986 224.966 943.333 224.966C949.681 224.966 957.495 233.013 966.776 249.106L859.515 248.986L879.629 182.466C879.814 162.296 870.873 146.489 852.807 135.045L847.078 130.572Z" fill="#C7B9D4"/>
<path opacity="0.493676" fill-rule="evenodd" clip-rule="evenodd" d="M787.889 224.497L774.699 135.514L781.853 217.275L787.889 224.497Z" fill="white"/>
<path fill-rule="evenodd" clip-rule="evenodd" d="M603.395 248.676L587.492 248.985C591.715 208.689 600.813 167.669 614.785 125.926L604.478 235.413L603.395 248.676Z" fill="#DFD1EC"/>
<path opacity="0.295898" fill-rule="evenodd" clip-rule="evenodd" d="M762.65 126.102L768.663 248.707H602.936L615.347 126.102" fill="white"/>
<path fill-rule="evenodd" clip-rule="evenodd" d="M681.445 248.342C744.011 232.278 775.631 218.075 776.305 205.734C777.315 187.222 838.33 165.719 860.909 169.207C883.489 172.696 910.542 204.593 914.669 223.251C917.421 235.689 911.961 244.911 898.288 250.916L681.445 248.342Z" fill="#DFD1EC"/>
<path opacity="0.401251" fill-rule="evenodd" clip-rule="evenodd" d="M763.168 244.827C801.81 234.932 821.339 226.184 821.756 218.583C822.38 207.18 860.064 193.936 874.01 196.085C887.956 198.233 904.665 217.88 907.214 229.372C908.913 237.033 905.541 242.713 897.096 246.412L763.168 244.827Z" fill="white"/>
<path fill-rule="evenodd" clip-rule="evenodd" d="M274.461 248.134L371.642 237.877L631.114 242.428L667.091 248.985L677.292 242.428L943.542 246.392L957.085 237.877L1024.72 246.392L1051.84 242.428C1074.15 248.059 1090.55 251.396 1101.02 252.438C1105.41 252.875 1108.93 252.927 1111.6 252.594C1114.58 252.221 1117.3 254.336 1117.67 257.317C1117.7 257.541 1117.71 257.767 1117.71 257.992C1117.71 262.967 1113.68 267 1108.71 267H275.407C270.432 267 266.398 262.967 266.398 257.992V257.092C266.398 252.483 269.878 248.618 274.461 248.134Z" fill="#EAD6FE"/>
<path fill-rule="evenodd" clip-rule="evenodd" d="M779.152 256.312C777.381 256.982 775.461 257.349 773.456 257.349C764.571 257.349 757.369 250.148 757.369 241.265C757.369 232.382 764.571 225.18 773.456 225.18C775.071 225.18 776.63 225.418 778.101 225.861C781.013 218.671 788.064 213.6 796.299 213.6C806.925 213.6 815.579 222.043 815.915 232.586C817.799 231.168 820.142 230.327 822.682 230.327C828.901 230.327 833.943 235.368 833.943 241.586C833.943 242.362 833.864 243.119 833.715 243.85C835.43 245.325 836.517 247.511 836.517 249.95C836.517 254.392 832.915 257.992 828.473 257.992H784.073C782.219 257.992 780.512 257.365 779.152 256.312Z" fill="#279B37"/>
<path d="M774.1 254.131C781.208 254.131 786.969 248.37 786.969 241.264C786.969 234.157 781.208 228.396 774.1 228.396C766.992 228.396 761.23 234.157 761.23 241.264C761.23 248.37 766.992 254.131 774.1 254.131Z" fill="url(#paint1_linear)"/>
<path d="M796.942 254.133C807.071 254.133 815.281 245.924 815.281 235.797C815.281 225.67 807.071 217.461 796.942 217.461C786.814 217.461 778.604 225.67 778.604 235.797C778.604 245.924 786.814 254.133 796.942 254.133Z" fill="url(#paint2_linear)"/>
<path d="M824.29 248.343C828.555 248.343 832.012 244.887 832.012 240.623C832.012 236.359 828.555 232.902 824.29 232.902C820.025 232.902 816.568 236.359 816.568 240.623C816.568 244.887 820.025 248.343 824.29 248.343Z" fill="url(#paint3_linear)"/>
<path d="M828.473 255.42C831.494 255.42 833.943 252.971 833.943 249.951C833.943 246.931 831.494 244.482 828.473 244.482C825.453 244.482 823.004 246.931 823.004 249.951C823.004 252.971 825.453 255.42 828.473 255.42Z" fill="url(#paint4_linear)"/>
<path fill-rule="evenodd" clip-rule="evenodd" d="M521.944 252.339C523.143 252.798 524.443 253.05 525.801 253.05C531.796 253.05 536.656 248.145 536.656 242.094C536.656 236.043 531.796 231.138 525.801 231.138C524.711 231.138 523.659 231.3 522.666 231.602C520.701 226.705 515.944 223.25 510.386 223.25C503.216 223.25 497.376 229.001 497.15 236.183C495.878 235.217 494.297 234.644 492.584 234.644C488.387 234.644 484.985 238.078 484.985 242.313C484.985 242.846 485.039 243.366 485.141 243.869C483.981 244.873 483.248 246.356 483.248 248.011C483.248 251.036 485.701 253.489 488.727 253.489H518.585C519.851 253.489 521.016 253.059 521.944 252.339Z" fill="#279B37"/>
<path d="M525.394 250.916C520.597 250.916 516.707 247.027 516.707 242.23C516.707 237.434 520.597 233.545 525.394 233.545C530.192 233.545 534.081 237.434 534.081 242.23C534.081 247.027 530.192 250.916 525.394 250.916Z" fill="url(#paint5_linear)"/>
<path d="M510.275 250.916C503.523 250.916 498.049 245.299 498.049 238.37C498.049 231.441 503.523 225.824 510.275 225.824C517.027 225.824 522.501 231.441 522.501 238.37C522.501 245.299 517.027 250.916 510.275 250.916Z" fill="url(#paint6_linear)"/>
<path d="M491.615 247.056C488.772 247.056 486.467 244.751 486.467 241.909C486.467 239.066 488.772 236.762 491.615 236.762C494.458 236.762 496.763 239.066 496.763 241.909C496.763 244.751 494.458 247.056 491.615 247.056Z" fill="url(#paint7_linear)"/>
<path fill-rule="evenodd" clip-rule="evenodd" d="M892.666 139.241C893.105 139.51 893.6 139.702 894.135 139.796C896.482 140.21 898.73 138.593 899.155 136.184C899.579 133.775 898.021 131.487 895.673 131.073C895.247 130.998 894.823 130.989 894.413 131.041C893.988 128.956 892.367 127.252 890.192 126.868C887.384 126.373 884.694 128.26 884.101 131.103C883.671 130.631 883.092 130.294 882.421 130.175C880.778 129.886 879.204 131.018 878.907 132.704C878.869 132.92 878.854 133.134 878.859 133.344C878.333 133.663 877.942 134.199 877.827 134.852C877.615 136.057 878.419 137.205 879.624 137.418L891.243 139.466C891.749 139.555 892.245 139.465 892.666 139.241Z" fill="#279B37"/>
<path d="M894.125 138.917C892.247 138.585 890.997 136.769 891.334 134.859C891.67 132.949 893.466 131.67 895.345 132.001C897.223 132.332 898.473 134.149 898.136 136.058C897.8 137.968 896.004 139.248 894.125 138.917Z" fill="url(#paint8_linear)"/>
<path d="M888.204 137.873C885.56 137.407 883.811 134.793 884.298 132.034C884.784 129.276 887.322 127.417 889.966 127.884C892.61 128.35 894.359 130.964 893.872 133.722C893.386 136.481 890.848 138.339 888.204 137.873Z" fill="url(#paint9_linear)"/>
<path d="M881.169 135.049C880.056 134.853 879.315 133.777 879.515 132.645C879.714 131.513 880.778 130.755 881.892 130.951C883.005 131.148 883.745 132.224 883.546 133.356C883.346 134.487 882.282 135.246 881.169 135.049Z" fill="url(#paint10_linear)"/>
<path d="M879.72 136.642C878.954 136.507 878.455 135.709 878.605 134.861C878.755 134.012 879.496 133.433 880.262 133.568C881.027 133.703 881.526 134.501 881.376 135.349C881.227 136.198 880.485 136.777 879.72 136.642Z" fill="url(#paint11_linear)"/>
<path d="M562.717 244.481C565.382 244.481 567.543 228.062 567.543 207.809C567.543 187.555 565.382 171.137 562.717 171.137C560.051 171.137 557.891 187.555 557.891 207.809C557.891 228.062 560.051 244.481 562.717 244.481Z" fill="#279B37"/>
<path d="M579.448 244.481C581.048 244.481 582.344 234.4 582.344 221.963C582.344 209.527 581.048 199.445 579.448 199.445C577.849 199.445 576.553 209.527 576.553 221.963C576.553 234.4 577.849 244.481 579.448 244.481Z" fill="#279B37"/>
<path d="M563.682 243.838H561.752V250.915H563.682V243.838Z" fill="#279B37"/>
<path d="M579.768 243.838H579.125V250.915H579.768V243.838Z" fill="#279B37"/>
<path d="M897.324 247.055C894.659 247.055 892.498 230.637 892.498 210.383C892.498 190.13 894.659 173.711 897.324 173.711C899.99 173.711 902.15 190.13 902.15 210.383C902.15 230.637 899.99 247.055 897.324 247.055Z" fill="#279B37"/>
<path d="M880.593 247.056C878.993 247.056 877.697 236.974 877.697 224.538C877.697 212.101 878.993 202.02 880.593 202.02C882.192 202.02 883.488 212.101 883.488 224.538C883.488 236.974 882.192 247.056 880.593 247.056Z" fill="#279B37"/>
<path d="M896.359 246.412H898.289V253.489H896.359V246.412Z" fill="#279B37"/>
<path d="M880.271 246.412H880.916V253.489H880.271V246.412Z" fill="#279B37"/>
<path d="M742.39 243.838C744.424 243.838 746.073 231.163 746.073 215.529C746.073 199.895 744.424 187.221 742.39 187.221C740.356 187.221 738.707 199.895 738.707 215.529C738.707 231.163 740.356 243.838 742.39 243.838Z" fill="#279B37"/>
<path d="M755.157 243.837C756.377 243.837 757.367 236.055 757.367 226.455C757.367 216.855 756.377 209.072 755.157 209.072C753.937 209.072 752.947 216.855 752.947 226.455C752.947 236.055 753.937 243.837 755.157 243.837Z" fill="#279B37"/>
<path d="M743.213 243.193H741.926V248.984H743.213V243.193Z" fill="#279B37"/>
<path d="M755.438 243.193H754.795V248.984H755.438V243.193Z" fill="#279B37"/>
<path opacity="0.234166" fill-rule="evenodd" clip-rule="evenodd" d="M748.359 225.18L753.743 135.387V217.46L748.359 225.18Z" fill="#9013FE"/>
<path fill-rule="evenodd" clip-rule="evenodd" d="M540.503 73.1903C544.161 72.1066 549.727 71.4148 555.961 71.4148C566.978 71.4148 575.909 73.5751 575.909 76.2401C575.909 78.905 566.978 81.0654 555.961 81.0654C554.157 81.0654 552.409 81.0074 550.746 80.8988C550.791 81.059 550.814 81.2219 550.814 81.387C550.814 83.6967 546.348 85.569 540.84 85.569C537.442 85.569 534.44 84.8564 532.64 83.7682C525.259 87.982 513.378 90.7159 499.979 90.7159C487.736 90.7159 476.76 88.4333 469.327 84.8247C466.255 85.301 462.788 85.569 459.119 85.569C446.503 85.569 436.275 82.4004 436.275 78.4919C436.275 74.5833 446.503 71.4148 459.119 71.4148C459.343 71.4148 459.567 71.4158 459.79 71.4178C462.407 63.0645 479.403 56.6172 499.979 56.6172C521.99 56.6172 539.903 63.9944 540.503 73.1903Z" fill="white"/>
<path fill-rule="evenodd" clip-rule="evenodd" d="M1087.49 56.4617C1083.83 55.3781 1078.26 54.6862 1072.03 54.6862C1061.01 54.6862 1052.08 56.8466 1052.08 59.5115C1052.08 62.1765 1061.01 64.3368 1072.03 64.3368C1073.83 64.3368 1075.58 64.2789 1077.24 64.1703C1077.2 64.3304 1077.17 64.4934 1077.17 64.6585C1077.17 66.9681 1081.64 68.8405 1087.15 68.8405C1090.55 68.8405 1093.55 68.1279 1095.35 67.0397C1102.73 71.2535 1114.61 73.9874 1128.01 73.9874C1140.25 73.9874 1151.23 71.7048 1158.66 68.0962C1161.73 68.5725 1165.2 68.8405 1168.87 68.8405C1181.49 68.8405 1191.71 65.6719 1191.71 61.7633C1191.71 57.8548 1181.49 54.6862 1168.87 54.6862C1168.65 54.6862 1168.42 54.6873 1168.2 54.6892C1165.58 46.336 1148.59 39.8887 1128.01 39.8887C1106 39.8887 1088.09 47.2659 1087.49 56.4617Z" fill="white"/>
<path fill-rule="evenodd" clip-rule="evenodd" d="M1256.06 111.121C1254.9 110.836 1253.31 110.661 1251.56 110.661C1248 110.661 1245.12 111.381 1245.12 112.269C1245.12 113.157 1248 113.878 1251.56 113.878C1252.12 113.878 1252.68 113.859 1253.2 113.825C1253.74 114.238 1254.82 114.521 1256.06 114.521C1256.98 114.521 1257.8 114.368 1258.39 114.121C1260.72 115.53 1264.57 116.451 1268.93 116.451C1272.53 116.451 1275.79 115.822 1278.13 114.808C1279.28 115.034 1280.65 115.164 1282.12 115.164C1286.21 115.164 1289.52 114.156 1289.52 112.912C1289.52 111.669 1286.21 110.661 1282.12 110.661C1282.01 110.661 1281.89 110.661 1281.78 110.663C1281.39 107.791 1275.79 105.514 1268.93 105.514C1261.82 105.514 1256.06 107.962 1256.06 110.982C1256.06 111.029 1256.06 111.075 1256.06 111.121Z" fill="white"/>
<defs>
<linearGradient id="paint0_linear" x1="818.113" y1="44.0793" x2="815.013" y2="267.5" gradientUnits="userSpaceOnUse">
<stop stop-color="white"/>
<stop offset="1" stop-color="#6E9E3D"/>
</linearGradient>
<linearGradient id="paint1_linear" x1="768.684" y1="241.264" x2="780.038" y2="241.264" gradientUnits="userSpaceOnUse">
<stop stop-color="white" stop-opacity="0"/>
<stop offset="1" stop-color="white" stop-opacity="0.192227"/>
</linearGradient>
<linearGradient id="paint2_linear" x1="789.225" y1="235.797" x2="805.405" y2="235.797" gradientUnits="userSpaceOnUse">
<stop stop-color="white" stop-opacity="0"/>
<stop offset="1" stop-color="white" stop-opacity="0.192227"/>
</linearGradient>
<linearGradient id="paint3_linear" x1="821.041" y1="240.623" x2="827.853" y2="240.623" gradientUnits="userSpaceOnUse">
<stop stop-color="white" stop-opacity="0"/>
<stop offset="1" stop-color="white" stop-opacity="0.192227"/>
</linearGradient>
<linearGradient id="paint4_linear" x1="826.172" y1="249.951" x2="830.997" y2="249.951" gradientUnits="userSpaceOnUse">
<stop stop-color="white" stop-opacity="0"/>
<stop offset="1" stop-color="white" stop-opacity="0.192227"/>
</linearGradient>
<linearGradient id="paint5_linear" x1="529.05" y1="242.23" x2="521.386" y2="242.23" gradientUnits="userSpaceOnUse">
<stop stop-color="white" stop-opacity="0"/>
<stop offset="1" stop-color="white" stop-opacity="0.192227"/>
</linearGradient>
<linearGradient id="paint6_linear" x1="515.42" y1="238.37" x2="504.634" y2="238.37" gradientUnits="userSpaceOnUse">
<stop stop-color="white" stop-opacity="0"/>
<stop offset="1" stop-color="white" stop-opacity="0.192227"/>
</linearGradient>
<linearGradient id="paint7_linear" x1="493.781" y1="241.909" x2="489.24" y2="241.909" gradientUnits="userSpaceOnUse">
<stop stop-color="white" stop-opacity="0"/>
<stop offset="1" stop-color="white" stop-opacity="0.192227"/>
</linearGradient>
<linearGradient id="paint8_linear" x1="896.166" y1="135.711" x2="893.166" y2="135.182" gradientUnits="userSpaceOnUse">
<stop stop-color="white" stop-opacity="0"/>
<stop offset="1" stop-color="white" stop-opacity="0.192227"/>
</linearGradient>
<linearGradient id="paint9_linear" x1="891.099" y1="133.233" x2="886.876" y2="132.489" gradientUnits="userSpaceOnUse">
<stop stop-color="white" stop-opacity="0"/>
<stop offset="1" stop-color="white" stop-opacity="0.192227"/>
</linearGradient>
<linearGradient id="paint10_linear" x1="882.378" y1="133.15" x2="880.6" y2="132.836" gradientUnits="userSpaceOnUse">
<stop stop-color="white" stop-opacity="0"/>
<stop offset="1" stop-color="white" stop-opacity="0.192227"/>
</linearGradient>
<linearGradient id="paint11_linear" x1="880.574" y1="135.208" x2="879.351" y2="134.992" gradientUnits="userSpaceOnUse">
<stop stop-color="white" stop-opacity="0"/>
<stop offset="1" stop-color="white" stop-opacity="0.192227"/>
</linearGradient>
</defs>
</svg>
