<svg width="199" height="200" viewBox="0 0 199 200" fill="none" xmlns="http://www.w3.org/2000/svg">
<rect width="198.219" height="199.133" rx="10" fill="white"/>
<path d="M72.72 122.355V136.355H70.12V124.535H67.16V122.355H72.72ZM81.3372 136.555C80.2172 136.555 79.2172 136.275 78.3372 135.715C77.4572 135.141 76.7639 134.315 76.2572 133.235C75.7505 132.141 75.4972 130.848 75.4972 129.355C75.4972 127.861 75.7505 126.575 76.2572 125.495C76.7639 124.401 77.4572 123.575 78.3372 123.015C79.2172 122.441 80.2172 122.155 81.3372 122.155C82.4572 122.155 83.4572 122.441 84.3372 123.015C85.2305 123.575 85.9305 124.401 86.4372 125.495C86.9439 126.575 87.1972 127.861 87.1972 129.355C87.1972 130.848 86.9439 132.141 86.4372 133.235C85.9305 134.315 85.2305 135.141 84.3372 135.715C83.4572 136.275 82.4572 136.555 81.3372 136.555ZM81.3372 134.295C82.3372 134.295 83.1239 133.881 83.6972 133.055C84.2839 132.228 84.5772 130.995 84.5772 129.355C84.5772 127.715 84.2839 126.481 83.6972 125.655C83.1239 124.828 82.3372 124.415 81.3372 124.415C80.3505 124.415 79.5639 124.828 78.9772 125.655C78.4039 126.481 78.1172 127.715 78.1172 129.355C78.1172 130.995 78.4039 132.228 78.9772 133.055C79.5639 133.881 80.3505 134.295 81.3372 134.295ZM94.7942 136.555C93.6742 136.555 92.6742 136.275 91.7942 135.715C90.9142 135.141 90.2209 134.315 89.7142 133.235C89.2076 132.141 88.9542 130.848 88.9542 129.355C88.9542 127.861 89.2076 126.575 89.7142 125.495C90.2209 124.401 90.9142 123.575 91.7942 123.015C92.6742 122.441 93.6742 122.155 94.7942 122.155C95.9142 122.155 96.9142 122.441 97.7942 123.015C98.6876 123.575 99.3876 124.401 99.8942 125.495C100.401 126.575 100.654 127.861 100.654 129.355C100.654 130.848 100.401 132.141 99.8942 133.235C99.3876 134.315 98.6876 135.141 97.7942 135.715C96.9142 136.275 95.9142 136.555 94.7942 136.555ZM94.7942 134.295C95.7942 134.295 96.5809 133.881 97.1542 133.055C97.7409 132.228 98.0342 130.995 98.0342 129.355C98.0342 127.715 97.7409 126.481 97.1542 125.655C96.5809 124.828 95.7942 124.415 94.7942 124.415C93.8076 124.415 93.0209 124.828 92.4342 125.655C91.8609 126.481 91.5742 127.715 91.5742 129.355C91.5742 130.995 91.8609 132.228 92.4342 133.055C93.0209 133.881 93.8076 134.295 94.7942 134.295ZM112.149 130.355H108.609V133.855H106.469V130.355H102.929V128.355H106.469V124.855H108.609V128.355H112.149V130.355Z" fill="#36A93F"/>
<path d="M61.04 176.547L58.18 172.447C58.06 172.46 57.88 172.467 57.64 172.467H54.48V176.547H51.88V162.547H57.64C58.8533 162.547 59.9067 162.747 60.8 163.147C61.7067 163.547 62.4 164.12 62.88 164.867C63.36 165.613 63.6 166.5 63.6 167.527C63.6 168.58 63.34 169.487 62.82 170.247C62.3133 171.007 61.58 171.573 60.62 171.947L63.84 176.547H61.04ZM60.98 167.527C60.98 166.633 60.6867 165.947 60.1 165.467C59.5133 164.987 58.6533 164.747 57.52 164.747H54.48V170.327H57.52C58.6533 170.327 59.5133 170.087 60.1 169.607C60.6867 169.113 60.98 168.42 60.98 167.527ZM76.3089 171.267C76.3089 171.44 76.2956 171.687 76.2689 172.007H67.8889C68.0356 172.793 68.4156 173.42 69.0289 173.887C69.6556 174.34 70.4289 174.567 71.3489 174.567C72.5222 174.567 73.4889 174.18 74.2489 173.407L75.5889 174.947C75.1089 175.52 74.5022 175.953 73.7689 176.247C73.0356 176.54 72.2089 176.687 71.2889 176.687C70.1156 176.687 69.0822 176.453 68.1889 175.987C67.2956 175.52 66.6022 174.873 66.1089 174.047C65.6289 173.207 65.3889 172.26 65.3889 171.207C65.3889 170.167 65.6222 169.233 66.0889 168.407C66.5689 167.567 67.2289 166.913 68.0689 166.447C68.9089 165.98 69.8556 165.747 70.9089 165.747C71.9489 165.747 72.8756 165.98 73.6889 166.447C74.5156 166.9 75.1556 167.547 75.6089 168.387C76.0756 169.213 76.3089 170.173 76.3089 171.267ZM70.9089 167.747C70.1089 167.747 69.4289 167.987 68.8689 168.467C68.3222 168.933 67.9889 169.56 67.8689 170.347H73.9289C73.8222 169.573 73.4956 168.947 72.9489 168.467C72.4022 167.987 71.7222 167.747 70.9089 167.747ZM88.515 165.867L83.935 176.547H81.355L76.775 165.867H79.375L82.695 173.787L86.115 165.867H88.515ZM90.0775 165.867H92.5775V176.547H90.0775V165.867ZM91.3375 164.107C90.8842 164.107 90.5042 163.967 90.1975 163.687C89.8908 163.393 89.7375 163.033 89.7375 162.607C89.7375 162.18 89.8908 161.827 90.1975 161.547C90.5042 161.253 90.8842 161.107 91.3375 161.107C91.7908 161.107 92.1708 161.247 92.4775 161.527C92.7842 161.793 92.9375 162.133 92.9375 162.547C92.9375 162.987 92.7842 163.36 92.4775 163.667C92.1842 163.96 91.8042 164.107 91.3375 164.107ZM105.899 171.267C105.899 171.44 105.885 171.687 105.859 172.007H97.4788C97.6254 172.793 98.0054 173.42 98.6188 173.887C99.2454 174.34 100.019 174.567 100.939 174.567C102.112 174.567 103.079 174.18 103.839 173.407L105.179 174.947C104.699 175.52 104.092 175.953 103.359 176.247C102.625 176.54 101.799 176.687 100.879 176.687C99.7054 176.687 98.6721 176.453 97.7788 175.987C96.8854 175.52 96.1921 174.873 95.6988 174.047C95.2188 173.207 94.9788 172.26 94.9788 171.207C94.9788 170.167 95.2121 169.233 95.6788 168.407C96.1588 167.567 96.8188 166.913 97.6588 166.447C98.4988 165.98 99.4454 165.747 100.499 165.747C101.539 165.747 102.465 165.98 103.279 166.447C104.105 166.9 104.745 167.547 105.199 168.387C105.665 169.213 105.899 170.173 105.899 171.267ZM100.499 167.747C99.6988 167.747 99.0188 167.987 98.4588 168.467C97.9121 168.933 97.5788 169.56 97.4588 170.347H103.519C103.412 169.573 103.085 168.947 102.539 168.467C101.992 167.987 101.312 167.747 100.499 167.747ZM124.765 165.867L120.825 176.547H118.425L115.665 169.187L112.865 176.547H110.465L106.545 165.867H108.905L111.725 173.747L114.665 165.867H116.765L119.645 173.787L122.545 165.867H124.765ZM129.647 176.687C128.78 176.687 127.934 176.573 127.107 176.347C126.28 176.12 125.62 175.833 125.127 175.487L126.087 173.587C126.567 173.907 127.14 174.167 127.807 174.367C128.487 174.553 129.154 174.647 129.807 174.647C131.3 174.647 132.047 174.253 132.047 173.467C132.047 173.093 131.854 172.833 131.467 172.687C131.094 172.54 130.487 172.4 129.647 172.267C128.767 172.133 128.047 171.98 127.487 171.807C126.94 171.633 126.46 171.333 126.047 170.907C125.647 170.467 125.447 169.86 125.447 169.087C125.447 168.073 125.867 167.267 126.707 166.667C127.56 166.053 128.707 165.747 130.147 165.747C130.88 165.747 131.614 165.833 132.347 166.007C133.08 166.167 133.68 166.387 134.147 166.667L133.187 168.567C132.28 168.033 131.26 167.767 130.127 167.767C129.394 167.767 128.834 167.88 128.447 168.107C128.074 168.32 127.887 168.607 127.887 168.967C127.887 169.367 128.087 169.653 128.487 169.827C128.9 169.987 129.534 170.14 130.387 170.287C131.24 170.42 131.94 170.573 132.487 170.747C133.034 170.92 133.5 171.213 133.887 171.627C134.287 172.04 134.487 172.627 134.487 173.387C134.487 174.387 134.054 175.187 133.187 175.787C132.32 176.387 131.14 176.687 129.647 176.687Z" fill="#36A93F"/>
<path d="M75.1036 16.4555C74.8443 16.4386 74.5868 16.5111 74.3693 16.6622C74.1519 16.8133 73.9862 17.0349 73.8967 17.2941L71.9008 23.0163L66.1916 23.3123C65.9383 23.3157 65.6924 23.4037 65.4888 23.5639C65.2852 23.7241 65.1342 23.9483 65.0571 24.2048C64.9801 24.4613 64.981 24.7371 65.0596 24.993C65.1383 25.249 65.2908 25.4721 65.4954 25.6308L70.137 29.4785L68.466 35.3487C68.3768 35.6759 68.4088 36.0269 68.5556 36.3297C68.7024 36.6324 68.9527 36.864 69.2551 36.9766C69.5694 37.1014 69.9156 37.1014 70.2299 36.9766L74.8715 33.6222L79.5131 36.9766C79.645 37.0748 79.7946 37.1426 79.9526 37.176C80.1105 37.2093 80.2732 37.2073 80.4303 37.1702C80.5875 37.1331 80.7357 37.0617 80.8654 36.9604C80.9952 36.8591 81.1037 36.7302 81.1841 36.582C81.2975 36.2472 81.2975 35.8809 81.1841 35.5461L80.2093 29.4785L84.851 25.6308C85.0556 25.4721 85.2081 25.249 85.2867 24.993C85.3654 24.7371 85.3663 24.4613 85.2892 24.2048C85.2122 23.9483 85.0612 23.7241 84.8576 23.5639C84.6539 23.4037 84.408 23.3157 84.1547 23.3123L78.2599 23.0163L76.2175 17.2941C76.1391 17.0471 75.989 16.833 75.7889 16.6823C75.5887 16.5316 75.3488 16.4522 75.1036 16.4555ZM99.2864 16.4555C99.059 16.4782 98.8423 16.5691 98.6615 16.7176C98.4807 16.866 98.3433 17.0659 98.2652 17.2941L96.0837 23.0163L90.3745 23.3123C90.1212 23.3157 89.8753 23.4037 89.6716 23.5639C89.468 23.7241 89.317 23.9483 89.24 24.2048C89.1629 24.4613 89.1638 24.7371 89.2425 24.993C89.3212 25.249 89.4736 25.4721 89.6782 25.6308L94.3199 29.4785L92.4632 35.3487C92.3762 35.6823 92.4147 36.0387 92.5706 36.3426C92.7266 36.6464 92.9877 36.8738 93.2987 36.9766C93.6259 37.1192 93.9927 37.1192 94.3199 36.9766L98.9615 33.6222L103.603 36.9766C103.735 37.0748 103.885 37.1426 104.043 37.176C104.2 37.2093 104.363 37.2073 104.52 37.1702C104.678 37.1331 104.826 37.0617 104.955 36.9604C105.085 36.8591 105.194 36.7302 105.274 36.582C105.342 36.4188 105.377 36.2424 105.377 36.064C105.377 35.8857 105.342 35.7092 105.274 35.5461L104.392 29.4785L109.034 25.6308C109.238 25.4721 109.391 25.249 109.47 24.993C109.548 24.7371 109.549 24.4613 109.472 24.2048C109.395 23.9483 109.244 23.7241 109.04 23.5639C108.837 23.4037 108.591 23.3157 108.338 23.3123L102.443 23.0163L100.4 17.2941C100.322 17.0471 100.172 16.833 99.9717 16.6823C99.7716 16.5316 99.5317 16.4522 99.2864 16.4555ZM123.469 16.4555C123.242 16.4782 123.025 16.5691 122.844 16.7176C122.664 16.866 122.526 17.0659 122.448 17.2941L120.313 23.0163L114.604 23.3123C114.35 23.3157 114.105 23.4037 113.901 23.5639C113.697 23.7241 113.546 23.9483 113.469 24.2048C113.392 24.4613 113.393 24.7371 113.472 24.993C113.55 25.249 113.703 25.4721 113.908 25.6308L118.549 29.4785L117.064 35.3487C116.977 35.6823 117.015 36.0387 117.171 36.3426C117.327 36.6464 117.588 36.8738 117.899 36.9766C118.226 37.1192 118.593 37.1192 118.92 36.9766L123.562 33.6222L128.204 36.9766C128.336 37.0748 128.485 37.1426 128.643 37.176C128.801 37.2093 128.964 37.2073 129.121 37.1702C129.278 37.1331 129.426 37.0617 129.556 36.9604C129.686 36.8591 129.794 36.7302 129.875 36.582C129.942 36.4188 129.977 36.2424 129.977 36.064C129.977 35.8857 129.942 35.7092 129.875 35.5461L128.575 29.4785L133.217 25.6308C133.421 25.4721 133.574 25.249 133.652 24.993C133.731 24.7371 133.732 24.4613 133.655 24.2048C133.578 23.9483 133.427 23.7241 133.223 23.5639C133.02 23.4037 132.774 23.3157 132.52 23.3123L126.811 23.0163L124.815 17.2941C124.713 17.0132 124.525 16.7773 124.28 16.625C124.036 16.4727 123.75 16.413 123.469 16.4555ZM75.1036 21.3885L76.264 24.6935C76.3453 24.9289 76.4898 25.1338 76.6795 25.2829C76.8692 25.4319 77.0959 25.5186 77.3315 25.5322H80.6271L78.0742 27.7027C77.8815 27.8612 77.7385 28.0779 77.6639 28.3245C77.5893 28.571 77.5867 28.8357 77.6565 29.0839L78.5384 32.7343L75.7534 30.9584C75.5473 30.8375 75.3158 30.7741 75.0804 30.7741C74.845 30.7741 74.6134 30.8375 74.4073 30.9584L71.6688 32.9316L72.5507 29.5279C72.609 29.2746 72.5961 29.0087 72.5136 28.7632C72.4311 28.5177 72.2826 28.3033 72.0865 28.1466L69.5336 26.0254H72.8292C73.1288 26.0002 73.4074 25.8524 73.6066 25.6132C73.8057 25.374 73.9097 25.062 73.8967 24.7429L75.1036 21.3885ZM99.2864 21.3885L100.447 24.6935C100.532 24.9797 100.708 25.2253 100.945 25.3875C101.183 25.5498 101.466 25.6184 101.746 25.5815H105.042L102.489 27.752C102.205 27.8735 101.973 28.101 101.836 28.3918C101.7 28.6825 101.668 29.0164 101.746 29.3305L102.582 32.7343L99.9362 30.9584C99.7302 30.8375 99.4986 30.7741 99.2632 30.7741C99.0278 30.7741 98.7962 30.8375 98.5902 30.9584L95.8516 32.9316L96.7335 29.5279C96.7861 29.279 96.7751 29.0196 96.7016 28.7768C96.6282 28.5339 96.4949 28.3164 96.3158 28.1466L93.7165 26.0254H97.012C97.2541 26.0151 97.4882 25.9303 97.6859 25.7815C97.8836 25.6327 98.0365 25.4261 98.126 25.1868L99.2864 21.3885ZM123.469 21.3885L124.63 24.6935C124.716 24.9255 124.862 25.1272 125.05 25.2754C125.239 25.4237 125.463 25.5126 125.697 25.5322H128.993L126.44 27.7027C126.252 27.8653 126.113 28.0824 126.039 28.3275C125.964 28.5727 125.959 28.8354 126.022 29.0839L126.904 32.4876L124.119 30.5144C123.913 30.3935 123.681 30.3301 123.446 30.3301C123.211 30.3301 122.979 30.3935 122.773 30.5144L120.034 32.4876L120.916 29.0839C120.908 28.8575 120.848 28.6366 120.743 28.4393C120.638 28.2421 120.491 28.0741 120.313 27.9493L117.899 26.0254H121.195C121.437 26.0151 121.671 25.9303 121.869 25.7815C122.066 25.6327 122.219 25.4261 122.309 25.1868L123.469 21.3885ZM100.493 44.1294C99.958 44.0052 99.4039 44.0052 98.8687 44.1294C98.2906 44.3491 97.8005 44.7721 97.4797 45.3284C97.1589 45.8847 97.0267 46.5407 97.1048 47.1879C97.4045 51.2094 96.5982 55.2368 94.784 58.7803C94.0287 60.3466 92.9381 61.7025 91.5998 62.7392C90.2616 63.7759 88.7131 64.4644 87.0789 64.7492C86.7836 64.7857 86.5113 64.9367 86.3143 65.1734C86.1172 65.4101 86.0094 65.7158 86.0114 66.0318V88.2301C86.0048 88.4004 86.0316 88.5703 86.0899 88.7291C86.1482 88.8878 86.2369 89.032 86.3503 89.1525C86.4637 89.273 86.5993 89.3673 86.7487 89.4293C86.8981 89.4912 87.058 89.5197 87.2182 89.5127H118.92C119.836 89.5668 120.736 89.2344 121.422 88.5877C122.109 87.9411 122.528 87.0326 122.587 86.0596V83.8891C122.618 83.594 122.618 83.2963 122.587 83.0012C123.045 83.0347 123.504 82.9718 123.938 82.8162C124.373 82.6607 124.774 82.4154 125.119 82.0945C125.464 81.7737 125.746 81.3836 125.949 80.9466C126.152 80.5096 126.271 80.0343 126.301 79.5481V77.3776C126.311 76.974 126.242 76.5726 126.098 76.199C125.954 75.8253 125.738 75.4875 125.465 75.2071C125.998 74.6065 126.297 73.813 126.301 72.9873V70.8168C126.312 70.012 126.029 69.2339 125.512 68.6463C126.029 68.0587 126.312 67.2806 126.301 66.4758V64.3053C126.277 63.8148 126.162 63.3342 125.962 62.8915C125.761 62.4488 125.48 62.0529 125.135 61.7269C124.789 61.4009 124.386 61.1513 123.948 60.9926C123.511 60.834 123.048 60.7695 122.587 60.8028H106.62V51.6769C106.67 50.1134 106.245 48.5745 105.41 47.2867C104.574 45.999 103.371 45.0305 101.979 44.5241C101.503 44.3186 101.003 44.1858 100.493 44.1294ZM100.493 46.7439C100.817 46.7075 101.144 46.7075 101.468 46.7439C102.377 47.1373 103.145 47.8267 103.662 48.713C104.179 49.5993 104.418 50.6369 104.346 51.6769V62.1348C104.339 62.305 104.366 62.4749 104.424 62.6337C104.483 62.7924 104.571 62.9366 104.685 63.0571C104.798 63.1777 104.934 63.2719 105.083 63.3339C105.233 63.3959 105.392 63.4243 105.553 63.4173H122.727C123.562 63.4173 123.98 63.9599 123.98 64.3053V66.4758C123.98 66.8704 123.562 67.3637 122.727 67.3637H116.46C116.175 67.4229 115.918 67.5856 115.733 67.8241C115.548 68.0626 115.447 68.362 115.447 68.6709C115.447 68.9799 115.548 69.2792 115.733 69.5177C115.918 69.7562 116.175 69.919 116.46 69.9782H122.587C123.423 69.9782 123.841 70.4715 123.841 70.8168V72.9873C123.841 73.3819 123.423 73.8752 122.587 73.8752H116.46C116.175 73.9344 115.918 74.0972 115.733 74.3356C115.548 74.5741 115.447 74.8735 115.447 75.1824C115.447 75.4914 115.548 75.7908 115.733 76.0292C115.918 76.2677 116.175 76.4305 116.46 76.4897H122.587C123.423 76.4897 123.841 76.983 123.841 77.3776V79.5481C123.841 79.8934 123.423 80.3867 122.587 80.3867H115.254C115.072 80.3491 114.885 80.3546 114.706 80.4028C114.526 80.4511 114.359 80.5409 114.217 80.6659C114.074 80.7909 113.959 80.9478 113.88 81.1256C113.801 81.3033 113.76 81.4974 113.76 81.694C113.76 81.8905 113.801 82.0846 113.88 82.2623C113.959 82.4401 114.074 82.597 114.217 82.722C114.359 82.847 114.526 82.9368 114.706 82.9851C114.885 83.0333 115.072 83.0388 115.254 83.0012H118.92C119.71 83.0012 120.174 83.4945 120.174 83.8891V86.0596C120.174 86.4049 119.71 86.9476 118.92 86.9476H88.2393V67.2157C90.0208 66.6872 91.6853 65.7869 93.1357 64.5673C94.5862 63.3477 95.7934 61.8332 96.6871 60.1122C98.7678 56.1832 99.6896 51.6804 99.3328 47.1879C99.3328 47.1879 99.3328 46.8919 99.6113 46.7932C99.853 46.7223 100.106 46.7055 100.354 46.7439H100.493ZM73.479 64.7492C73.1589 64.7492 72.852 64.8843 72.6256 65.1249C72.3993 65.3654 72.2722 65.6916 72.2722 66.0318V88.2301C72.2656 88.4004 72.2924 88.5703 72.3507 88.7291C72.409 88.8878 72.4977 89.032 72.6111 89.1525C72.7245 89.273 72.8601 89.3673 73.0095 89.4293C73.1589 89.4912 73.3188 89.5197 73.479 89.5127H82.066C82.2184 89.5064 82.3682 89.4681 82.5067 89.4002C82.6452 89.3323 82.7697 89.236 82.8732 89.1169C82.9767 88.9978 83.057 88.8581 83.1097 88.706C83.1623 88.5538 83.1862 88.3921 83.18 88.2301V66.0318C83.168 65.6872 83.0306 65.3609 82.7969 65.1217C82.5632 64.8825 82.2512 64.749 81.9267 64.7492H73.479ZM74.7322 67.3637H80.8592V87.0956H74.7322V67.3637Z" fill="#36A93F"/>
</svg>
