<svg width="199" height="200" viewBox="0 0 199 200" fill="none" xmlns="http://www.w3.org/2000/svg">
<rect width="198.219" height="199.133" rx="10" fill="white"/>
<path d="M85.529 124.121C87.5024 124.121 88.9624 124.508 89.909 125.281C90.8557 126.041 91.329 127.081 91.329 128.401C91.329 129.241 91.1224 130.001 90.709 130.681C90.2957 131.361 89.6757 131.901 88.849 132.301C88.0224 132.701 87.0024 132.901 85.789 132.901C84.789 132.901 83.8224 132.761 82.889 132.481C81.9557 132.188 81.169 131.788 80.529 131.281L81.629 129.261C82.149 129.688 82.769 130.028 83.489 130.281C84.2224 130.521 84.9757 130.641 85.749 130.641C86.669 130.641 87.389 130.454 87.909 130.081C88.4424 129.694 88.709 129.168 88.709 128.501C88.709 127.781 88.4224 127.241 87.849 126.881C87.289 126.508 86.3224 126.321 84.949 126.321H81.569L82.289 118.701H90.509V120.881H84.489L84.189 124.121H85.529ZM98.6687 132.901C97.5487 132.901 96.5487 132.621 95.6687 132.061C94.7887 131.488 94.0954 130.661 93.5887 129.581C93.0821 128.488 92.8287 127.194 92.8287 125.701C92.8287 124.208 93.0821 122.921 93.5887 121.841C94.0954 120.748 94.7887 119.921 95.6687 119.361C96.5487 118.788 97.5487 118.501 98.6687 118.501C99.7887 118.501 100.789 118.788 101.669 119.361C102.562 119.921 103.262 120.748 103.769 121.841C104.275 122.921 104.529 124.208 104.529 125.701C104.529 127.194 104.275 128.488 103.769 129.581C103.262 130.661 102.562 131.488 101.669 132.061C100.789 132.621 99.7887 132.901 98.6687 132.901ZM98.6687 130.641C99.6687 130.641 100.455 130.228 101.029 129.401C101.615 128.574 101.909 127.341 101.909 125.701C101.909 124.061 101.615 122.828 101.029 122.001C100.455 121.174 99.6687 120.761 98.6687 120.761C97.6821 120.761 96.8954 121.174 96.3087 122.001C95.7354 122.828 95.4487 124.061 95.4487 125.701C95.4487 127.341 95.7354 128.574 96.3087 129.401C96.8954 130.228 97.6821 130.641 98.6687 130.641Z" fill="#36A93F"/>
<path d="M66.48 161.073V165.333H73.24V167.533H66.48V172.893H63.88V158.893H74.1V161.073H66.48ZM80.1223 162.093C81.6957 162.093 82.8957 162.473 83.7223 163.233C84.5623 163.979 84.9823 165.113 84.9823 166.633V172.893H82.6223V171.593C82.3157 172.059 81.8757 172.419 81.3023 172.673C80.7423 172.913 80.0623 173.033 79.2623 173.033C78.4623 173.033 77.7623 172.899 77.1623 172.633C76.5623 172.353 76.0957 171.973 75.7623 171.493C75.4423 170.999 75.2823 170.446 75.2823 169.833C75.2823 168.873 75.6357 168.106 76.3423 167.533C77.0623 166.946 78.189 166.653 79.7223 166.653H82.4823V166.493C82.4823 165.746 82.2557 165.173 81.8023 164.773C81.3623 164.373 80.7023 164.173 79.8223 164.173C79.2223 164.173 78.629 164.266 78.0423 164.453C77.469 164.639 76.9823 164.899 76.5823 165.233L75.6023 163.413C76.1623 162.986 76.8357 162.659 77.6223 162.433C78.409 162.206 79.2423 162.093 80.1223 162.093ZM79.7823 171.213C80.409 171.213 80.9623 171.073 81.4423 170.793C81.9357 170.499 82.2823 170.086 82.4823 169.553V168.313H79.9023C78.4623 168.313 77.7423 168.786 77.7423 169.733C77.7423 170.186 77.9223 170.546 78.2823 170.813C78.6423 171.079 79.1423 171.213 79.7823 171.213ZM90.5708 163.773C91.2908 162.653 92.5574 162.093 94.3708 162.093V164.473C94.1574 164.433 93.9641 164.413 93.7908 164.413C92.8174 164.413 92.0574 164.699 91.5108 165.273C90.9641 165.833 90.6908 166.646 90.6908 167.713V172.893H88.1908V162.213H90.5708V163.773ZM109.972 162.093C111.318 162.093 112.385 162.486 113.172 163.273C113.958 164.046 114.352 165.213 114.352 166.773V172.893H111.852V167.093C111.852 166.159 111.645 165.459 111.232 164.993C110.818 164.513 110.225 164.273 109.452 164.273C108.612 164.273 107.938 164.553 107.432 165.113C106.925 165.659 106.672 166.446 106.672 167.473V172.893H104.172V167.093C104.172 166.159 103.965 165.459 103.552 164.993C103.138 164.513 102.545 164.273 101.772 164.273C100.918 164.273 100.238 164.546 99.7316 165.093C99.2382 165.639 98.9916 166.433 98.9916 167.473V172.893H96.4916V162.213H98.8716V163.573C99.2716 163.093 99.7716 162.726 100.372 162.473C100.972 162.219 101.638 162.093 102.372 162.093C103.172 162.093 103.878 162.246 104.492 162.553C105.118 162.846 105.612 163.286 105.972 163.873C106.412 163.313 106.978 162.879 107.672 162.573C108.365 162.253 109.132 162.093 109.972 162.093ZM120.846 173.033C119.98 173.033 119.133 172.919 118.306 172.693C117.48 172.466 116.82 172.179 116.326 171.833L117.286 169.933C117.766 170.253 118.34 170.513 119.006 170.713C119.686 170.899 120.353 170.993 121.006 170.993C122.5 170.993 123.246 170.599 123.246 169.813C123.246 169.439 123.053 169.179 122.666 169.033C122.293 168.886 121.686 168.746 120.846 168.613C119.966 168.479 119.246 168.326 118.686 168.153C118.14 167.979 117.66 167.679 117.246 167.253C116.846 166.813 116.646 166.206 116.646 165.433C116.646 164.419 117.066 163.613 117.906 163.013C118.76 162.399 119.906 162.093 121.346 162.093C122.08 162.093 122.813 162.179 123.546 162.353C124.28 162.513 124.88 162.733 125.346 163.013L124.386 164.913C123.48 164.379 122.46 164.113 121.326 164.113C120.593 164.113 120.033 164.226 119.646 164.453C119.273 164.666 119.086 164.953 119.086 165.313C119.086 165.713 119.286 165.999 119.686 166.173C120.1 166.333 120.733 166.486 121.586 166.633C122.44 166.766 123.14 166.919 123.686 167.093C124.233 167.266 124.7 167.559 125.086 167.973C125.486 168.386 125.686 168.973 125.686 169.733C125.686 170.733 125.253 171.533 124.386 172.133C123.52 172.733 122.34 173.033 120.846 173.033Z" fill="#36A93F"/>
<path d="M96.9114 41.1601L97.4199 41.3816L97.9179 41.1601C98.6941 40.8671 99.3737 40.4315 99.9019 39.8883C100.43 39.3451 100.792 38.7097 100.958 38.0332C101.594 35.1619 98.3522 32.1629 98.2145 32.0692L97.4199 31.345L96.6254 32.0692C94.4113 34.0969 93.4472 36.0225 93.871 37.8032C94.0575 38.5027 94.4245 39.1629 94.9482 39.7411C95.472 40.3194 96.1408 40.8028 96.9114 41.1601ZM97.3882 33.9777C98.2039 34.966 99.1573 36.474 98.8713 37.735C98.7996 38.084 98.6357 38.4167 98.3909 38.7106C98.146 39.0045 97.8258 39.2529 97.4517 39.439C96.682 38.959 96.1519 38.2727 95.958 37.505C95.8865 36.8698 95.9764 36.2295 96.2223 35.6231C96.4682 35.0167 96.8648 34.4569 97.3882 33.9777Z" fill="#36A93F"/>
<path d="M92.7477 46.7152H93.3727H93.9554L94.2203 46.3062C94.6243 45.6634 94.8548 44.9592 94.8968 44.2397C94.9388 43.5203 94.7913 42.8018 94.4639 42.1314C93.5846 40.4273 91.4976 39.2515 88.2771 38.5273L87.1118 38.2717L86.9423 39.226C86.9423 39.3879 86.2537 43.1879 88.5631 45.3349C89.0907 45.7992 89.7395 46.1637 90.463 46.4023C91.1865 46.641 91.9668 46.7478 92.7477 46.7152ZM92.5041 42.7107C92.8637 43.4413 92.8863 44.2513 92.5676 44.9941C92.1162 44.997 91.6692 44.9225 91.2564 44.7756C90.8435 44.6287 90.4744 44.4128 90.1734 44.1421C89.2607 43.0456 88.8317 41.7346 88.9551 40.4188C89.7079 40.5893 90.4101 40.8802 91.0199 41.274C91.6297 41.6678 92.1345 42.1564 92.5041 42.7107Z" fill="#36A93F"/>
<path d="M100.725 42.0802C100.399 42.7494 100.253 43.4664 100.295 44.1843C100.337 44.9021 100.566 45.6049 100.969 46.2465L101.234 46.6555H101.816H102.441C103.228 46.6909 104.015 46.5846 104.745 46.3443C105.474 46.1041 106.128 45.7359 106.658 45.2667C108.967 43.1197 108.31 39.3027 108.279 39.1578L108.109 38.1951L106.944 38.4592C103.681 39.2004 101.604 40.4103 100.725 42.0802ZM105.016 44.1676C104.714 44.4393 104.343 44.6559 103.928 44.8029C103.513 44.9498 103.064 45.0237 102.611 45.0196C102.29 44.2684 102.313 43.4498 102.674 42.7107C103.049 42.1589 103.557 41.6727 104.168 41.2806C104.779 40.8886 105.482 40.5985 106.234 40.4273C106.362 41.7488 105.933 43.0664 105.016 44.1676Z" fill="#36A93F"/>
<path d="M92.7477 57.0157C92.949 57.0157 93.1609 57.0157 93.3728 57.0157H93.9554L94.2203 56.6068C94.6243 55.964 94.8549 55.2598 94.8969 54.5403C94.9388 53.8209 94.7913 53.1024 94.464 52.432C93.5847 50.728 91.4976 49.5608 88.2771 48.8366L87.1117 48.5725L86.9422 49.5267C86.9422 49.6801 86.2536 53.48 88.5737 55.6355C89.1001 56.0986 89.7472 56.4624 90.4688 56.701C91.1903 56.9396 91.9685 57.0471 92.7477 57.0157ZM92.5041 53.0369C92.863 53.7647 92.8856 54.5718 92.5676 55.3118C92.1162 55.3146 91.6692 55.2402 91.2564 55.0932C90.8435 54.9463 90.4743 54.7304 90.1734 54.4598C89.2644 53.3588 88.8358 52.0462 88.9551 50.728C89.7102 50.8996 90.4141 51.1927 91.0242 51.5896C91.6342 51.9865 92.1377 52.4789 92.5041 53.0369Z" fill="#36A93F"/>
<path d="M108.247 49.4757L108.077 48.5215L106.912 48.7771C103.681 49.5013 101.615 50.7197 100.725 52.3811C100.4 53.0516 100.253 53.7694 100.293 54.4883C100.333 55.2073 100.56 55.9116 100.958 56.556L101.234 56.9649H101.816C102.028 56.9649 102.24 56.9649 102.441 56.9649C103.228 57.0051 104.016 56.9018 104.746 56.6628C105.476 56.4238 106.13 56.0553 106.658 55.5847C108.935 53.4376 108.279 49.6376 108.247 49.4757ZM105.069 54.477C104.767 54.7488 104.396 54.9654 103.981 55.1123C103.566 55.2593 103.117 55.3332 102.664 55.3291C102.35 54.5914 102.373 53.7882 102.727 53.0627C103.098 52.5066 103.604 52.0162 104.216 51.6209C104.827 51.2257 105.532 50.9336 106.287 50.7623C106.392 52.0801 105.945 53.3882 105.016 54.477H105.069Z" fill="#36A93F"/>
<path d="M92.7476 66.5669H93.3726H93.9447L94.2096 66.1579C94.6136 65.5151 94.8441 64.8109 94.8861 64.0914C94.9281 63.372 94.7806 62.6535 94.4532 61.9831C93.5739 60.3217 91.4869 59.1119 88.2664 58.3877L87.101 58.1235L86.9315 59.0863C86.9315 59.2397 86.2429 63.0396 88.5524 65.1951C89.0821 65.659 89.7331 66.0225 90.4585 66.2597C91.184 66.4969 91.9657 66.6018 92.7476 66.5669ZM92.5039 62.5795C92.8664 63.3096 92.889 64.1204 92.5675 64.8629C92.1161 64.8657 91.6691 64.7913 91.2562 64.6443C90.8434 64.4974 90.4742 64.2815 90.1733 64.0109C89.2621 62.9138 88.8332 61.6032 88.955 60.2876C89.7121 60.4583 90.4176 60.752 91.028 61.1506C91.6384 61.5492 92.1407 62.0442 92.5039 62.6051V62.5795Z" fill="#36A93F"/>
<path d="M108.247 59.0521L108.077 58.0894L106.912 58.3535C103.681 59.0777 101.615 60.2875 100.725 61.9489C100.4 62.6195 100.253 63.3372 100.293 64.0562C100.333 64.7751 100.56 65.4794 100.958 66.1238L101.234 66.5327H101.816L102.42 66.5668C103.213 66.6016 104.006 66.4926 104.739 66.2478C105.473 66.003 106.128 65.6286 106.658 65.1525C108.935 63.0054 108.279 59.2055 108.247 59.0521ZM105.069 64.0449C104.767 64.3166 104.396 64.5332 103.981 64.6801C103.566 64.8271 103.117 64.901 102.664 64.8969C102.351 64.1563 102.373 63.3505 102.727 62.622C103.1 62.0678 103.607 61.5793 104.218 61.1856C104.829 60.7919 105.533 60.501 106.287 60.3301C106.376 61.6359 105.93 62.9292 105.016 64.0108L105.069 64.0449Z" fill="#36A93F"/>
<path d="M92.7477 76.1603H93.3728H93.9448L94.2203 75.7514C94.6243 75.1086 94.8549 74.4044 94.8969 73.6849C94.9388 72.9655 94.7913 72.247 94.464 71.5766C93.5847 69.8726 91.4976 68.7054 88.2771 67.9812L87.1117 67.717L86.9422 68.6798C86.9422 68.8417 86.2536 72.6331 88.5737 74.7886C89.1011 75.2502 89.7487 75.6124 90.4702 75.8495C91.1917 76.0866 91.9693 76.1927 92.7477 76.1603ZM92.5041 72.173C92.8639 72.9006 92.8865 73.708 92.5676 74.4478C92.1162 74.4507 91.6692 74.3762 91.2564 74.2293C90.8435 74.0824 90.4743 73.8664 90.1734 73.5958C89.2622 72.4988 88.8333 71.1882 88.9551 69.8726C89.7095 70.0427 90.4131 70.3344 91.0232 70.7298C91.6333 71.1252 92.1371 71.6162 92.5041 72.173Z" fill="#36A93F"/>
<path d="M106.912 67.9213C103.681 68.6456 101.615 69.8554 100.725 71.5169C100.4 72.1874 100.253 72.9052 100.293 73.6241C100.333 74.3431 100.56 75.0474 100.958 75.6917L101.234 76.1007H101.816H102.441C103.228 76.1372 104.014 76.0322 104.743 75.7934C105.473 75.5547 106.127 75.1881 106.658 74.7204C108.978 72.5734 108.321 68.7563 108.289 68.6115L108.12 67.6572L106.912 67.9213ZM105.016 73.6128C104.714 73.8845 104.343 74.1011 103.928 74.2481C103.513 74.395 103.064 74.4689 102.611 74.4648C102.298 73.73 102.321 72.9297 102.674 72.207C103.042 71.6487 103.547 71.1567 104.159 70.7611C104.771 70.3655 105.477 70.0747 106.234 69.9066C106.355 71.2168 105.926 72.5219 105.016 73.6128Z" fill="#36A93F"/>
<path d="M74.0603 48.9898L74.5688 49.2113L75.0773 48.9898C75.7256 48.7414 76.2929 48.375 76.7342 47.9194C77.1756 47.4639 77.4788 46.9319 77.6198 46.3657C78.1389 43.9886 75.501 41.5264 75.3633 41.4241L74.5688 40.6914L73.7743 41.4241C71.9627 43.077 71.2 44.6702 71.5284 46.1527C71.6834 46.7407 71.9885 47.2965 72.4243 47.7848C72.8601 48.2732 73.4172 48.6835 74.0603 48.9898ZM74.5476 43.3922C75.2401 44.1697 75.5871 45.1121 75.5328 46.0675C75.4204 46.5294 75.0901 46.9385 74.6112 47.2091C74.097 46.8621 73.7456 46.3841 73.6154 45.8545C73.514 44.9673 73.8486 44.0834 74.5476 43.3922Z" fill="#36A93F"/>
<path d="M70.829 53.4544H71.3587L71.9308 53.4118L72.2062 53.0029C72.5377 52.4663 72.7267 51.8802 72.7614 51.2818C72.796 50.6833 72.6755 50.0856 72.4075 49.5267C71.6765 48.1464 69.9603 47.1411 67.3118 46.5447L66.1465 46.2891L65.977 47.2433C65.977 47.3796 65.4155 50.498 67.333 52.2701C67.7712 52.6625 68.3118 52.9722 68.9162 53.1769C69.5206 53.3817 70.1738 53.4764 70.829 53.4544ZM70.4476 50.1572C70.6967 50.6623 70.7303 51.2197 70.543 51.7419C70.2378 51.733 69.9381 51.6749 69.6614 51.571C69.3848 51.467 69.137 51.3194 68.9327 51.137C68.2847 50.3639 67.9617 49.4443 68.011 48.5128C69.0579 48.7857 69.9317 49.3754 70.4476 50.1572Z" fill="#36A93F"/>
<path d="M77.2277 52.986L77.5032 53.3949L78.0753 53.4375H78.5944C79.2536 53.4564 79.9099 53.3577 80.5162 53.1486C81.1225 52.9394 81.6637 52.6249 82.101 52.2277C84.0079 50.4555 83.4782 47.3371 83.4464 47.2093L83.2769 46.2466L82.1116 46.5107C79.4631 47.0986 77.7574 48.104 77.0265 49.4842C76.7492 50.046 76.6238 50.6488 76.6585 51.2525C76.6932 51.8563 76.8872 52.4472 77.2277 52.986ZM78.9757 50.1743C79.4898 49.3844 80.3684 48.788 81.4229 48.5129C81.4737 49.4458 81.1466 50.3666 80.4907 51.1371C80.2876 51.3186 80.0415 51.4656 79.7668 51.5695C79.4921 51.6733 79.1943 51.732 78.891 51.742C78.6944 51.2272 78.7243 50.6735 78.9757 50.1743Z" fill="#36A93F"/>
<path d="M70.829 61.7018H71.3587H71.9307L72.2062 61.2928C72.5388 60.7535 72.7284 60.1646 72.7631 59.5632C72.7977 58.9619 72.6766 58.3613 72.4075 57.7996C71.6765 56.4194 69.9603 55.414 67.3118 54.8261L66.1465 54.562L65.977 55.4907C65.977 55.6185 65.4155 58.7368 67.333 60.509C67.7702 60.9029 68.3104 61.2142 68.9148 61.4204C69.5192 61.6266 70.1729 61.7227 70.829 61.7018ZM70.4476 58.4045C70.6967 58.9097 70.7302 59.4671 70.5429 59.9893C70.2378 59.9804 69.938 59.9223 69.6614 59.8183C69.3848 59.7144 69.137 59.5668 68.9327 59.3843C68.2847 58.6113 67.9617 57.6916 68.011 56.7602C69.0579 57.0331 69.9317 57.6228 70.4476 58.4045Z" fill="#36A93F"/>
<path d="M83.4462 55.4911L83.2767 54.5283L82.1114 54.7924C79.4629 55.3803 77.7573 56.3857 77.0158 57.7659C76.7491 58.3281 76.6294 58.9284 76.664 59.5294C76.6987 60.1304 76.8869 60.7192 77.217 61.2591L77.4925 61.6681H78.0751H78.5942C79.2534 61.6864 79.9095 61.5875 80.5156 61.3783C81.1218 61.1692 81.6631 60.855 82.1008 60.4583C84.0077 58.7202 83.478 55.6018 83.4462 55.4911ZM80.4905 59.3847C80.2863 59.5672 80.0384 59.7148 79.7618 59.8187C79.4852 59.9226 79.1854 59.9808 78.8803 59.9897C78.6944 59.4737 78.7242 58.923 78.965 58.422C79.4887 57.6349 80.3687 57.04 81.4228 56.7606C81.4736 57.6934 81.1464 58.6143 80.4905 59.3847Z" fill="#36A93F"/>
<path d="M70.829 69.3616H71.3587L71.9307 69.319L72.2062 68.9185C72.5388 68.3792 72.7284 67.7902 72.7631 67.1889C72.7977 66.5875 72.6766 65.9869 72.4075 65.4252C71.6765 64.0449 69.9603 63.0395 67.3118 62.4516L66.1465 62.1875L65.977 63.1588C65.977 63.2866 65.4155 66.405 67.333 68.1772C67.7712 68.5696 68.3118 68.8793 68.9162 69.084C69.5206 69.2888 70.1738 69.3836 70.829 69.3616ZM70.4476 66.0642C70.6967 66.5694 70.7302 67.1268 70.5429 67.649C70.2383 67.6382 69.9392 67.5792 69.6629 67.4754C69.3866 67.3716 69.1385 67.225 68.9327 67.044C68.2847 66.271 67.9617 65.3513 68.011 64.4198C69.0579 64.6927 69.9317 65.2824 70.4476 66.0642Z" fill="#36A93F"/>
<path d="M83.4463 63.159L83.2768 62.1963L82.1114 62.4604C79.463 63.0483 77.7574 64.0537 77.0158 65.4339C76.7498 65.9962 76.6304 66.5964 76.665 67.1973C76.6997 67.7983 76.8876 68.387 77.2171 68.9271L77.4925 69.3361H78.0752H78.5943C79.2534 69.3544 79.9095 69.2554 80.5157 69.0463C81.1218 68.8372 81.6631 68.523 82.1008 68.1262C84.0077 66.3796 83.478 63.2613 83.4463 63.159ZM80.4906 67.0442C80.2863 67.2267 80.0385 67.3743 79.7618 67.4782C79.4852 67.5821 79.1854 67.6402 78.8803 67.6491C78.6944 67.1332 78.7242 66.5824 78.9651 66.0814C79.4781 65.2783 80.3595 64.6671 81.4228 64.3774C81.4853 65.3246 81.1576 66.2619 80.4906 67.0442Z" fill="#36A93F"/>
<path d="M67.3118 70.0942L66.1465 69.8301L65.977 70.8269C65.977 70.9632 65.4155 74.0731 67.333 75.8538C67.7682 76.2508 68.3075 76.5653 68.9121 76.7745C69.5166 76.9837 70.1713 77.0825 70.829 77.0636H71.3481H71.9308L72.2062 76.6547C72.5392 76.117 72.7291 75.5294 72.7637 74.9294C72.7984 74.3294 72.6771 73.7301 72.4075 73.17C71.6977 71.6789 69.9603 70.6821 67.3118 70.0942ZM70.543 75.3085C70.2383 75.2977 69.9393 75.2388 69.663 75.135C69.3867 75.0312 69.1385 74.8846 68.9327 74.7036C68.2847 73.9305 67.9617 73.0108 68.011 72.0794C69.0579 72.3523 69.9317 72.942 70.4476 73.7238C70.6968 74.2289 70.7303 74.7863 70.543 75.3085Z" fill="#36A93F"/>
<path d="M82.112 70.094C79.4635 70.6819 77.7579 71.6873 77.0269 73.0675C76.7552 73.6288 76.6327 74.2296 76.6674 74.8313C76.702 75.433 76.8931 76.0221 77.2282 76.5608L77.5036 76.9612H78.0757H78.5948C79.2541 76.9801 79.9104 76.8814 80.5166 76.6723C81.1229 76.4631 81.6641 76.1486 82.1014 75.7514C84.0083 73.9707 83.4786 70.8608 83.4468 70.7245L83.2773 69.7703L82.112 70.094ZM80.4911 74.6949C80.291 74.8798 80.0457 75.0297 79.7705 75.1352C79.4953 75.2407 79.1961 75.2997 78.8914 75.3083C78.6941 74.7878 78.724 74.2286 78.9762 73.7236C79.4946 72.9401 80.3725 72.3502 81.4234 72.0792C81.4765 73.0096 81.149 73.9284 80.4911 74.6949Z" fill="#36A93F"/>
<path d="M119.826 48.9898L120.335 49.2113L120.843 48.9898C121.489 48.7399 122.054 48.3728 122.493 47.9174C122.933 47.462 123.235 46.9308 123.375 46.3657C123.894 43.9886 121.256 41.5264 121.129 41.4241L120.335 40.6914L119.54 41.4241C117.718 43.077 116.966 44.6702 117.252 46.1186C117.408 46.7151 117.718 47.2787 118.161 47.7732C118.605 48.2676 119.172 48.6821 119.826 48.9898ZM120.303 43.3922C120.995 44.1697 121.342 45.1121 121.288 46.0675C121.176 46.5294 120.845 46.9385 120.367 47.2091C119.858 46.8547 119.508 46.3758 119.371 45.846C119.272 44.9616 119.607 44.0812 120.303 43.3922Z" fill="#36A93F"/>
<path d="M116.595 53.4544H117.114L117.686 53.4118L117.961 53.0028C118.297 52.4675 118.489 51.8811 118.523 51.2821C118.558 50.6831 118.435 50.0849 118.163 49.5268C117.432 48.1465 115.715 47.1412 113.067 46.5533L111.955 46.2637L111.743 47.2264C111.743 47.3542 111.181 50.4725 113.088 52.2446C113.525 52.6418 114.067 52.9563 114.673 53.1655C115.279 53.3746 115.935 53.4733 116.595 53.4544ZM116.192 50.1572C116.452 50.6605 116.486 51.2208 116.287 51.7419C115.984 51.7329 115.686 51.6746 115.411 51.5707C115.136 51.4667 114.89 51.3192 114.688 51.137C114.032 50.3666 113.705 49.4457 113.755 48.5129C114.802 48.7858 115.676 49.3755 116.192 50.1572Z" fill="#36A93F"/>
<path d="M122.983 52.9858L123.258 53.3948L123.83 53.4374H124.349C125.005 53.4583 125.659 53.3622 126.264 53.156C126.868 52.9498 127.408 52.6385 127.845 52.2446C129.763 50.4639 129.223 47.3542 129.201 47.2264L129.021 46.2637L127.845 46.5278C125.197 47.1157 123.481 48.121 122.75 49.5012C122.48 50.0623 122.362 50.663 122.402 51.2636C122.442 51.8642 122.64 52.4511 122.983 52.9858ZM124.731 50.1743C125.245 49.3844 126.123 48.7879 127.178 48.5129C127.227 49.4443 126.904 50.364 126.256 51.137C126.054 51.3175 125.81 51.4639 125.537 51.5677C125.264 51.6716 124.969 51.7308 124.667 51.7419C124.475 51.2278 124.497 50.6771 124.731 50.1743Z" fill="#36A93F"/>
<path d="M116.595 61.702H117.114H117.686L117.961 61.2931C118.296 60.7544 118.487 60.1653 118.522 59.5636C118.557 58.9619 118.434 58.3611 118.163 57.7998C117.432 56.4195 115.715 55.4141 113.067 54.8262L111.955 54.511L111.743 55.4908C111.743 55.6186 111.181 58.737 113.088 60.5092C113.527 60.9034 114.069 61.2147 114.676 61.4209C115.282 61.627 115.937 61.7231 116.595 61.702ZM116.192 58.4047C116.452 58.908 116.486 59.4684 116.287 59.9895C115.984 59.9804 115.686 59.9222 115.411 59.8182C115.136 59.7143 114.89 59.5668 114.688 59.3845C114.032 58.6141 113.705 57.6932 113.755 56.7603C114.802 57.0332 115.676 57.6229 116.192 58.4047Z" fill="#36A93F"/>
<path d="M129.212 55.4911L129.043 54.5283L127.877 54.7924C125.229 55.3803 123.513 56.3857 122.782 57.7659C122.512 58.3275 122.391 58.9282 122.425 59.5296C122.46 60.131 122.65 60.72 122.983 61.2591L123.259 61.6681H123.831H124.35C125.003 61.6905 125.655 61.5976 126.258 61.3959C126.862 61.1943 127.404 60.8888 127.846 60.5009C129.774 58.7202 129.233 55.6018 129.212 55.4911ZM126.257 59.3847C126.052 59.5672 125.804 59.7148 125.528 59.8187C125.251 59.9226 124.951 59.9808 124.646 59.9897C124.46 59.4737 124.49 58.923 124.731 58.422C125.245 57.632 126.124 57.0356 127.178 56.7606C127.228 57.692 126.905 58.6117 126.257 59.3847Z" fill="#36A93F"/>
<path d="M116.595 69.3615H117.114L117.686 69.3189L117.961 68.91C118.299 68.3735 118.491 67.7856 118.526 67.185C118.56 66.5844 118.437 65.9847 118.163 65.4253C117.432 64.0451 115.715 63.0397 113.067 62.4518L111.955 62.1707L111.743 63.159C111.743 63.2953 111.181 66.4136 113.088 68.1858C113.529 68.5768 114.072 68.8849 114.678 69.0881C115.284 69.2913 115.939 69.3847 116.595 69.3615ZM116.192 66.0643C116.452 66.5675 116.486 67.1279 116.287 67.649C115.984 67.6381 115.687 67.579 115.412 67.4752C115.138 67.3713 114.892 67.2248 114.688 67.0441C114.032 66.2736 113.705 65.3528 113.755 64.4199C114.802 64.6928 115.676 65.2825 116.192 66.0643Z" fill="#36A93F"/>
<path d="M129.212 63.159L129.042 62.1963L127.877 62.4604C125.228 63.0483 123.512 64.0536 122.781 65.4339C122.512 65.9956 122.391 66.5961 122.426 67.1975C122.46 67.7988 122.65 68.3878 122.983 68.927L123.258 69.336H123.83H124.349C125.004 69.358 125.658 69.2632 126.262 69.0585C126.866 68.8538 127.407 68.5441 127.845 68.1517C129.773 66.3796 129.233 63.2613 129.212 63.159ZM126.256 67.0441C126.052 67.2266 125.804 67.3742 125.527 67.4781C125.251 67.582 124.951 67.6402 124.646 67.649C124.46 67.1331 124.49 66.5824 124.731 66.0814C125.234 65.2753 126.114 64.6626 127.178 64.3774C127.239 65.3232 126.915 66.2592 126.256 67.0441Z" fill="#36A93F"/>
<path d="M116.595 77.0208H117.114H117.686L117.961 76.6119C118.299 76.0754 118.491 75.4875 118.526 74.8869C118.56 74.2863 118.437 73.6866 118.163 73.1273C117.432 71.747 115.715 70.7417 113.067 70.1453L111.955 69.8301L111.743 70.8269C111.743 70.9632 111.181 74.073 113.088 75.8536C113.53 76.2431 114.074 76.5496 114.68 76.7513C115.286 76.953 115.939 77.0451 116.595 77.0208ZM116.192 73.7237C116.452 74.2269 116.486 74.7873 116.287 75.3084C115.984 75.2974 115.687 75.2383 115.412 75.1345C115.138 75.0307 114.892 74.8842 114.688 74.7034C114.032 73.933 113.705 73.0121 113.755 72.0793C114.802 72.3522 115.676 72.9419 116.192 73.7237Z" fill="#36A93F"/>
<path d="M127.845 70.0942C125.197 70.6821 123.481 71.6874 122.75 73.0677C122.476 73.627 122.352 74.2268 122.387 74.8274C122.421 75.4279 122.614 76.0158 122.951 76.5524L123.227 76.9613H123.799H124.318C124.975 76.9914 125.632 76.9038 126.242 76.7049C126.852 76.506 127.4 76.2008 127.845 75.8111C129.763 74.039 129.223 70.9206 129.201 70.7928L129.021 69.8301L127.845 70.0942ZM126.256 74.7035C126.052 74.886 125.804 75.0336 125.528 75.1375C125.251 75.2414 124.951 75.2996 124.646 75.3084C124.46 74.7896 124.49 74.2362 124.731 73.7322C125.247 72.9455 126.125 72.3524 127.178 72.0794C127.227 73.0108 126.904 73.9305 126.256 74.7035Z" fill="#36A93F"/>
<path d="M131.024 81.528H121.394V49.5012H119.275V81.528H98.4685V41.9866H96.3497V81.528H75.628V49.5012H73.5092V81.528H65.3096V83.232H131.024V81.528Z" fill="#36A93F"/>
<path d="M88.6587 84.1606H63.8267V85.8647H88.6587V84.1606Z" fill="#36A93F"/>
<path d="M132.538 84.1606H96.3496V85.8647H132.538V84.1606Z" fill="#36A93F"/>
<path d="M97.42 16.8352C96.3724 16.8352 95.3483 17.0851 94.4772 17.5532C93.6061 18.0213 92.9272 18.6866 92.5263 19.465C92.1253 20.2434 92.0204 21.1 92.2248 21.9264C92.4292 22.7527 92.9337 23.5118 93.6745 24.1076C94.4153 24.7034 95.3591 25.1091 96.3866 25.2735C97.4141 25.4379 98.4792 25.3535 99.4471 25.0311C100.415 24.7086 101.242 24.1626 101.824 23.462C102.406 22.7615 102.717 21.9378 102.717 21.0953C102.717 19.9654 102.159 18.8819 101.166 18.083C100.172 17.284 98.8248 16.8352 97.42 16.8352ZM97.42 23.6513C96.7914 23.6513 96.177 23.5014 95.6543 23.2205C95.1317 22.9397 94.7243 22.5405 94.4838 22.0734C94.2432 21.6064 94.1803 21.0924 94.3029 20.5966C94.4255 20.1008 94.7282 19.6453 95.1727 19.2879C95.6172 18.9304 96.1835 18.687 96.8 18.5883C97.4165 18.4897 98.0555 18.5403 98.6362 18.7338C99.217 18.9273 99.7133 19.2549 100.063 19.6752C100.412 20.0956 100.598 20.5897 100.598 21.0953C100.598 21.7732 100.263 22.4233 99.6673 22.9027C99.0713 23.382 98.2629 23.6513 97.42 23.6513Z" fill="#36A93F"/>
<path d="M98.4791 12.7883H96.3604V16.2731H98.4791V12.7883Z" fill="#36A93F"/>
<path d="M98.4791 26.0029H96.3604V29.4877H98.4791V26.0029Z" fill="#36A93F"/>
<path d="M107.791 20.2859H103.458V21.9899H107.791V20.2859Z" fill="#36A93F"/>
<path d="M91.3603 20.2859H87.0273V21.9899H91.3603V20.2859Z" fill="#36A93F"/>
<path d="M102.444 23.9801L100.945 25.1851L104.009 27.6491L105.507 26.4442L102.444 23.9801Z" fill="#36A93F"/>
<path d="M90.8241 14.6279L89.3262 15.833L92.3906 18.2966L93.8885 17.0915L90.8241 14.6279Z" fill="#36A93F"/>
<path d="M92.388 23.973L89.3247 26.4375L90.8232 27.6422L93.8865 25.1777L92.388 23.973Z" fill="#36A93F"/>
<path d="M104.005 14.6277L100.941 17.0918L102.439 18.2967L105.503 15.8327L104.005 14.6277Z" fill="#36A93F"/>
</svg>
