<svg width="199" height="200" viewBox="0 0 199 200" fill="none" xmlns="http://www.w3.org/2000/svg">
<rect width="198.219" height="199.133" rx="10" fill="white"/>
<path d="M71.84 127.221C73.1333 127.381 74.12 127.821 74.8 128.541C75.48 129.261 75.82 130.161 75.82 131.241C75.82 132.054 75.6133 132.794 75.2 133.461C74.7867 134.128 74.16 134.661 73.32 135.061C72.4933 135.448 71.48 135.641 70.28 135.641C69.28 135.641 68.3133 135.501 67.38 135.221C66.46 134.928 65.6733 134.528 65.02 134.021L66.14 132.001C66.6467 132.428 67.26 132.768 67.98 133.021C68.7133 133.261 69.4667 133.381 70.24 133.381C71.16 133.381 71.88 133.194 72.4 132.821C72.9333 132.434 73.2 131.914 73.2 131.261C73.2 130.608 72.9467 130.101 72.44 129.741C71.9467 129.368 71.1867 129.181 70.16 129.181H68.88V127.401L72.06 123.621H65.7V121.441H75.24V123.181L71.84 127.221ZM83.3606 135.641C82.2406 135.641 81.2406 135.361 80.3606 134.801C79.4806 134.228 78.7873 133.401 78.2806 132.321C77.774 131.228 77.5206 129.934 77.5206 128.441C77.5206 126.948 77.774 125.661 78.2806 124.581C78.7873 123.488 79.4806 122.661 80.3606 122.101C81.2406 121.528 82.2406 121.241 83.3606 121.241C84.4806 121.241 85.4806 121.528 86.3606 122.101C87.254 122.661 87.954 123.488 88.4606 124.581C88.9673 125.661 89.2206 126.948 89.2206 128.441C89.2206 129.934 88.9673 131.228 88.4606 132.321C87.954 133.401 87.254 134.228 86.3606 134.801C85.4806 135.361 84.4806 135.641 83.3606 135.641ZM83.3606 133.381C84.3606 133.381 85.1473 132.968 85.7206 132.141C86.3073 131.314 86.6006 130.081 86.6006 128.441C86.6006 126.801 86.3073 125.568 85.7206 124.741C85.1473 123.914 84.3606 123.501 83.3606 123.501C82.374 123.501 81.5873 123.914 81.0006 124.741C80.4273 125.568 80.1406 126.801 80.1406 128.441C80.1406 130.081 80.4273 131.314 81.0006 132.141C81.5873 132.968 82.374 133.381 83.3606 133.381ZM96.8177 135.641C95.6977 135.641 94.6977 135.361 93.8177 134.801C92.9377 134.228 92.2443 133.401 91.7377 132.321C91.231 131.228 90.9777 129.934 90.9777 128.441C90.9777 126.948 91.231 125.661 91.7377 124.581C92.2443 123.488 92.9377 122.661 93.8177 122.101C94.6977 121.528 95.6977 121.241 96.8177 121.241C97.9377 121.241 98.9377 121.528 99.8177 122.101C100.711 122.661 101.411 123.488 101.918 124.581C102.424 125.661 102.678 126.948 102.678 128.441C102.678 129.934 102.424 131.228 101.918 132.321C101.411 133.401 100.711 134.228 99.8177 134.801C98.9377 135.361 97.9377 135.641 96.8177 135.641ZM96.8177 133.381C97.8177 133.381 98.6043 132.968 99.1777 132.141C99.7643 131.314 100.058 130.081 100.058 128.441C100.058 126.801 99.7643 125.568 99.1777 124.741C98.6043 123.914 97.8177 123.501 96.8177 123.501C95.831 123.501 95.0443 123.914 94.4577 124.741C93.8843 125.568 93.5977 126.801 93.5977 128.441C93.5977 130.081 93.8843 131.314 94.4577 132.141C95.0443 132.968 95.831 133.381 96.8177 133.381ZM114.172 129.441H110.632V132.941H108.492V129.441H104.952V127.441H108.492V123.941H110.632V127.441H114.172V129.441Z" fill="#36A93F"/>
<path d="M54.48 163.813V168.073H61.24V170.273H54.48V175.633H51.88V161.633H62.1V163.813H54.48ZM68.1223 164.833C69.6957 164.833 70.8957 165.213 71.7223 165.973C72.5623 166.72 72.9823 167.853 72.9823 169.373V175.633H70.6223V174.333C70.3157 174.8 69.8757 175.16 69.3023 175.413C68.7423 175.653 68.0623 175.773 67.2623 175.773C66.4623 175.773 65.7623 175.64 65.1623 175.373C64.5623 175.093 64.0957 174.713 63.7623 174.233C63.4423 173.74 63.2823 173.186 63.2823 172.573C63.2823 171.613 63.6357 170.846 64.3423 170.273C65.0623 169.686 66.189 169.393 67.7223 169.393H70.4823V169.233C70.4823 168.486 70.2557 167.913 69.8023 167.513C69.3623 167.113 68.7023 166.913 67.8223 166.913C67.2223 166.913 66.629 167.006 66.0423 167.193C65.469 167.38 64.9823 167.64 64.5823 167.973L63.6023 166.153C64.1623 165.726 64.8357 165.4 65.6223 165.173C66.409 164.946 67.2423 164.833 68.1223 164.833ZM67.7823 173.953C68.409 173.953 68.9623 173.813 69.4423 173.533C69.9357 173.24 70.2823 172.826 70.4823 172.293V171.053H67.9023C66.4623 171.053 65.7423 171.526 65.7423 172.473C65.7423 172.926 65.9223 173.286 66.2823 173.553C66.6423 173.82 67.1423 173.953 67.7823 173.953ZM78.5708 166.513C79.2908 165.393 80.5574 164.833 82.3708 164.833V167.213C82.1574 167.173 81.9641 167.153 81.7908 167.153C80.8174 167.153 80.0574 167.44 79.5108 168.013C78.9641 168.573 78.6908 169.386 78.6908 170.453V175.633H76.1908V164.953H78.5708V166.513ZM97.9716 164.833C99.3182 164.833 100.385 165.226 101.172 166.013C101.958 166.786 102.352 167.953 102.352 169.513V175.633H99.8516V169.833C99.8516 168.9 99.6449 168.2 99.2316 167.733C98.8182 167.253 98.2249 167.013 97.4516 167.013C96.6116 167.013 95.9382 167.293 95.4316 167.853C94.9249 168.4 94.6716 169.186 94.6716 170.213V175.633H92.1716V169.833C92.1716 168.9 91.9649 168.2 91.5516 167.733C91.1382 167.253 90.5449 167.013 89.7716 167.013C88.9182 167.013 88.2382 167.286 87.7316 167.833C87.2382 168.38 86.9916 169.173 86.9916 170.213V175.633H84.4916V164.953H86.8716V166.313C87.2716 165.833 87.7716 165.466 88.3716 165.213C88.9716 164.96 89.6382 164.833 90.3716 164.833C91.1716 164.833 91.8782 164.986 92.4916 165.293C93.1182 165.586 93.6116 166.026 93.9716 166.613C94.4116 166.053 94.9782 165.62 95.6716 165.313C96.3649 164.993 97.1316 164.833 97.9716 164.833ZM115.684 170.353C115.684 170.526 115.671 170.773 115.644 171.093H107.264C107.411 171.88 107.791 172.506 108.404 172.973C109.031 173.426 109.804 173.653 110.724 173.653C111.897 173.653 112.864 173.266 113.624 172.493L114.964 174.033C114.484 174.606 113.877 175.04 113.144 175.333C112.411 175.626 111.584 175.773 110.664 175.773C109.491 175.773 108.457 175.54 107.564 175.073C106.671 174.606 105.977 173.96 105.484 173.133C105.004 172.293 104.764 171.346 104.764 170.293C104.764 169.253 104.997 168.32 105.464 167.493C105.944 166.653 106.604 166 107.444 165.533C108.284 165.066 109.231 164.833 110.284 164.833C111.324 164.833 112.251 165.066 113.064 165.533C113.891 165.986 114.531 166.633 114.984 167.473C115.451 168.3 115.684 169.26 115.684 170.353ZM110.284 166.833C109.484 166.833 108.804 167.073 108.244 167.553C107.697 168.02 107.364 168.646 107.244 169.433H113.304C113.197 168.66 112.871 168.033 112.324 167.553C111.777 167.073 111.097 166.833 110.284 166.833ZM120.465 166.513C121.185 165.393 122.452 164.833 124.265 164.833V167.213C124.052 167.173 123.859 167.153 123.685 167.153C122.712 167.153 121.952 167.44 121.405 168.013C120.859 168.573 120.585 169.386 120.585 170.453V175.633H118.085V164.953H120.465V166.513ZM129.725 175.773C128.858 175.773 128.012 175.66 127.185 175.433C126.358 175.206 125.698 174.92 125.205 174.573L126.165 172.673C126.645 172.993 127.218 173.253 127.885 173.453C128.565 173.64 129.232 173.733 129.885 173.733C131.378 173.733 132.125 173.34 132.125 172.553C132.125 172.18 131.932 171.92 131.545 171.773C131.172 171.626 130.565 171.486 129.725 171.353C128.845 171.22 128.125 171.066 127.565 170.893C127.018 170.72 126.538 170.42 126.125 169.993C125.725 169.553 125.525 168.946 125.525 168.173C125.525 167.16 125.945 166.353 126.785 165.753C127.638 165.14 128.785 164.833 130.225 164.833C130.958 164.833 131.692 164.92 132.425 165.093C133.158 165.253 133.758 165.473 134.225 165.753L133.265 167.653C132.358 167.12 131.338 166.853 130.205 166.853C129.472 166.853 128.912 166.966 128.525 167.193C128.152 167.406 127.965 167.693 127.965 168.053C127.965 168.453 128.165 168.74 128.565 168.913C128.978 169.073 129.612 169.226 130.465 169.373C131.318 169.506 132.018 169.66 132.565 169.833C133.112 170.006 133.578 170.3 133.965 170.713C134.365 171.126 134.565 171.713 134.565 172.473C134.565 173.473 134.132 174.273 133.265 174.873C132.398 175.473 131.218 175.773 129.725 175.773Z" fill="#36A93F"/>
<path d="M97.9247 50.8541H99.3562C100.115 50.8541 100.844 50.5975 101.381 50.1407C101.918 49.6839 102.219 49.0644 102.219 48.4185V43.5474H109.377C109.756 43.5474 110.12 43.4191 110.389 43.1907C110.657 42.9623 110.808 42.6526 110.808 42.3296C110.808 42.0066 110.657 41.6969 110.389 41.4685C110.12 41.2401 109.756 41.1118 109.377 41.1118H102.219C101.46 41.1118 100.732 41.3684 100.195 41.8252C99.6578 42.2819 99.3562 42.9014 99.3562 43.5474V48.4185H97.9247C97.545 48.4185 97.1809 48.5468 96.9124 48.7752C96.644 49.0036 96.4932 49.3133 96.4932 49.6363C96.4932 49.9593 96.644 50.269 96.9124 50.4974C97.1809 50.7258 97.545 50.8541 97.9247 50.8541Z" fill="#36A93F"/>
<path d="M89.3353 43.5473H95.0613C95.441 43.5473 95.8051 43.419 96.0736 43.1906C96.342 42.9623 96.4929 42.6525 96.4929 42.3296C96.4929 42.0066 96.342 41.6969 96.0736 41.4685C95.8051 41.2401 95.441 41.1118 95.0613 41.1118H89.3353C88.9557 41.1118 88.5915 41.2401 88.3231 41.4685C88.0546 41.6969 87.9038 42.0066 87.9038 42.3296C87.9038 42.6525 88.0546 42.9623 88.3231 43.1906C88.5915 43.419 88.9557 43.5473 89.3353 43.5473Z" fill="#36A93F"/>
<path d="M69.2945 37.4587H79.315V39.8942C77.7964 39.8942 76.3399 40.4074 75.2661 41.3209C74.1923 42.2344 73.589 43.4734 73.589 44.7653C73.589 46.0572 74.1923 47.2961 75.2661 48.2096C76.3399 49.1231 77.7964 49.6363 79.315 49.6363H79.3866C79.7128 52.5397 81.0372 55.297 83.1944 57.564C79.996 58.4168 77.201 60.1156 75.2159 62.4131C73.2309 64.7106 72.1595 67.487 72.1575 70.3383V88.6048H75.0205V77.6449H80.7465V88.6048H83.6095V60.0117C84.2372 59.8174 84.8839 59.6707 85.542 59.5733C86.2769 60.1118 87.0675 60.5927 87.904 61.0103V61.814C87.9065 64.1853 88.9257 66.4745 90.7704 68.2523C92.6152 70.0301 95.1588 71.1745 97.9245 71.4709V73.9916H100.787V71.4709C103.553 71.1745 106.097 70.0301 107.942 68.2523C109.786 66.4745 110.805 64.1853 110.808 61.814V61.0103C111.645 60.5927 112.435 60.1118 113.17 59.5733C113.828 59.6707 114.475 59.8174 115.102 60.0117V88.6048H117.965V77.6449H123.691V88.6048H126.554V70.3383C126.553 67.487 125.481 64.7106 123.496 62.4131C121.511 60.1156 118.716 58.4168 115.518 57.564C117.701 55.3043 119.05 52.5463 119.397 49.6363C120.916 49.6363 122.372 49.1231 123.446 48.2096C124.52 47.2961 125.123 46.0572 125.123 44.7653C125.123 43.4734 124.52 42.2344 123.446 41.3209C122.372 40.4074 120.916 39.8942 119.397 39.8942V37.4587H129.417C130.556 37.4587 131.649 37.0738 132.454 36.3887C133.26 35.7035 133.712 34.7743 133.712 33.8054C133.712 32.8365 133.26 31.9072 132.454 31.2221C131.649 30.537 130.556 30.1521 129.417 30.1521H119.082L116.649 21.8591C116.227 20.426 115.366 19.1138 114.153 18.056C112.941 16.9983 111.421 16.233 109.747 15.8381C108.074 15.4432 106.307 15.4329 104.628 15.8082C102.948 16.1835 101.416 16.931 100.186 17.9744L99.356 18.6929L98.5257 17.9744C96.6842 16.4083 94.1869 15.5286 91.583 15.5286C88.979 15.5286 86.4817 16.4083 84.6402 17.9744C83.3895 19.0459 82.4997 20.3832 82.0635 21.8469L79.6299 30.1521H69.2945C68.1555 30.1521 67.0632 30.537 66.2578 31.2221C65.4525 31.9072 65 32.8365 65 33.8054C65 34.7743 65.4525 35.7035 66.2578 36.3887C67.0632 37.0738 68.1555 37.4587 69.2945 37.4587ZM76.452 44.7653C76.452 44.1193 76.7536 43.4998 77.2906 43.0431C77.8275 42.5863 78.5557 42.3297 79.315 42.3297V47.2008C78.5557 47.2008 77.8275 46.9442 77.2906 46.4875C76.7536 46.0307 76.452 45.4112 76.452 44.7653ZM80.7465 75.2094H75.0205V70.3383C75.0275 68.5376 75.5531 66.7658 76.5513 65.1779C77.5495 63.5899 78.9899 62.2343 80.7465 61.2295V75.2094ZM99.356 69.1206C97.1458 69.1226 95.0198 68.3998 93.4201 67.1025C91.8204 65.8051 90.8701 64.0331 90.767 62.155C92.6503 62.7299 94.6353 63.0265 96.6361 63.0318H102.047C104.048 63.0287 106.034 62.732 107.916 62.155C107.813 64.0289 106.867 65.7973 105.274 67.0941C103.68 68.3908 101.561 69.1164 99.356 69.1206ZM123.691 70.3383V75.2094H117.965V61.2295C119.722 62.2343 121.162 63.5899 122.161 65.1779C123.159 66.7658 123.684 68.5376 123.691 70.3383ZM122.26 44.7653C122.26 45.4112 121.958 46.0307 121.421 46.4875C120.885 46.9442 120.156 47.2008 119.397 47.2008V42.3297C120.156 42.3297 120.885 42.5863 121.421 43.0431C121.958 43.4998 122.26 44.1193 122.26 44.7653ZM116.534 41.112V48.2846C116.534 51.5499 115.009 54.6814 112.295 56.9902C109.581 59.2991 105.9 60.5962 102.062 60.5962H96.6505C92.8121 60.5962 89.131 59.2991 86.4169 56.9902C83.7028 54.6814 82.178 51.5499 82.178 48.2846V37.4587H116.534V41.112ZM84.8406 22.4558C85.1443 21.4446 85.7563 20.5195 86.6148 19.7739C87.4733 19.0283 88.5479 18.4887 89.73 18.2095C90.9122 17.9303 92.16 17.9214 93.3474 18.1838C94.5349 18.4461 95.62 18.9704 96.493 19.7037L98.3253 21.2746L101.188 23.7101L103.221 21.9809L101.374 20.41L102.219 19.7037C103.525 18.5979 105.293 17.9771 107.136 17.9771C108.979 17.9771 110.747 18.5979 112.053 19.7037C112.943 20.4649 113.576 21.4154 113.886 22.4558L114.702 25.281H84.0103L84.8406 22.4558ZM83.2946 27.7166H115.417L116.133 30.1521H82.5788L83.2946 27.7166ZM69.2945 32.5876H129.417C129.797 32.5876 130.161 32.7159 130.43 32.9443C130.698 33.1727 130.849 33.4824 130.849 33.8054C130.849 34.1284 130.698 34.4381 130.43 34.6665C130.161 34.8949 129.797 35.0232 129.417 35.0232H69.2945C68.9148 35.0232 68.5507 34.8949 68.2823 34.6665C68.0138 34.4381 67.863 34.1284 67.863 33.8054C67.863 33.4824 68.0138 33.1727 68.2823 32.9443C68.5507 32.7159 68.9148 32.5876 69.2945 32.5876Z" fill="#36A93F"/>
<path d="M100.788 55.7251H97.9247C97.545 55.7251 97.1809 55.8534 96.9124 56.0818C96.644 56.3101 96.4932 56.6199 96.4932 56.9428C96.4932 57.2658 96.644 57.5756 96.9124 57.8039C97.1809 58.0323 97.545 58.1606 97.9247 58.1606H100.788C101.167 58.1606 101.531 58.0323 101.8 57.8039C102.068 57.5756 102.219 57.2658 102.219 56.9428C102.219 56.6199 102.068 56.3101 101.8 56.0818C101.531 55.8534 101.167 55.7251 100.788 55.7251Z" fill="#36A93F"/>
<path d="M132.281 77.6448H129.417V80.0803H132.281V77.6448Z" fill="#36A93F"/>
<path d="M132.281 70.3382C132.278 67.6758 131.591 65.0462 130.268 62.6335C128.945 60.2207 127.018 58.0831 124.622 56.3704L122.761 58.2335C124.846 59.713 126.522 61.5641 127.673 63.6559C128.823 65.7476 129.419 68.0288 129.418 70.3382V75.2092H132.281V70.3382Z" fill="#36A93F"/>
<path d="M97.9241 88.6048V80.0805C97.9241 79.7576 97.7733 79.4478 97.5048 79.2195C97.2364 78.9911 96.8723 78.8628 96.4926 78.8628H87.9037C87.524 78.8628 87.1599 78.9911 86.8914 79.2195C86.623 79.4478 86.4722 79.7576 86.4722 80.0805V88.6048H89.3352V86.1693H95.0611V88.6048H97.9241ZM89.3352 83.7338V81.2983H95.0611V83.7338H89.3352Z" fill="#36A93F"/>
<path d="M112.24 88.6048V80.0805C112.24 79.7576 112.089 79.4478 111.82 79.2195C111.552 78.9911 111.188 78.8628 110.808 78.8628H102.219C101.839 78.8628 101.475 78.9911 101.207 79.2195C100.938 79.4478 100.788 79.7576 100.788 80.0805V88.6048H103.651V86.1693H109.377V88.6048H112.24ZM103.651 83.7338V81.2983H109.377V83.7338H103.651Z" fill="#36A93F"/>
<path d="M89.3352 71.5559H86.4722V73.9914H89.3352V71.5559Z" fill="#36A93F"/>
<path d="M112.239 71.5559H109.376V73.9914H112.239V71.5559Z" fill="#36A93F"/>
<path d="M69.2946 69.1204H66.4316V86.1691H69.2946V69.1204Z" fill="#36A93F"/>
<path d="M92.1986 47.2006C92.9892 47.2006 93.6301 46.6554 93.6301 45.9829C93.6301 45.3103 92.9892 44.7651 92.1986 44.7651C91.408 44.7651 90.7671 45.3103 90.7671 45.9829C90.7671 46.6554 91.408 47.2006 92.1986 47.2006Z" fill="#36A93F"/>
<path d="M106.514 47.2006C107.304 47.2006 107.945 46.6554 107.945 45.9829C107.945 45.3103 107.304 44.7651 106.514 44.7651C105.723 44.7651 105.082 45.3103 105.082 45.9829C105.082 46.6554 105.723 47.2006 106.514 47.2006Z" fill="#36A93F"/>
</svg>
