<svg width="199" height="200" viewBox="0 0 199 200" fill="none" xmlns="http://www.w3.org/2000/svg">
<rect width="198.219" height="199.133" rx="10" fill="white"/>
<path d="M93.044 134.037V136.787H80.144V134.612L87.094 128.012C87.8774 127.262 88.4024 126.612 88.669 126.062C88.9524 125.496 89.094 124.937 89.094 124.387C89.094 123.571 88.819 122.946 88.269 122.512C87.719 122.079 86.9107 121.862 85.844 121.862C84.0607 121.862 82.694 122.471 81.744 123.687L79.469 121.937C80.1524 121.021 81.069 120.312 82.219 119.812C83.3857 119.296 84.6857 119.037 86.119 119.037C88.019 119.037 89.5357 119.487 90.669 120.387C91.8024 121.287 92.369 122.512 92.369 124.062C92.369 125.012 92.169 125.904 91.769 126.737C91.369 127.571 90.6024 128.521 89.469 129.587L84.794 134.037H93.044ZM100.97 119.287V136.787H97.7198V122.012H94.0198V119.287H100.97Z" fill="#36A93F"/>
<path d="M69.36 172.179C67.9467 172.179 66.6667 171.873 65.52 171.259C64.3867 170.633 63.4933 169.773 62.84 168.679C62.2 167.586 61.88 166.353 61.88 164.979C61.88 163.606 62.2067 162.373 62.86 161.279C63.5133 160.186 64.4067 159.333 65.54 158.719C66.6867 158.093 67.9667 157.779 69.38 157.779C70.5267 157.779 71.5733 157.979 72.52 158.379C73.4667 158.779 74.2667 159.359 74.92 160.119L73.24 161.699C72.2267 160.606 70.98 160.059 69.5 160.059C68.54 160.059 67.68 160.273 66.92 160.699C66.16 161.113 65.5667 161.693 65.14 162.439C64.7133 163.186 64.5 164.033 64.5 164.979C64.5 165.926 64.7133 166.773 65.14 167.519C65.5667 168.266 66.16 168.853 66.92 169.279C67.68 169.693 68.54 169.899 69.5 169.899C70.98 169.899 72.2267 169.346 73.24 168.239L74.92 169.839C74.2667 170.599 73.46 171.179 72.5 171.579C71.5533 171.979 70.5067 172.179 69.36 172.179ZM87.1713 161.299L82.1713 172.839C81.7046 173.999 81.1379 174.813 80.4713 175.279C79.8046 175.759 78.9979 175.999 78.0513 175.999C77.5179 175.999 76.9913 175.913 76.4713 175.739C75.9513 175.566 75.5246 175.326 75.1912 175.019L76.1912 173.179C76.4313 173.406 76.7113 173.586 77.0313 173.719C77.3646 173.853 77.6979 173.919 78.0312 173.919C78.4713 173.919 78.8313 173.806 79.1113 173.579C79.4046 173.353 79.6713 172.973 79.9113 172.439L80.0913 172.019L75.4312 161.299H78.0312L81.3913 169.199L84.7713 161.299H87.1713ZM93.3408 172.119C92.2341 172.119 91.2408 171.886 90.3608 171.419C89.4808 170.953 88.7941 170.306 88.3008 169.479C87.8074 168.639 87.5608 167.693 87.5608 166.639C87.5608 165.586 87.8074 164.646 88.3008 163.819C88.7941 162.993 89.4741 162.346 90.3408 161.879C91.2208 161.413 92.2208 161.179 93.3408 161.179C94.3941 161.179 95.3141 161.393 96.1008 161.819C96.9008 162.246 97.5008 162.859 97.9008 163.659L95.9808 164.779C95.6741 164.286 95.2874 163.919 94.8208 163.679C94.3674 163.426 93.8674 163.299 93.3208 163.299C92.3874 163.299 91.6141 163.606 91.0008 164.219C90.3874 164.819 90.0808 165.626 90.0808 166.639C90.0808 167.653 90.3808 168.466 90.9808 169.079C91.5941 169.679 92.3741 169.979 93.3208 169.979C93.8674 169.979 94.3674 169.859 94.8208 169.619C95.2874 169.366 95.6741 168.993 95.9808 168.499L97.9008 169.619C97.4874 170.419 96.8808 171.039 96.0808 171.479C95.2941 171.906 94.3808 172.119 93.3408 172.119ZM99.9642 157.139H102.464V171.979H99.9642V157.139ZM115.785 166.699C115.785 166.873 115.772 167.119 115.745 167.439H107.365C107.512 168.226 107.892 168.853 108.505 169.319C109.132 169.773 109.905 169.999 110.825 169.999C111.999 169.999 112.965 169.613 113.725 168.839L115.065 170.379C114.585 170.953 113.979 171.386 113.245 171.679C112.512 171.973 111.685 172.119 110.765 172.119C109.592 172.119 108.559 171.886 107.665 171.419C106.772 170.953 106.079 170.306 105.585 169.479C105.105 168.639 104.865 167.693 104.865 166.639C104.865 165.599 105.099 164.666 105.565 163.839C106.045 162.999 106.705 162.346 107.545 161.879C108.385 161.413 109.332 161.179 110.385 161.179C111.425 161.179 112.352 161.413 113.165 161.879C113.992 162.333 114.632 162.979 115.085 163.819C115.552 164.646 115.785 165.606 115.785 166.699ZM110.385 163.179C109.585 163.179 108.905 163.419 108.345 163.899C107.799 164.366 107.465 164.993 107.345 165.779H113.405C113.299 165.006 112.972 164.379 112.425 163.899C111.879 163.419 111.199 163.179 110.385 163.179ZM121.487 172.119C120.62 172.119 119.774 172.006 118.947 171.779C118.12 171.553 117.46 171.266 116.967 170.919L117.927 169.019C118.407 169.339 118.98 169.599 119.647 169.799C120.327 169.986 120.994 170.079 121.647 170.079C123.14 170.079 123.887 169.686 123.887 168.899C123.887 168.526 123.694 168.266 123.307 168.119C122.934 167.973 122.327 167.833 121.487 167.699C120.607 167.566 119.887 167.413 119.327 167.239C118.78 167.066 118.3 166.766 117.887 166.339C117.487 165.899 117.287 165.293 117.287 164.519C117.287 163.506 117.707 162.699 118.547 162.099C119.4 161.486 120.547 161.179 121.987 161.179C122.72 161.179 123.454 161.266 124.187 161.439C124.92 161.599 125.52 161.819 125.987 162.099L125.027 163.999C124.12 163.466 123.1 163.199 121.967 163.199C121.234 163.199 120.674 163.313 120.287 163.539C119.914 163.753 119.727 164.039 119.727 164.399C119.727 164.799 119.927 165.086 120.327 165.259C120.74 165.419 121.374 165.573 122.227 165.719C123.08 165.853 123.78 166.006 124.327 166.179C124.874 166.353 125.34 166.646 125.727 167.059C126.127 167.473 126.327 168.059 126.327 168.819C126.327 169.819 125.894 170.619 125.027 171.219C124.16 171.819 122.98 172.119 121.487 172.119Z" fill="#36A93F"/>
<path d="M120.087 59.3743V68.6184L115.174 63.3813L113.548 65.1108L120.087 72.053V84.951H122.377V72.053L128.916 65.1108L127.29 63.3813L122.377 68.6184V59.3743H120.087Z" fill="#36A93F"/>
<path d="M112.071 67.8999H109.78V70.3359H112.071V67.8999Z" fill="#36A93F"/>
<path d="M115.506 81.2971H113.216V83.7331H115.506V81.2971Z" fill="#36A93F"/>
<path d="M131.539 70.3357H129.249V72.7716H131.539V70.3357Z" fill="#36A93F"/>
<path d="M126.958 77.6433H124.668V80.0793H126.958V77.6433Z" fill="#36A93F"/>
<path d="M131.539 82.5151H129.249V84.9511H131.539V82.5151Z" fill="#36A93F"/>
<path d="M116.651 73.9895H114.361V76.4255H116.651V73.9895Z" fill="#36A93F"/>
<path d="M67.4079 69.1178C68.2034 69.1238 68.9887 68.9275 69.6983 68.5454L74.2791 74.428V84.951H76.5695V74.428L81.1503 68.5454C81.86 68.9275 82.6453 69.1238 83.4407 69.1178C84.5789 69.1948 85.6994 68.7897 86.5576 67.991C87.4159 67.1923 87.9422 66.065 88.0215 64.855C87.9422 63.6451 87.4159 62.5178 86.5576 61.7191C85.6994 60.9204 84.5789 60.5153 83.4407 60.5923C82.3026 60.5153 81.1821 60.9204 80.3238 61.7191C79.4656 62.5178 78.9393 63.6451 78.8599 64.855C78.8675 65.5935 79.0785 66.3133 79.4669 66.9255L76.5695 70.5793V61.664C77.4964 61.4941 78.3413 60.994 78.9656 60.246C79.5899 59.4979 79.9565 58.5463 80.0051 57.5474C79.9258 56.3375 79.3995 55.2101 78.5412 54.4115C77.683 53.6128 76.5625 53.2077 75.4243 53.2846C74.2862 53.2077 73.1657 53.6128 72.3074 54.4115C71.4492 55.2101 70.9229 56.3375 70.8435 57.5474C70.8922 58.5463 71.2588 59.4979 71.8831 60.246C72.5074 60.994 73.3523 61.4941 74.2791 61.664V70.6281L71.3818 66.9743C71.7788 66.3483 71.9902 65.6101 71.9887 64.855C71.9094 63.6451 71.3831 62.5178 70.5248 61.7191C69.6666 60.9204 68.5461 60.5153 67.4079 60.5923C66.2698 60.5153 65.1493 60.9204 64.2911 61.7191C63.4328 62.5178 62.9065 63.6451 62.8271 64.855C62.9065 66.065 63.4328 67.1923 64.2911 67.991C65.1493 68.7897 66.2698 69.1948 67.4079 69.1178ZM83.4407 63.0281C84.6776 63.0281 85.7311 63.8685 85.7311 64.855C85.7311 65.8416 84.6776 66.6819 83.4407 66.6819C82.2039 66.6819 81.1503 65.8416 81.1503 64.855C81.1503 63.8685 82.2039 63.0281 83.4407 63.0281ZM73.1339 57.5474C73.1339 56.5609 74.1875 55.7205 75.4243 55.7205C76.6612 55.7205 77.7147 56.5609 77.7147 57.5474C77.7147 58.534 76.6612 59.3743 75.4243 59.3743C74.1875 59.3743 73.1339 58.534 73.1339 57.5474ZM67.4079 63.0281C68.6448 63.0281 69.6983 63.8685 69.6983 64.855C69.6983 65.8416 68.6448 66.6819 67.4079 66.6819C66.1711 66.6819 65.1175 65.8416 65.1175 64.855C65.1175 63.8685 66.1711 63.0281 67.4079 63.0281Z" fill="#36A93F"/>
<path d="M67.4079 48.4129C67.4081 49.6827 67.4769 50.9515 67.6141 52.2129L69.9044 51.9206C69.7727 50.7565 69.7038 49.5854 69.6983 48.4129C69.6803 43.8717 70.6659 39.3895 72.5755 35.3277C74.4852 31.2658 77.2654 27.738 80.6922 25.0285L79.318 23.0798C75.6074 26.0169 72.5968 29.8391 70.5282 34.239C68.4596 38.6389 67.3909 43.4937 67.4079 48.4129Z" fill="#36A93F"/>
<path d="M81.7914 72.6375L80.5088 74.6471C85.0341 77.8948 90.3119 79.7568 95.7651 80.0296C101.218 80.3024 106.637 78.9755 111.429 76.1938L110.284 74.0624C105.85 76.649 100.832 77.8845 95.7805 77.6331C90.7292 77.3817 85.8411 75.653 81.654 72.6375H81.7914Z" fill="#36A93F"/>
<path d="M124.668 48.4129C124.656 51.1932 124.27 53.9573 123.523 56.6217L125.813 57.3038C127.509 51.1121 127.387 44.5173 125.464 38.4013C123.54 32.2854 119.906 26.9399 115.049 23.0798L113.674 25.0285C117.101 27.738 119.881 31.2658 121.791 35.3276C123.701 39.3895 124.686 43.8716 124.668 48.4129Z" fill="#36A93F"/>
<path d="M89.3611 16.6004C85.9255 17.2459 83.4404 19.7426 83.4404 22.6901C83.4661 23.5993 83.6982 24.4885 84.117 25.2817C84.5358 26.0748 85.1288 26.7485 85.8454 27.2452C85.3431 28.0644 85.0728 29.0198 85.0666 29.9977C85.0666 33.4323 88.5022 36.2336 92.7166 36.2336C93.8492 36.2351 94.9734 36.0248 96.0376 35.6124V50.8488H98.328V35.8804C99.1461 36.1129 99.9892 36.2317 100.836 36.2336C105.062 36.2336 108.486 33.4323 108.486 29.9977C108.475 29.199 108.287 28.4143 107.936 27.708C108.81 27.2309 109.548 26.5141 110.073 25.6318C110.599 24.7495 110.893 23.7339 110.925 22.6901C110.925 19.4869 107.971 16.8561 104.157 16.4907C103.287 13.7991 100.309 11.8748 96.782 11.8748C93.2548 11.8748 90.1742 13.8478 89.3611 16.6004ZM91.4568 17.8427C91.6515 15.8574 93.9992 14.3106 96.782 14.3106C99.5648 14.3106 101.878 15.8452 102.107 17.8061C102.141 18.1032 102.276 18.3766 102.488 18.5743C102.699 18.772 102.971 18.8801 103.252 18.8779C106.161 18.8779 108.612 20.6196 108.612 22.6901C108.612 24.0663 107.535 25.333 105.795 26.015C105.523 26.1435 105.309 26.3793 105.198 26.6725C105.087 26.9657 105.087 27.2933 105.199 27.5862C105.248 27.742 105.331 27.8837 105.44 28.0003C105.939 28.5328 106.229 29.2465 106.253 29.9977C106.253 32.056 103.802 33.7977 100.893 33.7977C100.018 33.8056 99.1491 33.6446 98.328 33.3227V30.6432L102.577 26.1368L100.951 24.4074L98.328 27.2086V21.6183H96.0376V27.2086L93.4151 24.4074L91.7889 26.1368L96.0376 30.6432V32.9451C95.0137 33.5163 93.8728 33.8092 92.7166 33.7977C89.8077 33.7977 87.357 32.056 87.357 29.9977C87.3738 29.5781 87.4719 29.1668 87.6454 28.7895C87.8188 28.4122 88.0637 28.0772 88.3648 27.8054C88.476 27.6963 88.5657 27.5648 88.6288 27.4185C88.6919 27.2723 88.7271 27.1142 88.7325 26.9534C88.7378 26.7926 88.7131 26.6322 88.6598 26.4816C88.6065 26.331 88.5257 26.1931 88.4221 26.0759C88.3209 25.9633 88.2004 25.8723 88.067 25.808C87.4493 25.5681 86.9072 25.1488 86.5023 24.5976C86.0974 24.0465 85.846 23.3856 85.7766 22.6901C85.7766 20.8144 87.8265 19.158 90.4491 18.9144C90.7062 18.8832 90.9458 18.7602 91.1288 18.5656C91.3118 18.371 91.4274 18.1161 91.4568 17.8427Z" fill="#36A93F"/>
</svg>
