<svg width="21" height="21" viewBox="0 0 21 21" fill="none" xmlns="http://www.w3.org/2000/svg">
<path opacity="0.1" fill-rule="evenodd" clip-rule="evenodd" d="M10.5 21C16.299 21 21 16.299 21 10.5C21 4.70101 16.299 0 10.5 0C4.70101 0 0 4.70101 0 10.5C0 16.299 4.70101 21 10.5 21Z" fill="#4360DF"/>
<path fill-rule="evenodd" clip-rule="evenodd" d="M13.4552 11.2057L9.89609 14.7648C9.55354 15.1074 9.00121 15.1104 8.65712 14.7663C8.31541 14.4246 8.32039 13.8656 8.65865 13.5274L11.6133 10.5728L8.65865 7.6182C8.3161 7.27564 8.31303 6.72332 8.65712 6.37923C8.99883 6.03752 9.55783 6.0425 9.89609 6.38076L13.4552 9.93988C13.6533 10.138 13.7379 10.4063 13.7074 10.6639C13.6896 10.8624 13.6052 11.0557 13.4552 11.2057Z" fill="#4360DF"/>
</svg>
