<svg width="42" height="42" viewBox="0 0 42 42" fill="none" xmlns="http://www.w3.org/2000/svg">
<circle cx="21" cy="21" r="21" fill="#154219"/>
<path d="M28.2293 8H14.6293C11.5203 8 9 10.6804 9 13.9868V28.4507C9 31.7571 11.5203 34.4375 14.6293 34.4375H28.2293C31.3383 34.4375 33.8586 31.7571 33.8586 28.4507V13.9868C33.8586 10.6804 31.3383 8 28.2293 8Z" stroke="white" stroke-miterlimit="10"/>
<path d="M28.2165 10.6292H14.6283C12.8844 10.6292 11.4707 12.1327 11.4707 13.9873V28.4388C11.4707 30.2934 12.8844 31.7969 14.6283 31.7969H28.2165C29.9604 31.7969 31.3741 30.2934 31.3741 28.4388V13.9873C31.3741 12.1327 29.9604 10.6292 28.2165 10.6292Z" stroke="white" stroke-miterlimit="10"/>
<path d="M21.4882 28.1236C20.2148 28.1261 18.9693 27.7266 17.9096 26.9758C16.8498 26.2249 16.0234 25.1564 15.535 23.9057C15.0466 22.655 14.9182 21.2782 15.166 19.9498C15.4139 18.6214 16.0268 17.4011 16.9273 16.4435C17.8277 15.4858 18.9752 14.8339 20.2242 14.5703C21.4733 14.3067 22.7678 14.4433 23.9439 14.9627C25.1199 15.4821 26.1246 16.361 26.8306 17.4881C27.5366 18.6152 27.9122 19.9398 27.9099 21.2941C27.9067 23.1044 27.2292 24.8396 26.0256 26.1196C24.822 27.3997 23.1904 28.1203 21.4882 28.1236Z" stroke="white" stroke-miterlimit="10"/>
<path d="M21.488 17.0938C20.7068 17.0938 19.9431 17.3401 19.2936 17.8017C18.644 18.2633 18.1377 18.9194 17.8388 19.687C17.5398 20.4546 17.4616 21.2992 17.614 22.1141C17.7664 22.9289 18.1426 23.6774 18.695 24.2649C19.2474 24.8524 19.9512 25.2525 20.7174 25.4146C21.4836 25.5767 22.2778 25.4935 22.9996 25.1755C23.7213 24.8576 24.3382 24.3192 24.7723 23.6284C25.2063 22.9375 25.438 22.1254 25.438 21.2945C25.4348 20.1814 25.0177 19.1149 24.2776 18.3278C23.5375 17.5407 22.5346 17.0971 21.488 17.0938V17.0938Z" stroke="white" stroke-miterlimit="10"/>
<path d="M28.0988 12.7793C27.7756 12.7869 27.4619 12.8964 27.1973 13.0939C26.9327 13.2915 26.7293 13.5681 26.6127 13.8887C26.4962 14.2094 26.4718 14.5596 26.5426 14.8951C26.6135 15.2305 26.7764 15.536 27.0107 15.7728C27.245 16.0096 27.5401 16.1671 27.8587 16.2253C28.1773 16.2835 28.5049 16.2398 28.8001 16.0996C29.0953 15.9595 29.3447 15.7293 29.5167 15.4383C29.6887 15.1472 29.7756 14.8084 29.7663 14.4647C29.7617 14.2373 29.7148 14.0132 29.6284 13.8051C29.5419 13.5971 29.4176 13.4093 29.2626 13.2527C29.1076 13.096 28.9249 12.9735 28.7252 12.8922C28.5254 12.811 28.3125 12.7726 28.0988 12.7793Z" fill="#F0F3F6"/>
</svg>
