<svg width="41" height="42" viewBox="0 0 41 42" fill="none" xmlns="http://www.w3.org/2000/svg">
<path d="M8.25694 18.1883C11.5369 24.7917 16.81 30.1933 23.2675 33.5533L28.2786 28.4083C28.905 27.7667 29.8047 27.58 30.5906 27.8367C33.1417 28.7 35.8864 29.1667 38.7222 29.1667C39.9864 29.1667 41 30.205 41 31.5V39.6667C41 40.9617 39.9864 42 38.7222 42C17.3339 42 0 24.2433 0 2.33333C0 1.03833 1.025 0 2.27778 0H10.25C11.5142 0 12.5278 1.03833 12.5278 2.33333C12.5278 5.23833 12.9833 8.05 13.8261 10.6633C14.0767 11.4683 13.8944 12.39 13.2681 13.0317L8.25694 18.1883Z" fill="#6E9E3D"/>
</svg>
