<svg width="42" height="42" viewBox="0 0 42 42" fill="none" xmlns="http://www.w3.org/2000/svg">
<circle cx="21" cy="21" r="21" fill="#154219"/>
<g clip-path="url(#clip0)">
<path fill-rule="evenodd" clip-rule="evenodd" d="M21.3234 6C13.1302 6 6.48633 12.7419 6.48633 21.0592C6.48633 27.7128 10.7376 33.3578 16.6328 35.3492C17.3743 35.4885 17.6466 35.0225 17.6466 34.6246C17.6466 34.2655 17.6328 33.0793 17.6264 31.8209C13.4987 32.7318 12.6277 30.044 12.6277 30.044C11.9528 28.3034 10.9803 27.8406 10.9803 27.8406C9.63418 26.9059 11.0818 26.9251 11.0818 26.9251C12.5717 27.031 13.3562 28.477 13.3562 28.477C14.6795 30.7793 16.8272 30.1136 17.6738 29.7288C17.807 28.7558 18.1915 28.0909 18.6158 27.7152C15.3203 27.3343 11.856 26.043 11.856 20.2727C11.856 18.6285 12.4356 17.2851 13.3847 16.2305C13.2307 15.851 12.7228 14.3195 13.5284 12.2452C13.5284 12.2452 14.7744 11.8404 17.6097 13.7888C18.7932 13.4552 20.0625 13.2878 21.3234 13.2821C22.5844 13.2878 23.8545 13.4552 25.0403 13.7888C27.8722 11.8404 29.1164 12.2452 29.1164 12.2452C29.924 14.3195 29.4158 15.851 29.2619 16.2305C30.2131 17.2851 30.7887 18.6285 30.7887 20.2727C30.7887 26.0568 27.3179 27.3304 24.014 27.7031C24.5461 28.1705 25.0204 29.087 25.0204 30.492C25.0204 32.5067 25.0032 34.1285 25.0032 34.6246C25.0032 35.0254 25.2703 35.495 26.0224 35.3471C31.9142 33.3536 36.1602 27.7106 36.1602 21.0592C36.1602 12.7419 29.5173 6 21.3234 6Z" fill="white"/>
</g>
<defs>
<clipPath id="clip0">
<rect width="31.1818" height="29.375" fill="white" transform="translate(6 6)"/>
</clipPath>
</defs>
</svg>
