<svg width="42" height="42" viewBox="0 0 42 42" fill="none" xmlns="http://www.w3.org/2000/svg">
<circle cx="21" cy="21" r="21" fill="#154219"/>
<path fill-rule="evenodd" clip-rule="evenodd" d="M20.8812 16.0011L20.9321 16.8143L20.0838 16.7147C16.9958 16.333 14.2981 15.0386 12.0076 12.8647L10.8877 11.786L10.5993 12.5825C9.9885 14.3582 10.3787 16.2334 11.6512 17.4947C12.3299 18.1917 12.1772 18.2912 11.0065 17.8763C10.5993 17.7436 10.243 17.644 10.2091 17.6938C10.0903 17.81 10.4975 19.3201 10.8199 19.9175C11.261 20.7473 12.1602 21.5604 13.1443 22.0417L13.9757 22.4234L12.9916 22.44C12.0415 22.44 12.0076 22.4566 12.1094 22.8051C12.4487 23.8837 13.7891 25.0288 15.2821 25.5267L16.3341 25.8752L15.4179 26.4062C14.0605 27.1696 12.4657 27.601 10.8708 27.6342C10.1073 27.6508 9.47949 27.7172 9.47949 27.767C9.47949 27.9329 11.5494 28.8622 12.7541 29.2273C16.368 30.306 20.6606 29.8414 23.8843 27.9993C26.1748 26.6883 28.4653 24.0829 29.5343 21.5604C30.1112 20.2162 30.688 17.7602 30.688 16.5819C30.688 15.8186 30.7389 15.719 31.6891 14.8063C32.249 14.2752 32.7749 13.6944 32.8767 13.5285C33.0464 13.2132 33.0295 13.2132 32.1641 13.4953C30.7219 13.9931 30.5183 13.9267 31.231 13.18C31.7569 12.6489 32.3847 11.6864 32.3847 11.4043C32.3847 11.3545 32.1301 11.4375 31.8418 11.5868C31.5363 11.7528 30.8578 12.0017 30.3487 12.1511L29.4325 12.4332L28.6012 11.8855C28.1431 11.5868 27.4983 11.2549 27.1589 11.1554C26.2936 10.923 24.9701 10.9562 24.1898 11.2217C22.0689 11.9685 20.7285 13.8935 20.8812 16.0011Z" fill="white"/>
</svg>
