<svg width="76" height="80" viewBox="0 0 76 80" fill="none" xmlns="http://www.w3.org/2000/svg">
<path d="M39.0733 77.7164V75.0948H54.3467V72.8111H39.0733V68.8742H54.3467V66.5905H39.0733V18.4334C40.3857 17.0541 46.2256 10.0297 38.95 0.913451L38.2101 0L37.3293 0.812971C37.1707 0.959123 33.5153 4.46677 33.3832 9.60037C33.3127 12.6056 34.4842 15.4739 36.8448 18.1411V66.5905H22.7252V68.8742H36.8712V72.8111H22.7252V75.0948H36.8712V77.7164H0V80H75.2222V77.7164H39.0733Z" fill="black"/>
<path d="M35.2063 30.8838H36.2457L36.3161 29.8151C36.3161 29.6963 36.9151 18.3878 24.2753 17.1546L23.1214 17.0359V18.2416C23.1214 18.4609 22.9365 23.6493 26.3188 27.3761C28.3975 29.6689 31.4452 30.8564 35.2063 30.8838Z" fill="black"/>
<path d="M35.2064 47.0518H36.2369L36.3074 45.9739C36.3074 45.8369 37.0561 31.8063 21.3334 30.2625L20.1796 30.1438L20.1267 31.3496C20.1267 31.6236 19.8977 38.0634 24.108 42.6581C26.7329 45.5354 30.4675 47.0061 35.2064 47.0518Z" fill="black"/>
<path d="M35.1185 63.2473H36.1491L36.2196 62.1786C36.2196 62.0233 37.0299 46.7962 19.9508 45.1155L18.7969 45.0059L18.744 46.2025C18.744 46.5039 18.4974 53.51 23.0601 58.4883C25.9139 61.6123 29.9745 63.2108 35.1185 63.2473Z" fill="black"/>
<path d="M39.6546 29.8241L39.7251 30.8928H40.7556C44.5608 30.8928 47.5644 29.6688 49.6871 27.3578C53.0783 23.704 52.9021 18.47 52.8933 18.2233L52.8405 17.0176L51.7042 17.1637C39.0468 18.3969 39.6458 29.7053 39.6546 29.8241Z" fill="black"/>
<path d="M39.6546 45.9832L39.7251 47.061H40.7644C45.4944 47.061 49.2291 45.5447 51.854 42.6765C56.0643 38.1092 55.8441 31.642 55.8353 31.368L55.7825 30.1714L54.6286 30.281C38.9059 31.8156 39.6458 45.8461 39.6546 45.9832Z" fill="black"/>
<path d="M39.7426 62.1878L39.8131 63.2566H40.8525C45.9965 63.2566 50.0483 61.6215 52.9021 58.5066C57.4648 53.5191 57.227 46.522 57.2182 46.2206L57.1653 45.0239L56.0115 45.1244C38.9323 46.8052 39.7338 62.0326 39.7426 62.1878Z" fill="black"/>
<path d="M19.845 66.5906H10.843V68.8743H19.845V66.5906Z" fill="black"/>
<path d="M66.3433 66.5906H57.3413V68.8743H66.3433V66.5906Z" fill="black"/>
<path d="M19.845 72.811H4.03418V75.0947H19.845V72.811Z" fill="black"/>
<path d="M71.0734 72.811H57.3413V75.0947H71.0734V72.811Z" fill="black"/>
</svg>
