<svg width="88" height="88" viewBox="0 0 88 88" fill="none" xmlns="http://www.w3.org/2000/svg">
<path d="M74.3313 29.7955L75.1982 33.124C84.0604 32.1858 83.6028 19.5642 74.3794 19.5642H13.6206C4.54165 19.5642 3.81919 32.1634 12.8018 33.124L13.5724 29.7955C8.70784 29.7955 8.70784 22.9374 13.5724 22.9374H74.4276C79.2199 22.9374 79.3644 29.7955 74.3313 29.7955ZM51.2848 1.5813C52.9946 1.5813 53.9097 2.96632 52.8742 3.88222L45.6737 11.2541C44.8549 12.0806 43.0969 12.0583 42.3263 11.2318L35.0535 3.79286C34.1384 2.85462 35.1258 1.5813 36.7152 1.5813H51.2848ZM20.9415 59.2383C25.6134 59.2383 29.033 63.371 26.1432 67.3251C29.7073 71.9046 24.3852 77.2436 18.8464 77.2436C12.7777 77.2436 9.35805 71.3684 13.9336 67.124C12.0312 63.0583 16.5586 59.2383 20.9415 59.2383ZM20.9415 61.2488C17.2088 61.2488 14.2467 64.1082 16.7271 67.5708C12.6814 70.5866 13.1148 75.2554 18.8464 75.2554C23.2052 75.2554 27.4436 71.3014 23.2534 67.4144C26.1673 64.421 25.3726 61.2488 20.9415 61.2488ZM15.7398 30.354L4.0841 75.5235C2.2057 82.8283 6.90169 84.5931 13.9336 84.5931H48.106L50.7309 26.8244H20.0986C17.3533 26.8244 16.3418 27.986 15.7398 30.354ZM75.7039 35.0898L86.011 75.032C88.2507 83.6996 82.5432 86.5813 74.0664 86.5813H13.9336C5.45677 86.5813 -0.250664 83.6772 1.98896 75.032L12.2961 35.0898C0.64037 33.5484 2.25386 17.5537 13.6206 17.5537H74.3553C86.2759 17.5537 86.9021 33.6155 75.7039 35.0898ZM63.2054 26.8244L70.5504 84.5931H74.0423C81.0742 84.5931 85.7702 82.8283 83.8918 75.5235L72.2361 30.354C71.6341 27.986 70.6226 26.8244 67.9014 26.8244H63.2054ZM52.8983 26.8244L50.2734 84.5931H68.3589L61.0139 26.8244H52.8983Z" fill="#6E9E3D" stroke="#6E9E3D" stroke-width="2" stroke-miterlimit="10"/>
</svg>
