<svg width="25" height="22" viewBox="0 0 25 22" fill="none" xmlns="http://www.w3.org/2000/svg">
<path fill-rule="evenodd" clip-rule="evenodd" d="M15.0814 5.7143C15.0814 6.06476 14.9422 6.40086 14.6944 6.64867C14.4466 6.89649 14.1105 7.03571 13.76 7.03571C13.4095 7.03571 13.0734 6.89649 12.8256 6.64867C12.5778 6.40086 12.4386 6.06476 12.4386 5.7143V4.39289C12.4386 4.15925 12.3458 3.93518 12.1806 3.76997C12.0154 3.60477 11.7913 3.51195 11.5577 3.51195H3.62922C3.39558 3.51195 3.17151 3.60477 3.0063 3.76997C2.84109 3.93518 2.74828 4.15925 2.74828 4.39289V17.607C2.74828 17.8406 2.84109 18.0647 3.0063 18.2299C3.17151 18.3951 3.39558 18.4879 3.62922 18.4879H11.5577C11.7913 18.4879 12.0154 18.3951 12.1806 18.2299C12.3458 18.0647 12.4386 17.8406 12.4386 17.607V16.2856C12.4386 15.9351 12.5778 15.599 12.8256 15.3512C13.0734 15.1034 13.4095 14.9641 13.76 14.9641C14.1105 14.9641 14.4466 15.1034 14.6944 15.3512C14.9422 15.599 15.0814 15.9351 15.0814 16.2856V17.607C15.0814 18.5415 14.7102 19.4378 14.0493 20.0986C13.3885 20.7595 12.4922 21.1307 11.5577 21.1307H3.62922C2.69466 21.1307 1.79838 20.7595 1.13755 20.0986C0.47672 19.4378 0.105469 18.5415 0.105469 17.607V4.39289C0.105469 3.45834 0.47672 2.56205 1.13755 1.90122C1.79838 1.24039 2.69466 0.869141 3.62922 0.869141H11.5577C12.4922 0.869141 13.3885 1.24039 14.0493 1.90122C14.7102 2.56205 15.0814 3.45834 15.0814 4.39289V5.7143ZM23.9437 11.8809L19.4332 16.2856C18.1867 17.5585 16.3191 15.6953 17.5657 14.4752L19.0853 12.9644C19.4332 12.6209 19.3187 12.3434 18.8298 12.3434H12.769C12.4185 12.3434 12.0824 12.2041 11.8346 11.9563C11.5868 11.7085 11.4475 11.3724 11.4475 11.0219C11.4475 10.6715 11.5868 10.3354 11.8346 10.0876C12.0824 9.83976 12.4185 9.70054 12.769 9.70054H18.8298C19.3143 9.70054 19.4332 9.42305 19.0853 9.07948L17.5657 7.54665C16.3191 6.30453 18.1867 4.44134 19.4332 5.68347L23.9348 10.0705C24.0574 10.1893 24.155 10.3314 24.222 10.4884C24.2889 10.6454 24.3238 10.8142 24.3246 10.9849C24.3254 11.1555 24.2922 11.3247 24.2267 11.4823C24.1613 11.6399 24.0651 11.7829 23.9437 11.9029V11.8809Z" fill="white"/>
</svg>
