<svg width="21" height="21" viewBox="0 0 21 21" fill="none" xmlns="http://www.w3.org/2000/svg">
<path d="M17.0611 20.9977C16.886 21.0082 16.7107 20.9815 16.5468 20.9192C16.3828 20.857 16.2339 20.7607 16.1099 20.6367C15.9858 20.5127 15.8896 20.3638 15.8273 20.1998C15.7651 20.0358 15.7384 19.8605 15.7489 19.6855V7.87553C15.7384 7.70046 15.7651 7.52515 15.8273 7.36118C15.8896 7.1972 15.9858 7.04829 16.1099 6.92428C16.2339 6.80026 16.3828 6.70397 16.5468 6.64174C16.7107 6.57952 16.886 6.55279 17.0611 6.56331H19.6855C19.8606 6.55279 20.0359 6.57952 20.1999 6.64174C20.3639 6.70397 20.5128 6.80026 20.6368 6.92428C20.7608 7.04829 20.8571 7.1972 20.9193 7.36118C20.9815 7.52515 21.0083 7.70046 20.9978 7.87553V19.6855C21.0083 19.8605 20.9815 20.0358 20.9193 20.1998C20.8571 20.3638 20.7608 20.5127 20.6368 20.6367C20.5128 20.7607 20.3639 20.857 20.1999 20.9192C20.0359 20.9815 19.8606 21.0082 19.6855 20.9977H17.0611ZM9.18778 20.9977C9.01266 21.0084 8.83726 20.9818 8.67319 20.9197C8.50912 20.8575 8.36011 20.7612 8.23605 20.6372C8.11199 20.5131 8.01571 20.3641 7.95357 20.2001C7.89142 20.036 7.86482 19.8606 7.87556 19.6855V1.31445C7.86503 1.13938 7.89179 0.964075 7.95401 0.800101C8.01623 0.636127 8.11252 0.487215 8.23653 0.363201C8.36055 0.239186 8.50946 0.142889 8.67343 0.0806662C8.83741 0.0184437 9.01271 -0.00828912 9.18778 0.00223437H11.8122C11.9873 -0.00828912 12.1626 0.0184437 12.3266 0.0806662C12.4905 0.142889 12.6395 0.239186 12.7635 0.363201C12.8875 0.487215 12.9838 0.636127 13.046 0.800101C13.1082 0.964075 13.135 1.13938 13.1244 1.31445V19.6855C13.1352 19.8606 13.1086 20.036 13.0464 20.2001C12.9843 20.3641 12.888 20.5131 12.7639 20.6372C12.6399 20.7612 12.4909 20.8575 12.3268 20.9197C12.1627 20.9818 11.9873 21.0084 11.8122 20.9977H9.18778ZM1.31445 20.9977C1.13939 21.0082 0.964081 20.9815 0.800106 20.9192C0.636131 20.857 0.487221 20.7607 0.363206 20.6367C0.239191 20.5127 0.142906 20.3638 0.0806831 20.1998C0.0184603 20.0358 -0.00829011 19.8605 0.00223342 19.6855V14.4366C-0.00829011 14.2615 0.0184603 14.0862 0.0806831 13.9223C0.142906 13.7583 0.239191 13.6094 0.363206 13.4854C0.487221 13.3613 0.636131 13.265 0.800106 13.2028C0.964081 13.1406 1.13939 13.1139 1.31445 13.1244H3.9389C4.11391 13.1141 4.28913 13.141 4.453 13.2033C4.61688 13.2655 4.76569 13.3619 4.88966 13.4858C5.01363 13.6098 5.10997 13.7586 5.17227 13.9225C5.23456 14.0864 5.26143 14.2616 5.25112 14.4366V19.6855C5.26164 19.8605 5.23489 20.0358 5.17267 20.1998C5.11044 20.3638 5.01416 20.5127 4.89014 20.6367C4.76613 20.7607 4.61722 20.857 4.45324 20.9192C4.28927 20.9815 4.11396 21.0082 3.9389 20.9977H1.31445Z" fill="white"/>
</svg>
