<svg width="36" height="37" viewBox="0 0 36 37" fill="none" xmlns="http://www.w3.org/2000/svg">
<path d="M-0.000431061 18.0033C-0.000431061 8.06037 8.05854 0 17.9998 0C27.941 0 36 8.06037 36 18.0033C36 27.9463 27.941 36.0067 17.9998 36.0067C8.05854 36.0067 -0.000431061 27.9463 -0.000431061 18.0033Z" fill="#72839C"/>
<path d="M14.7796 18.7286C14.8854 18.6236 15.0283 18.5648 15.1773 18.5648C15.3263 18.5648 15.4693 18.6236 15.5751 18.7286L16.8718 20.0261L19.2914 17.6066C19.397 17.5014 19.5399 17.4423 19.6889 17.4423C19.8379 17.4423 19.9808 17.5014 20.0863 17.6066L24.0345 21.5549C24.1116 21.6338 24.164 21.7336 24.185 21.8419C24.206 21.9502 24.1948 22.0623 24.1528 22.1644C24.1107 22.2664 24.0397 22.3539 23.9485 22.416C23.8573 22.4781 23.7498 22.512 23.6395 22.5137H12.3605C12.2484 22.5144 12.1387 22.4818 12.0452 22.4199C11.9518 22.358 11.879 22.2696 11.836 22.1661C11.793 22.0626 11.7819 21.9487 11.8039 21.8388C11.826 21.7289 11.8803 21.6282 11.9599 21.5493L14.7796 18.7286Z" fill="#B8C6D1"/>
<path d="M16.3103 16.875C15.376 16.875 14.6186 16.1174 14.6186 15.183C14.6186 14.2486 15.376 13.491 16.3103 13.491C17.2446 13.491 18.002 14.2486 18.002 15.183C18.002 16.1174 17.2446 16.875 16.3103 16.875Z" fill="#B8C6D1"/>
</svg>
