<svg width="86" height="87" viewBox="0 0 86 87" fill="none" xmlns="http://www.w3.org/2000/svg">
<path d="M78.4167 49.8703H77V37.2417C77 34.8563 75.1583 33.0321 72.75 33.0321H72.6083L74.875 28.121C75.1583 27.4194 74.875 26.5775 74.1667 26.2969L20.1917 1.46057C19.4833 1.17993 18.6333 1.46057 18.35 2.16216L3.75833 33.1725C1.775 33.5934 0.5 35.2772 0.5 37.2417V82.1435C0.5 84.5289 2.34167 86.353 4.75 86.353H72.75C75.1583 86.353 77 84.5289 77 82.1435V69.5149H78.4167C82.3833 69.5149 85.5 66.4278 85.5 62.4989V56.8862C85.5 52.9573 82.3833 49.8703 78.4167 49.8703ZM20.3333 4.54757L71.7583 28.2613L69.4917 33.0321H63.6833C62.55 31.0677 62.125 28.8226 62.2667 26.4372C62.2667 25.8759 61.9833 25.3146 61.4167 25.034L29.4 10.3006C28.8333 10.02 28.125 10.1603 27.7 10.5812C25.2917 12.9667 21.8917 14.2295 18.4917 13.9489C17.925 13.9489 17.3583 14.2295 17.075 14.7908L11.6917 26.2969C11.4083 26.8581 11.55 27.4194 11.975 27.8404C13.3917 29.2436 14.525 31.0677 14.95 33.1725H6.875L20.3333 4.54757ZM33.3667 33.0321C32.6583 30.0855 34.3583 26.9985 37.475 26.1566C40.5917 25.3146 43.5667 27.1388 44.4167 30.2258C44.7 31.0677 44.7 32.0499 44.4167 33.0321H33.3667ZM42.4333 24.0518C38.1833 22.0873 33.0833 23.9115 31.1 28.121C30.3917 29.6645 30.1083 31.3483 30.3917 33.0321H17.925C17.5 30.6467 16.3667 28.4016 14.6667 26.4372L19.2 16.6149C22.7417 16.7552 26.2833 15.4924 28.975 13.107L59.4333 27.1388C59.4333 29.1032 59.7167 31.0677 60.5667 32.8918H47.25C47.8167 29.2436 45.8333 25.5953 42.4333 24.0518ZM74.1667 82.1435C74.1667 82.9854 73.6 83.5467 72.75 83.5467H4.75C3.9 83.5467 3.33333 82.9854 3.33333 82.1435V37.2417C3.33333 36.3998 3.9 35.8385 4.75 35.8385H72.75C73.6 35.8385 74.1667 36.3998 74.1667 37.2417V49.8703H67.0833C63.1167 49.8703 60 52.9573 60 56.8862V62.4989C60 66.4278 63.1167 69.5149 67.0833 69.5149H74.1667V82.1435ZM82.6667 62.4989C82.6667 64.8844 80.825 66.7085 78.4167 66.7085H67.0833C64.675 66.7085 62.8333 64.8844 62.8333 62.4989V56.8862C62.8333 54.5008 64.675 52.6767 67.0833 52.6767H78.4167C80.825 52.6767 82.6667 54.5008 82.6667 56.8862V62.4989Z" fill="#6E9E3D" stroke="#6E9E3D" stroke-miterlimit="10"/>
<path d="M69.916 55.4832C67.5077 55.4832 65.666 57.3073 65.666 59.6927C65.666 62.0781 67.5077 63.9022 69.916 63.9022C72.3243 63.9022 74.166 62.0781 74.166 59.6927C74.166 57.3073 72.3243 55.4832 69.916 55.4832ZM69.916 61.0959C69.066 61.0959 68.4993 60.5346 68.4993 59.6927C68.4993 58.8508 69.066 58.2895 69.916 58.2895C70.766 58.2895 71.3327 58.8508 71.3327 59.6927C71.3327 60.5346 70.766 61.0959 69.916 61.0959Z" fill="#6E9E3D" stroke="#6E9E3D" stroke-miterlimit="10"/>
<path d="M41.443 58.57C44.418 57.8684 45.8346 56.8862 45.8346 55.483V48.4671C45.8346 44.6785 33.9346 44.2576 28.8346 44.2576C13.5346 44.2576 11.8346 47.2042 11.8346 48.4671V52.1154C7.86797 52.817 6.16797 53.7992 6.16797 55.483V62.4989C6.16797 63.2005 6.16797 65.3053 14.243 66.2875C9.0013 67.2697 9.0013 68.8132 9.0013 69.5148V76.5307C9.0013 80.3193 20.9013 80.7403 26.0013 80.7403C31.1013 80.7403 43.0013 80.3193 43.0013 76.5307V73.3034C51.5013 72.3212 51.5013 70.3567 51.5013 69.5148V62.4989C51.5013 61.657 51.5013 59.4119 41.443 58.57ZM40.168 62.4989V61.2361C42.718 61.3764 45.268 61.7973 47.818 62.4989C45.268 63.2005 42.4346 63.6215 39.743 63.7618C40.0263 63.3408 40.168 62.9199 40.168 62.4989ZM38.468 56.3249C35.3513 56.7459 32.093 56.8862 28.8346 56.8862C27.9846 56.8862 26.993 56.8862 26.0013 56.8862C19.0596 56.6056 15.518 55.6233 14.668 55.2024V51.1332C18.493 52.5363 25.293 52.6767 28.8346 52.6767C36.4846 52.6767 40.593 51.9751 43.0013 51.1332V55.2024C41.5846 55.7637 40.0263 56.1846 38.468 56.3249ZM28.8346 47.0639C33.368 46.9236 37.7596 47.3446 42.1513 48.4671C37.7596 49.5897 33.368 50.0106 28.8346 49.8703C24.3013 50.0106 19.9096 49.5897 15.518 48.4671C19.9096 47.3446 24.3013 46.9236 28.8346 47.0639ZM11.8346 55.0621V55.483C11.8346 55.6233 11.8346 55.7637 11.9763 56.0443C11.268 55.904 10.5596 55.7637 9.99297 55.483C10.5596 55.3427 11.1263 55.0621 11.8346 55.0621ZM9.0013 58.1491C12.8263 59.5522 19.6263 59.6926 23.168 59.6926C24.1596 59.6926 25.1513 59.6926 26.143 59.6926C26.993 59.6926 27.9846 59.6926 28.8346 59.6926C31.668 59.6926 34.5013 59.5522 37.3346 59.2716V62.2183C36.6263 62.6392 34.218 63.4812 28.693 63.7618C25.4346 64.0424 22.1763 64.0424 18.918 63.9021C12.8263 63.6215 9.70964 62.7796 8.85964 62.2183V58.1491H9.0013ZM17.5013 68.5326V69.5148C17.5013 69.7955 17.5013 70.2164 17.7846 70.4971C16.0846 70.3567 14.3846 70.0761 12.8263 69.5148C14.243 69.0939 15.943 68.6729 17.5013 68.5326ZM26.0013 77.9339C17.7846 77.9339 12.968 76.8114 11.8346 76.1098V72.0406C15.6596 73.4437 22.4596 73.5841 26.0013 73.5841C27.418 73.5841 28.8346 73.5841 30.2513 73.4437C31.668 73.5841 33.0846 73.5841 34.5013 73.5841C36.4846 73.5841 38.3263 73.4437 40.168 73.3034V75.9695C39.0346 76.8114 34.218 77.9339 26.0013 77.9339ZM41.443 70.6374C39.318 70.7777 36.9096 70.918 34.5013 70.918C33.0846 70.918 31.8096 70.918 30.2513 70.7777C24.1596 70.4971 21.043 69.6551 20.193 69.0939V66.5681C21.1846 66.5681 22.0346 66.7085 23.0263 66.7085C25.0096 66.7085 26.8513 66.7085 28.693 66.5681C30.5346 66.7085 32.3763 66.7085 34.3596 66.7085C37.9013 66.7085 44.7013 66.5681 48.5263 65.165V69.2342C48.1013 69.5148 46.118 70.2164 41.443 70.6374Z" fill="#6E9E3D" stroke="#6E9E3D" stroke-miterlimit="10"/>
</svg>
