<svg width="22" height="22" viewBox="0 0 22 22" fill="none" xmlns="http://www.w3.org/2000/svg">
<path d="M17.1411 18.3078C15.3816 20.2077 13.0121 21.2703 10.5449 21.2656C9.32046 21.2887 8.10429 21.0383 6.97044 20.5299C5.83659 20.0215 4.8088 19.2656 3.94875 18.3078C2.55423 16.7966 1.65492 14.8203 1.39112 12.688L4.0835 12.2445C4.35087 13.7462 5.00486 15.132 5.96803 16.2374C7.22823 17.588 8.91909 18.3441 10.6797 18.3441C12.4403 18.3441 14.1311 17.588 15.3913 16.2374L12.5642 13.1317L21.1797 12.0964L20.103 21.5613L17.1411 18.3078ZM1.12162 0.561279L4.0835 3.81474C5.86155 1.89563 8.2541 0.820336 10.7467 0.820336C13.2394 0.820336 15.6326 1.89563 17.4106 3.81474C18.8044 5.32656 19.7036 7.30254 19.9683 9.43455L17.2759 9.87811C17.0089 8.37624 16.3548 6.99034 15.3913 5.88521C14.1311 4.53455 12.4403 3.77845 10.6797 3.77845C8.91909 3.77845 7.22823 4.53455 5.96803 5.88521L8.79516 8.99081L0.179688 10.0261L1.12162 0.561279Z" fill="white"/>
</svg>
