<svg width="32" height="28" viewBox="0 0 32 28" fill="none" xmlns="http://www.w3.org/2000/svg">
<path d="M16.2292 1.1226C17.2186 1.12366 18.178 1.46203 18.9491 2.08186C19.7203 2.70168 20.257 3.56591 20.4707 4.5319C20.5427 4.83988 20.5788 5.15518 20.5781 5.47147C20.579 6.23885 20.3751 6.99256 19.9875 7.65486H12.462C12.2063 7.215 12.0305 6.73329 11.943 6.23208C11.8901 5.98481 11.8602 5.73319 11.8535 5.48042C11.8535 4.90663 11.9668 4.33849 12.1869 3.80861C12.4071 3.27872 12.7297 2.79752 13.1362 2.39263C13.5428 1.98773 14.0253 1.66711 14.5561 1.44916C15.0869 1.23122 15.6555 1.12024 16.2292 1.1226V1.1226Z" stroke="white" stroke-width="2" stroke-miterlimit="10"/>
<path d="M24.2015 3.297V8.49596C25.0016 9.2383 25.6676 10.1132 26.1701 11.082L30 12.7285V17.0774L26.1701 18.7149C25.3762 20.2336 24.1975 21.5172 22.7519 22.4374V25.7751H19.1278V23.9855C17.2187 24.4404 15.2295 24.4404 13.3204 23.9855V25.7751H9.6963V22.4374C8.55896 21.7356 7.5875 20.7953 6.84902 19.6814C6.11055 18.5675 5.62264 17.3065 5.41901 15.9857H5.34742C4.55898 15.9869 3.78793 15.754 3.13198 15.3165C2.47603 14.8791 1.96471 14.2567 1.66283 13.5284C1.36094 12.8 1.28207 11.9984 1.43622 11.2252C1.59037 10.452 1.97059 9.7419 2.5287 9.18498L4.06781 10.7151C3.89598 10.882 3.75938 11.0816 3.6661 11.3021C3.57282 11.5227 3.52476 11.7597 3.52476 11.9992C3.52476 12.2387 3.57282 12.4758 3.6661 12.6963C3.75938 12.9169 3.89598 13.1165 4.06781 13.2833C4.24531 13.4585 4.45668 13.5957 4.689 13.6865C4.92133 13.7773 5.16972 13.8197 5.41901 13.8113C5.67314 12.2739 6.30037 10.8223 7.24575 9.58364C8.19114 8.34497 9.42583 7.35701 10.8417 6.7063C11.0015 7.47945 11.3488 8.20153 11.8528 8.80915H20.6401C21.175 8.08675 21.5363 7.25085 21.696 6.36627C21.8468 5.55069 21.7883 4.71019 21.526 3.92338C22.3718 3.54264 23.2835 3.3299 24.2104 3.297H24.2015Z" stroke="white" stroke-width="2.5" stroke-miterlimit="10"/>
<path d="M22.4824 11.2789H22.384H22.2855H22.1871C22.0936 11.3037 22.0035 11.3398 21.9186 11.3863H21.865V11.431V11.4758V11.5205C21.8688 11.5382 21.8688 11.5565 21.865 11.5742V11.5742C21.865 11.5742 21.865 11.5742 21.865 11.6279C21.865 11.6816 21.865 11.6279 21.865 11.6279C21.8692 11.6425 21.8692 11.658 21.865 11.6726V11.7442C21.8601 11.7738 21.8601 11.8041 21.865 11.8337V11.8337C21.8606 11.8604 21.8606 11.8876 21.865 11.9142C21.882 12.0018 21.9187 12.0844 21.9723 12.1558C21.984 12.1816 21.999 12.2057 22.0171 12.2274V12.2274H22.0618C22.0765 12.2312 22.0919 12.2312 22.1066 12.2274H22.1513H22.2139H22.2766H22.3303H22.715C22.8103 12.2071 22.9033 12.1771 22.9924 12.1379L23.0372 12.8717H23.0998H23.1446V12.827V12.7822C23.1446 12.7822 23.1446 12.7822 23.1446 12.7285C23.1446 12.7285 23.1446 12.7285 23.1446 12.6748C23.148 12.6601 23.148 12.6448 23.1446 12.6301C23.1446 12.6301 23.1446 12.5764 23.1446 12.5585C23.1446 12.5585 23.1446 12.5048 23.1446 12.469C23.2098 12.5141 23.2903 12.5314 23.3684 12.5172C23.4464 12.5029 23.5156 12.4582 23.5607 12.393C23.6058 12.3277 23.6231 12.2472 23.6088 12.1692C23.5945 12.0911 23.5499 12.022 23.4846 11.9769C23.4667 11.891 23.4333 11.8092 23.3862 11.7353V11.7353L23.3414 11.6726H23.2967H23.2519H23.1983H23.1446H23.0909H23.0372H22.7598L22.4824 11.2789Z" stroke="white" stroke-width="0.75" stroke-miterlimit="10"/>
</svg>
