<svg width="86" height="86" viewBox="0 0 86 86" fill="none" xmlns="http://www.w3.org/2000/svg">
<path d="M72.7658 13.2007C55.9694 -3.27742 28.7666 -3.36697 11.6963 12.6634L8.3188 9.2603C7.1321 8.09608 5.12384 8.63341 4.7587 10.2454L0.559605 26.9027C0.194466 28.4251 1.56374 29.7684 3.11558 29.4102L20.1858 25.4698C21.8289 25.1115 22.3766 23.1413 21.1899 21.9771L16.9908 17.8576C31.14 4.60343 53.596 4.78254 67.4713 18.3949C81.6204 32.276 81.6204 54.7543 67.4713 68.5458C66.6497 69.3518 65.8281 70.1578 64.9153 70.8742C63.3635 72.128 63.0896 74.4564 64.4589 75.9788C65.1892 76.8744 66.2846 77.3222 67.2887 77.3222C68.1103 77.3222 68.9318 77.0535 69.6621 76.5162C70.7575 75.6206 71.7617 74.7251 72.7658 73.74C89.7447 57.0827 89.7447 29.9475 72.7658 13.2007Z" fill="#6E9E3D" stroke="#6E9E3D" stroke-width="0.5" stroke-miterlimit="10"/>
<path d="M36.6167 78.576C35.9777 78.4864 35.3387 78.3968 34.6997 78.2177C32.6914 77.77 30.6832 79.1133 30.318 81.0835C29.9529 83.0537 31.2309 85.0239 33.2391 85.3821C33.9694 85.5612 34.791 85.6508 35.5213 85.7404C35.7038 85.7404 35.8864 85.7404 36.069 85.7404C37.8947 85.7404 39.4465 84.397 39.7204 82.6059C39.9942 80.7253 38.6249 78.8446 36.6167 78.576Z" fill="#6E9E3D" stroke="#6E9E3D" stroke-width="0.5" stroke-miterlimit="10"/>
<path d="M19.5468 71.322C17.9037 70.1578 15.6216 70.4265 14.3436 71.9489C13.0656 73.5609 13.3395 75.7998 14.9826 77.0536C15.6216 77.5013 16.1693 77.9491 16.8083 78.3969C17.4473 78.8447 18.1776 79.1133 18.9991 79.1133C20.1858 79.1133 21.2812 78.576 22.0115 77.5909C23.1982 75.9789 22.8331 73.6505 21.0987 72.4862C20.551 72.128 20.0032 71.7698 19.5468 71.322Z" fill="#6E9E3D" stroke="#6E9E3D" stroke-width="0.5" stroke-miterlimit="10"/>
<path d="M53.2315 77.143C52.5925 77.3221 52.0448 77.5012 51.4058 77.6803C49.3976 78.2176 48.2109 80.1878 48.7586 82.1581C49.215 83.7701 50.6755 84.8447 52.3187 84.8447C52.6838 84.8447 52.9577 84.8447 53.3228 84.7552C54.0531 84.576 54.7833 84.3074 55.5136 84.1283C57.4306 83.5014 58.526 81.4416 57.887 79.561C57.3393 77.5907 55.1485 76.5161 53.2315 77.143Z" fill="#6E9E3D" stroke="#6E9E3D" stroke-width="0.5" stroke-miterlimit="10"/>
<path d="M9.14035 58.5156C8.31879 56.7245 6.03667 55.9185 4.21098 56.7245C2.38528 57.62 1.56372 59.7693 2.38528 61.5604C2.75042 62.2769 3.02428 62.9038 3.38942 63.6202C4.02841 64.874 5.30639 65.5904 6.67566 65.5904C7.31466 65.5904 7.86236 65.4113 8.41007 65.1426C10.2358 64.1575 10.8748 62.0082 9.96191 60.2171C9.68806 59.6798 9.4142 59.1424 9.14035 58.5156Z" fill="#6E9E3D" stroke="#6E9E3D" stroke-width="0.5" stroke-miterlimit="10"/>
<path d="M59.2555 49.9183L50.0358 44.1867C50.0358 43.9181 50.2184 43.739 50.2184 43.4703C50.2184 40.3359 48.3927 37.7388 45.7454 36.3954V22.2457C45.7454 20.186 44.1023 18.574 42.0027 18.574C39.9032 18.574 38.2601 20.186 38.2601 22.2457V36.485C35.6128 37.8283 33.7871 40.4254 33.7871 43.5598C33.7871 47.948 37.4385 51.6198 42.0027 51.6198C43.4633 51.6198 44.8326 51.0825 46.0193 50.366L55.239 56.0976C55.878 56.4558 56.517 56.6349 57.2473 56.6349C58.434 56.6349 59.712 56.008 60.351 54.9333C61.5377 53.2318 60.9899 50.9929 59.2555 49.9183ZM42.0027 46.3361C40.4509 46.3361 39.0816 45.0823 39.0816 43.4703C39.0816 41.9479 40.3596 40.6045 42.0027 40.6045C43.5546 40.6045 44.8326 41.8583 44.8326 43.4703C44.9238 45.0823 43.5546 46.3361 42.0027 46.3361Z" fill="#6E9E3D" stroke="#6E9E3D" stroke-width="0.5" stroke-miterlimit="10"/>
</svg>
