<svg width="64" height="65" viewBox="0 0 64 65" fill="none" xmlns="http://www.w3.org/2000/svg">
<path d="M-0.000427246 32.0058C-0.000427246 14.3295 14.3266 0 31.9998 0C49.673 0 64 14.3295 64 32.0058C64 49.6821 49.673 64.0116 31.9998 64.0116C14.3266 64.0116 -0.000427246 49.6821 -0.000427246 32.0058Z" fill="white"/>
<path d="M32.0062 52C26.929 52 22.157 50.0253 18.5694 46.4369C14.9802 42.8486 13 38.076 13 33.0001C13 27.9241 14.9754 23.1515 18.5661 19.5633C22.1522 15.9749 26.9243 14 31.9997 14C37.0785 14 41.854 15.9766 45.4432 19.5666C52.8539 26.9739 52.8507 39.028 45.4432 46.4369C41.854 50.0237 37.0817 52 32.0062 52ZM31.9995 48.7732C36.2149 48.7732 40.1735 47.1323 43.1543 44.1555C49.3047 38.005 49.3047 27.9983 43.1543 21.8479C40.172 18.8679 36.2101 17.227 31.9931 17.227C27.7793 17.227 23.8205 18.8663 20.8413 21.8447C17.8638 24.8231 16.2209 28.7857 16.2209 33.0001C16.2209 37.2144 17.8622 41.1755 20.8446 44.1555C23.8238 47.1323 27.7858 48.7732 31.9995 48.7732ZM25.6452 37.8404C24.7528 37.8404 24.0314 37.1176 24.0314 36.227C24.0314 35.3364 24.7528 34.6135 25.6452 34.6135H38.3542C39.2467 34.6135 39.9681 35.3364 39.9681 36.227C39.9681 37.1176 39.2467 37.8404 38.3542 37.8404H25.6452ZM25.6452 31.3866C24.7528 31.3866 24.0314 30.6639 24.0314 29.7732C24.0314 28.8826 24.7528 28.1598 25.6452 28.1598H38.3542C39.2467 28.1598 39.9681 28.8826 39.9681 29.7732C39.9681 30.6639 39.2467 31.3866 38.3542 31.3866H25.6452Z" fill="#6E9E3D"/>
</svg>
