<svg width="33" height="33" viewBox="0 0 33 33" fill="none" xmlns="http://www.w3.org/2000/svg">
<path d="M17.0305 26.5639C12.8636 26.5639 9.6421 24.9975 8.73958 22.5591C5.88823 20.4512 6.04732 17.9701 6.32878 13.5768C6.5154 10.603 6.08403 9.46801 5.82704 8.78882C5.80868 8.73987 5.79033 8.69704 5.77503 8.65421C5.16842 8.38946 4.64466 7.96565 4.25918 7.42762C3.8737 6.88959 3.64084 6.25735 3.58524 5.59782C3.52965 4.93829 3.65338 4.276 3.94335 3.68103C4.23332 3.08606 4.67874 2.58054 5.23247 2.21798C5.7862 1.85542 6.42765 1.64929 7.08893 1.62142C7.75021 1.59355 8.40673 1.74496 8.98901 2.05964C9.57129 2.37432 10.0577 2.84056 10.3967 3.40902C10.7357 3.97748 10.9147 4.62701 10.9148 5.28888C10.9323 5.61211 10.9815 5.93284 11.0617 6.24647C11.4808 7.74863 13.0472 12.7201 15.8618 15.3053C17.327 15.1485 18.8086 15.272 20.2276 15.6694C20.6712 15.3635 21.1087 15.033 21.534 14.724C23.8989 12.9955 25.9395 11.5025 27.8516 11.5025C28.4008 11.4984 28.942 11.6342 29.4241 11.8972C31.2078 12.8639 31.171 14.106 31.0731 14.5955C30.8743 15.5746 29.984 16.3761 28.7449 16.7555C28.9141 16.9974 29.029 17.273 29.0818 17.5634C29.1346 17.8538 29.124 18.1522 29.0509 18.4381C28.7449 19.4477 27.613 20.1575 25.5571 20.6103C25.5792 20.7746 25.5895 20.9402 25.5876 21.1059C25.5815 24.2693 21.9867 26.5639 17.0305 26.5639ZM7.24354 2.8536C6.6693 2.8616 6.11616 3.07128 5.68091 3.44594C5.24566 3.8206 4.95602 4.33639 4.86267 4.90305C4.76932 5.4697 4.87821 6.05114 5.17028 6.54562C5.46235 7.0401 5.91901 7.41612 6.46033 7.6079C6.55418 7.63986 6.63886 7.69416 6.70708 7.7661C6.7753 7.83805 6.82501 7.9255 6.85193 8.02092C6.87947 8.12188 6.9223 8.2259 6.96819 8.35133C7.27413 9.1223 7.75446 10.4134 7.54948 13.6502C7.24354 18.4259 7.26189 20.0168 9.60845 21.678C9.71565 21.7529 9.79607 21.8601 9.8379 21.984C10.4498 23.9848 13.3531 25.331 17.0305 25.331C21.2066 25.331 24.3547 23.4953 24.3547 21.0968C24.3583 20.8248 24.3222 20.5537 24.2476 20.2921C24.225 20.2107 24.2195 20.1254 24.2314 20.0417C24.2434 19.958 24.2726 19.8776 24.3171 19.8058C24.3617 19.7339 24.4206 19.6721 24.4903 19.6241C24.56 19.5762 24.6388 19.5432 24.7218 19.5273L25.0737 19.4508C27.3835 18.9797 27.8057 18.3402 27.8791 18.0863C28.0137 17.6213 27.46 17.0186 27.2183 16.783C27.1346 16.702 27.0757 16.5989 27.0486 16.4856C27.0215 16.3723 27.0273 16.2537 27.0653 16.1436C27.1038 16.0336 27.1729 15.9368 27.2645 15.8647C27.3561 15.7927 27.4664 15.7482 27.5824 15.7367C28.9346 15.6021 29.7668 14.9321 29.8861 14.3416C30.0146 13.6991 29.2956 13.2005 28.852 12.9618C27.2703 12.1021 24.8748 13.8032 22.2713 15.7153C21.7604 16.0885 21.2403 16.471 20.7079 16.8473C20.631 16.9012 20.5427 16.9367 20.4499 16.951C20.357 16.9654 20.2621 16.9581 20.1725 16.9299C18.7336 16.5105 17.2254 16.3825 15.7364 16.5536C15.6527 16.5631 15.5679 16.5553 15.4874 16.5305C15.4068 16.5058 15.3322 16.4647 15.2683 16.4098C12.0743 13.6563 10.3458 8.1953 9.89297 6.58912C9.77895 6.16831 9.71024 5.73653 9.68799 5.30112C9.68799 4.65252 9.43055 4.03045 8.97221 3.57154C8.51388 3.11263 7.89213 2.85441 7.24354 2.8536Z" fill="white" stroke="white" stroke-width="2" stroke-miterlimit="10"/>
<path d="M2.22047 9.62096C2.12728 9.6211 2.03528 9.59995 1.95151 9.55912C1.86774 9.5183 1.7944 9.45887 1.73708 9.38539C1.66715 9.29585 1.62352 9.18861 1.61109 9.07568C1.59867 8.96274 1.61793 8.84858 1.66672 8.74598L3.69203 4.49342C3.76422 4.35097 3.88923 4.24238 4.04039 4.19085C4.19154 4.13931 4.35686 4.14892 4.50103 4.21761C4.6452 4.2863 4.7568 4.40863 4.812 4.55848C4.86721 4.70834 4.86163 4.87384 4.79648 5.01964L3.28819 8.16469L6.14261 7.58341C6.22219 7.56534 6.30458 7.56338 6.38494 7.57763C6.46529 7.59188 6.54198 7.62207 6.61049 7.6664C6.67901 7.71074 6.73796 7.76833 6.78388 7.83579C6.8298 7.90326 6.86177 7.97922 6.87789 8.05922C6.89401 8.13922 6.89397 8.22164 6.87776 8.30162C6.86155 8.3816 6.82951 8.45753 6.78352 8.52495C6.73753 8.59236 6.67851 8.64989 6.60995 8.69416C6.54139 8.73842 6.46467 8.76852 6.3843 8.78269L2.32755 9.60873C2.29238 9.61657 2.25649 9.62067 2.22047 9.62096Z" fill="white" stroke="white" stroke-width="2" stroke-miterlimit="10"/>
<path d="M17.0865 30.3881C16.9242 30.3881 16.7686 30.3237 16.6538 30.2089C16.5391 30.0942 16.4746 29.9385 16.4746 29.7763V26.105C16.4746 25.9427 16.5391 25.7871 16.6538 25.6723C16.7686 25.5576 16.9242 25.4931 17.0865 25.4931C17.2488 25.4931 17.4044 25.5576 17.5192 25.6723C17.6339 25.7871 17.6984 25.9427 17.6984 26.105V29.7763C17.6984 29.9385 17.6339 30.0942 17.5192 30.2089C17.4044 30.3237 17.2488 30.3881 17.0865 30.3881Z" fill="white" stroke="white" stroke-miterlimit="10"/>
<path d="M18.0036 31H16.7798C16.6176 31 16.4619 30.9355 16.3472 30.8208C16.2324 30.706 16.168 30.5504 16.168 30.3881C16.168 30.2258 16.2324 30.0702 16.3472 29.9555C16.4619 29.8407 16.6176 29.7762 16.7798 29.7762H18.0036C18.1659 29.7762 18.3215 29.8407 18.4363 29.9555C18.551 30.0702 18.6155 30.2258 18.6155 30.3881C18.6155 30.5504 18.551 30.706 18.4363 30.8208C18.3215 30.9355 18.1659 31 18.0036 31Z" fill="white" stroke="white" stroke-width="3" stroke-miterlimit="10"/>
<path d="M20.5845 24.1162C20.4223 24.1162 20.2666 24.0518 20.1519 23.937C20.0371 23.8223 19.9727 23.6666 19.9727 23.5043C19.9727 23.3421 20.0371 23.1864 20.1519 23.0717C20.2666 22.9569 20.4223 22.8925 20.5845 22.8925C24.7637 22.8925 27.9271 21.0752 27.9271 18.6583C27.9271 18.496 27.9915 18.3404 28.1063 18.2256C28.221 18.1109 28.3767 18.0464 28.539 18.0464C28.7012 18.0464 28.8569 18.1109 28.9716 18.2256C29.0864 18.3404 29.1508 18.496 29.1508 18.6583C29.1355 21.8217 25.5407 24.1162 20.5845 24.1162Z" fill="white" stroke="white" stroke-width="0.5" stroke-miterlimit="10"/>
</svg>
