<svg width="64" height="65" viewBox="0 0 64 65" fill="none" xmlns="http://www.w3.org/2000/svg">
<path d="M-0.000427246 32.0793C-0.000427246 14.403 14.3266 0.0735474 31.9998 0.0735474C49.673 0.0735474 64 14.403 64 32.0793C64 49.7556 49.673 64.0851 31.9998 64.0851C14.3266 64.0851 -0.000427246 49.7556 -0.000427246 32.0793Z" fill="white"/>
<path d="M13.187 26.7533C13.1682 26.7386 13.153 26.7199 13.1425 26.6984C13.1321 26.677 13.1266 26.6535 13.1266 26.6296C13.1266 26.6058 13.1321 26.5822 13.1425 26.5608C13.153 26.5394 13.1682 26.5206 13.187 26.5059C15.7945 24.52 18.989 23.4587 22.2666 23.4895C25.5441 23.4587 28.7386 24.52 31.3461 26.5059C31.3649 26.5206 31.3802 26.5394 31.3906 26.5608C31.4011 26.5822 31.4065 26.6058 31.4065 26.6296C31.4065 26.6535 31.4011 26.677 31.3906 26.6984C31.3802 26.7199 31.3649 26.7386 31.3461 26.7533C28.7335 28.726 25.5402 29.7763 22.2666 29.7396C18.993 29.7763 15.7997 28.726 13.187 26.7533ZM31.5151 29.7094C31.4306 29.7818 31.3401 29.8482 31.2436 29.9206C30.3995 30.5178 29.4754 30.993 28.4986 31.3323C24.7198 32.6673 20.5977 32.6673 16.8188 31.3323C15.8232 30.9977 14.8805 30.5223 14.0196 29.9206C13.6441 29.6479 13.3019 29.332 13 28.9795V32.8707L13.1026 32.9371C14.2498 33.6301 15.483 34.1697 16.7706 34.5418C18.6687 35.0885 20.6352 35.3608 22.6105 35.3502C23.3581 35.3532 24.1053 35.3149 24.8487 35.2356C24.9129 35.2416 24.9775 35.2416 25.0417 35.2356C25.1608 34.8643 25.3902 34.5381 25.6993 34.3005H25.7355C27.4459 32.9655 29.4135 31.9982 31.5151 31.459V29.7094ZM24.8487 44.285C24.1166 44.381 23.379 44.4294 22.6406 44.4298C18.8459 44.3996 14.7496 43.0784 13.0302 41.0453V43.5128C13.0298 43.968 13.1581 44.4141 13.4005 44.7994C13.6428 45.1848 13.9892 45.4938 14.3996 45.6907C16.9854 46.8678 19.7999 47.4571 22.6406 47.4161C23.3883 47.4205 24.1356 47.3822 24.8788 47.3015C24.8532 47.1013 24.8391 46.8999 24.8366 46.6982V44.285H24.8487ZM24.8487 41.3047V38.2521C24.1166 38.3481 23.379 38.3965 22.6406 38.3969C19.4733 38.3969 16.0768 37.4799 14.0497 35.9837C13.6742 35.711 13.332 35.3951 13.0302 35.0425V38.9338C15.9414 40.6364 19.2691 41.495 22.6406 41.4133C23.3786 41.4021 24.1156 41.3538 24.8487 41.2685V41.3047ZM28.7098 34.4996C28.0758 34.8423 27.4705 35.2358 26.8999 35.676L26.8214 35.7363C26.8027 35.7504 26.7875 35.7686 26.777 35.7895C26.7666 35.8105 26.7611 35.8336 26.7611 35.857C26.7611 35.8804 26.7666 35.9035 26.777 35.9244C26.7875 35.9454 26.8027 35.9636 26.8214 35.9777C27.0929 36.1888 27.3704 36.3879 27.66 36.5809C28.0381 36.8301 28.4287 37.0597 28.8304 37.2687C29.6878 37.7077 30.5873 38.0594 31.5151 38.3184C32.9434 38.725 34.422 38.9281 35.907 38.9217C39.1708 38.9545 42.3532 37.9042 44.9564 35.9354C44.9752 35.9214 44.9904 35.9032 45.0008 35.8822C45.0113 35.8613 45.0168 35.8382 45.0168 35.8148C45.0168 35.7913 45.0113 35.7683 45.0008 35.7473C44.9904 35.7264 44.9752 35.7082 44.9564 35.6941C42.3584 33.712 39.1747 32.6508 35.907 32.6776C34.3747 32.6734 32.8501 32.895 31.3823 33.3352C30.4562 33.624 29.5609 34.0039 28.7098 34.4694V34.4996ZM42.1089 40.5325C38.3301 41.8675 34.2079 41.8675 30.4291 40.5325C30.1396 40.43 29.862 40.3153 29.5906 40.2007C28.9152 39.9124 28.2738 39.5502 27.6781 39.1208C27.3026 38.8481 26.9604 38.5322 26.6586 38.1797V42.0709L26.7611 42.1373C27.0748 42.3303 27.4006 42.5113 27.7385 42.6802C28.0763 42.8492 28.4785 43.0301 28.945 43.2232C29.4346 43.4214 29.934 43.5946 30.4412 43.742C30.7851 43.8446 31.141 43.9351 31.509 44.0195C33.0743 44.3778 34.6754 44.556 36.2811 44.5504C38.2563 44.561 40.2229 44.2888 42.121 43.742C43.1674 43.4378 44.1786 43.0233 45.1374 42.5053V38.8855C45.053 38.9579 44.9625 39.0243 44.8659 39.0967C44.0195 39.7033 43.0912 40.1868 42.1089 40.5325ZM29.5906 46.2336C28.4743 45.7879 27.4723 45.0972 26.6586 44.2126V46.6982C26.6494 46.8166 26.6494 46.9356 26.6586 47.0541C26.7185 47.4425 26.8723 47.8105 27.1068 48.1259C27.3413 48.4413 27.6492 48.6947 28.0039 48.864C30.5896 50.0413 33.4041 50.6306 36.2449 50.5894C38.7565 50.6139 41.25 50.1615 43.593 49.2561C44.0409 49.0764 44.4246 48.7664 44.6945 48.3664C44.9644 47.9663 45.1082 47.4945 45.1073 47.0119V44.9426C43.1164 46.5654 39.557 47.5669 36.2449 47.5669C33.9605 47.566 31.699 47.1128 29.5906 46.2336ZM49.9396 15.6346C49.8941 15.5234 49.827 15.4225 49.742 15.3375C49.6571 15.2526 49.5561 15.1854 49.4449 15.1399C49.3395 15.097 49.2269 15.0745 49.1131 15.0735H43.3939C43.1539 15.0735 42.9237 15.1689 42.754 15.3386C42.5843 15.5083 42.489 15.7385 42.489 15.9785C42.489 16.2185 42.5843 16.4487 42.754 16.6184C42.9237 16.7881 43.1539 16.8834 43.3939 16.8834H46.9171L38.7546 25.058C38.6657 25.1409 38.5944 25.2408 38.5449 25.3518C38.4954 25.4628 38.4688 25.5826 38.4667 25.7041C38.4646 25.8257 38.4869 25.9463 38.5324 26.059C38.5779 26.1717 38.6457 26.2741 38.7316 26.36C38.8175 26.4459 38.9199 26.5137 39.0326 26.5592C39.1453 26.6047 39.266 26.6271 39.3875 26.6249C39.509 26.6228 39.6288 26.5962 39.7398 26.5467C39.8508 26.4972 39.9507 26.4259 40.0336 26.337L48.1901 18.1503V21.6736C48.1901 21.9136 48.2854 22.1438 48.4551 22.3135C48.6248 22.4832 48.855 22.5785 49.095 22.5785C49.335 22.5785 49.5652 22.4832 49.7349 22.3135C49.9046 22.1438 50 21.9136 50 21.6736V15.9664C50.001 15.853 49.9805 15.7404 49.9396 15.6346Z" fill="#1E641E" stroke="white" stroke-width="0.01" stroke-miterlimit="10"/>
</svg>
