<svg width="33" height="26" viewBox="0 0 33 26" fill="none" xmlns="http://www.w3.org/2000/svg">
<path d="M28.1026 11.6658H27.7146V10.8218C27.7146 4.59347 23.154 0.237061 16.6874 0.237061C10.2209 0.237061 5.66026 4.59347 5.66026 10.8218V11.6658H5.27226C4.03113 11.668 2.83664 12.139 1.92806 12.9845C1.01949 13.83 0.463941 14.9876 0.3727 16.2254C0.281459 17.4632 0.661266 18.6897 1.43604 19.6594C2.21081 20.629 3.32333 21.27 4.55073 21.4541V23.4962C4.5543 24.0963 4.79426 24.6708 5.21858 25.0951C5.64289 25.5194 6.21737 25.7593 6.81743 25.7629H15.2512C15.4317 25.7629 15.6048 25.6912 15.7325 25.5635C15.8601 25.4359 15.9319 25.2628 15.9319 25.0822C15.9319 24.9017 15.8601 24.7286 15.7325 24.6009C15.6048 24.4733 15.4317 24.4015 15.2512 24.4015H6.81743C6.57426 24.3998 6.34156 24.3024 6.16961 24.1304C5.99767 23.9585 5.90028 23.7258 5.8985 23.4826V21.5154H6.32733C6.50786 21.5154 6.681 21.4437 6.80865 21.316C6.93631 21.1884 7.00802 21.0153 7.00802 20.8347V10.8218C7.02163 4.45733 11.875 1.59844 16.6874 1.59844C21.4999 1.59844 26.3532 4.45733 26.3532 10.8218V20.8347C26.3532 21.0153 26.4249 21.1884 26.5526 21.316C26.6802 21.4437 26.8534 21.5154 27.0339 21.5154H28.1026C29.377 21.468 30.5835 20.9284 31.4684 20.01C32.3533 19.0916 32.8477 17.866 32.8477 16.5906C32.8477 15.3153 32.3533 14.0896 31.4684 13.1712C30.5835 12.2528 29.377 11.7132 28.1026 11.6658Z" fill="white"/>
<path d="M24.8636 12.3669L23.3184 12.0402L22.6377 10.4134L23.4954 9.08602C23.5802 8.95545 23.6176 8.79978 23.6015 8.64495C23.5854 8.49012 23.5167 8.34548 23.4069 8.23515L22.277 7.11202C22.1637 7.00365 22.0165 6.9377 21.8603 6.9253C21.704 6.91289 21.5482 6.9548 21.4193 7.04395L20.1328 7.86078C19.587 7.59399 19.0229 7.36652 18.4447 7.18009L18.1316 5.68257C18.0998 5.5265 18.0142 5.38654 17.8898 5.28704C17.7655 5.18754 17.6101 5.13481 17.4509 5.13802H15.8717C15.7124 5.13481 15.5571 5.18754 15.4327 5.28704C15.3084 5.38654 15.2228 5.5265 15.191 5.68257L14.8847 7.13924C14.2786 7.30109 13.6971 7.54378 13.1557 7.86078L11.9305 7.04395C11.7993 6.95742 11.6422 6.91895 11.4859 6.93508C11.3295 6.95121 11.1836 7.02094 11.0728 7.13244L9.94289 8.25558C9.83139 8.36634 9.76166 8.51228 9.74553 8.66861C9.7294 8.82495 9.76787 8.98205 9.8544 9.11324L10.6712 10.3589C10.3524 10.9009 10.1117 11.4853 9.9565 12.0947L8.51344 12.401C8.35737 12.4328 8.21741 12.5183 8.11791 12.6427C8.01841 12.7671 7.96568 12.9224 7.96889 13.0817V14.6677C7.96568 14.8269 8.01841 14.9822 8.11791 15.1066C8.21741 15.231 8.35737 15.3165 8.51344 15.3484L9.97692 15.6547C10.1388 16.2586 10.3815 16.8379 10.6985 17.3768L9.88163 18.6157C9.79686 18.7462 9.75941 18.9019 9.77551 19.0567C9.79161 19.2116 9.8603 19.3562 9.97011 19.4665L11.1001 20.5965C11.2104 20.7063 11.355 20.775 11.5099 20.7911C11.6647 20.8072 11.8204 20.7697 11.9509 20.685L13.2783 19.8205L14.9187 20.5012L15.2455 22.0191C15.2787 22.1739 15.3648 22.3123 15.489 22.4105C15.6133 22.5086 15.7679 22.5604 15.9261 22.5569H17.5053C17.6636 22.5604 17.8182 22.5086 17.9424 22.4105C18.0667 22.3123 18.1528 22.1739 18.186 22.0191L18.5128 20.4671L20.1396 19.7865L21.4465 20.6577C21.5777 20.7443 21.7348 20.7827 21.8912 20.7666C22.0475 20.7505 22.1934 20.6807 22.3042 20.5692L23.4342 19.4393C23.5375 19.3309 23.6021 19.1914 23.6181 19.0425C23.6341 18.8936 23.6006 18.7436 23.5226 18.6157L22.6582 17.2543L23.3389 15.6138L24.8772 15.2939C25.0333 15.2621 25.1732 15.1765 25.2727 15.0522C25.3722 14.9278 25.425 14.7725 25.4218 14.6132V13.034C25.4212 12.8752 25.3651 12.7215 25.2631 12.5997C25.1612 12.4779 25.0199 12.3955 24.8636 12.3669ZM19.8333 16.9956C19.4209 17.4097 18.9309 17.7383 18.3912 17.9625C17.8515 18.1867 17.2729 18.3021 16.6885 18.3021C16.1041 18.3021 15.5255 18.1867 14.9858 17.9625C14.4462 17.7383 13.9561 17.4097 13.5437 16.9956C13.0225 16.4805 12.6367 15.8446 12.4207 15.1444C12.2047 14.4441 12.1652 13.7014 12.3056 12.9822C12.4461 12.2629 12.7622 11.5896 13.2258 11.0221C13.6893 10.4546 14.286 10.0105 14.9627 9.72936C15.6395 9.44821 16.3752 9.33873 17.1044 9.41066C17.8337 9.48258 18.5338 9.73369 19.1426 10.1416C19.7513 10.5496 20.2498 11.1017 20.5935 11.7488C20.9373 12.396 21.1158 13.1181 21.113 13.8508C21.1188 14.4337 21.0086 15.0118 20.7889 15.5517C20.5692 16.0916 20.2444 16.5824 19.8333 16.9956Z" fill="white"/>
</svg>
