<svg width="64" height="65" viewBox="0 0 64 65" fill="none" xmlns="http://www.w3.org/2000/svg">
<path d="M-0.000427246 32.0058C-0.000427246 14.3295 14.3266 0 31.9998 0C49.673 0 64 14.3295 64 32.0058C64 49.6821 49.673 64.0116 31.9998 64.0116C14.3266 64.0116 -0.000427246 49.6821 -0.000427246 32.0058Z" fill="white"/>
<path d="M22.9091 32.548C24.0455 32.548 25 33.5238 25 34.6855C25 35.8472 24.0455 36.823 22.9091 36.823C21.7727 36.823 20.8182 35.8472 20.8182 34.6855C20.8182 33.4774 21.7273 32.548 22.9091 32.548ZM53.9545 44.2113H44.2273C43.7727 44.2113 43.4091 44.583 43.4091 45.0477V46.3952C43.4091 46.8599 43.7727 47.2316 44.2273 47.2316H53.9091C54.3636 47.2316 54.7273 46.8599 54.7273 46.3952V45.0477C54.7727 44.583 54.4091 44.2113 53.9545 44.2113ZM42.8636 48.3004C42.4091 48.3004 42.0455 48.6721 42.0455 49.1368V50.4843C42.0455 50.949 42.4091 51.3208 42.8636 51.3208H52.5455C53 51.3208 53.3636 50.949 53.3636 50.4843V49.1368C53.3636 48.6721 53 48.3004 52.5455 48.3004H42.8636ZM55.1818 36.0331H45.5C45.0455 36.0331 44.6818 36.4048 44.6818 36.8695V38.217C44.6818 38.6817 45.0455 39.0534 45.5 39.0534H55.1818C55.6364 39.0534 56 38.6817 56 38.217V36.8695C56 36.4048 55.6364 36.0331 55.1818 36.0331ZM52.5455 40.1222H42.8636C42.4091 40.1222 42.0455 40.4939 42.0455 40.9586V42.3061C42.0455 42.7708 42.4091 43.1425 42.8636 43.1425H52.5455C53 43.1425 53.3636 42.7708 53.3636 42.3061V40.9586C53.3636 40.4939 53 40.1222 52.5455 40.1222ZM43.9545 32.7804V34.1279C43.9545 34.5926 44.3182 34.9643 44.7727 34.9643H54.4545C54.9091 34.9643 55.2727 34.5926 55.2727 34.1279V32.7804C55.2727 32.3157 54.9091 31.944 54.4545 31.944H44.7273C44.3182 31.944 43.9545 32.3157 43.9545 32.7804ZM17.4545 47.2316H37.9091H41.8182C42.1818 47.2316 42.5 46.9064 42.5 46.5346V44.8618C42.5 44.4901 42.1818 44.1648 41.8182 44.1648H37.8636H21C21.0909 43.6537 21.0909 43.0496 20.9091 42.492C20.6364 41.5627 19.9545 40.7727 19.0909 40.308C18.3182 39.9363 17.6364 39.8898 16.9545 39.9828V29.2024C17.7273 29.3418 18.5909 29.2489 19.5455 28.5983C20.0909 28.2266 20.5455 27.669 20.8182 27.0649C21.0909 26.3679 21.1364 25.6709 21.0455 25.0204H46.6818C46.5455 25.5315 46.5455 26.1356 46.6818 26.7396C47 28.0407 48.0455 29.1095 49.3182 29.3883C49.8636 29.5277 50.4091 29.4812 50.9545 29.3418V30.1782C50.9545 30.55 51.2727 30.8752 51.6364 30.8752H53.2273C53.5909 30.8752 53.9091 30.55 53.9091 30.1782V25.5315C53.9091 23.5799 52.3636 22 50.4545 22H17.4545C15.5455 22 14 23.5799 14 25.5315V43.6537C14 45.6518 15.5455 47.2316 17.4545 47.2316ZM33.9091 26.9255C38.0909 26.9255 41.4545 30.3641 41.4545 34.6391C41.4545 38.914 38.0909 42.3526 33.9091 42.3526C29.7273 42.3526 26.3636 38.914 26.3636 34.6391C26.3636 30.3641 29.7273 26.9255 33.9091 26.9255ZM33.9091 30.1782C31.5 30.1782 29.5455 32.1763 29.5455 34.6391C29.5455 37.1018 31.5 39.0999 33.9091 39.0999C36.3182 39.0999 38.2727 37.1018 38.2727 34.6391C38.2727 32.1763 36.3182 30.1782 33.9091 30.1782Z" fill="#6E9E3D"/>
</svg>
