<svg width="87" height="87" viewBox="0 0 87 87" fill="none" xmlns="http://www.w3.org/2000/svg">
<path d="M73.2658 13.7006C56.4694 -2.77754 29.2666 -2.86709 12.1963 13.1633L8.8188 9.76017C7.6321 8.59596 5.62384 9.13329 5.2587 10.7453L1.0596 27.4025C0.694466 28.925 2.06374 30.2683 3.61558 29.9101L20.6858 25.9696C22.3289 25.6114 22.8766 23.6412 21.6899 22.477L17.4908 18.3575C31.64 5.10331 54.096 5.28242 67.9713 18.8948C82.1204 32.7758 82.1204 55.2542 67.9713 69.0456C67.1497 69.8516 66.3281 70.6576 65.4153 71.3741C63.8635 72.6279 63.5896 74.9563 64.9589 76.4787C65.6892 77.3743 66.7846 77.822 67.7887 77.822C68.6103 77.822 69.4318 77.5534 70.1621 77.0161C71.2575 76.1205 72.2617 75.2249 73.2658 74.2398C90.2447 57.5826 90.2447 30.4474 73.2658 13.7006Z" fill="#6E9E3D" stroke="#6E9E3D" stroke-width="0.5" stroke-miterlimit="10"/>
<path d="M37.1167 79.0757C36.4777 78.9862 35.8387 78.8966 35.1997 78.7175C33.1914 78.2697 31.1832 79.613 30.818 81.5832C30.4529 83.5535 31.7309 85.5237 33.7391 85.8819C34.4694 86.061 35.291 86.1506 36.0213 86.2401C36.2038 86.2401 36.3864 86.2401 36.569 86.2401C38.3947 86.2401 39.9465 84.8968 40.2204 83.1057C40.4942 81.225 39.1249 79.3444 37.1167 79.0757Z" fill="#6E9E3D" stroke="#6E9E3D" stroke-width="0.5" stroke-miterlimit="10"/>
<path d="M20.0468 71.8218C18.4037 70.6576 16.1216 70.9262 14.8436 72.4487C13.5656 74.0607 13.8395 76.2995 15.4826 77.5533C16.1216 78.0011 16.6693 78.4489 17.3083 78.8966C17.9473 79.3444 18.6776 79.6131 19.4991 79.6131C20.6858 79.6131 21.7812 79.0758 22.5115 78.0906C23.6982 76.4787 23.3331 74.1502 21.5987 72.986C21.051 72.6278 20.5032 72.2696 20.0468 71.8218Z" fill="#6E9E3D" stroke="#6E9E3D" stroke-width="0.5" stroke-miterlimit="10"/>
<path d="M53.7315 77.6429C53.0925 77.822 52.5448 78.0011 51.9058 78.1802C49.8976 78.7175 48.7109 80.6877 49.2586 82.6579C49.715 84.2699 51.1755 85.3446 52.8187 85.3446C53.1838 85.3446 53.4577 85.3446 53.8228 85.255C54.5531 85.0759 55.2833 84.8073 56.0136 84.6281C57.9306 84.0013 59.026 81.9415 58.387 80.0608C57.8393 78.0906 55.6485 77.016 53.7315 77.6429Z" fill="#6E9E3D" stroke="#6E9E3D" stroke-width="0.5" stroke-miterlimit="10"/>
<path d="M9.64035 59.0154C8.81879 57.2243 6.53667 56.4183 4.71098 57.2243C2.88528 58.1199 2.06372 60.2692 2.88528 62.0603C3.25042 62.7768 3.52428 63.4036 3.88942 64.1201C4.52841 65.3738 5.80639 66.0903 7.17566 66.0903C7.81466 66.0903 8.36236 65.9112 8.91007 65.6425C10.7358 64.6574 11.3748 62.5081 10.4619 60.717C10.1881 60.1797 9.9142 59.6423 9.64035 59.0154Z" fill="#6E9E3D" stroke="#6E9E3D" stroke-width="0.5" stroke-miterlimit="10"/>
<path d="M59.7555 50.4181L50.5358 44.6866C50.5358 44.4179 50.7184 44.2388 50.7184 43.9702C50.7184 40.8357 48.8927 38.2386 46.2454 36.8953V22.7456C46.2454 20.6858 44.6023 19.0739 42.5027 19.0739C40.4032 19.0739 38.7601 20.6858 38.7601 22.7456V36.9849C36.1128 38.3282 34.2871 40.9253 34.2871 44.0597C34.2871 48.4479 37.9385 52.1197 42.5027 52.1197C43.9633 52.1197 45.3326 51.5824 46.5193 50.8659L55.739 56.5974C56.378 56.9557 57.017 57.1348 57.7473 57.1348C58.934 57.1348 60.212 56.5079 60.851 55.4332C62.0377 53.7317 61.4899 51.4928 59.7555 50.4181ZM42.5027 46.8359C40.9509 46.8359 39.5816 45.5822 39.5816 43.9702C39.5816 42.4477 40.8596 41.1044 42.5027 41.1044C44.0546 41.1044 45.3326 42.3582 45.3326 43.9702C45.4238 45.5822 44.0546 46.8359 42.5027 46.8359Z" fill="#6E9E3D" stroke="#6E9E3D" stroke-width="0.5" stroke-miterlimit="10"/>
</svg>
