<svg width="87" height="87" viewBox="0 0 87 87" fill="none" xmlns="http://www.w3.org/2000/svg">
<path d="M78.9167 49.3702H77.5V36.7416C77.5 34.3562 75.6583 32.532 73.25 32.532H73.1083L75.375 27.6209C75.6583 26.9193 75.375 26.0774 74.6667 25.7968L20.6917 0.960446C19.9833 0.67981 19.1333 0.960446 18.85 1.66204L4.25833 32.6723C2.275 33.0933 1 34.7771 1 36.7416V81.6434C1 84.0288 2.84167 85.8529 5.25 85.8529H73.25C75.6583 85.8529 77.5 84.0288 77.5 81.6434V69.0147H78.9167C82.8833 69.0147 86 65.9277 86 61.9988V56.3861C86 52.4572 82.8833 49.3702 78.9167 49.3702ZM20.8333 4.04744L72.2583 27.7612L69.9917 32.532H64.1833C63.05 30.5676 62.625 28.3225 62.7667 25.9371C62.7667 25.3758 62.4833 24.8145 61.9167 24.5339L29.9 9.80049C29.3333 9.51985 28.625 9.66017 28.2 10.0811C25.7917 12.4665 22.3917 13.7294 18.9917 13.4488C18.425 13.4488 17.8583 13.7294 17.575 14.2907L12.1917 25.7968C11.9083 26.358 12.05 26.9193 12.475 27.3403C13.8917 28.7434 15.025 30.5676 15.45 32.6723H7.375L20.8333 4.04744ZM33.8667 32.532C33.1583 29.5853 34.8583 26.4983 37.975 25.6564C41.0917 24.8145 44.0667 26.6387 44.9167 29.7257C45.2 30.5676 45.2 31.5498 44.9167 32.532H33.8667ZM42.9333 23.5517C38.6833 21.5872 33.5833 23.4113 31.6 27.6209C30.8917 29.1644 30.6083 30.8482 30.8917 32.532H18.425C18 30.1466 16.8667 27.9015 15.1667 25.9371L19.7 16.1148C23.2417 16.2551 26.7833 14.9923 29.475 12.6068L59.9333 26.6387C59.9333 28.6031 60.2167 30.5676 61.0667 32.3917H47.75C48.3167 28.7434 46.3333 25.0952 42.9333 23.5517ZM74.6667 81.6434C74.6667 82.4853 74.1 83.0465 73.25 83.0465H5.25C4.4 83.0465 3.83333 82.4853 3.83333 81.6434V36.7416C3.83333 35.8997 4.4 35.3384 5.25 35.3384H73.25C74.1 35.3384 74.6667 35.8997 74.6667 36.7416V49.3702H67.5833C63.6167 49.3702 60.5 52.4572 60.5 56.3861V61.9988C60.5 65.9277 63.6167 69.0147 67.5833 69.0147H74.6667V81.6434ZM83.1667 61.9988C83.1667 64.3842 81.325 66.2084 78.9167 66.2084H67.5833C65.175 66.2084 63.3333 64.3842 63.3333 61.9988V56.3861C63.3333 54.0007 65.175 52.1766 67.5833 52.1766H78.9167C81.325 52.1766 83.1667 54.0007 83.1667 56.3861V61.9988Z" fill="#6E9E3D" stroke="#6E9E3D" stroke-miterlimit="10"/>
<path d="M70.416 54.983C68.0077 54.983 66.166 56.8072 66.166 59.1926C66.166 61.578 68.0077 63.4021 70.416 63.4021C72.8243 63.4021 74.666 61.578 74.666 59.1926C74.666 56.8072 72.8243 54.983 70.416 54.983ZM70.416 60.5958C69.566 60.5958 68.9993 60.0345 68.9993 59.1926C68.9993 58.3507 69.566 57.7894 70.416 57.7894C71.266 57.7894 71.8327 58.3507 71.8327 59.1926C71.8327 60.0345 71.266 60.5958 70.416 60.5958Z" fill="#6E9E3D" stroke="#6E9E3D" stroke-miterlimit="10"/>
<path d="M41.943 58.0699C44.918 57.3683 46.3346 56.3861 46.3346 54.9829V47.967C46.3346 44.1784 34.4346 43.7574 29.3346 43.7574C14.0346 43.7574 12.3346 46.7041 12.3346 47.967V51.6153C8.36797 52.3168 6.66797 53.2991 6.66797 54.9829V61.9988C6.66797 62.7004 6.66797 64.8052 14.743 65.7874C9.5013 66.7696 9.5013 68.3131 9.5013 69.0147V76.0306C9.5013 79.8192 21.4013 80.2402 26.5013 80.2402C31.6013 80.2402 43.5013 79.8192 43.5013 76.0306V72.8033C52.0013 71.8211 52.0013 69.8566 52.0013 69.0147V61.9988C52.0013 61.1569 52.0013 58.9118 41.943 58.0699ZM40.668 61.9988V60.7359C43.218 60.8763 45.768 61.2972 48.318 61.9988C45.768 62.7004 42.9346 63.1213 40.243 63.2617C40.5263 62.8407 40.668 62.4198 40.668 61.9988ZM38.968 55.8248C35.8513 56.2458 32.593 56.3861 29.3346 56.3861C28.4846 56.3861 27.493 56.3861 26.5013 56.3861C19.5596 56.1054 16.018 55.1232 15.168 54.7023V50.633C18.993 52.0362 25.793 52.1765 29.3346 52.1765C36.9846 52.1765 41.093 51.4749 43.5013 50.633V54.7023C42.0846 55.2635 40.5263 55.6845 38.968 55.8248ZM29.3346 46.5638C33.868 46.4235 38.2596 46.8444 42.6513 47.967C38.2596 49.0895 33.868 49.5105 29.3346 49.3702C24.8013 49.5105 20.4096 49.0895 16.018 47.967C20.4096 46.8444 24.8013 46.4235 29.3346 46.5638ZM12.3346 54.5619V54.9829C12.3346 55.1232 12.3346 55.2635 12.4763 55.5442C11.768 55.4039 11.0596 55.2635 10.493 54.9829C11.0596 54.8426 11.6263 54.5619 12.3346 54.5619ZM9.5013 57.6489C13.3263 59.0521 20.1263 59.1924 23.668 59.1924C24.6596 59.1924 25.6513 59.1924 26.643 59.1924C27.493 59.1924 28.4846 59.1924 29.3346 59.1924C32.168 59.1924 35.0013 59.0521 37.8346 58.7715V61.7182C37.1263 62.1391 34.718 62.981 29.193 63.2617C25.9346 63.5423 22.6763 63.5423 19.418 63.402C13.3263 63.1213 10.2096 62.2794 9.35964 61.7182V57.6489H9.5013ZM18.0013 68.0325V69.0147C18.0013 69.2953 18.0013 69.7163 18.2846 69.9969C16.5846 69.8566 14.8846 69.576 13.3263 69.0147C14.743 68.5938 16.443 68.1728 18.0013 68.0325ZM26.5013 77.4338C18.2846 77.4338 13.468 76.3112 12.3346 75.6097V71.5404C16.1596 72.9436 22.9596 73.0839 26.5013 73.0839C27.918 73.0839 29.3346 73.0839 30.7513 72.9436C32.168 73.0839 33.5846 73.0839 35.0013 73.0839C36.9846 73.0839 38.8263 72.9436 40.668 72.8033V75.4693C39.5346 76.3112 34.718 77.4338 26.5013 77.4338ZM41.943 70.1372C39.818 70.2776 37.4096 70.4179 35.0013 70.4179C33.5846 70.4179 32.3096 70.4179 30.7513 70.2776C24.6596 69.9969 21.543 69.155 20.693 68.5938V66.068C21.6846 66.068 22.5346 66.2083 23.5263 66.2083C25.5096 66.2083 27.3513 66.2083 29.193 66.068C31.0346 66.2083 32.8763 66.2083 34.8596 66.2083C38.4013 66.2083 45.2013 66.068 49.0263 64.6648V68.7341C48.6013 69.0147 46.618 69.7163 41.943 70.1372Z" fill="#6E9E3D" stroke="#6E9E3D" stroke-miterlimit="10"/>
</svg>
