<svg width="27" height="28" viewBox="0 0 27 28" fill="none" xmlns="http://www.w3.org/2000/svg">
<path opacity="0.1" fill-rule="evenodd" clip-rule="evenodd" d="M13.7962 27.5282C20.9383 27.5282 26.7281 21.3658 26.7281 13.7641C26.7281 6.16239 20.9383 0 13.7962 0C6.65407 0 0.864258 6.16239 0.864258 13.7641C0.864258 21.3658 6.65407 27.5282 13.7962 27.5282Z" fill="white"/>
<path d="M17.2891 6.02183H9.32345C7.50252 6.02183 6.02637 7.59174 6.02637 9.52833V17.9999C6.02637 19.9365 7.50252 21.5064 9.32345 21.5064H17.2891C19.11 21.5064 20.5862 19.9365 20.5862 17.9999V9.52833C20.5862 7.59174 19.11 6.02183 17.2891 6.02183Z" stroke="#F0F3F6" stroke-miterlimit="10"/>
<path d="M17.2818 7.5617H9.32305C8.30164 7.5617 7.47363 8.44231 7.47363 9.5286V17.9929C7.47363 19.0792 8.30164 19.9598 9.32305 19.9598H17.2818C18.3032 19.9598 19.1312 19.0792 19.1312 17.9929V9.5286C19.1312 8.44231 18.3032 7.5617 17.2818 7.5617Z" stroke="#F0F3F6" stroke-miterlimit="10"/>
<path d="M13.3405 17.8083C12.5946 17.8098 11.8651 17.5758 11.2444 17.136C10.6237 16.6962 10.1396 16.0704 9.85359 15.3378C9.56753 14.6053 9.49232 13.7989 9.6375 13.0208C9.78267 12.2428 10.1417 11.5281 10.6691 10.9672C11.1965 10.4063 11.8685 10.0244 12.6001 9.87005C13.3317 9.71566 14.0899 9.79564 14.7787 10.0999C15.4675 10.4041 16.056 10.9189 16.4695 11.579C16.883 12.2392 17.103 13.015 17.1016 13.8082C17.0998 14.8685 16.703 15.8848 15.998 16.6346C15.293 17.3843 14.3374 17.8064 13.3405 17.8083Z" stroke="#F0F3F6" stroke-miterlimit="10"/>
<path d="M13.3408 11.348C12.8833 11.348 12.436 11.4923 12.0555 11.7627C11.6751 12.033 11.3786 12.4173 11.2034 12.8669C11.0283 13.3164 10.9825 13.8112 11.0718 14.2884C11.1611 14.7657 11.3814 15.2041 11.705 15.5482C12.0285 15.8923 12.4407 16.1266 12.8895 16.2216C13.3383 16.3165 13.8034 16.2678 14.2262 16.0816C14.6489 15.8953 15.0102 15.58 15.2644 15.1754C15.5187 14.7707 15.6543 14.295 15.6543 13.8084C15.6525 13.1565 15.4082 12.5318 14.9747 12.0708C14.5412 11.6098 13.9539 11.3499 13.3408 11.348V11.348Z" stroke="#F0F3F6" stroke-miterlimit="10"/>
<path d="M17.213 8.82102C17.0237 8.82548 16.84 8.88962 16.685 9.0053C16.5301 9.12098 16.4109 9.283 16.3426 9.47081C16.2744 9.65862 16.2601 9.86376 16.3016 10.0602C16.3431 10.2567 16.4385 10.4356 16.5757 10.5743C16.7129 10.713 16.8858 10.8053 17.0724 10.8394C17.259 10.8734 17.4509 10.8478 17.6238 10.7658C17.7967 10.6837 17.9427 10.5489 18.0435 10.3784C18.1442 10.2079 18.1951 10.0094 18.1897 9.80818C18.187 9.67499 18.1595 9.54369 18.1089 9.42185C18.0583 9.3 17.9855 9.19003 17.8947 9.09826C17.8039 9.00649 17.6969 8.93474 17.5799 8.88716C17.4629 8.83958 17.3382 8.8171 17.213 8.82102Z" fill="#F0F3F6"/>
</svg>
