<svg width="27" height="28" viewBox="0 0 27 28" fill="none" xmlns="http://www.w3.org/2000/svg">
<path opacity="0.1" fill-rule="evenodd" clip-rule="evenodd" d="M13.6594 27.5282C20.8016 27.5282 26.5914 21.3658 26.5914 13.7641C26.5914 6.16239 20.8016 0 13.6594 0C6.51735 0 0.727539 6.16239 0.727539 13.7641C0.727539 21.3658 6.51735 27.5282 13.6594 27.5282Z" fill="white"/>
<g clip-path="url(#clip0)">
<path fill-rule="evenodd" clip-rule="evenodd" d="M13.7103 10.6715L13.7401 11.1478L13.2432 11.0895C11.4346 10.8659 9.8545 10.1078 8.51293 8.83448L7.85704 8.20269L7.68811 8.66924C7.33035 9.70926 7.55892 10.8076 8.30424 11.5463C8.70174 11.9545 8.6123 12.0129 7.92661 11.7699C7.68811 11.6921 7.47942 11.6338 7.45954 11.6629C7.38998 11.731 7.62848 12.6155 7.8173 12.9654C8.07568 13.4514 8.60236 13.9277 9.17874 14.2095L9.66569 14.4331L9.08931 14.4428C8.5328 14.4428 8.51293 14.4525 8.57255 14.6566C8.7713 15.2884 9.55637 15.9591 10.4309 16.2507L11.047 16.4548L10.5104 16.7658C9.71537 17.213 8.78124 17.4656 7.84711 17.4851C7.39992 17.4948 7.03223 17.5337 7.03223 17.5628C7.03223 17.6601 8.24461 18.2043 8.95018 18.4182C11.0669 19.05 13.5811 18.7779 15.4692 17.6989C16.8108 16.9311 18.1523 15.4051 18.7784 13.9277C19.1163 13.1403 19.4542 11.7018 19.4542 11.0117C19.4542 10.5646 19.484 10.5063 20.0405 9.97169C20.3684 9.66066 20.6765 9.32047 20.7361 9.22327C20.8355 9.0386 20.8256 9.0386 20.3187 9.20383C19.474 9.49543 19.3548 9.45655 19.7722 9.01916C20.0803 8.70812 20.4479 8.14437 20.4479 7.97914C20.4479 7.94998 20.2988 7.99858 20.13 8.08605C19.951 8.18325 19.5536 8.32905 19.2554 8.41653L18.7188 8.58176L18.2319 8.26101C17.9636 8.08605 17.5859 7.89166 17.3871 7.83334C16.8804 7.69726 16.1052 7.7167 15.6481 7.87222C14.4059 8.30961 13.6208 9.4371 13.7103 10.6715Z" fill="#EEF2F5"/>
</g>
<defs>
<clipPath id="clip0">
<rect width="14.6243" height="11.1833" fill="white" transform="translate(6.75 7.74234)"/>
</clipPath>
</defs>
</svg>
