<svg width="80" height="80" viewBox="0 0 80 80" fill="none" xmlns="http://www.w3.org/2000/svg">
<path d="M72.6346 48.4121C72.1837 48.8538 71.5728 49.1018 70.9359 49.1018C70.299 49.1018 69.6882 48.8538 69.2373 48.4121L67.4163 46.6372L74.6186 39.5776L72.6889 37.6826L65.5002 44.7555L63.6928 42.9672C63.243 42.5244 62.9905 41.9245 62.9905 41.2991C62.9905 40.6737 63.243 40.0738 63.6928 39.631L69.1285 34.2929L67.1989 32.3979L61.7631 37.736C60.8022 38.6817 60.2625 39.9631 60.2625 41.2991C60.2625 42.6351 60.8022 43.9165 61.7631 44.8622L63.5841 46.6372L58.2843 51.8418C56.7373 51.0464 55.0159 50.6341 53.2698 50.6407H46.4751V49.3062C49.7253 49.2746 52.8319 47.9863 55.1213 45.7205C57.4107 43.4547 58.6985 40.3941 58.7055 37.2021V27.954H64.1413C64.5017 27.954 64.8473 27.8134 65.1022 27.5631C65.357 27.3128 65.5002 26.9734 65.5002 26.6194C65.5002 24.8498 64.7843 23.1526 63.5101 21.9012C62.2358 20.6499 60.5076 19.9469 58.7055 19.9469H58.325L53.1747 4.77346C52.413 2.90561 50.9276 1.41097 49.0447 0.61779C47.1618 -0.175395 45.0352 -0.202276 43.1321 0.54305C42.8004 0.672625 42.4781 0.82422 42.1673 0.996785C41.4103 1.42288 40.553 1.64706 39.6805 1.64706C38.8079 1.64706 37.9506 1.42288 37.1936 0.996785C36.313 0.503204 35.342 0.184849 34.336 0.0599077C33.3301 -0.0650337 32.3089 0.00588691 31.3309 0.268618C30.3528 0.531349 29.4371 0.980742 28.636 1.59112C27.8349 2.2015 27.1641 2.96091 26.6619 3.82595C26.4672 4.15043 26.2991 4.48957 26.1591 4.84018L21.0359 19.9469H20.6554C18.8533 19.9469 17.1251 20.6499 15.8508 21.9012C14.5766 23.1526 13.8607 24.8498 13.8607 26.6194C13.8607 26.9734 14.0039 27.3128 14.2588 27.5631C14.5136 27.8134 14.8593 27.954 15.2197 27.954H20.6554V37.1888C20.6553 40.3841 21.9403 43.4501 24.2309 45.7196C26.5215 47.989 29.6321 49.278 32.8858 49.3062V50.6407H26.0911C24.3633 50.6422 22.6615 51.0543 21.131 51.8418L16.2389 47.0375C15.9843 46.789 15.6398 46.6494 15.2808 46.6494C14.9218 46.6494 14.5774 46.789 14.3228 47.0375C13.3726 47.9709 12.1619 48.6066 10.8438 48.8642C9.52572 49.1218 8.15944 48.9898 6.91776 48.4848C5.67607 47.9799 4.61477 47.1246 3.86807 46.0273C3.12137 44.93 2.72282 43.6398 2.72282 42.32C2.72282 41.0002 3.12137 39.7101 3.86807 38.6127C4.61477 37.5154 5.67607 36.6601 6.91776 36.1552C8.15944 35.6502 9.52572 35.5182 10.8438 35.7758C12.1619 36.0334 13.3726 36.6691 14.3228 37.6025L16.2389 35.7208C14.9491 34.4543 13.3158 33.5786 11.5335 33.1981C9.75123 32.8175 7.8951 32.9482 6.1863 33.5745C4.47751 34.2008 2.98809 35.2964 1.89552 36.7306C0.802946 38.1648 0.153288 39.8773 0.0239508 41.664C-0.105386 43.4506 0.29105 45.2361 1.16603 46.8077C2.041 48.3793 3.35762 49.6708 4.95901 50.5282C6.5604 51.3856 8.37904 51.7728 10.1982 51.6437C12.0174 51.5146 13.7605 50.8746 15.2197 49.7999L18.8752 53.3898C17.7272 54.38 16.8073 55.5993 16.1769 56.9662C15.5466 58.3331 15.2203 59.8163 15.2197 61.3168V69.3239H13.8607C13.5003 69.3239 13.1547 69.4645 12.8998 69.7148C12.645 69.965 12.5018 70.3045 12.5018 70.6584V78.6655C12.5018 79.0194 12.645 79.3589 12.8998 79.6091C13.1547 79.8594 13.5003 80 13.8607 80H65.5002C65.8606 80 66.2063 79.8594 66.4611 79.6091C66.716 79.3589 66.8591 79.0194 66.8591 78.6655V70.6584C66.8591 70.3045 66.716 69.965 66.4611 69.7148C66.2063 69.4645 65.8606 69.3239 65.5002 69.3239H64.1413V61.3168C64.1415 59.8303 63.822 58.3605 63.2038 57.0037C62.5856 55.6469 61.6825 54.4335 60.5537 53.4432L65.5002 48.5188L67.3076 50.3071C68.2706 51.2508 69.5755 51.7807 70.9359 51.7807C72.2964 51.7807 73.6013 51.2508 74.5643 50.3071L80 44.969L78.0703 43.074L72.6346 48.4121ZM23.3733 77.331H15.2197V71.9929H23.3733V77.331ZM23.3733 67.9894V69.3239H17.9375V61.3168C17.9523 59.4352 18.6413 57.6187 19.8838 56.1862C21.1263 54.7538 22.8429 53.7968 24.7322 53.4832V66.6549C24.3718 66.6549 24.0261 66.7955 23.7713 67.0457C23.5164 67.296 23.3733 67.6354 23.3733 67.9894ZM47.4536 53.3097L45.6054 60.5828L41.7189 58.2875L45.7957 53.3097H47.4536ZM39.6805 56.5126L35.6037 51.5081V49.3062H43.7573V51.5081L39.6805 56.5126ZM28.7139 5.80103C29.2194 4.60167 30.1879 3.64763 31.4077 3.14749C32.6274 2.64735 33.9992 2.64178 35.2232 3.13201C35.4379 3.21631 35.6467 3.31438 35.8483 3.4256C37.0173 4.07466 38.3375 4.41576 39.6805 4.41576C41.0234 4.41576 42.3436 4.07466 43.5126 3.4256C44.6642 2.79295 46.0232 2.63149 47.2951 2.97623C48.567 3.32097 49.6493 4.14412 50.3073 5.26723C50.414 5.4368 50.505 5.61545 50.5791 5.80103L53.6503 14.6088H25.7106L28.7139 5.80103ZM24.8001 17.2779H54.6287L55.5256 19.9469H23.9032L24.8001 17.2779ZM16.8096 25.2849C17.0908 24.504 17.6116 23.828 18.3004 23.35C18.9892 22.8719 19.812 22.6155 20.6554 22.6159H58.7055C59.5489 22.6155 60.3717 22.8719 61.0605 23.35C61.7493 23.828 62.2702 24.504 62.5513 25.2849H16.8096ZM23.3733 37.1888V27.954H55.9877V37.1888C55.9877 39.6947 54.974 42.0979 53.1697 43.8698C51.3653 45.6417 48.9181 46.6372 46.3664 46.6372H32.9809C30.4316 46.6336 27.9878 45.6366 26.1865 43.8651C24.3851 42.0936 23.3733 39.6923 23.3733 37.1888ZM33.5924 53.3097L37.6692 58.2875L33.7827 60.5828L31.9074 53.3097H33.5924ZM29.108 53.3097L31.5269 62.9716C31.6136 63.3148 31.8355 63.6101 32.1438 63.7928C32.4521 63.9754 32.8216 64.0305 33.1712 63.9458C33.3048 63.916 33.4331 63.8665 33.5517 63.799L39.6805 60.2092L45.7821 63.799C46.092 63.9795 46.4623 64.0316 46.8114 63.944C47.1605 63.8564 47.46 63.6363 47.6438 63.3319C47.7154 63.2217 47.7661 63.0996 47.7933 62.9716L50.253 53.3097H51.9109V66.6549H27.4501V53.3097H29.108ZM53.2698 77.331H26.0911V69.3239H53.2698V77.331ZM64.1413 77.331H55.9877V71.9929H64.1413V77.331ZM61.4234 61.3168V69.3239H55.9877V67.9894C55.9877 67.6354 55.8445 67.296 55.5896 67.0457C55.3348 66.7955 54.9891 66.6549 54.6287 66.6549V53.4298C56.5272 53.745 58.2509 54.7097 59.4945 56.1533C60.7382 57.5968 61.4214 59.426 61.4234 61.3168Z" fill="black"/>
<path d="M29.5699 36.1879L25.4931 33.5189L23.9711 35.7342L27.4499 38.0029V43.9682H30.1678V37.2956C30.1681 37.077 30.1138 36.8617 30.0095 36.6685C29.9053 36.4754 29.7543 36.3104 29.5699 36.1879Z" fill="black"/>
<path d="M51.9109 38.0029L55.3897 35.7342L53.8677 33.5189L49.7909 36.1879C49.6065 36.3104 49.4555 36.4754 49.3513 36.6685C49.247 36.8617 49.1927 37.077 49.193 37.2956V43.9682H51.9109V38.0029Z" fill="black"/>
</svg>
