<svg width="82" height="82" viewBox="0 0 82 82" fill="none" xmlns="http://www.w3.org/2000/svg">
<path d="M20.0909 21.7687C19.7188 21.6835 19.3292 21.6681 18.9494 21.7234C18.5695 21.7788 18.2084 21.9037 17.891 22.0895C17.5737 22.2752 17.3077 22.5174 17.1116 22.7992C16.9155 23.0809 16.7938 23.3956 16.7552 23.7212C16.4401 25.0354 16.4943 26.3941 16.9134 27.6872C17.3326 28.9802 18.1048 30.1711 19.1675 31.1632C19.6854 31.7159 20.4349 32.0772 21.2593 32.1714C21.3513 32.3011 21.421 32.4412 21.4666 32.5875C23.158 36.9568 26.1661 40.8742 30.1922 43.9505C33.1179 46.276 36.947 47.6086 40.9531 47.6954C44.9454 47.6126 48.7622 46.2853 51.6763 43.9665C55.5199 41.1062 58.4282 37.4512 60.1192 33.3557L60.2511 33.0676C60.6468 32.0914 60.7222 32.0914 61.0803 32.0434C61.8371 31.9138 62.5094 31.5484 62.9649 31.0191C63.9517 30.0286 64.668 28.8648 65.0623 27.6113C65.4565 26.3578 65.519 25.0457 65.2452 23.7692C65.2043 23.4543 65.0878 23.1499 64.9031 22.8746C64.7184 22.5994 64.4692 22.3592 64.171 22.1688C63.8565 21.9823 63.4998 21.8532 63.1234 21.7899C62.7471 21.7265 62.3594 21.7302 61.9849 21.8007V21.8007C61.7071 19.9774 61.1758 18.1884 60.4018 16.4714C60.1569 15.9272 60.1945 15.6551 60.2322 15.6071C60.2699 15.5591 60.6091 15.3191 61.4761 15.207C61.885 15.2112 62.288 15.1242 62.6449 14.9546C63.0018 14.7851 63.3 14.539 63.5099 14.241C63.7197 13.9429 63.8337 13.6033 63.8406 13.2561C63.8475 12.9088 63.747 12.5662 63.5491 12.2623C62.2288 9.32555 59.9788 6.7557 57.0473 4.83634C52.6869 2.13251 47.3625 0.787337 41.9708 1.02736C37.789 0.884908 33.6475 1.76834 30.0414 3.57201H29.2687C27.4942 3.61906 25.7724 4.09605 24.3066 4.94674C22.8407 5.79743 21.6919 6.98633 20.9955 8.37326C20.1426 10.1753 19.7756 12.1166 19.9213 14.0547C19.9213 14.4228 19.9213 14.7909 19.9213 15.159C19.9122 16.1115 19.9815 17.0634 20.1286 18.0077C20.4022 19.2453 20.4022 20.5152 20.1286 21.7527L20.0909 21.7687ZM23.7658 22.4729C24.1682 20.8613 24.2066 19.1994 23.8789 17.5756C23.719 16.7769 23.6308 15.9691 23.615 15.159C23.615 14.7749 23.615 14.3908 23.615 13.9907C23.4848 12.5116 23.7356 11.0261 24.35 9.63758C24.7923 8.76819 25.5275 8.02929 26.4631 7.51385C27.3986 6.99841 28.4928 6.72946 29.608 6.74083C30.3361 6.75104 31.0534 6.59044 31.681 6.27671C34.705 4.77935 38.172 4.05161 41.6692 4.18017V4.18017C46.2554 3.94698 50.7938 5.07888 54.5031 7.381C56.5166 8.69237 58.132 10.3934 59.2146 12.3423C58.1818 12.5977 57.2961 13.1675 56.7269 13.9427C56.3764 14.4928 56.1819 15.1047 56.159 15.7299C56.1361 16.3551 56.2854 16.9761 56.595 17.5436C57.2837 19.0414 57.7521 20.6056 57.9896 22.2008C58.0247 22.6488 58.1703 23.0855 58.4171 23.4825C58.6638 23.8796 59.0062 24.2281 59.4219 24.5054C60.0435 24.8737 60.7955 25.0489 61.5514 25.0016C61.6611 26.4175 61.1131 27.8136 60.0249 28.8906C59.1999 29.0965 58.4544 29.4852 57.8648 30.0168C57.2753 30.5484 56.863 31.2037 56.6704 31.9153V32.1714C55.1918 35.7639 52.6474 38.972 49.2829 41.4858C43.9496 45.4228 38.0697 45.4228 32.7552 41.4858C29.2064 38.7861 26.5659 35.3342 25.1039 31.4832C24.9149 30.8775 24.5338 30.3273 24.0021 29.8928C23.4704 29.4582 22.8086 29.1558 22.0885 29.0186C21.5151 28.4872 21.0729 27.8636 20.788 27.1847C20.5032 26.5057 20.3815 25.7852 20.4301 25.0656C21.7305 25.0496 23.1439 24.5534 23.7658 22.4729V22.4729Z" stroke="white" stroke-width="2" stroke-miterlimit="10"/>
<path d="M1 74.7744V77.287C1 79.9917 2.20612 81 5.44759 81H76.5901C79.6808 81 81 79.9117 81 77.335C81 76.5028 81 75.7346 81 74.8224C81 72.8539 81 70.8053 81 68.7888C80.9636 66.2976 80.1947 63.8537 78.7629 61.6791C77.3312 59.5046 75.2822 57.6684 72.8021 56.3376C69.4853 54.5291 65.9611 52.9447 62.5689 51.4083C60.6843 50.5601 58.7998 49.7119 57.0094 48.8316C56.4261 48.525 55.7269 48.4188 55.0546 48.5348C54.3822 48.6508 53.7873 48.9802 53.391 49.4558C52.1875 50.5731 50.834 51.5668 49.3581 52.4166C47.6574 53.4789 45.6965 54.2018 43.6213 54.5315C41.5461 54.8613 39.4101 54.7893 37.3722 54.3211C34.0545 53.4795 31.0913 51.8464 28.8351 49.6158C28.3199 49.0761 27.5858 48.7195 26.7769 48.6158C25.968 48.5122 25.1426 48.6691 24.4629 49.0557L19.0919 51.5523C16.1896 52.8967 13.1743 54.2891 10.2721 55.7454C7.48906 57.0362 5.16234 58.9346 3.53231 61.2445C1.90229 63.5544 1.02808 66.192 1 68.8848C1 70.8373 1 72.7738 1 74.7744ZM4.76914 68.9489C4.77751 66.8033 5.46842 64.6995 6.76881 62.8599C8.0692 61.0203 9.93075 59.5133 12.1567 58.4981C15.0024 57.0738 17.9988 55.6974 20.8822 54.3691L26.159 51.9685C28.8767 54.5925 32.4205 56.5026 36.3734 57.4739C38.933 58.0597 41.6142 58.154 44.222 57.7498C46.8299 57.3457 49.299 56.4532 51.4499 55.1373C53.0336 54.214 54.4879 53.1401 55.7844 51.9364C57.4429 52.7206 59.1013 53.5369 60.7786 54.225C64.1143 55.7294 67.5442 57.2978 70.7291 59.0263C72.7103 60.0673 74.3456 61.5207 75.4802 63.2488C76.6147 64.9769 77.2108 66.9223 77.212 68.9008C77.3062 70.8373 77.212 72.8379 77.212 74.7744C77.212 75.6226 77.212 76.4708 77.212 77.319C77.2233 77.4682 77.2233 77.6179 77.212 77.7671H4.76914V74.7584C4.76914 72.7738 4.76914 70.8854 4.76914 68.9489Z" stroke="white" stroke-width="2" stroke-miterlimit="10"/>
<path d="M27.4784 61.5709C31.2475 62.7712 35.1297 63.9875 38.9743 65.1719C39.3325 65.2794 39.6974 65.3702 40.0673 65.4439L40.4819 65.5399C40.6447 65.5565 40.8092 65.5565 40.9719 65.5399H41.4807L41.9142 65.4439L42.9884 65.1719L45.363 64.4357L48.661 63.3954L54.7481 61.5709C55.1883 61.406 55.5376 61.1044 55.7244 60.7278C55.9111 60.3512 55.9212 59.9282 55.7525 59.5456C55.5838 59.1629 55.2492 58.8495 54.8171 58.6696C54.3851 58.4898 53.8885 58.457 53.4289 58.5781L47.3606 60.4506L44.0438 61.5709L41.7257 62.2911C41.4808 62.3711 41.2358 62.4191 40.9719 62.4832L40.2746 62.3231L28.7787 58.7062C28.3733 58.6781 27.968 58.7623 27.6234 58.946C27.2789 59.1298 27.0137 59.4033 26.8673 59.7257C26.721 60.0481 26.7014 60.402 26.8116 60.7346C26.9217 61.0672 27.1556 61.3606 27.4784 61.5709Z" stroke="white" stroke-width="2" stroke-miterlimit="10"/>
<path d="M30.9645 16.9832C31.4545 16.4391 31.9068 15.879 32.3591 15.3828L32.5287 15.1908L32.6418 15.0307H32.8302C38.0619 17.1831 43.8088 18.2785 49.6218 18.2316H51.8832C52.3732 18.2316 52.8821 18.2316 53.3721 18.2316C53.6195 18.2158 53.8609 18.1588 54.0825 18.0638C54.304 17.9688 54.5014 17.8377 54.6632 17.6779C54.8251 17.5182 54.9484 17.3329 55.0259 17.1327C55.1035 16.9325 55.1338 16.7213 55.1153 16.5111C55.0967 16.3009 55.0296 16.0959 54.9177 15.9078C54.8059 15.7197 54.6515 15.5521 54.4634 15.4146C54.2752 15.2771 54.0571 15.1725 53.8213 15.1066C53.5856 15.0408 53.3369 15.015 53.0894 15.0307C52.3544 15.0307 51.6194 15.0307 50.8844 15.0307H49.8102C44.5075 15.0898 39.2595 14.1153 34.4698 12.182C32.001 11.1417 30.9645 11.3818 29.3815 13.3503L29.2684 13.5584C28.8789 14.0705 28.4643 14.5666 28.0246 15.0467C27.7164 15.3784 27.5752 15.8001 27.6317 16.2198C27.6882 16.6395 27.9378 17.0233 28.3261 17.2873C28.7237 17.5437 29.2247 17.6557 29.7194 17.5987C30.214 17.5417 30.6618 17.3203 30.9645 16.9832Z" stroke="white" stroke-width="2" stroke-miterlimit="10"/>
<path d="M14.5501 75.7346C15.0499 75.7346 15.5292 75.566 15.8827 75.2658C16.2361 74.9657 16.4346 74.5586 16.4346 74.1342V71.1734C16.4346 70.749 16.2361 70.3419 15.8827 70.0417C15.5292 69.7416 15.0499 69.573 14.5501 69.573C14.0503 69.573 13.5709 69.7416 13.2175 70.0417C12.8641 70.3419 12.6655 70.749 12.6655 71.1734V74.1182C12.663 74.3297 12.7099 74.5395 12.8035 74.7355C12.8971 74.9316 13.0355 75.1099 13.2108 75.2602C13.386 75.4105 13.5946 75.5298 13.8245 75.6113C14.0544 75.6927 14.301 75.7346 14.5501 75.7346V75.7346Z" stroke="white" stroke-width="2" stroke-miterlimit="10"/>
<path d="M25.1604 75.7346C25.6602 75.7346 26.1396 75.566 26.493 75.2658C26.8464 74.9657 27.045 74.5586 27.045 74.1342V71.1734C27.045 70.749 26.8464 70.3419 26.493 70.0417C26.1396 69.7416 25.6602 69.573 25.1604 69.573C24.6606 69.573 24.1813 69.7416 23.8278 70.0417C23.4744 70.3419 23.2759 70.749 23.2759 71.1734V74.1182C23.2734 74.3297 23.3203 74.5395 23.4139 74.7355C23.5075 74.9316 23.6459 75.1099 23.8211 75.2602C23.9964 75.4105 24.205 75.5298 24.4348 75.6113C24.6647 75.6927 24.9113 75.7346 25.1604 75.7346Z" stroke="white" stroke-width="2" stroke-miterlimit="10"/>
<path d="M35.7891 69.573C35.2893 69.573 34.8099 69.7416 34.4565 70.0417C34.1031 70.3419 33.9045 70.749 33.9045 71.1734V74.1182C33.9045 74.5426 34.1031 74.9497 34.4565 75.2498C34.8099 75.55 35.2893 75.7186 35.7891 75.7186C36.2889 75.7186 36.7683 75.55 37.1217 75.2498C37.4751 74.9497 37.6737 74.5426 37.6737 74.1182V71.1734C37.6737 70.749 37.4751 70.3419 37.1217 70.0417C36.7683 69.7416 36.2889 69.573 35.7891 69.573Z" stroke="white" stroke-width="2" stroke-miterlimit="10"/>
<path d="M46.4184 69.573C45.9186 69.573 45.4392 69.7416 45.0858 70.0417C44.7324 70.3419 44.5338 70.749 44.5338 71.1734V74.1182C44.5338 74.5426 44.7324 74.9497 45.0858 75.2498C45.4392 75.55 45.9186 75.7186 46.4184 75.7186C46.9182 75.7186 47.3975 75.55 47.751 75.2498C48.1044 74.9497 48.303 74.5426 48.303 74.1182V71.1734C48.303 70.749 48.1044 70.3419 47.751 70.0417C47.3975 69.7416 46.9182 69.573 46.4184 69.573Z" stroke="white" stroke-width="2" stroke-miterlimit="10"/>
<path d="M55.1437 71.1734V74.1182C55.1437 74.5426 55.3422 74.9497 55.6957 75.2498C56.0491 75.55 56.5284 75.7186 57.0282 75.7186C57.5281 75.7186 58.0074 75.55 58.3608 75.2498C58.7143 74.9497 58.9128 74.5426 58.9128 74.1182V71.1734C58.9128 70.749 58.7143 70.3419 58.3608 70.0417C58.0074 69.7416 57.5281 69.573 57.0282 69.573C56.5284 69.573 56.0491 69.7416 55.6957 70.0417C55.3422 70.3419 55.1437 70.749 55.1437 71.1734Z" stroke="white" stroke-width="2" stroke-miterlimit="10"/>
<path d="M67.6571 75.7346C68.1569 75.7346 68.6363 75.566 68.9897 75.2658C69.3431 74.9657 69.5417 74.5586 69.5417 74.1342V71.1734C69.5417 70.749 69.3431 70.3419 68.9897 70.0417C68.6363 69.7416 68.1569 69.573 67.6571 69.573C67.1573 69.573 66.678 69.7416 66.3245 70.0417C65.9711 70.3419 65.7726 70.749 65.7726 71.1734V74.1182C65.7701 74.3297 65.817 74.5395 65.9106 74.7355C66.0042 74.9316 66.1426 75.1099 66.3178 75.2602C66.4931 75.4105 66.7017 75.5298 66.9316 75.6113C67.1614 75.6927 67.408 75.7346 67.6571 75.7346Z" stroke="white" stroke-width="2" stroke-miterlimit="10"/>
</svg>
