<svg width="70" height="70" viewBox="0 0 70 70" fill="none" xmlns="http://www.w3.org/2000/svg">
<path d="M35.565 44.3V59H33.486V46.127H30.168V44.3H35.565ZM40.1665 59.126C39.7745 59.126 39.4385 58.993 39.1585 58.727C38.8785 58.447 38.7385 58.097 38.7385 57.677C38.7385 57.271 38.8785 56.935 39.1585 56.669C39.4385 56.389 39.7745 56.249 40.1665 56.249C40.5585 56.249 40.8875 56.382 41.1535 56.648C41.4195 56.914 41.5525 57.257 41.5525 57.677C41.5525 58.097 41.4125 58.447 41.1325 58.727C40.8665 58.993 40.5445 59.126 40.1665 59.126Z" fill="black"/>
<path d="M40.5252 46.9822C42.8378 47.9889 44.7234 49.7762 45.8529 52.0321C45.9238 52.1811 46.0354 52.3069 46.1747 52.3952C46.314 52.4834 46.4754 52.5305 46.6403 52.531C46.7708 52.5321 46.8998 52.5021 47.0164 52.4435C47.2264 52.3448 47.3886 52.1667 47.4673 51.9484C47.5461 51.7302 47.5349 51.4895 47.4364 51.2795C46.1296 48.6507 43.9401 46.5656 41.2513 45.3894C41.0402 45.2931 40.7995 45.2846 40.5821 45.3658C40.3647 45.4471 40.1885 45.6114 40.0922 45.8226C39.9959 46.0338 39.9874 46.2747 40.0686 46.4922C40.1498 46.7096 40.3141 46.8859 40.5252 46.9822Z" fill="black"/>
<path d="M0.886812 69.9999C1.07212 70.0006 1.25286 69.9424 1.40296 69.8336C6.54694 66.0703 20.063 63.541 35.0313 63.541C49.9996 63.541 63.4282 66.0528 68.6072 69.7986C68.7951 69.9356 69.0297 69.9922 69.2594 69.9561C69.4891 69.92 69.6951 69.7941 69.8319 69.6061C69.9688 69.4181 70.0255 69.1833 69.9894 68.9536C69.9533 68.7238 69.8274 68.5178 69.6395 68.3808C66.5601 66.1578 61.0137 64.3812 54.0413 63.2347C55.3629 60.8381 56.0608 58.1475 56.0709 55.4104C56.0406 53.1001 55.5366 50.8206 54.5901 48.713C53.6436 46.6054 52.2747 44.7146 50.5682 43.1577C46.9582 39.8188 42.3431 37.7719 37.4458 37.3377L39.1955 32.0165C40.4939 33.2487 42.1786 33.9934 43.9634 34.1242C45.7483 34.255 47.5235 33.7639 48.9875 32.7342C50.4516 31.7045 51.5144 30.1996 51.9955 28.4751C52.4766 26.7506 52.3463 24.9127 51.6268 23.2733C52.7029 22.6262 53.6057 21.7273 54.2577 20.6539C54.9096 19.5804 55.2912 18.3646 55.3695 17.111C55.4478 15.8574 55.2205 14.6036 54.7073 13.4573C54.194 12.311 53.4101 11.3066 52.4229 10.5305C52.6592 10.1166 52.8527 9.67966 53.0003 9.22645C53.5734 7.44264 53.4146 5.50414 52.5591 3.83739C51.7035 2.17065 50.2211 0.912186 48.438 0.33886C47.5552 0.0549773 46.625 -0.0521552 45.7008 0.0235781C44.7765 0.0993115 43.8762 0.356427 43.0512 0.780247C41.3852 1.63619 40.1273 3.11919 39.5542 4.903C39.4075 5.3554 39.3078 5.82171 39.2567 6.29455C37.7207 6.36565 36.2405 6.89275 35.0051 7.80864C33.774 6.89694 32.3007 6.37012 30.7709 6.29455C30.7198 5.82171 30.6201 5.3554 30.4735 4.903C29.7275 3.20159 28.3365 1.86631 26.6065 1.19091C24.8765 0.515515 22.9491 0.555321 21.2484 1.30157C20.4063 1.67108 19.6452 2.2029 19.0086 2.86667C18.3719 3.53045 17.8722 4.31317 17.5379 5.17015C16.8628 6.90091 16.9026 8.82908 17.6485 10.5305C16.6613 11.3066 15.8774 12.311 15.3641 13.4573C14.8508 14.6036 14.6236 15.8574 14.7019 17.111C14.7802 18.3646 15.1618 19.5804 15.8137 20.6539C16.4657 21.7273 17.3685 22.6262 18.4446 23.2733C17.724 24.9122 17.5939 26.7503 18.0764 28.4744C18.5589 30.1985 19.6243 31.7018 21.0907 32.7281C22.5572 33.7543 24.3341 34.2399 26.1184 34.1022C27.9028 33.9645 29.5841 33.2119 30.8759 31.9727L32.4768 37.3202C22.705 38.3442 14.884 45.2407 14.0092 53.7913C13.69 57.0651 14.3735 60.3585 15.9688 63.2347C8.97021 64.3899 3.42381 66.1841 0.361915 68.4158C0.211314 68.5249 0.0993506 68.6791 0.0422648 68.8561C-0.014821 69.0331 -0.0140606 69.2237 0.0444357 69.4002C0.102932 69.5767 0.216122 69.73 0.367589 69.8379C0.519055 69.9457 0.700923 70.0025 0.886812 69.9999ZM27.4028 32.0515C26.2434 32.4347 24.9946 32.455 23.8234 32.1095C22.6521 31.7641 21.614 31.0695 20.8478 30.1184C20.0815 29.1672 19.6234 28.0049 19.5348 26.7865C19.4462 25.5681 19.7312 24.3517 20.3517 23.2996C20.4139 23.1936 20.453 23.0756 20.4665 22.9535C20.4801 22.8314 20.4678 22.7077 20.4305 22.5907C20.3925 22.4751 20.3309 22.3687 20.2496 22.2783C20.1682 22.1879 20.0689 22.1154 19.958 22.0655C18.9706 21.6164 18.1234 20.908 17.5063 20.0156C16.8893 19.1232 16.5255 18.0802 16.4537 16.9975C16.3819 15.9147 16.6048 14.8328 17.0986 13.8667C17.5924 12.9005 18.3387 12.0864 19.2582 11.5107C19.3626 11.4466 19.4523 11.3613 19.5216 11.2603C19.5909 11.1593 19.6383 11.0448 19.6606 10.9243C19.6815 10.8052 19.6776 10.6831 19.649 10.5656C19.6204 10.4481 19.5677 10.3378 19.4944 10.2417C19.158 9.78357 18.8953 9.27566 18.7158 8.73635C18.2784 7.39936 18.3899 5.94332 19.0256 4.68854C19.6614 3.43376 20.7693 2.48303 22.1057 2.04549C23.4422 1.60795 24.8976 1.71945 26.1519 2.35545C27.4061 2.99146 28.3564 4.09988 28.7938 5.43686C28.9737 6.00229 29.0565 6.59413 29.0388 7.18725C29.0379 7.30873 29.0624 7.42905 29.1106 7.54055C29.1588 7.65205 29.2297 7.75229 29.3187 7.83489C29.407 7.91831 29.5118 7.98239 29.6263 8.02308C29.7407 8.06376 29.8624 8.08015 29.9836 8.0712C31.2988 7.97664 32.6085 8.31805 33.7103 9.04266C33.0392 9.80753 32.5302 10.7008 32.2144 11.6682C31.6402 13.4541 31.7303 15.3873 32.4681 17.112C30.8649 18.0802 29.6632 19.593 29.0825 21.3741C28.6806 22.6362 28.6113 23.9808 28.8813 25.2775V25.365C28.9719 25.7976 29.0977 26.222 29.2575 26.6341L30.2723 30.0298C29.5454 30.9819 28.5438 31.6877 27.4028 32.0515ZM31.1208 26.5028C31.042 26.3464 30.9719 26.1857 30.9109 26.0214L30.5697 24.8924C30.3729 23.8984 30.4362 22.8704 30.7534 21.908C31.0122 21.1112 31.4346 20.3772 31.9935 19.7533C32.5524 19.1293 33.2355 18.6291 33.999 18.2847C34.1092 18.2329 34.2073 18.1586 34.2872 18.0667C34.367 17.9748 34.4268 17.8672 34.4627 17.7508C34.5001 17.6356 34.5132 17.5139 34.5011 17.3934C34.4891 17.2729 34.4522 17.1562 34.3927 17.0507C33.8455 16.1057 33.5664 15.0293 33.5852 13.9374C33.6041 12.8455 33.9204 11.7794 34.4999 10.8539C35.0794 9.92846 35.9003 9.17866 36.8741 8.68523C37.848 8.19181 38.9379 7.97346 40.0266 8.05369C40.1447 8.06853 40.2645 8.05911 40.3789 8.026C40.4932 7.9929 40.5995 7.9368 40.6914 7.86115C40.7805 7.77855 40.8514 7.6783 40.8996 7.5668C40.9478 7.4553 40.9722 7.33499 40.9714 7.21351C40.9536 6.62039 41.0364 6.02855 41.2163 5.46312C41.6513 4.12851 42.5966 3.02036 43.8456 2.3808C45.0947 1.74125 46.546 1.62227 47.8825 2.04986C49.2206 2.48482 50.3315 3.43327 50.9712 4.68694C51.6109 5.94061 51.7271 7.39702 51.2944 8.73635C51.111 9.29261 50.8392 9.81567 50.4895 10.2854C50.4162 10.3816 50.3635 10.4919 50.3349 10.6093C50.3063 10.7268 50.3024 10.849 50.3233 10.9681C50.3456 11.0886 50.393 11.203 50.4623 11.304C50.5316 11.405 50.6213 11.4904 50.7257 11.5545C51.6552 12.1253 52.4115 12.9388 52.9135 13.9075C53.4155 14.8761 53.6442 15.9633 53.5749 17.0522C53.5057 18.1411 53.1411 19.1906 52.5204 20.0877C51.8997 20.9849 51.0464 21.6959 50.0521 22.1443C49.9412 22.1942 49.8419 22.2667 49.7606 22.3571C49.6792 22.4475 49.6176 22.5539 49.5797 22.6694C49.5423 22.7865 49.53 22.9101 49.5436 23.0323C49.5572 23.1544 49.5963 23.2723 49.6584 23.3783C50.279 24.4304 50.564 25.6469 50.4753 26.8653C50.3867 28.0837 49.9287 29.246 49.1624 30.1971C48.3961 31.1482 47.358 31.8429 46.1868 32.1883C45.0155 32.5337 43.7668 32.5135 42.6073 32.1303C41.4811 31.7653 40.4905 31.0701 39.7641 30.1348L45.0568 13.7074C45.101 13.596 45.1218 13.4767 45.118 13.3569C45.1142 13.2371 45.0858 13.1194 45.0347 13.011C44.9835 12.9026 44.9106 12.8059 44.8205 12.7268C44.7305 12.6478 44.6251 12.5881 44.5111 12.5515C44.397 12.5148 44.2766 12.502 44.1574 12.5138C44.0381 12.5257 43.9226 12.5619 43.8179 12.6202C43.7133 12.6785 43.6217 12.7577 43.5489 12.8529C43.4761 12.9481 43.4236 13.0573 43.3947 13.1736L38.102 29.5222C36.7665 29.9146 35.336 29.8276 34.0579 29.2762C32.7798 28.7248 31.7347 27.7437 31.1033 26.5028H31.1208ZM32.1619 30.2136C32.7707 30.6168 33.4334 30.9321 34.1302 31.1501C35.2223 31.5015 36.3793 31.6032 37.5158 31.4476L35.6612 37.1889C35.2063 37.1889 34.7426 37.1889 34.279 37.1889L32.1619 30.2136ZM15.7589 53.9664C16.5637 45.9146 24.3059 39.4644 33.7628 38.9568C36.5962 38.7625 39.4396 39.1439 42.1217 40.0779C44.8039 41.0119 47.2694 42.4793 49.3697 44.3917C50.9056 45.791 52.1377 47.4911 52.9894 49.3866C53.8412 51.2821 54.2945 53.3324 54.3213 55.4104C54.3122 58.0703 53.5739 60.6767 52.1867 62.9459C50.2621 62.6745 48.25 62.4382 46.1504 62.2545C47.6213 60.4012 48.4311 58.1094 48.4512 55.743C48.4512 55.5109 48.359 55.2883 48.1949 55.1242C48.0309 54.96 47.8084 54.8678 47.5763 54.8678C47.3443 54.8678 47.1218 54.96 46.9577 55.1242C46.7937 55.2883 46.7015 55.5109 46.7015 55.743C46.6685 58.1183 45.7076 60.3863 44.0245 62.0619C41.1376 61.8606 38.137 61.7556 35.0576 61.7556C29.2908 61.7634 23.5318 62.1787 17.8235 62.9984C16.1654 60.295 15.44 57.122 15.7589 53.9664Z" fill="black"/>
</svg>
