<svg width="70" height="73" viewBox="0 0 70 73" fill="none" xmlns="http://www.w3.org/2000/svg">
<path d="M38.34 59.173V61H27.777V59.572L33.762 53.797C34.49 53.097 34.98 52.495 35.232 51.991C35.484 51.473 35.61 50.955 35.61 50.437C35.61 49.667 35.337 49.072 34.791 48.652C34.259 48.218 33.489 48.001 32.481 48.001C30.857 48.001 29.604 48.533 28.722 49.597L27.294 48.358C27.868 47.658 28.617 47.112 29.541 46.72C30.479 46.328 31.522 46.132 32.67 46.132C34.21 46.132 35.435 46.503 36.345 47.245C37.255 47.973 37.71 48.967 37.71 50.227C37.71 51.011 37.542 51.753 37.206 52.453C36.87 53.153 36.233 53.951 35.295 54.847L30.801 59.173H38.34ZM41.6577 61.126C41.2657 61.126 40.9297 60.993 40.6497 60.727C40.3697 60.447 40.2297 60.097 40.2297 59.677C40.2297 59.271 40.3697 58.935 40.6497 58.669C40.9297 58.389 41.2657 58.249 41.6577 58.249C42.0497 58.249 42.3787 58.382 42.6447 58.648C42.9107 58.914 43.0437 59.257 43.0437 59.677C43.0437 60.097 42.9037 60.447 42.6237 60.727C42.3577 60.993 42.0357 61.126 41.6577 61.126Z" fill="white"/>
<path d="M40.5252 48.9958C42.8378 50.0456 44.7234 51.9095 45.8529 54.2621C45.9238 54.4174 46.0354 54.5486 46.1747 54.6407C46.314 54.7327 46.4754 54.7818 46.6403 54.7823C46.7708 54.7835 46.8998 54.7522 47.0164 54.6911C47.2264 54.5881 47.3886 54.4025 47.4673 54.1748C47.5461 53.9472 47.5349 53.6962 47.4364 53.4772C46.1296 50.7357 43.9401 48.5613 41.2513 47.3347C41.0402 47.2342 40.7995 47.2254 40.5821 47.3101C40.3647 47.3948 40.1885 47.5662 40.0922 47.7865C39.9959 48.0067 39.9874 48.2579 40.0686 48.4847C40.1498 48.7115 40.3141 48.8953 40.5252 48.9958Z" fill="white"/>
<path d="M0.886812 72.9999C1.07212 73.0006 1.25286 72.9399 1.40296 72.8265C6.54694 68.9019 20.063 66.2642 35.0313 66.2642C49.9996 66.2642 63.4282 68.8836 68.6072 72.79C68.7951 72.9328 69.0297 72.9919 69.2594 72.9542C69.4891 72.9166 69.6951 72.7853 69.8319 72.5892C69.9688 72.3931 70.0255 72.1484 69.9894 71.9087C69.9533 71.6691 69.8274 71.4542 69.6395 71.3114C66.5601 68.9932 61.0137 67.1404 54.0413 65.9447C55.3629 63.4454 56.0608 60.6395 56.0709 57.7852C56.0406 55.3758 55.5366 52.9986 54.5901 50.8007C53.6436 48.6028 52.2747 46.631 50.5682 45.0073C46.9582 41.5253 42.3431 39.3907 37.4458 38.9379L39.1955 33.3886C40.4939 34.6736 42.1786 35.4503 43.9634 35.5867C45.7483 35.7231 47.5235 35.2109 48.9875 34.1371C50.4516 33.0633 51.5144 31.4939 51.9955 29.6955C52.4766 27.8971 52.3463 25.9804 51.6268 24.2707C52.7029 23.5959 53.6057 22.6585 54.2577 21.539C54.9096 20.4196 55.2912 19.1517 55.3695 17.8444C55.4478 16.537 55.2205 15.2294 54.7073 14.034C54.194 12.8386 53.4101 11.7912 52.4229 10.9818C52.6592 10.5502 52.8527 10.0945 53.0003 9.62187C53.5734 7.76161 53.4146 5.74003 52.5591 4.00185C51.7035 2.26367 50.2211 0.951279 48.438 0.353382C47.5552 0.0573335 46.625 -0.0543904 45.7008 0.0245886C44.7765 0.103568 43.8762 0.371703 43.0512 0.813686C41.3852 1.70631 40.1273 3.25286 39.5542 5.11312C39.4075 5.58491 39.3078 6.07121 39.2567 6.56432C37.7207 6.63847 36.2405 7.18815 35.0051 8.1433C33.774 7.19252 32.3007 6.64313 30.7709 6.56432C30.7198 6.07121 30.6201 5.58491 30.4735 5.11312C29.7275 3.3388 28.3365 1.9463 26.6065 1.24195C24.8765 0.537609 22.9491 0.57912 21.2484 1.35735C20.4063 1.7427 19.6452 2.29731 19.0086 2.98953C18.3719 3.68175 17.8722 4.49802 17.5379 5.39173C16.8628 7.19667 16.9026 9.20747 17.6485 10.9818C16.6613 11.7912 15.8774 12.8386 15.3641 14.034C14.8508 15.2294 14.6236 16.537 14.7019 17.8444C14.7802 19.1517 15.1618 20.4196 15.8137 21.539C16.4657 22.6585 17.3685 23.5959 18.4446 24.2707C17.724 25.9798 17.5939 27.8968 18.0764 29.6947C18.5589 31.4927 19.6243 33.0605 21.0907 34.1307C22.5572 35.2009 24.3341 35.7074 26.1184 35.5637C27.9028 35.4201 29.5841 34.6353 30.8759 33.343L32.4768 38.9196C22.705 39.9875 14.884 47.1796 14.0092 56.0967C13.69 59.5107 14.3735 62.9453 15.9688 65.9447C8.97021 67.1495 3.42381 69.0205 0.361915 71.3479C0.211314 71.4616 0.0993506 71.6225 0.0422648 71.807C-0.014821 71.9916 -0.0140606 72.1904 0.0444357 72.3745C0.102932 72.5586 0.216122 72.7185 0.367589 72.8309C0.519055 72.9434 0.700923 73.0026 0.886812 72.9999ZM27.4028 33.4251C26.2434 33.8248 24.9946 33.8459 23.8234 33.4857C22.6521 33.1254 21.614 32.401 20.8478 31.4091C20.0815 30.4173 19.6234 29.2051 19.5348 27.9345C19.4462 26.6639 19.7312 25.3953 20.3517 24.2981C20.4139 24.1876 20.453 24.0646 20.4665 23.9372C20.4801 23.8099 20.4678 23.6809 20.4305 23.5588C20.3925 23.4383 20.3309 23.3274 20.2496 23.2331C20.1682 23.1388 20.0689 23.0632 19.958 23.0112C18.9706 22.5429 18.1234 21.8041 17.5063 20.8734C16.8893 19.9428 16.5255 18.8551 16.4537 17.7259C16.3819 16.5968 16.6048 15.4685 17.0986 14.4609C17.5924 13.4534 18.3387 12.6043 19.2582 12.004C19.3626 11.9372 19.4523 11.8482 19.5216 11.7428C19.5909 11.6375 19.6383 11.5182 19.6606 11.3925C19.6815 11.2683 19.6776 11.1409 19.649 11.0184C19.6204 10.8959 19.5677 10.7809 19.4944 10.6806C19.158 10.2029 18.8953 9.67319 18.7158 9.11076C18.2784 7.71647 18.3899 6.19803 19.0256 4.88948C19.6614 3.58092 20.7693 2.58944 22.1057 2.13315C23.4422 1.67686 24.8976 1.79314 26.1519 2.4564C27.4061 3.11967 28.3564 4.27559 28.7938 5.66987C28.9737 6.25953 29.0565 6.87674 29.0388 7.49528C29.0379 7.62196 29.0624 7.74744 29.1106 7.86372C29.1588 7.98 29.2297 8.08453 29.3187 8.17068C29.407 8.25766 29.5118 8.3245 29.6263 8.36692C29.7407 8.40935 29.8624 8.42644 29.9836 8.41711C31.2988 8.31849 32.6085 8.67453 33.7103 9.43021C33.0392 10.2279 32.5302 11.1594 32.2144 12.1683C31.6402 14.0307 31.7303 16.0468 32.4681 17.8453C30.8649 18.8551 29.6632 20.4327 29.0825 22.2902C28.6806 23.6064 28.6113 25.0085 28.8813 26.3608V26.4521C28.9719 26.9032 29.0977 27.3458 29.2575 27.7755L30.2723 31.3168C29.5454 32.3097 28.5438 33.0457 27.4028 33.4251ZM31.1208 27.6386C31.042 27.4755 30.9719 27.3079 30.9109 27.1366L30.5697 25.9592C30.3729 24.9226 30.4362 23.8505 30.7534 22.8469C31.0122 22.0159 31.4346 21.2505 31.9935 20.5998C32.5524 19.9491 33.2355 19.4275 33.999 19.0683C34.1092 19.0143 34.2073 18.9369 34.2872 18.841C34.367 18.7451 34.4268 18.6329 34.4627 18.5116C34.5001 18.3915 34.5132 18.2645 34.5011 18.1389C34.4891 18.0132 34.4522 17.8915 34.3927 17.7814C33.8455 16.796 33.5664 15.6734 33.5852 14.5347C33.6041 13.396 33.9204 12.2842 34.4999 11.3191C35.0794 10.354 35.9003 9.57203 36.8741 9.05746C37.848 8.54288 38.9379 8.31518 40.0266 8.39885C40.1447 8.41433 40.2645 8.4045 40.3789 8.36997C40.4932 8.33545 40.5995 8.27695 40.6914 8.19806C40.7805 8.11191 40.8514 8.00737 40.8996 7.8911C40.9478 7.77482 40.9722 7.64934 40.9714 7.52266C40.9536 6.90412 41.0364 6.28691 41.2163 5.69725C41.6513 4.30544 42.5966 3.14981 43.8456 2.48284C45.0947 1.81587 46.546 1.69179 47.8825 2.13771C49.2206 2.59131 50.3315 3.58041 50.9712 4.88781C51.6109 6.19521 51.7271 7.71403 51.2944 9.11076C51.111 9.69086 50.8392 10.2363 50.4895 10.7262C50.4162 10.8265 50.3635 10.9415 50.3349 11.064C50.3063 11.1866 50.3024 11.3139 50.3233 11.4381C50.3456 11.5638 50.393 11.6831 50.4623 11.7885C50.5316 11.8938 50.6213 11.9828 50.7257 12.0497C51.6552 12.645 52.4115 13.4934 52.9135 14.5035C53.4155 15.5137 53.6442 16.6475 53.5749 17.783C53.5057 18.9186 53.1411 20.013 52.5204 20.9486C51.8997 21.8843 51.0464 22.6257 50.0521 23.0934C49.9412 23.1454 49.8419 23.2209 49.7606 23.3152C49.6792 23.4095 49.6176 23.5205 49.5797 23.641C49.5423 23.7631 49.53 23.892 49.5436 24.0194C49.5572 24.1467 49.5963 24.2697 49.6584 24.3803C50.279 25.4775 50.564 26.746 50.4753 28.0166C50.3867 29.2872 49.9287 30.4994 49.1624 31.4913C48.3961 32.4832 47.358 33.2076 46.1868 33.5678C45.0155 33.928 43.7668 33.9069 42.6073 33.5073C41.4811 33.1267 40.4905 32.4016 39.7641 31.4263L45.0568 14.2949C45.101 14.1787 45.1218 14.0543 45.118 13.9294C45.1142 13.8044 45.0858 13.6816 45.0347 13.5686C44.9835 13.4556 44.9106 13.3547 44.8205 13.2723C44.7305 13.1899 44.6251 13.1276 44.5111 13.0894C44.397 13.0512 44.2766 13.0378 44.1574 13.0501C44.0381 13.0625 43.9226 13.1002 43.8179 13.161C43.7133 13.2219 43.6217 13.3045 43.5489 13.4038C43.4761 13.503 43.4236 13.6169 43.3947 13.7382L38.102 30.7874C36.7665 31.1967 35.336 31.1059 34.0579 30.5309C32.7798 29.9559 31.7347 28.9327 31.1033 27.6386H31.1208ZM32.1619 31.5085C32.7707 31.929 33.4334 32.2578 34.1302 32.4851C35.2223 32.8516 36.3793 32.9576 37.5158 32.7954L35.6612 38.7827C35.2063 38.7827 34.7426 38.7827 34.279 38.7827L32.1619 31.5085ZM15.7589 56.2792C16.5637 47.8824 24.3059 41.1557 33.7628 40.6264C36.5962 40.4237 39.4396 40.8214 42.1217 41.7955C44.8039 42.7696 47.2694 44.2999 49.3697 46.2942C50.9056 47.7535 52.1377 49.5265 52.9894 51.5032C53.8412 53.4799 54.2945 55.6181 54.3213 57.7852C54.3122 60.559 53.5739 63.2772 52.1867 65.6435C50.2621 65.3606 48.25 65.1142 46.1504 64.9225C47.6213 62.9898 48.4311 60.5998 48.4512 58.132C48.4512 57.8899 48.359 57.6578 48.1949 57.4866C48.0309 57.3154 47.8084 57.2193 47.5763 57.2193C47.3443 57.2193 47.1218 57.3154 46.9577 57.4866C46.7937 57.6578 46.7015 57.8899 46.7015 58.132C46.6685 60.609 45.7076 62.9743 44.0245 64.7217C41.1376 64.5118 38.137 64.4023 35.0576 64.4023C29.2908 64.4104 23.5318 64.8435 17.8235 65.6983C16.1654 62.8791 15.44 59.5701 15.7589 56.2792Z" fill="white"/>
</svg>
