<svg width="70" height="75" viewBox="0 0 70 75" fill="none" xmlns="http://www.w3.org/2000/svg">
<path d="M33.636 55.474C35.078 55.614 36.177 56.062 36.933 56.818C37.689 57.56 38.067 58.512 38.067 59.674C38.067 60.514 37.857 61.277 37.437 61.963C37.017 62.635 36.387 63.174 35.547 63.58C34.721 63.972 33.706 64.168 32.502 64.168C31.452 64.168 30.444 64.014 29.478 63.706C28.512 63.384 27.721 62.943 27.105 62.383L28.071 60.724C28.575 61.2 29.219 61.585 30.003 61.879C30.787 62.159 31.62 62.299 32.502 62.299C33.594 62.299 34.441 62.068 35.043 61.606C35.659 61.144 35.967 60.507 35.967 59.695C35.967 58.883 35.666 58.253 35.064 57.805C34.462 57.357 33.552 57.133 32.334 57.133H31.158V55.663L34.854 51.127H27.777V49.3H37.479V50.728L33.636 55.474ZM41.4116 64.126C41.0196 64.126 40.6836 63.993 40.4036 63.727C40.1236 63.447 39.9836 63.097 39.9836 62.677C39.9836 62.271 40.1236 61.935 40.4036 61.669C40.6836 61.389 41.0196 61.249 41.4116 61.249C41.8036 61.249 42.1326 61.382 42.3986 61.648C42.6646 61.914 42.7976 62.257 42.7976 62.677C42.7976 63.097 42.6576 63.447 42.3776 63.727C42.1116 63.993 41.7896 64.126 41.4116 64.126Z" fill="white"/>
<path d="M40.5252 50.3381C42.8378 51.4167 44.7234 53.3317 45.8529 55.7487C45.9238 55.9083 46.0354 56.0431 46.1747 56.1377C46.314 56.2322 46.4754 56.2827 46.6403 56.2832C46.7708 56.2844 46.8998 56.2522 47.0164 56.1894C47.2264 56.0837 47.3886 55.8929 47.4673 55.659C47.5461 55.4252 47.5349 55.1673 47.4364 54.9423C46.1296 52.1257 43.9401 49.8917 41.2513 48.6315C41.0402 48.5283 40.7995 48.5192 40.5821 48.6062C40.3647 48.6933 40.1885 48.8693 40.0922 49.0956C39.9959 49.322 39.9874 49.58 40.0686 49.813C40.1498 50.046 40.3141 50.2349 40.5252 50.3381Z" fill="white"/>
<path d="M0.886812 74.9999C1.07212 75.0006 1.25286 74.9382 1.40296 74.8217C6.54694 70.7896 20.063 68.0796 35.0313 68.0796C49.9996 68.0796 63.4282 70.7709 68.6072 74.7842C68.7951 74.931 69.0297 74.9917 69.2594 74.953C69.4891 74.9143 69.6951 74.7794 69.8319 74.5779C69.9688 74.3765 70.0255 74.125 69.9894 73.8788C69.9533 73.6326 69.8274 73.4119 69.6395 73.2652C66.5601 70.8834 61.0137 68.9798 54.0413 67.7514C55.3629 65.1837 56.0608 62.3009 56.0709 59.3683C56.0406 56.893 55.5366 54.4506 54.5901 52.1925C53.6436 49.9344 52.2747 47.9085 50.5682 46.2404C46.9582 42.663 42.3431 40.4699 37.4458 40.0047L39.1955 34.3034C40.4939 35.6236 42.1786 36.4215 43.9634 36.5617C45.7483 36.7018 47.5235 36.1756 48.9875 35.0724C50.4516 33.9691 51.5144 32.3568 51.9955 30.5091C52.4766 28.6614 52.3463 26.6922 51.6268 24.9357C52.7029 24.2424 53.6057 23.2792 54.2577 22.1291C54.9096 20.979 55.2912 19.6764 55.3695 18.3333C55.4478 16.9901 55.2205 15.6467 54.7073 14.4185C54.194 13.1903 53.4101 12.1142 52.4229 11.2827C52.6592 10.8392 52.8527 10.3711 53.0003 9.88549C53.5734 7.97426 53.4146 5.89729 52.5591 4.11149C51.7035 2.32569 50.2211 0.977342 48.438 0.363064C47.5552 0.0589043 46.625 -0.0558806 45.7008 0.0252623C44.7765 0.106405 43.8762 0.381887 43.0512 0.835979C41.3852 1.75306 40.1273 3.34198 39.5542 5.25321C39.4075 5.73792 39.3078 6.23755 39.2567 6.74416C37.7207 6.82034 36.2405 7.38509 35.0051 8.3664C33.774 7.38958 32.3007 6.82513 30.7709 6.74416C30.7198 6.23755 30.6201 5.73792 30.4735 5.25321C29.7275 3.43027 28.3365 1.99962 26.6065 1.27598C24.8765 0.552338 22.9491 0.594987 21.2484 1.39454C20.4063 1.79044 19.6452 2.36025 19.0086 3.07144C18.3719 3.78262 17.8722 4.62125 17.5379 5.53945C16.8628 7.39383 16.9026 9.45973 17.6485 11.2827C16.6613 12.1142 15.8774 13.1903 15.3641 14.4185C14.8508 15.6467 14.6236 16.9901 14.7019 18.3333C14.7802 19.6764 15.1618 20.979 15.8137 22.1291C16.4657 23.2792 17.3685 24.2424 18.4446 24.9357C17.724 26.6916 17.5939 28.6611 18.0764 30.5083C18.5589 32.3555 19.6243 33.9662 21.0907 35.0658C22.5572 36.1653 24.3341 36.6857 26.1184 36.5381C27.9028 36.3905 29.5841 35.5842 30.8759 34.2565L32.4768 39.9859C22.705 41.083 14.884 48.4722 14.0092 57.6336C13.69 61.1412 14.3735 64.6699 15.9688 67.7514C8.97021 68.9892 3.42381 70.9115 0.361915 73.3027C0.211314 73.4195 0.0993506 73.5847 0.0422648 73.7744C-0.014821 73.964 -0.0140606 74.1682 0.0444357 74.3573C0.102932 74.5465 0.216122 74.7107 0.367589 74.8263C0.519055 74.9418 0.700923 75.0026 0.886812 74.9999ZM27.4028 34.3409C26.2434 34.7515 24.9946 34.7732 23.8234 34.4031C22.6521 34.033 21.614 33.2887 20.8478 32.2697C20.0815 31.2506 19.6234 30.0052 19.5348 28.6998C19.4462 27.3944 19.7312 26.0911 20.3517 24.9638C20.4139 24.8502 20.453 24.7239 20.4665 24.593C20.4801 24.4622 20.4678 24.3297 20.4305 24.2043C20.3925 24.0805 20.3309 23.9665 20.2496 23.8696C20.1682 23.7727 20.0689 23.6951 19.958 23.6417C18.9706 23.1605 18.1234 22.4015 17.5063 21.4453C16.8893 20.4892 16.5255 19.3716 16.4537 18.2116C16.3819 17.0515 16.6048 15.8923 17.0986 14.8571C17.5924 13.822 18.3387 12.9497 19.2582 12.3329C19.3626 12.2642 19.4523 12.1728 19.5216 12.0646C19.5909 11.9563 19.6383 11.8337 19.6606 11.7046C19.6815 11.577 19.6776 11.4462 19.649 11.3203C19.6204 11.1944 19.5677 11.0762 19.4944 10.9732C19.158 10.4824 18.8953 9.9382 18.7158 9.36037C18.2784 7.92788 18.3899 6.36784 19.0256 5.02343C19.6614 3.67903 20.7693 2.66038 22.1057 2.19159C23.4422 1.7228 24.8976 1.84227 26.1519 2.5237C27.4061 3.20514 28.3564 4.39272 28.7938 5.82521C28.9737 6.43102 29.0565 7.06514 29.0388 7.70063C29.0379 7.83078 29.0624 7.95969 29.1106 8.07916C29.1588 8.19862 29.2297 8.30603 29.3187 8.39453C29.407 8.4839 29.5118 8.55257 29.6263 8.59616C29.7407 8.63974 29.8624 8.6573 29.9836 8.64771C31.2988 8.5464 32.6085 8.91219 33.7103 9.68857C33.0392 10.5081 32.5302 11.4651 32.2144 12.5017C31.6402 14.4151 31.7303 16.4864 32.4681 18.3342C30.8649 19.3717 29.6632 20.9925 29.0825 22.9009C28.6806 24.2531 28.6113 25.6937 28.8813 27.083V27.1768C28.9719 27.6403 29.0977 28.095 29.2575 28.5365L30.2723 32.1748C29.5454 33.1949 28.5438 33.9511 27.4028 34.3409ZM31.1208 28.3958C31.042 28.2282 30.9719 28.0561 30.9109 27.8801L30.5697 26.6705C30.3729 25.6054 30.4362 24.504 30.7534 23.4729C31.0122 22.6191 31.4346 21.8328 31.9935 21.1642C32.5524 20.4957 33.2355 19.9597 33.999 19.5908C34.1092 19.5352 34.2073 19.4557 34.2872 19.3572C34.367 19.2587 34.4268 19.1434 34.4627 19.0188C34.5001 18.8953 34.5132 18.7649 34.5011 18.6358C34.4891 18.5067 34.4522 18.3816 34.3927 18.2686C33.8455 17.2561 33.5664 16.1028 33.5852 14.9329C33.6041 13.763 33.9204 12.6208 34.4999 11.6292C35.0794 10.6376 35.9003 9.83427 36.8741 9.3056C37.848 8.77694 38.9379 8.54299 40.0266 8.62896C40.1447 8.64486 40.2645 8.63476 40.3789 8.59929C40.4932 8.56382 40.5995 8.50372 40.6914 8.42266C40.7805 8.33416 40.8514 8.22676 40.8996 8.10729C40.9478 7.98782 40.9722 7.85891 40.9714 7.72876C40.9536 7.09328 41.0364 6.45916 41.2163 5.85334C41.6513 4.4234 42.5966 3.2361 43.8456 2.55086C45.0947 1.86562 46.546 1.73814 47.8825 2.19628C49.2206 2.66231 50.3315 3.67851 50.9712 5.02172C51.6109 6.36494 51.7271 7.92538 51.2944 9.36037C51.111 9.95636 50.8392 10.5168 50.4895 11.0201C50.4162 11.1231 50.3635 11.2413 50.3349 11.3672C50.3063 11.493 50.3024 11.6239 50.3233 11.7515C50.3456 11.8806 50.393 12.0032 50.4623 12.1115C50.5316 12.2197 50.6213 12.3111 50.7257 12.3798C51.6552 12.9914 52.4115 13.863 52.9135 14.9009C53.4155 15.9387 53.6442 17.1036 53.5749 18.2702C53.5057 19.4369 53.1411 20.5613 52.5204 21.5226C51.8997 22.4838 51.0464 23.2456 50.0521 23.7261C49.9412 23.7795 49.8419 23.8571 49.7606 23.954C49.6792 24.0509 49.6176 24.1649 49.5797 24.2887C49.5423 24.4141 49.53 24.5466 49.5436 24.6774C49.5572 24.8083 49.5963 24.9346 49.6584 25.0482C50.279 26.1755 50.564 27.4788 50.4753 28.7842C50.3867 30.0896 49.9287 31.335 49.1624 32.3541C48.3961 33.3731 47.358 34.1174 46.1868 34.4875C45.0155 34.8576 43.7668 34.8359 42.6073 34.4253C41.4811 34.0342 40.4905 33.2894 39.7641 32.2873L45.0568 14.6866C45.101 14.5672 45.1218 14.4393 45.118 14.311C45.1142 14.1826 45.0858 14.0565 45.0347 13.9403C44.9835 13.8242 44.9106 13.7206 44.8205 13.6359C44.7305 13.5512 44.6251 13.4873 44.5111 13.448C44.397 13.4087 44.2766 13.395 44.1574 13.4077C44.0381 13.4204 43.9226 13.4591 43.8179 13.5216C43.7133 13.5841 43.6217 13.669 43.5489 13.771C43.4761 13.873 43.4236 13.9899 43.3947 14.1145L38.102 31.6309C36.7665 32.0514 35.336 31.9581 34.0579 31.3673C32.7798 30.7766 31.7347 29.7254 31.1033 28.3958H31.1208ZM32.1619 32.3717C32.7707 32.8038 33.4334 33.1415 34.1302 33.3751C35.2223 33.7516 36.3793 33.8606 37.5158 33.6939L35.6612 39.8452C35.2063 39.8452 34.7426 39.8452 34.279 39.8452L32.1619 32.3717ZM15.7589 57.8211C16.5637 49.1942 24.3059 42.2833 33.7628 41.7394C36.5962 41.5312 39.4396 41.9398 42.1217 42.9406C44.8039 43.9414 47.2694 45.5136 49.3697 47.5626C50.9056 49.0618 52.1377 50.8834 52.9894 52.9142C53.8412 54.9451 54.2945 57.1419 54.3213 59.3683C54.3122 62.2182 53.5739 65.0108 52.1867 67.442C50.2621 67.1513 48.25 66.8981 46.1504 66.7012C47.6213 64.7156 48.4311 62.26 48.4512 59.7247C48.4512 59.476 48.359 59.2374 48.1949 59.0616C48.0309 58.8857 47.8084 58.7869 47.5763 58.7869C47.3443 58.7869 47.1218 58.8857 46.9577 59.0616C46.7937 59.2374 46.7015 59.476 46.7015 59.7247C46.6685 62.2696 45.7076 64.6996 44.0245 66.4949C41.1376 66.2792 38.137 66.1667 35.0576 66.1667C29.2908 66.1751 23.5318 66.6201 17.8235 67.4983C16.1654 64.6018 15.44 61.2021 15.7589 57.8211Z" fill="white"/>
</svg>
