<svg width="80" height="80" viewBox="0 0 80 80" fill="none" xmlns="http://www.w3.org/2000/svg">
<path d="M41.555 77.7164V75.0948H57.7986V72.8111H41.555V68.8742H57.7986V66.5905H41.555V18.4334C42.9508 17.0541 49.1616 10.0297 41.4239 0.913451L40.637 0L39.7002 0.812971C39.5316 0.959123 35.644 4.46677 35.5035 9.60037C35.4286 12.6056 36.6745 15.4739 39.185 18.1411V66.5905H24.1686V68.8742H39.2131V72.8111H24.1686V75.0948H39.2131V77.7164H0V80H80V77.7164H41.555Z" fill="white"/>
<path d="M37.4425 30.8838H38.5479L38.6228 29.8151C38.6228 29.6963 39.2598 18.3878 25.8172 17.1546L24.59 17.0359V18.2416C24.59 18.4609 24.3933 23.6493 27.9905 27.3761C30.2013 29.6689 33.4425 30.8564 37.4425 30.8838Z" fill="white"/>
<path d="M37.4425 47.0519H38.5385L38.6135 45.974C38.6135 45.837 39.4097 31.8064 22.6884 30.2627L21.4613 30.1439L21.4051 31.3497C21.4051 31.6237 21.1615 38.0635 25.6392 42.6582C28.4308 45.5356 32.4027 47.0062 37.4425 47.0519Z" fill="white"/>
<path d="M37.349 63.2473H38.445L38.52 62.1786C38.52 62.0233 39.3818 46.7961 21.2179 45.1154L19.9907 45.0057L19.9345 46.2024C19.9345 46.5038 19.6722 53.51 24.5247 58.4883C27.5598 61.6123 31.8783 63.2108 37.349 63.2473Z" fill="white"/>
<path d="M42.1733 29.8242L42.2483 30.8929H43.3443C47.3911 30.8929 50.5855 29.6689 52.8431 27.3578C56.4497 23.704 56.2623 18.47 56.2529 18.2233L56.1967 17.0176L54.9883 17.1637C41.5269 18.3969 42.1639 29.7054 42.1733 29.8242Z" fill="white"/>
<path d="M42.1733 45.9831L42.2482 47.061H43.3536C48.384 47.061 52.3559 45.5446 55.1475 42.6764C59.6252 38.1091 59.3911 31.6419 59.3817 31.3679L59.3255 30.1713L58.0983 30.2809C41.377 31.8155 42.1639 45.8461 42.1733 45.9831Z" fill="white"/>
<path d="M42.267 62.1878L42.3419 63.2565H43.4473C48.918 63.2565 53.2272 61.6214 56.2623 58.5066C61.1147 53.5191 60.8618 46.5221 60.8524 46.2207L60.7962 45.024L59.5691 45.1245C41.4051 46.8053 42.2576 62.0325 42.267 62.1878Z" fill="white"/>
<path d="M21.1054 66.5906H11.5316V68.8742H21.1054V66.5906Z" fill="white"/>
<path d="M70.5573 66.5906H60.9835V68.8742H70.5573V66.5906Z" fill="white"/>
<path d="M21.1053 72.8112H4.29028V75.0948H21.1053V72.8112Z" fill="white"/>
<path d="M75.5877 72.8112H60.9835V75.0948H75.5877V72.8112Z" fill="white"/>
</svg>
