<svg width="80" height="80" viewBox="0 0 80 80" fill="none" xmlns="http://www.w3.org/2000/svg">
<path d="M10.5735 27.5624C10.8135 33.3204 17.0148 37.7689 17.2848 37.9588C17.4549 38.0775 17.6576 38.1404 17.865 38.1388C18.0689 38.1383 18.2678 38.0755 18.4351 37.9588C18.7151 37.7589 25.1664 33.1505 25.1664 27.2225C25.1664 26.9826 25.1664 26.7427 25.1164 26.5028L30.2375 31.631C30.3333 31.7236 30.4465 31.7963 30.5705 31.8452C30.6946 31.894 30.827 31.9179 30.9603 31.9156C31.0936 31.9133 31.2251 31.8848 31.3473 31.8316C31.4696 31.7785 31.5801 31.7019 31.6727 31.606C31.7653 31.5102 31.8381 31.3971 31.887 31.2731C31.9359 31.1492 31.9598 31.0168 31.9575 30.8836C31.9552 30.7504 31.9266 30.6189 31.8735 30.4968C31.8203 30.3746 31.7436 30.2641 31.6477 30.1715L26.5267 25.0533C26.7668 25.0533 27.0068 25.0533 27.2368 25.0533C33.168 25.0533 37.789 18.6055 37.979 18.3356C38.0974 18.1672 38.1609 17.9665 38.1609 17.7608C38.1609 17.555 38.0974 17.3543 37.979 17.186C37.789 16.9161 33.3481 10.7082 27.5769 10.4683C27.3469 4.8002 21.1356 0.361723 20.8656 0.181784C20.6971 0.0634824 20.4963 0 20.2905 0C20.0846 0 19.8838 0.0634824 19.7153 0.181784C17.7332 1.64171 16.0378 3.45481 14.7143 5.52995C10.5335 3.67059 5.39246 4.5303 5.16241 4.5303C4.96064 4.56606 4.77473 4.6629 4.62983 4.80773C4.48493 4.95255 4.38803 5.13836 4.35225 5.34002C4.35225 5.56994 3.46207 10.6482 5.27243 14.8168C3.3185 16.1329 1.60355 17.7725 0.201414 19.6651C0.0830481 19.8334 0.0195312 20.0342 0.0195312 20.2399C0.0195312 20.4457 0.0830481 20.6464 0.201414 20.8147C0.361447 21.1146 4.80234 27.3225 10.5735 27.5624ZM6.99278 16.0963C7.22231 15.9679 7.39195 15.7542 7.46496 15.5016C7.53797 15.249 7.50847 14.9778 7.38286 14.7468C5.81254 11.8778 5.99258 8.0191 6.16261 6.43964C7.76293 6.2797 11.6737 6.07976 14.5543 7.70921C14.6709 7.77302 14.7991 7.81297 14.9313 7.8267C15.0636 7.84043 15.1972 7.82767 15.3245 7.78918C15.4521 7.75153 15.5709 7.68881 15.6739 7.6047C15.7769 7.52059 15.8622 7.41678 15.9246 7.29935C17.0362 5.37554 18.5023 3.67956 20.2454 2.30106C21.7257 3.50065 25.5465 6.97946 25.5465 10.9481C25.5465 11.148 25.5465 11.348 25.5465 11.5479C25.533 11.6943 25.552 11.8419 25.6022 11.9801C25.6523 12.1184 25.7323 12.2438 25.8366 12.3476C25.9404 12.4518 26.0659 12.5318 26.2043 12.5819C26.3426 12.632 26.4902 12.651 26.6367 12.6375H27.2268C31.2276 12.6375 34.6783 16.4462 35.8886 17.9357C34.6983 19.3352 31.2176 23.1739 27.2368 23.1739C25.943 23.1498 24.6751 22.8064 23.5461 22.1743L20.4255 19.0653L29.6973 18.8354C29.9626 18.8354 30.217 18.7301 30.4046 18.5426C30.5922 18.3551 30.6975 18.1009 30.6975 17.8357C30.6975 17.5706 30.5922 17.3163 30.4046 17.1289C30.217 16.9414 29.9626 16.8361 29.6973 16.8361L20.1754 17.066C21.4206 14.6717 21.9155 11.9581 21.5957 9.27867C21.5692 9.01354 21.4384 8.76981 21.232 8.60108C21.0257 8.43236 20.7608 8.35246 20.4955 8.37898C20.2302 8.40549 19.9864 8.53624 19.8175 8.74246C19.6487 8.94868 19.5688 9.21347 19.5953 9.4786C19.8575 11.9649 19.3065 14.4691 18.025 16.6162L12.7039 11.298C12.5165 11.1118 12.263 11.0073 11.9988 11.0073C11.7345 11.0073 11.481 11.1118 11.2936 11.298C11.1999 11.3909 11.1255 11.5015 11.0747 11.6233C11.0239 11.7451 10.9978 11.8758 10.9978 12.0077C10.9978 12.1397 11.0239 12.2704 11.0747 12.3922C11.1255 12.514 11.1999 12.6246 11.2936 12.7175L16.5847 18.0057C14.4723 19.2433 12.0176 19.769 9.5833 19.5052C9.45195 19.4914 9.31917 19.5036 9.19254 19.5411C9.06592 19.5786 8.94792 19.6407 8.84529 19.7237C8.74266 19.8068 8.65741 19.9093 8.5944 20.0253C8.5314 20.1413 8.49187 20.2686 8.47808 20.3999C8.46429 20.5311 8.4765 20.6638 8.51402 20.7904C8.55155 20.917 8.61364 21.0349 8.69677 21.1375C8.77989 21.24 8.88242 21.3252 8.99849 21.3882C9.11456 21.4512 9.24191 21.4907 9.37326 21.5045C12.0437 21.7949 14.74 21.2796 17.1148 20.025L16.8848 29.5417C16.8848 29.8069 16.9901 30.0611 17.1777 30.2486C17.3653 30.4361 17.6197 30.5414 17.885 30.5414C18.1502 30.5414 18.4046 30.4361 18.5922 30.2486C18.7798 30.0611 18.8852 29.8069 18.8852 29.5417L19.1052 20.4648L22.1058 23.4638C22.7383 24.5922 23.0819 25.8594 23.106 27.1525C23.106 31.1512 19.2852 34.6 17.805 35.7996C16.3247 34.6 12.5039 31.1112 12.5039 27.1525C12.4937 26.9561 12.4937 26.7592 12.5039 26.5627C12.5189 26.4147 12.5006 26.2652 12.4504 26.1251C12.4003 25.985 12.3194 25.8579 12.2138 25.753C12.0275 25.5683 11.7761 25.4642 11.5137 25.4631H11.4137C11.2171 25.4734 11.0201 25.4734 10.8235 25.4631C6.82274 25.4631 3.37205 21.6444 2.16181 20.1649C3.51961 18.5348 5.15511 17.1574 6.99278 16.0963Z" fill="white"/>
<path d="M27.2473 54.7931C27.0073 54.7931 26.7672 54.7931 26.5272 54.7931L31.6582 49.6748C31.8445 49.4875 31.9491 49.2341 31.9491 48.9701C31.9491 48.706 31.8445 48.4526 31.6582 48.2653C31.5652 48.1716 31.4546 48.0972 31.3327 48.0465C31.2108 47.9957 31.0801 47.9696 30.9481 47.9696C30.816 47.9696 30.6853 47.9957 30.5634 48.0465C30.4415 48.0972 30.3309 48.1716 30.2379 48.2653L25.1169 53.3835C25.1169 53.1436 25.1669 52.9037 25.1669 52.6738C25.1669 46.7458 18.7156 42.1274 18.4456 41.9375C18.2771 41.8192 18.0763 41.7557 17.8704 41.7557C17.6646 41.7557 17.4637 41.8192 17.2953 41.9375C17.0253 42.1274 10.814 46.5659 10.574 52.3339C4.81281 52.5638 0.371921 58.7717 0.181883 59.0416C0.0635169 59.2099 0 59.4107 0 59.6164C0 59.8221 0.0635169 60.0229 0.181883 60.1912C1.6426 62.1722 3.45669 63.8667 5.53296 65.1895C3.67259 69.3781 4.53276 74.5063 4.53276 74.7362C4.56854 74.9379 4.66544 75.1237 4.81034 75.2685C4.95524 75.4133 5.14115 75.5102 5.34292 75.5459C5.57297 75.5459 10.644 76.4356 14.8148 74.6263C16.1368 76.5782 17.7804 78.292 19.6758 79.6945C19.8442 79.8128 20.0451 79.8763 20.2509 79.8763C20.4568 79.8763 20.6576 79.8128 20.826 79.6945C21.0961 79.5046 27.3073 75.0561 27.5474 69.2981C33.3485 69.1581 37.7894 62.9403 37.9995 62.6704C38.1201 62.5011 38.1849 62.2984 38.1849 62.0906C38.1849 61.8827 38.1201 61.6801 37.9995 61.5108C37.7894 61.2408 33.1785 54.7931 27.2473 54.7931ZM27.2473 67.3887C27.0473 67.3887 26.8472 67.3887 26.6472 67.3887C26.5007 67.3753 26.353 67.3943 26.2147 67.4444C26.0764 67.4945 25.9509 67.5745 25.847 67.6786C25.7428 67.7824 25.6628 67.9079 25.6127 68.0461C25.5625 68.1844 25.5435 68.332 25.557 68.4784C25.5673 68.6748 25.5673 68.8717 25.557 69.0682C25.557 73.0668 21.7362 76.5156 20.2559 77.7252C18.5847 76.3981 17.1682 74.7791 16.0751 72.9468C15.9882 72.7924 15.8619 72.6638 15.709 72.5743C15.5561 72.4847 15.3821 72.4373 15.2049 72.437C15.0373 72.4362 14.8723 72.4774 14.7248 72.557C11.8542 74.1264 7.99345 73.9365 6.41314 73.7766C6.2431 72.1871 6.05306 68.2784 7.67339 65.3994C7.74025 65.2822 7.7827 65.1528 7.79817 65.0188C7.81364 64.8848 7.80182 64.749 7.76341 64.6197C7.72574 64.4922 7.66298 64.3734 7.57883 64.2704C7.49467 64.1674 7.39081 64.0823 7.27331 64.0199C5.33052 62.914 3.6163 61.4484 2.22229 59.7014C3.42253 58.2219 6.91324 54.4032 10.874 54.4032C11.0741 54.4032 11.2741 54.4032 11.4742 54.4032C11.6208 54.4171 11.7687 54.3985 11.9073 54.3486C12.0459 54.2988 12.1717 54.219 12.2759 54.1149C12.38 54.0108 12.4599 53.885 12.5098 53.7465C12.5596 53.6079 12.5783 53.4601 12.5644 53.3136C12.5544 53.1171 12.5544 52.9202 12.5644 52.7238C12.5644 48.7251 16.3751 45.2763 17.8554 44.0667C19.3357 45.2763 23.1565 48.7651 23.1565 52.7238C23.1311 54.0168 22.7876 55.2836 22.1563 56.4125L18.9957 59.5314L18.7956 50.2646C18.7956 49.9995 18.6902 49.7452 18.5027 49.5577C18.3151 49.3703 18.0607 49.2649 17.7954 49.2649C17.5302 49.2649 17.2757 49.3703 17.0882 49.5577C16.9006 49.7452 16.7952 49.9995 16.7952 50.2646L16.9953 59.8313C14.6204 58.5767 11.9241 58.0615 9.25371 58.3518C9.12236 58.3656 8.99501 58.4051 8.87894 58.4681C8.76287 58.5311 8.66034 58.6163 8.57722 58.7189C8.49409 58.8214 8.432 58.9394 8.39447 59.0659C8.35695 59.1925 8.34474 59.3252 8.35853 59.4565C8.37232 59.5877 8.41185 59.715 8.47485 59.831C8.53786 59.947 8.62311 60.0495 8.72574 60.1326C8.82837 60.2157 8.94637 60.2777 9.073 60.3152C9.19962 60.3527 9.3324 60.3649 9.46375 60.3512C11.9512 60.0921 14.4559 60.6425 16.6052 61.9206L11.2841 67.2388C11.1465 67.3791 11.0533 67.5569 11.0162 67.7499C10.9791 67.9429 10.9997 68.1425 11.0755 68.3238C11.1512 68.5052 11.2788 68.6601 11.4422 68.7694C11.6056 68.8787 11.7976 68.9374 11.9943 68.9382C12.1266 68.9377 12.2575 68.9109 12.3794 68.8594C12.5013 68.8079 12.6118 68.7328 12.7044 68.6383L17.9955 63.3501C19.2197 65.4666 19.7414 67.9164 19.4858 70.3477C19.472 70.4791 19.4843 70.612 19.5222 70.7385C19.5601 70.8651 19.6227 70.9829 19.7064 71.0852C19.7901 71.1874 19.8932 71.2721 20.0099 71.3343C20.1265 71.3964 20.2543 71.4349 20.3859 71.4474H20.486C20.7348 71.4486 20.9751 71.3571 21.1601 71.1908C21.345 71.0244 21.4613 70.7951 21.4862 70.5477C21.7657 67.8877 21.2469 65.2047 19.9959 62.8403L29.5178 63.0702C29.7831 63.0702 30.0375 62.9649 30.225 62.7774C30.4126 62.59 30.518 62.3357 30.518 62.0706C30.518 61.8054 30.4126 61.5512 30.225 61.3637C30.0375 61.1762 29.7831 61.0709 29.5178 61.0709L20.436 60.851L23.4366 57.852C24.5656 57.2199 25.8334 56.8765 27.1273 56.8523C31.1281 56.8523 34.5788 60.671 35.779 62.1505C34.6988 63.57 31.2081 67.3887 27.2473 67.3887Z" fill="white"/>
<path d="M69.4257 52.3741C69.1857 46.616 63.0044 42.1676 62.7144 41.9776C62.546 41.8593 62.3451 41.7958 62.1393 41.7958C61.9334 41.7958 61.7326 41.8593 61.5641 41.9776C61.2841 42.1776 54.8328 46.786 54.8328 52.7139C54.8328 52.9539 54.8328 53.1938 54.8328 53.4337L49.7118 48.3055C49.5244 48.1193 49.2709 48.0148 49.0066 48.0148C48.7424 48.0148 48.4889 48.1193 48.3015 48.3055C48.2077 48.3984 48.1333 48.5089 48.0825 48.6308C48.0318 48.7526 48.0056 48.8832 48.0056 49.0152C48.0056 49.1472 48.0318 49.2778 48.0825 49.3997C48.1333 49.5215 48.2077 49.632 48.3015 49.725L53.4225 54.8432C53.1825 54.8432 52.9424 54.8432 52.7124 54.8432C46.7812 54.8432 42.1603 61.291 41.9702 61.5609C41.8518 61.7292 41.7883 61.93 41.7883 62.1357C41.7883 62.3415 41.8518 62.5422 41.9702 62.7105C42.1603 62.9804 46.6011 69.1883 52.3723 69.4282C52.6023 75.1862 58.8136 79.6247 59.0837 79.8147C59.253 79.9352 59.4558 80 59.6638 80C59.8717 80 60.0745 79.9352 60.2439 79.8147C62.2221 78.3503 63.9167 76.538 65.2449 74.4665C69.4357 76.3259 74.5668 75.4661 74.7968 75.4661C74.9986 75.4304 75.1845 75.3335 75.3294 75.1887C75.4743 75.0439 75.5712 74.8581 75.607 74.6564C75.607 74.4265 76.4971 69.3482 74.6868 65.1797C76.6435 63.867 78.3589 62.2268 79.7578 60.3313C79.8762 60.163 79.9397 59.9623 79.9397 59.7565C79.9397 59.5508 79.8762 59.3501 79.7578 59.1817C79.6378 58.8218 75.1969 52.614 69.4257 52.3741ZM73.0064 63.8401C72.7778 63.9616 72.6052 64.1671 72.525 64.4132C72.4448 64.6593 72.4632 64.9269 72.5764 65.1597C74.1467 68.0287 73.9666 71.8874 73.7966 73.4668C72.1963 73.6368 68.2855 73.8267 65.4049 72.1973C65.2883 72.1335 65.1601 72.0935 65.0279 72.0798C64.8957 72.066 64.762 72.0788 64.6348 72.1173C64.5072 72.1549 64.3884 72.2177 64.2853 72.3018C64.1823 72.3859 64.097 72.4897 64.0346 72.6071C62.923 74.5309 61.4569 76.2269 59.7138 77.6054C58.2335 76.4058 54.4127 72.927 54.4127 68.9584C54.4127 68.7585 54.4127 68.5585 54.4127 68.3586C54.4253 68.2199 54.4087 68.0802 54.3641 67.9484C54.3194 67.8165 54.2477 67.6954 54.1536 67.5928C54.0594 67.4902 53.9449 67.4084 53.8173 67.3527C53.6897 67.2969 53.5518 67.2684 53.4125 67.269H53.3125H52.7224C48.7216 67.269 45.2709 63.4503 44.0606 61.9708C45.2609 60.4913 48.7416 56.6826 52.7224 56.6826C54.0162 56.7067 55.2841 57.0501 56.4131 57.6822L59.5337 60.7912L50.3019 61.1611C50.0366 61.1611 49.7822 61.2664 49.5946 61.4538C49.4071 61.6413 49.3017 61.8956 49.3017 62.1607C49.3017 62.4258 49.4071 62.6801 49.5946 62.8676C49.7822 63.055 50.0366 63.1604 50.3019 63.1604L59.8238 62.9304C58.5685 65.304 58.053 67.9988 58.3435 70.6678C58.3707 70.9134 58.488 71.1403 58.6727 71.3046C58.8574 71.4689 59.0964 71.559 59.3437 71.5575H59.4437C59.5744 71.5438 59.7012 71.5044 59.8167 71.4417C59.9322 71.379 60.0342 71.2942 60.1168 71.1921C60.1995 71.09 60.2612 70.9725 60.2985 70.8466C60.3357 70.7206 60.3478 70.5885 60.3339 70.4579C60.1017 67.9606 60.6879 65.4556 62.0042 63.3203L67.3253 68.6385C67.5136 68.8254 67.7686 68.9299 68.034 68.9289C68.2994 68.928 68.5536 68.8217 68.7406 68.6335C68.9276 68.4452 69.0321 68.1905 69.0312 67.9252C69.0303 67.6599 68.9239 67.4059 68.7356 67.219L63.4345 61.9208C65.5512 60.6946 68.0031 60.173 70.4359 60.4313C70.5673 60.4444 70.6999 60.4316 70.8263 60.3935C70.9527 60.3554 71.0703 60.2927 71.1725 60.2092C71.2746 60.1257 71.3593 60.0228 71.4217 59.9066C71.4841 59.7903 71.523 59.6629 71.5361 59.5316C71.5493 59.4003 71.5364 59.2678 71.4983 59.1414C71.4602 59.0151 71.3975 58.8976 71.3139 58.7955C71.2303 58.6934 71.1274 58.6087 71.0111 58.5463C70.8948 58.484 70.7673 58.4451 70.636 58.432C67.9688 58.1424 65.2759 58.6577 62.9044 59.9115L63.1245 50.3947C63.1245 50.1296 63.0191 49.8753 62.8315 49.6879C62.6439 49.5004 62.3895 49.3951 62.1243 49.3951C61.859 49.3951 61.6046 49.5004 61.417 49.6879C61.2294 49.8753 61.1241 50.1296 61.1241 50.3947L60.904 59.4716L57.9034 56.4727C57.271 55.3442 56.9274 54.0771 56.9032 52.7839C56.9032 48.7853 60.724 45.3365 62.2043 44.1369C63.6846 45.3365 67.5053 48.8253 67.5053 52.7839C67.5053 52.9838 67.5053 53.1838 67.5053 53.3737C67.4891 53.521 67.5057 53.67 67.5542 53.8101C67.6026 53.9501 67.6816 54.0777 67.7854 54.1834C67.8903 54.289 68.0175 54.3698 68.1577 54.4199C68.2979 54.4701 68.4474 54.4883 68.5956 54.4733C68.7921 54.4631 68.9891 54.4631 69.1857 54.4733C73.1865 54.4733 76.6372 58.292 77.8474 59.7715C76.4866 61.4026 74.8477 62.7801 73.0064 63.8401Z" fill="white"/>
<path d="M61.5544 37.9488C61.7245 38.0675 61.9272 38.1304 62.1345 38.1288C62.3385 38.1283 62.5374 38.0655 62.7047 37.9488C62.9747 37.7589 69.186 33.3204 69.426 27.5524C75.1872 27.3225 79.6281 21.1146 79.8181 20.8447C79.9365 20.6764 80 20.4756 80 20.2699C80 20.0642 79.9365 19.8634 79.8181 19.6951C78.3535 17.7175 76.5401 16.0237 74.467 14.6968C76.3274 10.5182 75.4672 5.39 75.4672 5.15008C75.4314 4.94842 75.3345 4.76261 75.1896 4.61779C75.0447 4.47297 74.8588 4.37613 74.6571 4.34036C74.427 4.34036 69.346 3.45066 65.1752 5.27004C63.8492 3.30586 62.1947 1.58461 60.2842 0.181784C60.1158 0.0634824 59.9149 0 59.7091 0C59.5032 0 59.3024 0.0634824 59.1339 0.181784C58.8639 0.371719 52.6526 4.82019 52.4126 10.5782C46.6514 10.8181 42.2105 17.026 42.0205 17.2959C41.9021 17.4643 41.8386 17.665 41.8386 17.8707C41.8386 18.0765 41.9021 18.2772 42.0205 18.4455C42.2105 18.7154 46.8215 25.1632 52.7527 25.1632C52.9927 25.1632 53.2328 25.1632 53.4728 25.1632L48.3418 30.1715C48.2492 30.2647 48.1758 30.3752 48.126 30.4968C48.0761 30.6183 48.0507 30.7485 48.0512 30.8798C48.0516 31.0112 48.078 31.1411 48.1287 31.2623C48.1794 31.3835 48.2535 31.4935 48.3468 31.586C48.44 31.6786 48.5506 31.7519 48.6722 31.8017C48.7938 31.8515 48.924 31.8769 49.0555 31.8765C49.1869 31.876 49.3169 31.8497 49.4382 31.799C49.5594 31.7483 49.6695 31.6742 49.7621 31.581L54.8831 26.4628C54.8831 26.7027 54.8831 26.9426 54.8831 27.1825C54.8331 33.1705 61.2844 37.7589 61.5544 37.9488ZM52.7527 23.1739C48.7519 23.1739 45.3012 19.3552 44.1009 17.8757C45.3012 16.3962 48.7919 12.5775 52.7527 12.5775C52.9527 12.5775 53.1527 12.5775 53.3528 12.5775C53.4985 12.5923 53.6457 12.5749 53.784 12.5265C53.9223 12.4781 54.0482 12.4 54.1529 12.2976C54.2552 12.1904 54.3339 12.063 54.3839 11.9235C54.4338 11.784 54.454 11.6356 54.443 11.4879C54.4328 11.2914 54.4328 11.0946 54.443 10.8981C54.443 6.89948 58.2538 3.45066 59.7341 2.24108C61.4028 3.5707 62.8189 5.18921 63.9149 7.01944C64.0435 7.24884 64.2572 7.41839 64.51 7.49137C64.7627 7.56434 65.034 7.53486 65.2652 7.40931C68.1057 5.83985 72.0065 6.01978 73.5468 6.17973C73.7169 7.76919 73.9069 11.6778 72.2866 14.5569C72.22 14.6732 72.1776 14.8017 72.1617 14.9347C72.1459 15.0678 72.1569 15.2026 72.1942 15.3313C72.2316 15.46 72.2944 15.5799 72.379 15.6838C72.4636 15.7878 72.5682 15.8737 72.6867 15.9364C74.6135 17.0446 76.3109 18.5104 77.6877 20.2549C76.4874 21.7344 72.9967 25.5531 69.0359 25.5531C68.8359 25.5531 68.6359 25.5531 68.4358 25.5531C68.2893 25.5396 68.1416 25.5586 68.0033 25.6087C67.865 25.6588 67.7395 25.7388 67.6357 25.843C67.5314 25.9468 67.4514 26.0723 67.4013 26.2105C67.3511 26.3487 67.3321 26.4963 67.3456 26.6427C67.3555 26.8392 67.3555 27.036 67.3456 27.2325C67.3456 31.2311 63.5248 34.68 62.0445 35.8896C60.5642 34.68 56.7435 31.1912 56.7435 27.2325C56.7688 25.9395 57.1124 24.6727 57.7437 23.5438L61.0043 20.4049L61.2244 29.6717C61.2244 29.9368 61.3297 30.1911 61.5173 30.3785C61.7049 30.566 61.9593 30.6713 62.2246 30.6713C62.4898 30.6713 62.7442 30.566 62.9318 30.3785C63.1194 30.1911 63.2248 29.9368 63.2248 29.6717L63.0047 20.105C65.38 21.3584 68.0759 21.8736 70.7463 21.5845C70.8776 21.5707 71.005 21.5312 71.121 21.4682C71.2371 21.4052 71.3396 21.32 71.4228 21.2174C71.5059 21.1149 71.568 20.9969 71.6055 20.8704C71.643 20.7438 71.6553 20.6111 71.6415 20.4798C71.6277 20.3486 71.5881 20.2213 71.5251 20.1053C71.4621 19.9893 71.3769 19.8868 71.2742 19.8037C71.1716 19.7206 71.0536 19.6586 70.927 19.6211C70.8004 19.5836 70.6676 19.5714 70.5362 19.5851C68.0485 19.8493 65.5422 19.2985 63.3948 18.0157L68.7159 12.6975C68.9022 12.5102 69.0067 12.2568 69.0067 11.9927C69.0067 11.7286 68.9022 11.4753 68.7159 11.288C68.6229 11.1943 68.5123 11.1199 68.3904 11.0692C68.2685 11.0184 68.1378 10.9923 68.0057 10.9923C67.8737 10.9923 67.743 11.0184 67.6211 11.0692C67.4992 11.1199 67.3886 11.1943 67.2956 11.288L62.0045 16.5862C60.7803 14.4697 60.2586 12.0199 60.5142 9.58856C60.528 9.45717 60.5156 9.32434 60.4778 9.19776C60.4399 9.07118 60.3773 8.95335 60.2936 8.8511C60.2099 8.74885 60.1067 8.66419 59.9901 8.60203C59.8735 8.53986 59.7456 8.50143 59.614 8.48894C59.3517 8.46376 59.09 8.5431 58.8859 8.7097C58.6817 8.87629 58.5516 9.11669 58.5238 9.37863C58.238 12.041 58.7534 14.7281 60.0041 17.096L50.4822 16.8661C50.2169 16.8661 49.9625 16.9714 49.775 17.1589C49.5874 17.3463 49.482 17.6006 49.482 17.8657C49.482 18.1309 49.5874 18.3851 49.775 18.5726C49.9625 18.7601 50.2169 18.8654 50.4822 18.8654L59.564 19.0853L56.5634 22.0843C55.4073 22.7672 54.0953 23.1424 52.7527 23.1739Z" fill="white"/>
<path d="M47.8816 39.9681C47.8816 38.4101 47.4193 36.8871 46.5533 35.5917C45.6873 34.2963 44.4563 33.2866 43.0161 32.6904C41.576 32.0942 39.9913 31.9382 38.4624 32.2421C36.9335 32.5461 35.5291 33.2963 34.4269 34.398C33.3246 35.4996 32.574 36.9032 32.2699 38.4313C31.9657 39.9593 32.1218 41.5432 32.7184 42.9826C33.3149 44.422 34.3251 45.6522 35.6212 46.5178C36.9173 47.3834 38.4412 47.8454 40 47.8454C42.0895 47.8427 44.0927 47.0119 45.5702 45.5352C47.0477 44.0585 47.8789 42.0564 47.8816 39.9681ZM40 45.8461C38.8368 45.8461 37.6997 45.5013 36.7326 44.8554C35.7654 44.2096 35.0116 43.2915 34.5665 42.2175C34.1214 41.1434 34.0049 39.9615 34.2318 38.8213C34.4587 37.6811 35.0189 36.6338 35.8414 35.8117C36.6639 34.9896 37.7118 34.4298 38.8526 34.203C39.9935 33.9762 41.176 34.0926 42.2506 34.5375C43.3253 34.9824 44.2438 35.7358 44.89 36.7024C45.5363 37.6691 45.8812 38.8055 45.8812 39.9681C45.8812 41.527 45.2616 43.0221 44.1586 44.1244C43.0557 45.2268 41.5598 45.8461 40 45.8461Z" fill="white"/>
</svg>
