<svg width="33" height="32" viewBox="0 0 33 32" fill="none" xmlns="http://www.w3.org/2000/svg">
<path opacity="0.1" fill-rule="evenodd" clip-rule="evenodd" d="M16.3179 32C25.1475 32 32.3054 24.8366 32.3054 16C32.3054 7.16344 25.1475 0 16.3179 0C7.48827 0 0.330444 7.16344 0.330444 16C0.330444 24.8366 7.48827 32 16.3179 32Z" fill="white"/>
<path fill-rule="evenodd" clip-rule="evenodd" d="M16.3196 6C10.8017 6 6.32727 10.5903 6.32727 16.2531C6.32727 20.7832 9.19037 24.6266 13.1606 25.9824C13.66 26.0773 13.8433 25.76 13.8433 25.4891C13.8433 25.2446 13.8341 24.437 13.8298 23.5802C11.0499 24.2004 10.4633 22.3704 10.4633 22.3704C10.0088 21.1853 9.35385 20.8702 9.35385 20.8702C8.44725 20.2338 9.42219 20.2469 9.42219 20.2469C10.4256 20.319 10.9539 21.3035 10.9539 21.3035C11.8451 22.871 13.2915 22.4178 13.8617 22.1558C13.9514 21.4933 14.2103 21.0406 14.4961 20.7848C12.2767 20.5255 9.94358 19.6463 9.94358 15.7176C9.94358 14.5982 10.3339 13.6835 10.9731 12.9654C10.8694 12.707 10.5273 11.6644 11.0699 10.252C11.0699 10.252 11.909 9.97647 13.8185 11.303C14.6156 11.0759 15.4704 10.9619 16.3196 10.958C17.1688 10.9619 18.0242 11.0759 18.8228 11.303C20.73 9.97647 21.5679 10.252 21.5679 10.252C22.1118 11.6644 21.7696 12.707 21.6659 12.9654C22.3065 13.6835 22.6942 14.5982 22.6942 15.7176C22.6942 19.6557 20.3567 20.5228 18.1316 20.7766C18.49 21.0948 18.8094 21.7188 18.8094 22.6754C18.8094 24.0471 18.7978 25.1513 18.7978 25.4891C18.7978 25.762 18.9777 26.0817 19.4842 25.981C23.4522 24.6237 26.3117 20.7817 26.3117 16.2531C26.3117 10.5903 21.8379 6 16.3196 6Z" fill="#F0F3F6"/>
</svg>
