<svg width="70" height="70" viewBox="0 0 70 70" fill="none" xmlns="http://www.w3.org/2000/svg">
<path d="M63.1941 21.4044H53.7917V14.2256C53.7882 13.1556 53.07 12.13 51.7944 11.3735C50.5188 10.6169 48.7897 10.1909 46.9858 10.1889H38.3177V4.03667C38.3143 2.96671 37.5961 1.94116 36.3205 1.18458C35.0449 0.428006 33.3158 0.00205564 31.5118 0H6.80592C5.00194 0.00205564 3.27284 0.428006 1.99724 1.18458C0.721629 1.94116 0.00346586 2.96671 0 4.03667V44.5589C0 45.6295 0.717051 46.6562 1.99341 47.4132C3.26977 48.1703 5.00088 48.5956 6.80592 48.5956H15.4608V54.7556C15.4643 55.8248 16.1829 56.8495 17.4589 57.6049C18.7349 58.3602 20.464 58.7845 22.2668 58.7844H31.6823V65.9633C31.6857 67.0333 32.4039 68.0588 33.6795 68.8154C34.9551 69.572 36.6842 69.9979 38.4882 70H63.1941C64.9981 69.9979 66.7271 69.572 68.0028 68.8154C69.2784 68.0588 69.9965 67.0333 70 65.9633V25.4411C69.9965 24.3712 69.2784 23.3456 68.0028 22.589C66.7271 21.8324 64.9981 21.4065 63.1941 21.4044ZM15.4608 14.2256V45.3367H6.80592C6.46327 45.3272 6.13892 45.2422 5.89637 45.0984C5.65381 44.9545 5.51053 44.7621 5.49457 44.5589V4.03667C5.51053 3.83344 5.65381 3.64106 5.89637 3.4972C6.13892 3.35334 6.46327 3.26836 6.80592 3.25889H31.5118C31.8535 3.27007 32.1762 3.3556 32.4181 3.49911C32.6601 3.64262 32.8043 3.83402 32.8232 4.03667V10.1967H22.2668C20.464 10.1967 18.7349 10.6209 17.4589 11.3762C16.1829 12.1316 15.4643 13.1563 15.4608 14.2256ZM31.6823 25.4411V55.5567H22.2668C21.919 55.5567 21.5854 55.4747 21.3395 55.3289C21.0936 55.183 20.9554 54.9852 20.9554 54.7789V14.2256C20.9554 14.0193 21.0936 13.8214 21.3395 13.6756C21.5854 13.5297 21.919 13.4478 22.2668 13.4478H46.9858C47.3336 13.4478 47.6671 13.5297 47.913 13.6756C48.159 13.8214 48.2971 14.0193 48.2971 14.2256V21.4044H38.4882C36.6842 21.4065 34.9551 21.8324 33.6795 22.589C32.4039 23.3456 31.6857 24.3712 31.6823 25.4411ZM64.5579 65.9633C64.5419 66.1666 64.3986 66.3589 64.1561 66.5028C63.9135 66.6467 63.5892 66.7316 63.2465 66.7411H38.4882C38.1465 66.7299 37.8238 66.6444 37.5819 66.5009C37.3399 66.3574 37.1957 66.166 37.1768 65.9633V25.4411C37.1957 25.2385 37.3399 25.0471 37.5819 24.9036C37.8238 24.76 38.1465 24.6745 38.4882 24.6633H63.1941C63.5367 24.6728 63.8611 24.7578 64.1036 24.9016C64.3462 25.0455 64.4895 25.2379 64.5054 25.4411V65.9633H64.5579Z" fill="#6E9E3D"/>
</svg>
