<svg width="72" height="72" viewBox="0 0 72 72" fill="none" xmlns="http://www.w3.org/2000/svg">
<path d="M69.5337 33.6793L64.6815 30.313C63.5661 22.1225 60.0579 14.6756 54.7847 9.30496C49.5116 3.93428 42.8176 0.990357 35.9008 1.00002C28.984 1.00969 22.2958 3.97232 17.0331 9.35772C11.7703 14.7431 8.2766 22.1998 7.17706 30.3934L2.44394 33.6793C2.0156 33.8982 1.65035 34.2633 1.39362 34.7292C1.13688 35.1952 1 35.7415 1 36.3001C1 36.8586 1.13688 37.4049 1.39362 37.8709C1.65035 38.3368 2.0156 38.702 2.44394 38.9208L7.28869 42.3139C8.51001 50.3588 12.0438 57.6352 17.2749 62.8766C22.5061 68.118 29.1035 70.9926 35.9188 71C42.734 71.0074 49.3357 68.1472 54.5748 62.9173C59.8139 57.6873 63.3587 50.4186 64.5922 42.3764L69.5561 38.9297C69.9844 38.7109 70.3496 38.3458 70.6064 37.8798C70.8631 37.4138 71 36.8676 71 36.309C71 35.7504 70.8631 35.2041 70.6064 34.7382C70.3496 34.2722 69.9844 33.9071 69.5561 33.6882L69.5337 33.6793ZM35.933 3.38239C42.0875 3.39204 48.0574 5.90495 52.868 10.5108C57.6785 15.1167 61.0455 21.5434 62.4192 28.7414L47.23 18.2049C46.3678 17.668 45.4107 17.3877 44.4392 17.3877C43.4678 17.3877 42.5107 17.668 41.6485 18.2049L33.4623 23.875L31.3264 22.3928C30.4631 21.8601 29.5064 21.5822 28.5357 21.5822C27.5649 21.5822 26.6082 21.8601 25.7449 22.3928L17.8191 27.8932L17.0749 27.3842C16.2128 26.8473 15.2556 26.567 14.2842 26.567C13.3128 26.567 12.3556 26.8473 11.4934 27.3842L9.43199 28.804C10.7935 21.5898 14.1577 15.1448 18.9728 10.5258C23.7879 5.90682 29.7682 3.388 35.933 3.38239ZM26.1616 33.6793L24.7179 32.6792L22.7383 31.3041L19.7615 29.2683L26.69 24.5001C27.2477 24.1694 27.8615 23.9974 28.4836 23.9974C29.1056 23.9974 29.7194 24.1694 30.2771 24.5001L31.4232 25.2948L33.4102 26.6699L45.9872 35.4027C46.3444 35.6527 46.4412 35.8848 46.4412 35.9652C46.4412 36.0456 46.3444 36.2777 45.9872 36.5277L32.8967 45.5731L30.9097 46.9482L30.3441 47.3411C29.7864 47.6717 29.1726 47.8437 28.5505 47.8437C27.9284 47.8437 27.3147 47.6717 26.757 47.3411L20.4015 42.9389L22.7606 41.296L24.7477 39.9209L26.1616 38.9208C26.59 38.702 26.9552 38.3368 27.212 37.8709C27.4687 37.4049 27.6056 36.8586 27.6056 36.3001C27.6056 35.7415 27.4687 35.1952 27.212 34.7292C26.9552 34.2633 26.59 33.8982 26.1616 33.6793ZM6.96124 39.2869L3.43373 36.8581C3.07651 36.617 2.9872 36.3849 2.9872 36.3045C2.9872 36.2242 3.07651 35.9831 3.43373 35.742L6.88682 33.3847L9.0078 31.9203L12.5204 29.4826C13.068 29.1132 13.6858 28.9194 14.314 28.92C14.823 28.9173 15.3279 29.0294 15.8024 29.2504C15.8978 29.298 15.9899 29.3547 16.0777 29.4201L17.8043 30.6077L20.7811 32.6525L22.7681 34.0276L25.2016 35.7152C25.5588 35.9563 25.6482 36.1884 25.6482 36.2777C25.6482 36.367 25.5588 36.5813 25.2016 36.8313L22.7681 38.519L20.7811 39.8851L18.422 41.5728L16.4349 42.9479L16.1149 43.2068C15.5561 43.5329 14.9428 43.7024 14.3214 43.7024C13.7 43.7024 13.0867 43.5329 12.5279 43.2068L9.0971 40.8316L6.96124 39.2869ZM35.933 68.5212C29.8883 68.5104 24.0189 66.0834 19.2521 61.6237C14.4853 57.1639 11.0928 50.9256 9.6106 43.8944L11.5306 45.2248C12.3889 45.7719 13.3498 46.0456 14.3214 46.0195C15.293 46.0456 16.2539 45.7719 17.1122 45.2248L18.4368 44.3319L25.7895 49.4573C26.6528 49.9899 27.6096 50.2678 28.5803 50.2678C29.551 50.2678 30.5078 49.9899 31.3711 49.4573L32.9339 48.3769L41.6783 54.4309C42.5393 54.9722 43.4969 55.255 44.469 55.255C45.4411 55.255 46.3987 54.9722 47.2598 54.4309L62.248 43.9747C60.7534 50.9896 57.3566 57.2087 52.5924 61.6527C47.8283 66.0966 41.9675 68.513 35.933 68.5212ZM68.5365 36.8581L64.9271 39.3672L62.7764 40.8584L46.2253 52.3325C45.6665 52.6586 45.0532 52.8281 44.4318 52.8281C43.8104 52.8281 43.1971 52.6586 42.6383 52.3325L34.8837 46.975L47.0291 38.5458C47.3167 38.3997 47.5774 38.1869 47.7961 37.9194C48.0148 37.652 48.1873 37.3352 48.3035 36.9874C48.4197 36.6396 48.4774 36.2677 48.4733 35.893C48.4691 35.5184 48.4032 35.1484 48.2793 34.8044C48.0424 34.1272 47.5935 33.5886 47.0291 33.3043L35.4344 25.268L42.6234 20.2944C43.1822 19.9683 43.7955 19.7988 44.4169 19.7988C45.0383 19.7988 45.6516 19.9683 46.2104 20.2944L62.8582 31.7952L65.009 33.2686L68.5663 35.742C68.9235 35.9831 69.0128 36.2152 69.0128 36.3045C69.0128 36.3938 68.9012 36.617 68.5365 36.8581Z" fill="#6E9E3D" stroke="#6E9E3D" stroke-width="2" stroke-miterlimit="10"/>
</svg>
