<svg width="70" height="70" viewBox="0 0 70 70" fill="none" xmlns="http://www.w3.org/2000/svg">
<path d="M0 40.8307V70H29.1693V57.6227H40.8307V70H70V40.8307H57.6227V29.1693H70V0H40.8307V12.3773H29.1693V0H0V29.1693H12.3773V40.8307H0ZM24.3966 65.2273H4.77273V45.6034H24.3966V65.2273ZM65.2273 65.2273H45.6034V45.6034H65.2273V65.2273ZM45.6034 4.77273H65.2273V24.3966H45.6034V4.77273ZM4.77273 4.77273H24.3966V24.3966H4.77273V4.77273ZM17.15 29.1693H29.1693V17.15H40.8307V29.1693H52.85V40.8307H40.8307V52.85H29.1693V40.8307H17.15V29.1693Z" fill="#6E9E3D"/>
</svg>
