<svg width="72" height="72" viewBox="0 0 72 72" fill="none" xmlns="http://www.w3.org/2000/svg">
<path d="M42.7028 28.0428H40.9528C39.3113 28.0428 37.7369 28.6942 36.5754 29.854C35.4138 31.0138 34.7601 32.587 34.7578 34.2283V37.0717C34.7578 37.3038 34.85 37.5263 35.0141 37.6904C35.1782 37.8544 35.4007 37.9466 35.6328 37.9466H48.0141C48.2461 37.9466 48.4687 37.8544 48.6328 37.6904C48.7969 37.5263 48.8891 37.3038 48.8891 37.0717V34.2283C48.8867 32.5885 48.2342 31.0166 47.0746 29.8571C45.9149 28.6976 44.3428 28.0452 42.7028 28.0428ZM47.1391 36.1968H36.5253V34.2283C36.5299 33.0518 37 31.9249 37.8329 31.0938C38.6657 30.2627 39.7936 29.7949 40.9703 29.7926H42.7203C43.8962 29.7949 45.0232 30.263 45.8547 31.0944C46.6861 31.9257 47.1542 33.0526 47.1566 34.2283L47.1391 36.1968Z" fill="#6E9E3D" stroke="#6E9E3D" stroke-miterlimit="10"/>
<path d="M70.125 69.2502H66.8V37.4479H69.1012C69.3333 37.4479 69.5559 37.3558 69.72 37.1917C69.8841 37.0276 69.9762 36.8051 69.9762 36.5731V33.5722C69.9769 33.457 69.9548 33.3429 69.9113 33.2363C69.8678 33.1297 69.8036 33.0328 69.7225 32.951L59.625 23.0122C59.556 22.9441 59.4762 22.888 59.3888 22.846L42.4137 14.8058C42.2962 14.7498 42.1677 14.7208 42.0375 14.7208C41.9073 14.7208 41.7788 14.7498 41.6613 14.8058L24.6862 22.846C24.6028 22.8821 24.5282 22.9358 24.4675 23.0035L23.5138 23.9484C23.2633 22.1939 22.5199 20.5464 21.37 19.1977C21.8113 18.2154 22.0409 17.1512 22.0437 16.0744C22.0273 14.1766 21.3355 12.3467 20.0925 10.9125C20.4397 10.1025 20.6183 9.23033 20.6175 8.34908C20.6175 4.29834 16.8988 1 12.3313 1C7.76375 1 4.045 4.29834 4.045 8.34908C4.04546 9.22932 4.22094 10.1007 4.56125 10.9125C3.3182 12.3467 2.62648 14.1766 2.61 16.0744C2.61166 17.1542 2.84125 18.2215 3.28375 19.2065C1.85867 20.8661 1.06811 22.9771 1.0525 25.1645C1.0525 30.4138 5.6375 34.6833 11.4388 35.0857V69.2502H1.875C1.64294 69.2502 1.42038 69.3424 1.25628 69.5065C1.09219 69.6705 1 69.8931 1 70.1251C1 70.3571 1.09219 70.5797 1.25628 70.7438C1.42038 70.9078 1.64294 71 1.875 71H70.125C70.3571 71 70.5796 70.9078 70.7437 70.7438C70.9078 70.5797 71 70.3571 71 70.1251C71 69.8931 70.9078 69.6705 70.7437 69.5065C70.5796 69.3424 70.3571 69.2502 70.125 69.2502ZM53.7887 43.7384L42.825 66.1531V43.7384H53.7887ZM41.075 66.3193L29.4637 43.7384H41.075V66.3193ZM28.9037 46.4681L40.62 69.2152H28.9037V46.4681ZM54.7687 45.7244V69.2502H43.2537L54.7687 45.7244ZM55.6437 41.9886H28.0287C27.7967 41.9886 27.5741 42.0808 27.41 42.2449C27.2459 42.4089 27.1537 42.6315 27.1537 42.8635V69.2502H18.6137V37.1155L27.6613 28.6203L42.0462 21.8049L56.4225 28.6115L65.05 37.1155V69.2502H56.5187V42.8635C56.5187 42.6315 56.4266 42.4089 56.2625 42.2449C56.0984 42.0808 55.8758 41.9886 55.6437 41.9886ZM25.5963 24.3683L42.0725 16.5643L58.54 24.3683L68.2262 33.9046V35.6544H66.1L57.5425 27.2205C57.4735 27.1524 57.3937 27.0962 57.3062 27.0542L42.4312 20.0026C42.3137 19.9467 42.1852 19.9176 42.055 19.9176C41.9248 19.9176 41.7963 19.9467 41.6788 20.0026L26.8038 27.0542C26.721 27.0924 26.6444 27.1425 26.5763 27.203L17.5725 35.6982H15.4375V33.9484L25.5963 24.3683ZM2.84625 25.1382C2.86853 23.1893 3.64283 21.3243 5.0075 19.9326C5.13649 19.799 5.21958 19.6277 5.24475 19.4437C5.26992 19.2597 5.23586 19.0724 5.1475 18.909C4.65318 18.0444 4.3825 17.07 4.36 16.0744C4.39001 14.4244 5.06906 12.8527 6.25 11.6999C6.3804 11.5673 6.46512 11.3965 6.49187 11.2124C6.51862 11.0284 6.486 10.8406 6.39875 10.6763C6.01415 9.96716 5.81264 9.17327 5.8125 8.36658C5.8125 5.27822 8.74375 2.76728 12.3487 2.76728C15.9537 2.76728 18.885 5.27822 18.885 8.36658C18.8805 9.17272 18.6793 9.96558 18.2987 10.6763C18.2124 10.8387 18.1795 11.0242 18.2046 11.2064C18.2298 11.3885 18.3117 11.5582 18.4388 11.6912C19.6101 12.849 20.2821 14.419 20.3112 16.0656C20.3065 17.0664 20.0508 18.0501 19.5675 18.9265C19.4791 19.0899 19.4451 19.2772 19.4702 19.4612C19.4954 19.6452 19.5785 19.8165 19.7075 19.9501C21.0753 21.3398 21.8501 23.2061 21.8687 25.1557C21.8687 25.2695 21.8687 25.392 21.8687 25.5144L13.9938 32.916C13.8971 33.0145 13.8252 33.1344 13.7838 33.266C13.3138 33.3285 12.8403 33.3606 12.3663 33.3622C7.0725 33.3447 2.8025 29.6614 2.8025 25.1382H2.84625ZM13.1888 35.0595L13.6875 35.0157V36.5731C13.6875 36.8051 13.7797 37.0276 13.9438 37.1917C14.1079 37.3558 14.3304 37.4479 14.5625 37.4479H16.8637V69.2502H13.1888V35.0595Z" fill="#6E9E3D" stroke="#6E9E3D" stroke-miterlimit="10"/>
</svg>
