<svg width="72" height="72" viewBox="0 0 72 72" fill="none" xmlns="http://www.w3.org/2000/svg">
<path d="M71 9.58959C70.9702 7.41294 70.1091 5.3262 68.5865 3.7407C67.0639 2.1552 64.9903 1.18599 62.7744 1.02412C60.5584 0.862247 58.361 1.51946 56.6152 2.8662C54.8694 4.21295 53.7019 6.15151 53.3429 8.29976C46.1744 4.0518 37.6725 2.50515 29.4251 3.94865C21.1776 5.39214 13.7484 9.72708 8.52484 16.144C3.30124 22.5608 0.640368 30.6209 1.03911 38.8191C1.43786 47.0173 4.86896 54.793 10.6917 60.6943C16.5144 66.5955 24.3307 70.2188 32.6809 70.8876C41.0311 71.5563 49.3443 69.2248 56.0681 64.3284C62.7919 59.4319 67.4666 52.3054 69.2193 44.2795C70.9719 36.2537 69.6827 27.8772 65.5924 20.7144C67.9435 17.4207 71 12.5147 71 9.58959ZM62.0186 3.1865C63.7483 3.19856 65.4037 3.87704 66.6268 5.07525C67.8499 6.27346 68.5425 7.89511 68.5548 9.58959C68.5548 12.3075 64.4403 18.319 62.0186 21.5436C59.6675 18.342 55.459 12.3305 55.459 9.58959C55.4652 7.88927 56.159 6.26067 57.3885 5.06051C58.618 3.86036 60.283 3.18649 62.0186 3.1865ZM67.4733 38.2884C67.2912 43.8982 65.5694 49.3564 62.4889 54.0888H51.6031C53.3738 48.9971 54.3256 43.6666 54.4245 38.2884H67.4733ZM49.2049 54.0888H36.7674V38.2884H52.0733C51.98 43.671 51.0118 49.0047 49.2049 54.0888ZM3.61634 38.2884H16.7592C16.8982 43.6724 17.8896 49.0027 19.6981 54.0888H8.69481C5.57577 49.3682 3.82076 43.9079 3.61634 38.2884ZM34.4163 18.6184H22.3314C25.1293 11.7086 29.3848 7.10206 34.4398 6.34198L34.4163 18.6184ZM34.4163 20.9217V35.916H19.0868C19.1135 30.8318 19.9057 25.7793 21.438 20.9217H34.4163ZM16.7357 35.9851H3.63986C3.81069 30.6661 5.37317 25.4793 8.17755 20.9217H19.0633C17.5506 25.8067 16.7667 30.8803 16.7357 35.9851ZM19.0868 38.2884H34.3928V54.0888H22.0493C20.205 49.012 19.2125 43.6761 19.1104 38.2884H19.0868ZM34.3928 56.3921V67.1483C29.6905 66.5495 25.7171 62.5418 22.9192 56.3921H34.3928ZM36.7439 56.3921H48.2175C45.4196 62.5188 41.3521 66.5495 36.7439 67.1483V56.3921ZM36.7439 35.9851V20.9217H49.6752C51.2074 25.7793 51.9997 30.8318 52.0263 35.916L36.7439 35.9851ZM36.7439 18.6875V6.41108C41.7283 7.10206 46.1485 11.7086 48.8758 18.6184L36.7439 18.6875ZM42.9744 6.61837C46.7179 7.52061 50.263 9.08146 53.437 11.2249C54.3585 13.8602 55.6652 16.3506 57.3164 18.6184H51.321C49.7175 13.9429 46.8295 9.79087 42.9744 6.61837ZM28.1622 6.61837C24.3271 9.79916 21.4564 13.9499 19.8627 18.6184H9.75282C14.2499 12.608 20.7843 8.3622 28.1858 6.6414L28.1622 6.61837ZM10.2936 56.3921H20.4975C22.2742 61.0952 25.5252 65.1266 29.7845 67.9084C22.0687 66.5335 15.1346 62.4364 10.2936 56.3921ZM41.3521 67.9084C45.6114 65.1266 48.8624 61.0952 50.6391 56.3921H60.749C55.9487 62.4031 49.0788 66.4967 41.4227 67.9084H41.3521ZM67.5673 35.9851H54.448C54.3981 30.9027 53.6063 25.8535 52.0968 20.9908H58.7741C59.9261 22.6031 60.8901 23.8238 61.1252 24.1693L62.0422 25.3209L62.9591 24.1693L63.9936 22.8334C66.1565 26.9069 67.3767 31.3973 67.5673 35.9851Z" fill="#6E9E3D" stroke="#6E9E3D" stroke-miterlimit="10"/>
<path d="M67.755 9.4053C67.7641 8.31404 67.4433 7.24454 66.833 6.33158C66.2227 5.41862 65.3503 4.70305 64.3255 4.27504C63.3008 3.84704 62.1697 3.72574 61.0747 3.92645C59.9797 4.12715 58.9699 4.64087 58.1724 5.40288C57.375 6.16488 56.8256 7.14107 56.5935 8.20843C56.3615 9.27579 56.4571 10.3866 56.8683 11.4008C57.2796 12.415 57.9881 13.2873 58.9045 13.9077C59.821 14.5281 60.9044 14.8689 62.0182 14.8871C62.764 14.9024 63.5054 14.7721 64.1993 14.5037C64.8931 14.2354 65.5255 13.8344 66.0595 13.3241C66.5934 12.8139 67.0184 12.2046 67.3095 11.5317C67.6006 10.8589 67.7521 10.1361 67.755 9.4053ZM58.8207 9.4053C58.8114 8.76763 58.9954 8.1416 59.3494 7.60636C59.7033 7.07113 60.2113 6.65072 60.8091 6.39831C61.407 6.1459 62.0678 6.07282 62.708 6.1883C63.3482 6.30379 63.9391 6.60265 64.406 7.04711C64.8728 7.49157 65.1946 8.06166 65.3308 8.68529C65.4669 9.30893 65.4112 9.9581 65.1707 10.5507C64.9303 11.1434 64.5158 11.6528 63.9798 12.0147C63.4437 12.3766 62.8102 12.5746 62.1593 12.5838H62.0182C61.1697 12.5601 60.3634 12.2162 59.7675 11.624C59.1717 11.0317 58.8325 10.2368 58.8207 9.4053Z" fill="#6E9E3D" stroke="#6E9E3D" stroke-miterlimit="10"/>
</svg>
