<svg width="70" height="70" viewBox="0 0 70 70" fill="none" xmlns="http://www.w3.org/2000/svg">
<path d="M41.6119 10.9006C41.0904 10.8922 40.5846 10.7724 40.1603 10.557C39.8989 10.4256 39.6779 10.2578 39.5109 10.0637C39.3439 9.86969 39.2345 9.65348 39.1892 9.42835C39.1439 9.20322 39.1637 8.9739 39.2475 8.7544C39.3313 8.5349 39.4772 8.32985 39.6764 8.15177L44.1926 3.91403L35.3216 4.60123H34.8377L25.9668 3.91403L30.4829 8.15177C30.8679 8.51629 31.0332 8.97448 30.9425 9.42554C30.8517 9.8766 30.5123 10.2836 29.999 10.557C29.4857 10.8304 28.8405 10.9478 28.2053 10.8833C27.5701 10.8189 26.9969 10.5779 26.6119 10.2134L18.7087 2.76869C18.4119 2.51476 18.2364 2.20045 18.2074 1.8711C18.1784 1.54174 18.2975 1.21436 18.5474 0.936157C18.8089 0.65077 19.1679 0.417064 19.591 0.25684C20.014 0.0966173 20.4873 0.0150985 20.9668 0.0198883L35.1603 1.16522L49.3539 0.0198883C49.8426 -0.0350854 50.3433 0.0246361 50.7799 0.189993C51.2165 0.35535 51.5652 0.617319 51.7732 0.936157C52.0307 1.21251 52.1542 1.54092 52.1251 1.87162C52.096 2.20232 51.9158 2.51726 51.6119 2.76869L43.7087 10.2134C43.1587 10.6239 42.4087 10.8697 41.6119 10.9006Z" fill="#6E9E3D"/>
<path d="M35 70C18.5484 70 0 70 0 52.9345C0 37.0143 15.6452 12.7332 35 12.7332C54.3548 12.7332 70 37.0143 70 52.9345C70 70 51.4516 70 35 70ZM35 16.1692C27.9032 16.1692 20.3226 20.8651 14.1935 28.8825C8.54839 36.3271 5 45.7189 5 52.82C4.83871 65.8768 16.2903 66.564 35 66.564C53.7097 66.564 65.1613 65.8768 65.1613 52.9345C65.1613 45.7189 61.6129 36.3271 55.9677 28.997C49.6774 20.8651 42.0968 16.1692 35 16.1692Z" fill="#6E9E3D"/>
<path d="M32.1677 35.3381L38.6386 46.9945V35.2302C38.6386 34.4657 38.7746 33.8945 39.0466 33.5168C39.3261 33.13 39.7001 32.9367 40.1685 32.9367C40.652 32.9367 41.0336 33.13 41.3131 33.5168C41.5927 33.8945 41.7324 34.4657 41.7324 35.2302V50.7855C41.7324 52.5214 41.128 53.3893 39.9192 53.3893C39.617 53.3893 39.345 53.3354 39.1033 53.2274C38.8615 53.1285 38.6348 52.9666 38.4233 52.7418C38.2118 52.5169 38.0153 52.2561 37.834 51.9593C37.6527 51.6535 37.4714 51.3432 37.29 51.0284L30.9778 39.5069V51.0958C30.9778 51.8513 30.8304 52.4225 30.5358 52.8092C30.2411 53.196 29.8634 53.3893 29.4025 53.3893C28.9266 53.3893 28.545 53.196 28.2579 52.8092C27.9708 52.4135 27.8273 51.8424 27.8273 51.0958V35.8373C27.8273 35.1897 27.8877 34.6815 28.0086 34.3128C28.1522 33.908 28.3902 33.5797 28.7226 33.3279C29.055 33.0671 29.4139 32.9367 29.7992 32.9367C30.1014 32.9367 30.3583 32.9951 30.5698 33.1121C30.7889 33.229 30.9778 33.3864 31.1364 33.5842C31.3026 33.7821 31.4688 34.0385 31.6351 34.3532C31.8088 34.668 31.9864 34.9963 32.1677 35.3381Z" fill="#6E9E3D"/>
<path d="M22.8232 40.3666L46 40" stroke="#6E9E3D" stroke-width="2" stroke-miterlimit="10" stroke-linecap="round"/>
<path d="M22.8232 47.3666L46 47" stroke="#6E9E3D" stroke-width="2" stroke-miterlimit="10" stroke-linecap="round"/>
</svg>
