<svg width="72" height="72" viewBox="0 0 72 72" fill="none" xmlns="http://www.w3.org/2000/svg">
<path d="M49.6908 33.6126C52.412 33.6126 54.618 31.1812 54.618 28.1819C54.618 25.1826 52.412 22.7512 49.6908 22.7512C46.9696 22.7512 44.7637 25.1826 44.7637 28.1819C44.7637 31.1812 46.9696 33.6126 49.6908 33.6126Z" stroke="#6E9E3D" stroke-width="3" stroke-miterlimit="10"/>
<path d="M60.0939 46.8484V43.5282C60.1008 41.4993 59.634 39.5026 58.7384 37.73C57.8428 35.9574 56.5485 34.4686 54.98 33.4067C54.315 34.2286 53.5002 34.8867 52.5888 35.3379C51.6774 35.7892 50.69 36.0235 49.6908 36.0256C48.6269 36.0264 47.5768 35.7602 46.6201 35.247C49.5531 38.2947 51.3879 42.408 51.7866 46.829L60.0939 46.8484Z" stroke="#6E9E3D" stroke-width="3" stroke-miterlimit="10"/>
<path d="M22.311 33.6126C25.0322 33.6126 27.2381 31.1812 27.2381 28.1819C27.2381 25.1826 25.0322 22.7512 22.311 22.7512C19.5898 22.7512 17.3838 25.1826 17.3838 28.1819C17.3838 31.1812 19.5898 33.6126 22.311 33.6126Z" stroke="#6E9E3D" stroke-width="3" stroke-miterlimit="10"/>
<path d="M11.9082 43.5281V46.8483H20.2214C20.6252 42.4289 22.4592 38.3175 25.3879 35.2663C24.433 35.7785 23.385 36.0447 22.323 36.0449C21.3237 36.044 20.3359 35.8102 19.4243 35.3589C18.5128 34.9076 17.6982 34.2489 17.0339 33.426C15.465 34.4837 14.1694 35.9686 13.2717 37.7378C12.374 39.507 11.9045 41.5011 11.9082 43.5281V43.5281Z" stroke="#6E9E3D" stroke-width="3" stroke-miterlimit="10"/>
<path d="M36.0012 34.5199C39.6316 34.5199 42.5746 31.2761 42.5746 27.2746C42.5746 23.2732 39.6316 20.0294 36.0012 20.0294C32.3708 20.0294 29.4277 23.2732 29.4277 27.2746C29.4277 31.2761 32.3708 34.5199 36.0012 34.5199Z" stroke="#6E9E3D" stroke-width="3" stroke-miterlimit="10"/>
<path d="M49.6919 48.7787C49.7181 45.8226 48.9954 42.9171 47.6052 40.389C46.2149 37.8609 44.2123 35.8105 41.8225 34.4684C40.2256 36.055 38.152 36.9332 36.0021 36.9332C33.8522 36.9332 31.7786 36.055 30.1817 34.4684C27.7911 35.8093 25.7877 37.8594 24.3973 40.3878C23.0069 42.9162 22.2848 45.8223 22.3123 48.7787V52.8838H49.6919V48.7787Z" stroke="#6E9E3D" stroke-width="3" stroke-miterlimit="10"/>
<path d="M67.3397 32.8212C67.2346 32.6737 67.0995 32.5556 66.9454 32.4762C66.7913 32.3969 66.6224 32.3586 66.4523 32.3643C66.2827 32.371 66.1167 32.4203 65.967 32.5083C65.8173 32.5964 65.6877 32.721 65.5883 32.8727L62.4826 37.7049C62.3996 37.8342 62.3405 37.9801 62.3088 38.1345C62.2771 38.2889 62.2733 38.4487 62.2977 38.6047C62.3221 38.7608 62.3742 38.9099 62.451 39.0437C62.5278 39.1775 62.6278 39.2932 62.7453 39.3843C62.9285 39.5312 63.1493 39.6101 63.3758 39.6096C63.5507 39.6099 63.7232 39.5639 63.8786 39.4755C64.0341 39.387 64.1679 39.2586 64.269 39.1012L65.5416 37.1259C65.288 45.1393 62.3625 52.7683 57.3249 58.5532C52.2874 64.3381 45.4914 67.8725 38.2375 68.4803C30.9835 69.0881 23.7809 66.7265 18.0079 61.8475C12.2348 56.9684 8.29662 49.9145 6.94689 42.0354H4.72266C6.07513 50.554 10.2413 58.219 16.4178 63.5523C22.5943 68.8856 30.3437 71.5095 38.1715 70.9179C45.9993 70.3264 53.3513 66.5613 58.8096 60.3488C64.2678 54.1362 67.4459 45.9162 67.7308 37.2738L69.0911 39.2042C69.2782 39.431 69.5366 39.571 69.8139 39.5959C70.0911 39.6208 70.3666 39.5287 70.5846 39.3383C70.8027 39.1478 70.9469 38.8733 70.9883 38.57C71.0296 38.2668 70.965 37.9576 70.8074 37.7049L67.3397 32.8212Z" fill="#6E9E3D" stroke="#6E9E3D" stroke-miterlimit="10"/>
<path d="M1.16125 34.2688L4.267 39.1011C4.36579 39.2534 4.49516 39.3786 4.64502 39.4667C4.79489 39.5549 4.9612 39.6038 5.131 39.6095C5.296 39.6093 5.45885 39.5681 5.60742 39.4891C5.756 39.41 5.88648 39.295 5.98917 39.1526L9.48022 34.3139C9.63781 34.0612 9.70247 33.752 9.66112 33.4488C9.61977 33.1456 9.4755 32.871 9.25748 32.6805C9.03945 32.4901 8.76395 32.398 8.48668 32.4229C8.20941 32.4478 7.95107 32.5878 7.76388 32.8146L6.46204 34.6356C6.7643 26.6423 9.72399 19.0509 14.7772 13.3079C19.8304 7.56482 26.624 4.07149 33.8635 3.49347C41.1029 2.91546 48.2823 5.29316 54.0338 10.1736C59.7852 15.054 63.7066 22.0959 65.0509 29.9577H67.281C65.924 21.4204 61.7409 13.7418 55.5419 8.40881C49.3428 3.07588 41.5689 0.468068 33.7254 1.09038C25.8819 1.71268 18.527 5.52083 13.0849 11.7774C7.64276 18.0339 4.50064 26.2938 4.267 34.9573L2.94764 32.8726C2.77169 32.6351 2.52048 32.4801 2.24481 32.4389C1.96913 32.3978 1.68957 32.4735 1.46265 32.6509C1.23573 32.8283 1.07838 33.094 1.02243 33.3944C0.966479 33.6947 1.0161 34.0073 1.16125 34.2688Z" fill="#6E9E3D" stroke="#6E9E3D" stroke-miterlimit="10"/>
</svg>
