<svg width="72" height="72" viewBox="0 0 72 72" fill="none" xmlns="http://www.w3.org/2000/svg">
<path d="M69.9062 15.7656H39.2812V6.19531C39.2726 4.82009 38.7225 3.50363 37.7501 2.53118C36.7776 1.55873 35.4612 1.0086 34.0859 1H6.19531C4.82009 1.0086 3.50363 1.55873 2.53118 2.53118C1.55873 3.50363 1.0086 4.82009 1 6.19531V65.8047C1.0086 67.1799 1.55873 68.4964 2.53118 69.4688C3.50363 70.4413 4.82009 70.9914 6.19531 71H34.0859C35.4612 70.9914 36.7776 70.4413 37.7501 69.4688C38.7225 68.4964 39.2726 67.1799 39.2812 65.8047V52.4062H69.9062C70.1963 52.4062 70.4745 52.291 70.6796 52.0859C70.8848 51.8808 71 51.6026 71 51.3125V16.8594C71 16.7157 70.9717 16.5735 70.9167 16.4408C70.8618 16.3081 70.7812 16.1875 70.6796 16.086C70.5781 15.9844 70.4575 15.9038 70.3248 15.8489C70.1921 15.7939 70.0499 15.7656 69.9062 15.7656ZM68.8125 20.1406H19.5938V17.9531H68.8125V20.1406ZM6.19531 3.1875H34.0859C34.8815 3.19464 35.6424 3.51382 36.2049 4.07635C36.7674 4.63889 37.0866 5.3998 37.0938 6.19531V9.75H3.1875V6.19531C3.19464 5.3998 3.51382 4.63889 4.07635 4.07635C4.63889 3.51382 5.3998 3.19464 6.19531 3.1875ZM34.0859 68.8125H6.19531C5.3998 68.8054 4.63889 68.4862 4.07635 67.9236C3.51382 67.3611 3.19464 66.6002 3.1875 65.8047V58.4219H37.0938V65.8047C37.0866 66.6002 36.7674 67.3611 36.2049 67.9236C35.6424 68.4862 34.8815 68.8054 34.0859 68.8125ZM37.0938 56.2344H3.1875V11.9375H37.0938V15.7656H18.5C18.2099 15.7656 17.9317 15.8809 17.7266 16.086C17.5215 16.2911 17.4062 16.5693 17.4062 16.8594V51.3125C17.4062 51.6026 17.5215 51.8808 17.7266 52.0859C17.9317 52.291 18.2099 52.4062 18.5 52.4062H37.0938V56.2344ZM19.5938 50.2188V22.3281H68.8125V50.2188H19.5938Z" fill="#6E9E3D" stroke="#6E9E3D" stroke-miterlimit="10"/>
<path d="M18.7734 7.5625H24.7891C25.0791 7.5625 25.3573 7.44727 25.5625 7.24215C25.7676 7.03703 25.8828 6.75883 25.8828 6.46875C25.8828 6.17867 25.7676 5.90047 25.5625 5.69535C25.3573 5.49023 25.0791 5.375 24.7891 5.375H18.7734C18.4834 5.375 18.2052 5.49023 18 5.69535C17.7949 5.90047 17.6797 6.17867 17.6797 6.46875C17.6797 6.75883 17.7949 7.03703 18 7.24215C18.2052 7.44727 18.4834 7.5625 18.7734 7.5625Z" fill="#6E9E3D" stroke="#6E9E3D" stroke-miterlimit="10"/>
<path d="M25.3359 60.6094H18.2266C17.3563 60.6094 16.5217 60.9551 15.9064 61.5704C15.291 62.1858 14.9453 63.0204 14.9453 63.8906C14.9453 64.7609 15.291 65.5955 15.9064 66.2108C16.5217 66.8262 17.3563 67.1719 18.2266 67.1719H25.3359C26.2062 67.1719 27.0408 66.8262 27.6561 66.2108C28.2715 65.5955 28.6172 64.7609 28.6172 63.8906C28.6172 63.0204 28.2715 62.1858 27.6561 61.5704C27.0408 60.9551 26.2062 60.6094 25.3359 60.6094ZM25.3359 64.9844H18.2266C17.9365 64.9844 17.6583 64.8691 17.4532 64.664C17.248 64.4589 17.1328 64.1807 17.1328 63.8906C17.1328 63.6005 17.248 63.3223 17.4532 63.1172C17.6583 62.9121 17.9365 62.7969 18.2266 62.7969H25.3359C25.626 62.7969 25.9042 62.9121 26.1093 63.1172C26.3145 63.3223 26.4297 63.6005 26.4297 63.8906C26.4297 64.1807 26.3145 64.4589 26.1093 64.664C25.9042 64.8691 25.626 64.9844 25.3359 64.9844Z" fill="#6E9E3D" stroke="#6E9E3D" stroke-miterlimit="10"/>
<path d="M53.7734 42.0156H33.5391C33.249 42.0156 32.9708 42.1309 32.7657 42.336C32.5605 42.5411 32.4453 42.8193 32.4453 43.1094C32.4453 43.3995 32.5605 43.6777 32.7657 43.8828C32.9708 44.0879 33.249 44.2031 33.5391 44.2031H53.7734C54.0635 44.2031 54.3417 44.0879 54.5468 43.8828C54.752 43.6777 54.8672 43.3995 54.8672 43.1094C54.8672 42.8193 54.752 42.5411 54.5468 42.336C54.3417 42.1309 54.0635 42.0156 53.7734 42.0156Z" fill="#6E9E3D" stroke="#6E9E3D" stroke-miterlimit="10"/>
<path d="M60.6094 42.0156H58.4219C58.1318 42.0156 57.8536 42.1309 57.6485 42.336C57.4434 42.5411 57.3281 42.8193 57.3281 43.1094C57.3281 43.3995 57.4434 43.6777 57.6485 43.8828C57.8536 44.0879 58.1318 44.2031 58.4219 44.2031H60.6094C60.8995 44.2031 61.1777 44.0879 61.3828 43.8828C61.5879 43.6777 61.7031 43.3995 61.7031 43.1094C61.7031 42.8193 61.5879 42.5411 61.3828 42.336C61.1777 42.1309 60.8995 42.0156 60.6094 42.0156Z" fill="#6E9E3D" stroke="#6E9E3D" stroke-miterlimit="10"/>
</svg>
