<svg width="70" height="70" viewBox="0 0 70 70" fill="none" xmlns="http://www.w3.org/2000/svg">
<path d="M69.941 46.4255C69.5828 41.7334 67.6295 37.274 64.3695 33.7057C66.1173 31.0891 67.2594 28.1557 67.7214 25.0964C68.1834 22.0372 67.955 18.9208 67.051 15.9501C66.147 12.9794 64.5877 10.221 62.4747 7.85464C60.3616 5.48823 57.7422 3.56683 54.7869 2.21555C51.8316 0.864275 48.6068 0.113423 45.3225 0.0118841C42.0381 -0.0896543 38.7678 0.4604 35.7245 1.62623C32.6812 2.79206 29.9332 4.54752 27.6594 6.77831C25.3856 9.00909 23.637 11.6652 22.5274 14.5736H21.7808C18.707 14.7741 15.7057 15.5435 12.9489 16.8374C10.1921 18.1314 7.73431 19.9246 5.71645 22.114C3.69859 24.3034 2.16043 26.8459 1.19027 29.5957C0.220106 32.3455 -0.162967 35.2483 0.0630366 38.1377C0.514163 43.9599 3.39944 49.3771 8.08761 53.2041C12.7758 57.031 18.8852 58.9562 25.0791 58.5585L25.9929 58.4747C27.9934 61.9624 30.9611 64.8756 34.5809 66.9049C38.2007 68.9341 42.3374 70.0037 46.5518 70C47.1015 70 47.6586 69.979 48.2232 69.9371C51.2919 69.7364 54.2885 68.9688 57.0414 67.6781C59.7943 66.3875 62.2495 64.5991 64.2667 62.4154C66.2838 60.2316 67.8232 57.6953 68.7969 54.9516C69.7705 52.2079 70.1593 49.3106 69.941 46.4255ZM60.0571 58.9985C58.0743 61.1513 55.541 62.7935 52.6961 63.7705C49.8512 64.7474 46.7885 65.0268 43.797 64.5823C40.8054 64.1377 37.9836 62.984 35.5977 61.2297C33.2118 59.4755 31.3405 57.1788 30.1604 54.556C29.9389 54.0911 29.5791 53.6963 29.1243 53.4193C28.6696 53.1422 28.1393 52.9949 27.5975 52.9949C27.4068 52.9968 27.2166 53.0143 27.0292 53.0473C26.2584 53.208 25.4764 53.3165 24.6891 53.3721C19.9621 53.6744 15.3005 52.2019 11.7265 49.2773C8.15242 46.3527 5.95765 42.2149 5.62341 37.771C5.45355 35.5708 5.74718 33.3608 6.48745 31.2675C7.22772 29.1743 8.40008 27.239 9.93733 25.5726C11.4746 23.9062 13.3465 22.5414 15.4458 21.5566C17.545 20.5717 19.8304 19.9861 22.1708 19.8334C22.913 19.7926 23.6572 19.7926 24.3994 19.8334C25.0488 19.8681 25.6907 19.6881 26.2138 19.3245C26.7369 18.9609 27.1081 18.4366 27.2632 17.8426C27.9118 15.4201 29.128 13.1644 30.8229 11.2406C32.5178 9.31681 34.6485 7.77351 37.0593 6.72355C39.47 5.67359 42.0999 5.14352 44.7565 5.1721C47.4132 5.20067 50.0295 5.78717 52.4141 6.88871C54.7987 7.99025 56.8913 9.57897 58.5389 11.5387C60.1866 13.4985 61.3476 15.7797 61.9371 18.2156C62.5266 20.6515 62.5296 23.1805 61.946 25.6176C61.3624 28.0547 60.2069 30.3384 58.5639 32.3017C58.1331 32.8159 57.9218 33.4628 57.9713 34.1158C58.0207 34.7688 58.3274 35.381 58.8314 35.8326C62.1608 38.8043 64.1429 42.8689 64.365 47.1802C64.5871 51.4916 63.0321 55.7173 60.0237 58.9776L60.0571 58.9985Z" fill="#6E9E3D"/>
<path d="M44.5634 39.6347L39.9624 42.5892L48.5026 54.3478L53.1036 51.3934L44.5634 39.6347Z" fill="#6E9E3D"/>
<path d="M21.1415 30.188L16.5405 33.1425L25.0808 44.9011L29.6817 41.9467L21.1415 30.188Z" fill="#6E9E3D"/>
<path d="M44.5678 14.4614L39.9668 17.4159L48.507 29.1745L53.108 26.2201L44.5678 14.4614Z" fill="#6E9E3D"/>
</svg>
