<svg width="74" height="74" viewBox="0 0 74 74" fill="none" xmlns="http://www.w3.org/2000/svg">
<path d="M50.3321 26.2307L35.5137 38.5615L29.0521 33.1769L26.769 35.0615L35.546 42.3576L52.2813 28.4205" stroke="#6E9E3D" stroke-width="4" stroke-miterlimit="10"/>
<path d="M70.6595 14.8817C56.0704 14.8817 44.8296 8.05103 37.9547 2.32281C37.6968 2.1157 37.3528 2 36.9949 2C36.637 2 36.2929 2.1157 36.0351 2.32281C29.1691 8.05103 17.9194 14.8817 3.33926 14.8817C2.98407 14.8817 2.64342 14.9994 2.39226 15.2089C2.1411 15.4185 2 15.7027 2 15.999V30.6585C2 42.1373 7.80346 52.2008 18.7854 59.7838L36.1065 71.7542C36.165 71.7895 36.2279 71.8195 36.294 71.8436L36.4369 71.9106L36.6065 71.9553C36.7058 71.978 36.8074 71.993 36.9101 72H36.9994C37.102 71.993 37.2036 71.978 37.3029 71.9553L37.4726 71.9106L37.6243 71.8436C37.6905 71.8195 37.7534 71.7895 37.8118 71.7542L55.2133 59.7838C59.4458 56.9003 63.052 53.4306 65.8738 49.5266L66.0435 49.3851L66.097 49.2138C70.0205 43.5812 72.0587 37.1729 71.9987 30.6585V15.999C71.9987 15.7027 71.8576 15.4185 71.6065 15.2089C71.3553 14.9994 71.0146 14.8817 70.6595 14.8817ZM51.7937 28.3791C54.5033 31.7871 55.5226 35.9391 54.6371 39.9613C53.7516 43.9836 51.0302 47.5624 47.0459 49.9445C43.0615 52.3267 38.1249 53.3263 33.2749 52.7332C28.4249 52.14 24.0399 50.0003 21.0427 46.7643C18.0455 43.5283 16.6699 39.4484 17.2054 35.3833C17.7409 31.3183 20.1457 27.585 23.9137 24.9693C27.6818 22.3536 32.5191 21.0595 37.4077 21.3592C42.2964 21.659 46.855 23.5293 50.1241 26.5765L56.2847 21.4367L58.1775 23.0159L51.7937 28.3791Z" stroke="#6E9E3D" stroke-width="4" stroke-miterlimit="10"/>
</svg>
