<svg width="72" height="72" viewBox="0 0 72 72" fill="none" xmlns="http://www.w3.org/2000/svg">
<path d="M67.6951 63.1739C68.7368 60.7802 70.9622 55.2156 70.2614 52.6665C70.1169 52.2093 69.8623 51.7806 69.5127 51.4055C69.163 51.0304 68.7253 50.7166 68.2254 50.4826C67.9301 50.3514 67.61 50.2621 67.2784 50.2184V30.5326H36.9751V55.4021H47.979C48.7296 57.0948 49.7862 58.6851 51.1135 60.1196L53.9544 63.2283H51.1135V71H71.0001V63.2283L67.6951 63.1739ZM38.8785 32.0869H65.3939V49.348C65.2708 49.3091 65.1572 49.2625 65.0341 49.2314C64.1788 49.0111 63.256 49.0469 62.4299 49.3324C61.6795 48.8784 60.7554 48.6605 59.8257 48.7184H59.75C59.75 48.0656 59.75 47.1641 59.75 46.1615C61.1677 45.547 62.2939 44.5607 62.9491 43.3597C63.6042 42.1588 63.7506 40.8124 63.3649 39.5352C62.9792 38.2581 62.0836 37.1237 60.8209 36.3128C59.5581 35.502 58.001 35.0615 56.3976 35.0615C54.7943 35.0615 53.2372 35.502 51.9744 36.3128C50.7117 37.1237 49.8161 38.2581 49.4304 39.5352C49.0446 40.8124 49.191 42.1588 49.8462 43.3597C50.5014 44.5607 51.6276 45.547 53.0453 46.1615V50.5215L51.8806 48.6718C51.5104 48.0705 50.8676 47.6123 50.0902 47.3958C49.3128 47.1792 48.463 47.2216 47.7233 47.5138C47.042 47.7852 46.5019 48.2482 46.2013 48.8187C45.9006 49.3891 45.8594 50.0292 46.085 50.6225L47.3351 53.8245H38.8785V32.0636V32.0869ZM53.0075 41.3275V44.2886C52.1679 43.7143 51.5655 42.9408 51.2831 42.0743C51.0006 41.2078 51.0518 40.2908 51.4298 39.4491C51.8077 38.6075 52.4938 37.8825 53.3939 37.3737C54.294 36.8648 55.3639 36.5971 56.4568 36.6073C57.5497 36.6175 58.6119 36.905 59.4977 37.4304C60.3835 37.9559 61.0494 38.6934 61.404 39.5419C61.7586 40.3903 61.7846 41.3081 61.4782 42.1691C61.1719 43.0301 60.5483 43.7922 59.6931 44.3507C59.6931 43.286 59.6931 42.2213 59.6931 41.3275C59.7429 40.9459 59.6943 40.5599 59.5504 40.1947C59.4065 39.8295 59.1706 39.4933 58.858 39.2078C58.5454 38.9223 58.1631 38.694 57.736 38.5377C57.3088 38.3814 56.8464 38.3007 56.3787 38.3007C55.911 38.3007 55.4486 38.3814 55.0214 38.5377C54.5943 38.694 54.212 38.9223 53.8994 39.2078C53.5868 39.4933 53.3509 39.8295 53.207 40.1947C53.0631 40.5599 53.0145 40.9459 53.0643 41.3275H53.0075ZM52.6287 59.1559C51.2299 57.6546 50.1567 55.9668 49.4563 54.1664L47.8843 50.1562C47.7769 49.9078 47.7901 49.635 47.9212 49.3944C48.0522 49.1538 48.2911 48.9638 48.5883 48.8639C48.8855 48.7639 49.2181 48.7617 49.5172 48.8576C49.8164 48.9535 50.059 49.1402 50.1949 49.379L52.8465 53.6457C52.959 53.8231 53.1408 53.9644 53.3628 54.047C53.5847 54.1295 53.834 54.1486 54.0708 54.1012C54.3075 54.0537 54.518 53.9425 54.6686 53.7852C54.8192 53.628 54.9012 53.4338 54.9014 53.2338V41.3275C54.8677 41.1585 54.8791 40.9855 54.935 40.8204C54.9908 40.6554 55.0897 40.5023 55.2249 40.3717C55.36 40.2412 55.5281 40.1363 55.7175 40.0644C55.9069 39.9925 56.1132 39.9552 56.3219 39.9552C56.5306 39.9552 56.7368 39.9925 56.9262 40.0644C57.1157 40.1363 57.2838 40.2412 57.4189 40.3717C57.554 40.5023 57.6529 40.6554 57.7088 40.8204C57.7647 40.9855 57.7761 41.1585 57.7424 41.3275C57.7424 50.4049 57.7424 50.4049 58.5189 50.5992C58.698 50.671 58.9025 50.6878 59.0954 50.6464C59.2882 50.6051 59.4566 50.5084 59.57 50.3738C59.57 50.3738 60.517 49.9075 61.7197 50.8557C61.8931 50.9824 62.1172 51.0524 62.3494 51.0524C62.5816 51.0524 62.8057 50.9824 62.9791 50.8557C63.1951 50.7333 63.4438 50.6553 63.7042 50.6283C63.9646 50.6012 64.229 50.6259 64.4754 50.7002C64.6522 50.7303 64.8174 50.7956 64.9561 50.8905C65.0949 50.9854 65.203 51.1069 65.2708 51.2443C65.303 51.3497 65.3617 51.4485 65.4433 51.5342C65.5248 51.6199 65.6274 51.6905 65.7443 51.7416C65.8664 51.7867 65.9987 51.81 66.1326 51.81C66.2664 51.81 66.3988 51.7867 66.5208 51.7416C66.6543 51.699 66.7977 51.6818 66.9404 51.6912C67.0831 51.7006 67.2213 51.7365 67.3447 51.7961C67.8708 52.0554 68.2568 52.4695 68.4243 52.954C69.0019 55.0446 66.8239 60.5937 65.697 63.1195H56.3882L52.6287 59.1559ZM69.1819 69.3913H53.0832V64.7282H69.1819V69.3913Z" fill="#6E9E3D" stroke="#6E9E3D" stroke-width="2" stroke-miterlimit="10"/>
<path d="M1 25.8695H31.3033V1H1V25.8695ZM2.89396 2.55435H29.4094V24.3152H2.89396V2.55435Z" fill="#6E9E3D" stroke="#6E9E3D" stroke-width="2" stroke-miterlimit="10"/>
<path d="M67.2887 1H36.9854V25.8695H67.2887V1ZM65.3947 24.3152H38.8793V2.55435H65.3947V24.3152Z" fill="#6E9E3D" stroke="#6E9E3D" stroke-width="2" stroke-miterlimit="10"/>
<path d="M1 55.4021H31.3033V30.5326H1V55.4021ZM2.89396 32.0869H29.4094V53.8478H2.89396V32.0869Z" fill="#6E9E3D" stroke="#6E9E3D" stroke-width="2" stroke-miterlimit="10"/>
</svg>
