<svg width="109" height="109" viewBox="0 0 109 109" fill="none" xmlns="http://www.w3.org/2000/svg">
<path fill-rule="evenodd" clip-rule="evenodd" d="M22.454 29.1581C22.4375 31.4965 22.9688 33.8116 24.0129 35.9508C25.057 38.0901 26.5902 40.005 28.5115 41.5694C30.4328 43.1338 32.6987 44.3123 35.1599 45.0272C37.6212 45.7421 40.2219 45.9772 42.7908 45.717C45.3597 45.4568 47.8386 44.7073 50.0641 43.5178C52.2897 42.3282 54.2114 40.7257 55.7028 38.8156C57.1941 36.9056 58.2213 34.7314 58.7167 32.4362C59.212 30.1411 59.1643 27.777 58.5766 25.4998C58.5576 25.4064 58.5321 25.3141 58.5003 25.2236C57.5439 21.6675 55.3096 18.4991 52.1481 16.2156C48.9865 13.932 45.0764 12.6625 41.0313 12.6061C36.9861 12.5497 33.0346 13.7096 29.7968 15.9039C26.5589 18.0983 24.2178 21.2028 23.1407 24.7306C23.0606 24.8892 23.0126 25.0596 22.999 25.2335C22.6403 26.5166 22.4572 27.8346 22.454 29.1581ZM40.7442 42.401C36.8712 42.3879 33.1618 40.9869 30.4283 38.5048C27.6948 36.0227 26.16 32.6618 26.16 29.1581C26.1575 28.2297 26.2671 27.3039 26.487 26.3971C32.9071 22.4528 36.297 23.4389 41.747 25.0363C46.0751 26.4778 50.6314 27.2802 55.2412 27.4127C55.3325 27.9909 55.3799 28.574 55.3829 29.1581C55.38 32.6695 53.8368 36.0364 51.0921 38.5193C48.3475 41.0023 44.6257 42.3984 40.7442 42.401ZM40.7442 15.9349C43.6336 15.9365 46.458 16.7105 48.8628 18.1596C51.2675 19.6087 53.1452 21.6684 54.2602 24.0798C50.3405 23.8591 46.4774 23.1216 42.7934 21.8907C38.3353 20.5595 34.3459 19.3861 28.9177 21.3977C30.2698 19.7041 32.0469 18.325 34.1028 17.3736C36.1587 16.4222 38.4349 15.9258 40.7442 15.925V15.9349Z" fill="#6E9E3D"/>
<path fill-rule="evenodd" clip-rule="evenodd" d="M7.17204 83.6383C17.7452 86.852 28.8385 88.4418 39.9919 88.3419H42.1719C49.1214 88.3561 56.0564 87.7684 62.8819 86.5867C65.1513 89.8788 68.4437 92.4921 72.3469 94.0997C76.2501 95.7073 80.5908 96.2377 84.8255 95.6244C89.0603 95.0112 93.0011 93.2816 96.1545 90.6521C99.308 88.0226 101.534 84.6101 102.554 80.8417C103.574 77.0733 103.343 73.1164 101.889 69.4663C100.436 65.8162 97.8241 62.6351 94.3816 60.3211C90.9392 58.0072 86.8188 56.6632 82.5361 56.4574C78.2535 56.2516 73.9989 57.1931 70.3048 59.1641C66.9345 54.6938 62.3317 51.0975 56.9523 48.7315C56.6995 48.614 56.4191 48.5532 56.1348 48.554H26.0726C25.7849 48.5531 25.501 48.6139 25.2442 48.7315C20.674 50.7423 16.657 53.6498 13.4854 57.2421C10.3139 60.8345 8.06775 65.0214 6.91044 69.4981C5.75094 73.6857 5.43342 78.0278 5.97304 82.317C6.02007 82.6154 6.15674 82.8965 6.36816 83.1295C6.57959 83.3624 6.85765 83.5385 7.17204 83.6383ZM99.6149 76.1837C99.6007 79.9645 98.1471 83.6254 95.4987 86.5502C92.8504 89.4751 89.1691 91.4852 85.0744 92.2422C80.9797 92.9993 76.7217 92.457 73.0172 90.7068C69.3127 88.9565 66.3878 86.1051 64.7349 82.6326V82.5142C64.5278 82.0508 64.3316 81.5282 64.1572 81.0943C64.1572 81.0943 64.1572 81.0351 64.1572 81.0055C64.0046 80.5717 63.8847 80.1279 63.7757 79.6842C63.7477 79.5835 63.7259 79.4814 63.7103 79.3785C63.603 78.9226 63.523 78.4618 63.4705 77.998V77.6825C63.4705 77.1895 63.3833 76.6964 63.3833 76.1837C63.3849 75.6863 63.414 75.1894 63.4705 74.6947V74.3792C63.4705 73.9354 63.6013 73.5016 63.6885 73.0677C63.6885 72.9198 63.7648 72.7719 63.7975 72.624C63.8847 72.2411 63.9939 71.8626 64.1245 71.49C64.1245 71.3322 64.2335 71.1646 64.2989 70.9969C64.3643 70.8293 64.5387 70.3856 64.6695 70.0799L64.8657 69.6362C65.051 69.2615 65.2472 68.8868 65.4652 68.5219C65.5306 68.3937 65.6069 68.2754 65.6832 68.1571C65.923 67.7626 66.1846 67.3781 66.4571 67.0034C66.7623 66.5892 67.0893 66.1948 67.4272 65.8102L67.5144 65.7313C69.9005 63.1452 73.1078 61.2851 76.7016 60.4032C80.2954 59.5213 84.102 59.6602 87.6056 60.801C91.1093 61.9418 94.1405 64.0295 96.2887 66.781C98.4369 69.5326 99.5981 72.8151 99.6149 76.1837ZM45.322 51.8672L43.7633 57.6752H37.6048L35.9698 51.8672H45.322ZM10.4638 70.287C11.4599 66.3321 13.4165 62.6273 16.1917 59.4414C18.9668 56.2554 22.491 53.6681 26.5086 51.8672H32.2093L34.3893 59.7558C34.4889 60.1137 34.7178 60.4314 35.0397 60.6582C35.3616 60.8851 35.758 61.0082 36.166 61.0081H45.1912C45.6007 61.0077 45.9983 60.8832 46.3204 60.6544C46.6424 60.4256 46.8704 60.1057 46.9679 59.7459L49.0825 51.8574H55.677C60.3704 53.9993 64.3784 57.1939 67.3182 61.1363V61.1856C63.8628 63.8152 61.4007 67.3548 60.2753 71.3107C59.1498 75.2667 59.4171 79.4418 61.0398 83.2538C61.0398 83.3425 61.0398 83.4313 61.127 83.52C54.8682 84.5386 48.5204 85.0435 42.161 85.0287H39.981C29.6344 85.115 19.3389 83.7069 9.48284 80.8576C9.20573 77.3094 9.53664 73.7437 10.4638 70.287Z" fill="#6E9E3D"/>
<path fill-rule="evenodd" clip-rule="evenodd" d="M77.3899 84.0328C77.7239 84.3222 78.17 84.4815 78.6325 84.4765C78.8735 84.4792 79.1127 84.4379 79.3356 84.3548C79.5585 84.2718 79.7606 84.1488 79.9296 83.9933L93.293 71.8943C93.4702 71.7417 93.6119 71.5586 93.7097 71.3557C93.8074 71.1528 93.8592 70.9342 93.862 70.7129C93.8648 70.4916 93.8185 70.272 93.726 70.0672C93.6334 69.8623 93.4964 69.6763 93.323 69.5201C93.1497 69.3639 92.9435 69.2408 92.7166 69.1579C92.4898 69.075 92.2469 69.0341 92.0022 69.0376C91.7576 69.041 91.5162 69.0888 91.2923 69.1781C91.0685 69.2673 90.8666 69.3963 90.6988 69.5573L78.5671 80.5224L73.9782 76.657C73.6226 76.3575 73.1501 76.1981 72.6646 76.2139C72.1791 76.2296 71.7204 76.4191 71.3894 76.7408C71.0584 77.0625 70.8822 77.4899 70.8996 77.9291C70.917 78.3683 71.1265 78.7833 71.4821 79.0827L77.3899 84.0328Z" fill="#6E9E3D"/>
<path fill-rule="evenodd" clip-rule="evenodd" d="M41.1041 70.6123C41.5783 70.6123 42.042 70.4851 42.4363 70.2467C42.8307 70.0083 43.138 69.6695 43.3195 69.2731C43.501 68.8767 43.5485 68.4406 43.456 68.0198C43.3635 67.5989 43.1351 67.2124 42.7997 66.909C42.4643 66.6056 42.0371 66.399 41.5719 66.3153C41.1067 66.2316 40.6246 66.2746 40.1864 66.4388C39.7482 66.6029 39.3737 66.881 39.1102 67.2377C38.8467 67.5945 38.7061 68.0139 38.7061 68.443C38.7089 69.0175 38.9625 69.5678 39.4116 69.9741C39.8607 70.3803 40.469 70.6097 41.1041 70.6123Z" fill="#6E9E3D"/>
<path fill-rule="evenodd" clip-rule="evenodd" d="M41.1041 79.9406C41.5783 79.9406 42.042 79.8133 42.4363 79.575C42.8307 79.3366 43.138 78.9978 43.3195 78.6014C43.501 78.205 43.5485 77.7688 43.456 77.348C43.3635 76.9272 43.1351 76.5406 42.7997 76.2373C42.4643 75.9339 42.0371 75.7273 41.5719 75.6436C41.1067 75.5598 40.6246 75.6028 40.1864 75.767C39.7482 75.9312 39.3737 76.2092 39.1102 76.566C38.8467 76.9227 38.7061 77.3422 38.7061 77.7712C38.7061 78.3466 38.9587 78.8983 39.4084 79.3052C39.8581 79.712 40.4681 79.9406 41.1041 79.9406Z" fill="#6E9E3D"/>
</svg>
