<svg width="72" height="72" viewBox="0 0 72 72" fill="none" xmlns="http://www.w3.org/2000/svg">
<path fill-rule="evenodd" clip-rule="evenodd" d="M1 22.2121C1 16.5863 4.68749 11.1909 11.2513 7.21289C17.815 3.23484 26.7174 1 36 1C45.2826 1 54.185 3.23484 60.7487 7.21289C67.3125 11.1909 71 16.5863 71 22.2121V61.4545C71 61.7358 70.8156 62.0056 70.4874 62.2045C70.1592 62.4034 69.7141 62.5151 69.25 62.5151H2.75C2.28587 62.5151 1.84075 62.4034 1.51256 62.2045C1.18437 62.0056 1 61.7358 1 61.4545V22.2121ZM67.5 30.697V22.2121C67.5124 17.3274 64.435 12.6256 58.901 9.07437C53.3669 5.52312 45.7973 3.39258 37.75 3.12121V30.697H67.5ZM4.5 30.697H34.25V3.12121C26.2027 3.39258 18.6331 5.52312 13.099 9.07437C7.56501 12.6256 4.48755 17.3274 4.5 22.2121V30.697ZM67.5 32.8182H37.75V60.3939H67.5V32.8182ZM4.5 32.8182V60.3939H34.25V32.8182H4.5ZM21.86 21.6818L24.9925 23.5803C25.1565 23.6789 25.2867 23.7962 25.3756 23.9254C25.4644 24.0547 25.5101 24.1933 25.5101 24.3333C25.5101 24.4733 25.4644 24.612 25.3756 24.7412C25.2867 24.8705 25.1565 24.9878 24.9925 25.0864C24.6646 25.2839 24.2211 25.3948 23.7588 25.3948C23.2964 25.3948 22.8529 25.2839 22.525 25.0864L19.375 23.1773L16.2425 25.0864C15.913 25.2847 15.467 25.3955 15.0026 25.3945C14.5382 25.3935 14.0935 25.2808 13.7663 25.0811C13.439 24.8813 13.2561 24.611 13.2578 24.3296C13.2594 24.0481 13.4455 23.7786 13.775 23.5803L16.9075 21.6818L13.775 19.7833C13.611 19.6847 13.4808 19.5674 13.3919 19.4382C13.3031 19.3089 13.2574 19.1703 13.2574 19.0303C13.2574 18.8903 13.3031 18.7517 13.3919 18.6224C13.4808 18.4932 13.611 18.3759 13.775 18.2773C14.1029 18.0797 14.5464 17.9689 15.0087 17.9689C15.4711 17.9689 15.9146 18.0797 16.2425 18.2773L19.375 20.1758L22.525 18.2773C22.8545 18.079 23.3006 17.9681 23.7649 17.9691C24.2293 17.9701 24.674 18.0829 25.0013 18.2826C25.3285 18.4823 25.5114 18.7526 25.5097 19.0341C25.5081 19.3155 25.322 19.585 24.9925 19.7833L21.86 21.6818ZM55.11 43.9545L58.2425 45.853C58.4065 45.9516 58.5367 46.0689 58.6256 46.1982C58.7144 46.3274 58.7601 46.466 58.7601 46.6061C58.7601 46.7461 58.7144 46.8847 58.6256 47.0139C58.5367 47.1432 58.4065 47.2605 58.2425 47.3591C57.9146 47.5566 57.4711 47.6675 57.0088 47.6675C56.5464 47.6675 56.1029 47.5566 55.775 47.3591L52.625 45.45L49.4925 47.3591C49.163 47.5574 48.7169 47.6682 48.2526 47.6673C47.7882 47.6663 47.3435 47.5535 47.0162 47.3538C46.689 47.1541 46.5061 46.8838 46.5078 46.6023C46.5094 46.3209 46.6955 46.0513 47.025 45.853L50.1575 43.9545L47.025 42.0561C46.861 41.9575 46.7308 41.8402 46.6419 41.7109C46.5531 41.5817 46.5074 41.443 46.5074 41.303C46.5074 41.163 46.5531 41.0244 46.6419 40.8951C46.7308 40.7659 46.861 40.6486 47.025 40.55C47.3529 40.3525 47.7964 40.2416 48.2588 40.2416C48.7211 40.2416 49.1646 40.3525 49.4925 40.55L52.625 42.4485L55.775 40.55C56.1045 40.3517 56.5505 40.2408 57.0149 40.2418C57.4793 40.2428 57.924 40.3556 58.2513 40.5553C58.5785 40.755 58.7614 41.0253 58.7597 41.3068C58.7581 41.5882 58.572 41.8577 58.2425 42.0561L55.11 43.9545ZM2.75 71C2.28587 71 1.84075 70.8883 1.51256 70.6894C1.18437 70.4904 1 70.2207 1 69.9394C1 69.6581 1.18437 69.3883 1.51256 69.1894C1.84075 68.9905 2.28587 68.8788 2.75 68.8788H69.25C69.7141 68.8788 70.1592 68.9905 70.4874 69.1894C70.8156 69.3883 71 69.6581 71 69.9394C71 70.2207 70.8156 70.4904 70.4874 70.6894C70.1592 70.8883 69.7141 71 69.25 71H2.75ZM16.75 52.9697C16.4039 52.9697 16.0655 52.9075 15.7778 52.7909C15.49 52.6744 15.2657 52.5088 15.1332 52.315C15.0008 52.1212 14.9661 51.9079 15.0336 51.7022C15.1011 51.4964 15.2678 51.3075 15.5126 51.1591C15.7573 51.0108 16.0691 50.9098 16.4086 50.8689C16.7481 50.8279 17.0999 50.8489 17.4197 50.9292C17.7395 51.0095 18.0128 51.1454 18.2051 51.3198C18.3974 51.4943 18.5 51.6993 18.5 51.9091C18.5 52.1904 18.3156 52.4601 17.9874 52.659C17.6592 52.858 17.2141 52.9697 16.75 52.9697ZM25.5 45.5455C25.1539 45.5455 24.8155 45.4832 24.5278 45.3667C24.24 45.2502 24.0157 45.0845 23.8832 44.8907C23.7508 44.6969 23.7161 44.4837 23.7836 44.2779C23.8512 44.0722 24.0178 43.8832 24.2626 43.7349C24.5073 43.5866 24.8191 43.4855 25.1586 43.4446C25.4981 43.4037 25.8499 43.4247 26.1697 43.505C26.4895 43.5852 26.7628 43.7212 26.9551 43.8956C27.1474 44.07 27.25 44.2751 27.25 44.4848C27.25 44.7661 27.0656 45.0359 26.7374 45.2348C26.4092 45.4337 25.9641 45.5455 25.5 45.5455ZM11.5 39.1818C11.1539 39.1818 10.8155 39.1196 10.5278 39.0031C10.24 38.8865 10.0157 38.7209 9.88321 38.5271C9.75076 38.3333 9.7161 38.12 9.78363 37.9143C9.85115 37.7086 10.0178 37.5196 10.2626 37.3712C10.5073 37.2229 10.8191 37.1219 11.1586 37.081C11.4981 37.0401 11.8499 37.0611 12.1697 37.1413C12.4895 37.2216 12.7628 37.3576 12.9551 37.532C13.1474 37.7064 13.25 37.9114 13.25 38.1212C13.25 38.4025 13.0656 38.6723 12.7374 38.8712C12.4092 39.0701 11.9641 39.1818 11.5 39.1818ZM50 55.0909C49.6539 55.0909 49.3155 55.0287 49.0277 54.9122C48.74 54.7956 48.5157 54.63 48.3832 54.4362C48.2508 54.2424 48.2161 54.0291 48.2836 53.8234C48.3512 53.6176 48.5178 53.4287 48.7626 53.2803C49.0073 53.132 49.3191 53.031 49.6586 52.9901C49.9981 52.9492 50.3499 52.9701 50.6697 53.0504C50.9895 53.1307 51.2628 53.2666 51.4551 53.4411C51.6474 53.6155 51.75 53.8205 51.75 54.0303C51.75 54.3116 51.5656 54.5814 51.2374 54.7803C50.9092 54.9792 50.4641 55.0909 50 55.0909ZM55.25 24.3333C54.9039 24.3333 54.5655 24.2711 54.2777 24.1546C53.99 24.038 53.7657 23.8724 53.6332 23.6786C53.5008 23.4848 53.4661 23.2715 53.5336 23.0658C53.6012 22.8601 53.7678 22.6711 54.0126 22.5228C54.2573 22.3744 54.5691 22.2734 54.9086 22.2325C55.2481 22.1916 55.5999 22.2126 55.9197 22.2929C56.2395 22.3731 56.5128 22.5091 56.7051 22.6835C56.8974 22.8579 57 23.063 57 23.2727C57 23.554 56.8156 23.8238 56.4874 24.0227C56.1592 24.2216 55.7141 24.3333 55.25 24.3333ZM48.25 14.7879C47.9039 14.7879 47.5655 14.7257 47.2777 14.6091C46.99 14.4926 46.7657 14.3269 46.6332 14.1331C46.5008 13.9393 46.4661 13.7261 46.5336 13.5204C46.6012 13.3146 46.7678 13.1256 47.0126 12.9773C47.2573 12.829 47.5691 12.728 47.9086 12.687C48.2481 12.6461 48.5999 12.6671 48.9197 12.7474C49.2395 12.8277 49.5128 12.9636 49.7051 13.138C49.8974 13.3124 50 13.5175 50 13.7273C50 13.8666 49.9547 14.0045 49.8668 14.1331C49.7788 14.2618 49.6499 14.3787 49.4874 14.4772C49.3249 14.5757 49.132 14.6538 48.9197 14.7071C48.7074 14.7604 48.4798 14.7879 48.25 14.7879Z" fill="#6E9E3D" stroke="#6E9E3D" stroke-miterlimit="10"/>
</svg>
