<svg width="31" height="32" viewBox="0 0 31 32" fill="none" xmlns="http://www.w3.org/2000/svg">
<path opacity="0.1" fill-rule="evenodd" clip-rule="evenodd" d="M15.6993 32C24.0016 32 30.7319 24.8366 30.7319 16C30.7319 7.16344 24.0016 0 15.6993 0C7.39697 0 0.666626 7.16344 0.666626 16C0.666626 24.8366 7.39697 32 15.6993 32Z" fill="white"/>
<path d="M20.3409 7H11.0812C8.96449 7 7.24854 8.82494 7.24854 11.0761V20.9239C7.24854 23.1751 8.96449 25 11.0812 25H20.3409C22.4576 25 24.1735 23.1751 24.1735 20.9239V11.0761C24.1735 8.82494 22.4576 7 20.3409 7Z" stroke="#F0F3F6" stroke-miterlimit="10"/>
<path d="M20.3328 8.79004H11.0812C9.89391 8.79004 8.9314 9.8137 8.9314 11.0765V20.9157C8.9314 22.1785 9.89391 23.2021 11.0812 23.2021H20.3328C21.5201 23.2021 22.4827 22.1785 22.4827 20.9157V11.0765C22.4827 9.8137 21.5201 8.79004 20.3328 8.79004Z" stroke="#F0F3F6" stroke-miterlimit="10"/>
<path d="M15.7514 20.7012C14.8844 20.7029 14.0364 20.4309 13.3149 19.9196C12.5933 19.4084 12.0307 18.681 11.6981 17.8294C11.3656 16.9778 11.2782 16.0405 11.4469 15.136C11.6157 14.2316 12.033 13.4007 12.6461 12.7487C13.2592 12.0967 14.0404 11.6528 14.8908 11.4734C15.7412 11.2939 16.6226 11.3869 17.4233 11.7405C18.2241 12.0942 18.9081 12.6926 19.3888 13.46C19.8695 14.2274 20.1252 15.1292 20.1236 16.0513C20.1215 17.2838 19.6602 18.4652 18.8407 19.3367C18.0212 20.2083 16.9103 20.6989 15.7514 20.7012Z" stroke="#F0F3F6" stroke-miterlimit="10"/>
<path d="M15.7512 13.1914C15.2193 13.1914 14.6994 13.3591 14.2571 13.6734C13.8148 13.9877 13.4702 14.4344 13.2666 14.957C13.0631 15.4796 13.0098 16.0547 13.1136 16.6095C13.2173 17.1643 13.4735 17.6739 13.8496 18.0739C14.2257 18.4739 14.7049 18.7463 15.2265 18.8567C15.7482 18.967 16.289 18.9104 16.7804 18.6939C17.2718 18.4774 17.6918 18.1108 17.9873 17.6405C18.2828 17.1702 18.4405 16.6172 18.4405 16.0515C18.4384 15.2937 18.1544 14.5675 17.6505 14.0316C17.1466 13.4957 16.4638 13.1937 15.7512 13.1914V13.1914Z" stroke="#F0F3F6" stroke-miterlimit="10"/>
<path d="M20.2522 10.2539C20.0322 10.2591 19.8185 10.3337 19.6384 10.4681C19.4583 10.6026 19.3198 10.791 19.2404 11.0093C19.161 11.2276 19.1444 11.4661 19.1927 11.6944C19.2409 11.9228 19.3518 12.1308 19.5113 12.292C19.6709 12.4533 19.8718 12.5605 20.0887 12.6001C20.3056 12.6398 20.5287 12.61 20.7297 12.5146C20.9306 12.4192 21.1005 12.2625 21.2176 12.0643C21.3347 11.8661 21.3938 11.6354 21.3875 11.4014C21.3844 11.2466 21.3525 11.094 21.2936 10.9524C21.2347 10.8107 21.1501 10.6829 21.0446 10.5762C20.939 10.4695 20.8147 10.3861 20.6787 10.3308C20.5427 10.2755 20.3977 10.2494 20.2522 10.2539Z" fill="#F0F3F6"/>
</svg>
