<svg width="32" height="32" viewBox="0 0 32 32" fill="none" xmlns="http://www.w3.org/2000/svg">
<path opacity="0.1" fill-rule="evenodd" clip-rule="evenodd" d="M15.9874 32C24.8171 32 31.9749 24.8366 31.9749 16C31.9749 7.16344 24.8171 0 15.9874 0C7.15783 0 0 7.16344 0 16C0 24.8366 7.15783 32 15.9874 32Z" fill="white"/>
<path d="M20.9239 7H11.0761C8.82494 7 7 8.82494 7 11.0761V20.9239C7 23.1751 8.82494 25 11.0761 25H20.9239C23.1751 25 25 23.1751 25 20.9239V11.0761C25 8.82494 23.1751 7 20.9239 7Z" stroke="#F0F3F6" stroke-miterlimit="10"/>
<path d="M20.9154 8.79004H11.0762C9.81345 8.79004 8.78979 9.81369 8.78979 11.0764V20.9156C8.78979 22.1784 9.81345 23.202 11.0762 23.202H20.9154C22.1781 23.202 23.2018 22.1784 23.2018 20.9156V11.0764C23.2018 9.81369 22.1781 8.79004 20.9154 8.79004Z" stroke="#F0F3F6" stroke-miterlimit="10"/>
<path d="M16.043 20.7011C15.1209 20.7028 14.219 20.4308 13.4517 19.9196C12.6843 19.4084 12.0859 18.6809 11.7322 17.8294C11.3786 16.9778 11.2856 16.0404 11.4651 15.136C11.6445 14.2315 12.0884 13.4007 12.7404 12.7487C13.3924 12.0967 14.2232 11.6528 15.1277 11.4734C16.0321 11.2939 16.9695 11.3869 17.8211 11.7405C18.6726 12.0942 19.4001 12.6926 19.9113 13.46C20.4225 14.2273 20.6945 15.1292 20.6928 16.0513C20.6905 17.2838 20.1999 18.4652 19.3284 19.3367C18.4569 20.2082 17.2755 20.6988 16.043 20.7011Z" stroke="#F0F3F6" stroke-miterlimit="10"/>
<path d="M16.0428 13.1914C15.4771 13.1914 14.9241 13.3591 14.4537 13.6734C13.9834 13.9877 13.6168 14.4344 13.4003 14.957C13.1839 15.4796 13.1272 16.0547 13.2376 16.6095C13.3479 17.1643 13.6203 17.674 14.0203 18.074C14.4203 18.474 14.93 18.7464 15.4848 18.8567C16.0396 18.9671 16.6147 18.9104 17.1373 18.694C17.6599 18.4775 18.1066 18.1109 18.4209 17.6405C18.7351 17.1702 18.9029 16.6172 18.9029 16.0515C18.9006 15.2937 18.5986 14.5675 18.0627 14.0316C17.5268 13.4957 16.8006 13.1937 16.0428 13.1914V13.1914Z" stroke="#F0F3F6" stroke-miterlimit="10"/>
<path d="M20.8296 10.2539C20.5956 10.2591 20.3684 10.3337 20.1769 10.4681C19.9853 10.6026 19.838 10.7909 19.7536 11.0093C19.6692 11.2276 19.6515 11.466 19.7028 11.6944C19.7541 11.9227 19.8721 12.1307 20.0417 12.292C20.2114 12.4532 20.4251 12.5604 20.6558 12.6C20.8865 12.6397 21.1237 12.6099 21.3374 12.5145C21.5512 12.4191 21.7318 12.2624 21.8563 12.0642C21.9809 11.8661 22.0438 11.6354 22.037 11.4014C22.0337 11.2466 21.9998 11.094 21.9372 10.9523C21.8746 10.8107 21.7846 10.6829 21.6723 10.5762C21.5601 10.4695 21.4278 10.3861 21.2832 10.3308C21.1386 10.2755 20.9844 10.2494 20.8296 10.2539Z" fill="#F0F3F6"/>
</svg>
