<svg width="75" height="80" viewBox="0 0 75 80" fill="none" xmlns="http://www.w3.org/2000/svg">
<path d="M44.9953 24.7323L42.1857 23.1571L42.3591 23.0213L50.6838 11.6147C51.7244 10.2568 51.2041 7.40515 50.5104 6.04723C50.2314 6.37853 49.8406 6.64278 49.3814 6.81059C48.9221 6.9784 48.4124 7.04319 47.9089 6.99777C46.0012 6.86198 44.7872 5.36827 43.5732 3.0598C43.508 2.95314 43.4109 2.86039 43.2901 2.78945C43.1693 2.71852 43.0284 2.67151 42.8794 2.65242C42.5807 2.64337 42.2836 2.6899 42.0123 2.78821L40.4514 4.14613L39.9311 4.55351L36.4625 6.5904C35.6555 7.06507 34.666 7.31027 33.6571 7.28559C32.6483 7.2609 31.6803 6.9678 30.9127 6.4546C30.7961 6.37438 30.6546 6.3196 30.5024 6.29576C30.3501 6.27193 30.1926 6.27988 30.0456 6.31881C29.9103 6.32525 29.7826 6.37024 29.6868 6.44528C29.5909 6.52033 29.5335 6.62025 29.5253 6.72619C29.4072 7.15943 29.1314 7.55664 28.7314 7.86988C28.3313 8.18313 27.824 8.39902 27.2707 8.49149C26.5999 8.48143 25.9405 8.35432 25.3404 8.1194C24.7403 7.88448 24.2148 7.54769 23.802 7.13357C23.3442 8.63159 23.5269 10.2059 24.3223 11.6147L32.647 23.0213C32.647 23.1571 32.8204 23.1571 32.8204 23.2929L30.0456 24.9224C29.8721 24.7866 29.6987 24.515 29.5253 24.3792L21.2006 12.8368C19.4663 10.5284 19.8131 4.8251 22.0677 3.60297C22.6229 3.36175 23.2755 3.29772 23.8895 3.42422C24.5035 3.55073 25.0313 3.85801 25.3629 4.28193C25.7098 4.6893 26.0566 4.96089 26.2301 5.23247C26.7928 4.44456 27.7263 3.85986 28.8315 3.60297C29.5581 3.46923 30.3149 3.4734 31.0389 3.61513C31.7629 3.75685 32.4332 4.03203 32.9939 4.41772C33.0717 4.48267 33.1658 4.53444 33.2702 4.56983C33.3746 4.60521 33.4871 4.62347 33.6009 4.62347C33.7147 4.62347 33.8272 4.60521 33.9316 4.56983C34.036 4.53444 34.13 4.48267 34.2079 4.41772L37.8499 2.38083L39.5842 1.02291C40.0579 0.616357 40.6597 0.314507 41.3294 0.147663C41.9992 -0.019182 42.7131 -0.04515 43.3997 0.0723653C44.0963 0.164449 44.7575 0.378309 45.334 0.698042C45.9105 1.01778 46.3875 1.43515 46.7296 1.91914C47.1032 2.63297 47.5681 3.3154 48.117 3.95602C48.2112 3.88278 48.2721 3.78738 48.2905 3.68444C48.4515 3.43625 48.6761 3.21674 48.9504 3.03963C49.2247 2.86253 49.5427 2.73165 49.8846 2.65518C50.2264 2.57871 50.5847 2.55828 50.9371 2.59519C51.2895 2.6321 51.6284 2.72555 51.9325 2.86969C54.7074 4.09182 55.748 10.2025 53.8402 12.9183L45.5156 24.3249C45.319 24.3249 45.1456 24.4607 44.9953 24.7323Z" fill="black"/>
<path d="M46.7301 30.2995H29.5605C28.9 30.2995 28.246 30.1977 27.6358 29.9998C27.0256 29.8019 26.4711 29.5118 26.0041 29.1461C25.5371 28.7805 25.1666 28.3463 24.9139 27.8686C24.6611 27.3908 24.531 26.8787 24.531 26.3616C24.531 25.8444 24.6611 25.3323 24.9139 24.8546C25.1666 24.3768 25.5371 23.9427 26.0041 23.577C26.4711 23.2113 27.0256 22.9212 27.6358 22.7233C28.246 22.5254 28.9 22.4236 29.5605 22.4236H46.7301C48.064 22.4236 49.3433 22.8385 50.2865 23.577C51.2297 24.3155 51.7596 25.3171 51.7596 26.3616C51.7596 27.406 51.2297 28.4076 50.2865 29.1461C49.3433 29.8846 48.064 30.2995 46.7301 30.2995ZM29.5605 25.2752C29.1465 25.2752 28.7495 25.404 28.4568 25.6332C28.1641 25.8624 27.9996 26.1732 27.9996 26.4974C27.9996 26.8215 28.1641 27.1323 28.4568 27.3615C28.7495 27.5907 29.1465 27.7195 29.5605 27.7195H46.7301C47.1441 27.7195 47.5411 27.5907 47.8338 27.3615C48.1266 27.1323 48.291 26.8215 48.291 26.4974C48.291 26.1732 48.1266 25.8624 47.8338 25.6332C47.5411 25.404 47.1441 25.2752 46.7301 25.2752H29.5605Z" fill="black"/>
<path d="M56.5814 79.9998H18.4266C15.1972 79.991 12.0266 79.3224 9.22831 78.0602C6.42999 76.7979 4.10082 74.9858 2.47102 72.8028C0.852407 70.616 0 68.1333 0 65.6058C0 63.0783 0.852407 60.5956 2.47102 58.4088L21.5484 32.6083C23.0566 30.5934 25.1328 28.8749 27.6185 27.584L29.5262 29.8925C27.4488 30.8642 25.7652 32.2766 24.6702 33.9662L5.59277 59.7668C4.23057 61.5277 3.51038 63.5471 3.51038 65.6058C3.51038 67.6646 4.23057 69.684 5.59277 71.4449C6.87987 73.2209 8.74632 74.6974 11.0012 75.7233C13.2562 76.7492 15.8187 77.2878 18.4266 77.284H56.5814C59.1937 77.305 61.7648 76.7736 64.0236 75.7459C66.2824 74.7182 68.1451 73.2323 69.4153 71.4449C70.6945 69.6618 71.3664 67.651 71.3664 65.6058C71.3664 63.5607 70.6945 61.5499 69.4153 59.7668L50.3379 33.9662C49.2015 32.3794 47.5958 31.0289 45.6553 30.0282L47.563 27.7198C49.9905 28.9651 52.0104 30.6396 53.4597 32.6083L72.537 58.4088C74.152 60.599 75.0015 63.0837 75 65.6127C74.9985 68.1417 74.146 70.6257 72.5283 72.8147C70.9107 75.0037 68.585 76.8203 65.7855 78.0817C62.986 79.343 59.8114 80.0046 56.5814 79.9998Z" fill="black"/>
<path d="M46 55C46 55.6 45.7106 56 45.2766 56H29.7234C29.2894 56 29 55.6 29 55C29 54.4 29.2894 54 29.7234 54H45.2645C45.6021 54 46 54.4 46 55Z" fill="black"/>
<path d="M46 49.9756C46 50.561 45.7106 50.9512 45.2766 50.9512L29.7358 51C29.3018 51 29.0124 50.6098 29.0003 50.0244C28.9883 49.439 29.2897 49.0488 29.7237 49.0488L45.2766 49C45.6021 49 46 49.3902 46 49.9756Z" fill="black"/>
<path d="M41.7875 43.5V61H39.992L35.2805 50.375V61H33.1205V43.5H34.9295L39.6275 54.125V43.5H41.7875Z" fill="black"/>
</svg>
