<svg width="80" height="80" viewBox="0 0 80 80" fill="none" xmlns="http://www.w3.org/2000/svg">
<path d="M16.8151 35.1298C7.86663 41.5475 0 47.9473 0 57.7782C0 71.1113 13.1823 80 32.8422 80C52.5021 80 65.6977 71.1113 65.6977 57.7782C65.8104 51.5933 62.8318 45.5587 57.2301 40.6231L68.823 41.823C69.1723 41.8581 69.5249 41.876 69.8781 41.8764C71.5104 41.8745 73.0881 41.4849 74.327 40.7776C75.566 40.0704 76.3849 39.092 76.6362 38.0187L79.9218 24.0012C80.1948 22.8066 79.747 21.5887 78.6762 20.6129C77.6054 19.6372 75.9983 18.9828 74.2055 18.7924L61.2769 17.4591C60.2189 17.3541 59.1385 17.4181 58.1249 17.6458C57.7537 17.0186 57.3346 16.4045 56.8695 15.8058L51.3134 9.36148C50.7302 8.68205 49.924 8.09899 48.9551 7.65574C47.9861 7.2125 46.8794 6.92051 45.7173 6.80154L44.168 6.64154L47.0662 4.25937C47.5341 3.88251 47.8294 3.42413 47.917 2.93877C48.0046 2.45341 47.8808 1.96153 47.5604 1.52165C47.2053 1.04974 46.654 0.655622 45.9722 0.386171C45.2903 0.116719 44.5064 -0.0167351 43.7139 0.0016779H37.8373C34.5436 0.0277218 31.2747 0.38432 28.1409 1.05943C25.0156 1.64609 22.5581 2.11719 18.912 1.57498C18.2142 1.46365 17.4831 1.48826 16.8058 1.64587C16.1285 1.80347 15.5337 2.08743 15.0922 2.46385C14.6731 2.82489 14.4136 3.25655 14.3428 3.71034C14.272 4.16412 14.3928 4.62205 14.6915 5.03268C14.7172 5.07587 14.7485 5.11751 14.785 5.15713L17.2024 7.82374C15.462 7.72998 13.7306 8.06602 12.3387 8.76773C10.9469 9.46944 9.99198 10.4877 9.65632 11.6281C9.50745 12.2406 9.55295 12.8671 9.78987 13.4672C10.0268 14.0673 10.4499 14.6278 11.032 15.1125C10.2513 15.4457 9.5849 15.8847 9.07631 16.4008C8.56772 16.9169 8.22834 17.4986 8.08033 18.108C7.94415 18.7269 8.00581 19.358 8.26128 19.9599C8.51675 20.5619 8.96027 21.1212 9.56283 21.6012C9.91441 21.8767 10.3083 22.127 10.7382 22.3479C9.7769 22.9547 9.1392 23.7536 8.92175 24.6234C8.79499 25.2316 8.86785 25.851 9.13531 26.4387C9.40278 27.0264 9.85848 27.5685 10.471 28.0278C11.4892 28.7824 12.8097 29.3282 14.2775 29.6011C13.9178 30.012 13.6777 30.4643 13.5696 30.9344C13.368 31.7726 13.5742 32.6318 14.158 33.3865C14.7419 34.1412 15.6728 34.7521 16.8151 35.1298ZM26.4848 19.6724C26.9308 19.8964 27.4096 20.0899 27.9139 20.2501C27.7425 20.7026 27.3108 21.0921 26.7118 21.3346C25.9156 21.6645 24.9648 21.7878 24.0406 21.6812L14.9987 20.7479C14.0672 20.6596 13.2192 20.3425 12.6213 19.859C12.3676 19.673 12.1798 19.4514 12.0718 19.2106C11.9638 18.9698 11.9384 18.716 11.9973 18.4678C12.0563 18.2196 12.1981 17.9833 12.4125 17.7765C12.6268 17.5696 12.9081 17.3974 13.2357 17.2724C14.0288 16.9371 14.981 16.8103 15.9069 16.9169L24.2009 17.8058C24.717 18.5447 25.502 19.1863 26.4848 19.6724ZM27.1259 32.321C27.0783 32.648 26.8411 32.9498 26.4645 33.1623C26.0879 33.3748 25.6017 33.4811 25.1091 33.4588L18.9387 32.8188C18.4597 32.7385 18.0456 32.5386 17.782 32.2606C17.5184 31.9826 17.4257 31.6477 17.523 31.3255C17.5909 31.0344 17.8047 30.7671 18.1295 30.567C18.4544 30.367 18.8713 30.2458 19.3126 30.2233H19.5531L25.7235 30.8633C26.1907 30.9434 26.595 31.1383 26.8551 31.4087C27.1153 31.6791 27.212 32.0051 27.1259 32.321ZM12.8751 25.0234C13.0728 24.5805 13.4948 24.1968 14.0694 23.9376C14.644 23.6783 15.3357 23.5595 16.0271 23.6012C16.254 23.5924 16.4814 23.5924 16.7082 23.6012L25.7636 24.5434C26.6974 24.6416 27.5489 24.9565 28.1676 25.4323C28.3992 25.598 28.575 25.7948 28.6833 26.0094C28.7915 26.224 28.8298 26.4515 28.7954 26.6767C28.5817 27.5655 26.832 28.2589 24.9488 28.0544L15.8935 27.1656C14.9597 27.0673 14.1082 26.7525 13.4895 26.2767C13.2546 26.1108 13.0778 25.9124 12.9716 25.6958C12.8654 25.4791 12.8324 25.2495 12.8751 25.0234ZM17.4295 10.5081L26.4848 11.4414C26.8559 11.4789 27.2162 11.5538 27.5532 11.6637L25.4564 13.9747C25.0407 14.326 24.6867 14.7077 24.4013 15.1125L16.5346 14.2947C15.6092 14.2019 14.7676 13.8855 14.1706 13.4058C13.9274 13.218 13.7459 12.9984 13.6378 12.7612C13.5297 12.5239 13.4974 12.2742 13.5429 12.0281C13.7745 11.4915 14.3069 11.0345 15.0302 10.7516C15.7535 10.4688 16.6124 10.3816 17.4295 10.5081ZM39.5602 6.13488L37.9575 5.97489C36.6911 5.84139 35.3941 5.93584 34.2011 6.24844C33.0081 6.56103 31.9624 7.08039 31.1727 7.75263C31.1208 7.79035 31.0759 7.83214 31.0391 7.87707L29.6368 9.41481C28.8488 9.12397 27.9897 8.92836 27.0991 8.83705L22.2376 8.33039L18.5781 4.25048C22.1603 4.66593 25.8434 4.45145 29.2628 3.62827C32.033 3.02536 34.9232 2.70179 37.8373 2.66829H43.7807L39.5602 6.13488ZM56.5089 37.8764C55.7632 37.7998 55.0939 37.5292 54.6481 37.1241C54.2022 36.7191 54.0164 36.2127 54.1315 35.7165L56.5222 25.5211C56.6037 25.1675 56.4708 24.8069 56.1527 24.5185C55.8346 24.2301 55.3574 24.0376 54.826 23.9834C54.2947 23.9292 53.7528 24.0177 53.3194 24.2294C52.8861 24.4411 52.5969 24.7586 52.5154 25.1123L50.1782 35.3076C50.1782 35.3787 50.1782 35.4409 50.1782 35.5032L47.9878 33.5299C47.0535 32.7102 46.0549 31.9239 44.9961 31.1744C42.7656 29.5388 40.6688 27.9922 39.6537 25.5923L39.2664 23.379C41.0353 25.5594 43.7047 27.3576 46.9594 28.5611C47.2581 28.6795 47.6 28.741 47.9477 28.7389C48.388 28.7372 48.8152 28.6391 49.1633 28.4597C49.5114 28.2803 49.761 28.0295 49.8735 27.7462C49.986 27.4629 49.9552 27.1629 49.7857 26.8924C49.6163 26.622 49.3177 26.3962 48.9361 26.25C43.3666 24.1345 40.5753 20.5435 40.4283 15.2725C40.4267 15.0974 40.3725 14.9244 40.2691 14.7634C40.1656 14.6025 40.0149 14.4569 39.8259 14.3352C39.6368 14.2135 39.4132 14.1182 39.168 14.0548C38.9229 13.9913 38.6612 13.9611 38.3983 13.9658C38.1019 13.9694 37.8103 14.0167 37.5447 14.1043C37.2791 14.1919 37.0461 14.3177 36.8623 14.4725L34.6185 16.3836L33.5634 17.2724C33.2085 17.5646 32.743 17.7886 32.2148 17.9214C31.6867 18.0542 31.1149 18.091 30.5583 18.028C29.9743 17.9658 29.4232 17.8068 28.9556 17.5658C27.62 16.8724 27.4598 16.5702 28.6751 15.5391L28.8087 15.4147L34.3781 9.29926C34.7357 9.02387 35.1941 8.81455 35.7088 8.69154C36.2235 8.56853 36.7773 8.53598 37.3164 8.59705L45.0629 9.39704C45.6369 9.45836 46.1831 9.60432 46.6614 9.82425C47.1398 10.0442 47.5382 10.3325 47.8275 10.6681L53.3569 17.068C53.9112 17.777 54.3801 18.5141 54.7592 19.2724C54.0725 19.852 53.6135 20.5363 53.4237 21.2635V21.3523C53.3422 21.706 53.4751 22.0666 53.7932 22.355C54.1113 22.6434 54.5885 22.8359 55.1199 22.8901C55.6512 22.9443 56.1931 22.8558 56.6264 22.6441C57.0597 22.4324 57.349 22.1148 57.4304 21.7612V21.6723C57.4873 21.4269 57.6166 21.1914 57.8107 20.9793C58.0049 20.7673 58.2601 20.5828 58.5617 20.4366C58.8633 20.2904 59.2053 20.1853 59.5682 20.1274C59.931 20.0695 60.3075 20.0598 60.6759 20.099L73.6044 21.4323C74.3485 21.5112 75.0156 21.7823 75.4608 22.1868C75.906 22.5913 76.0933 23.0964 75.9818 23.5923L72.6962 37.6364C72.5747 38.13 72.1659 38.5718 71.5585 38.8663C70.9511 39.1607 70.1939 39.2841 69.4507 39.2097L56.5089 37.8764ZM4.00677 57.7782C4.00677 48.3473 12.0203 42.4363 21.3695 35.7432L24.468 36.0631C25.235 36.1418 26.018 36.1165 26.7698 35.9887C27.5217 35.8609 28.227 35.6332 28.8433 35.3194C29.4596 35.0055 29.9742 34.612 30.3561 34.1624C30.7381 33.7128 30.9795 33.2165 31.0659 32.7032C31.3028 31.6872 30.9546 30.6491 30.0909 29.7966C30.8265 29.4707 31.4471 29.0423 31.9096 28.5412C32.3721 28.04 32.6656 27.4779 32.7697 26.8939C32.8739 26.3098 32.7862 25.7177 32.5128 25.1584C32.2393 24.5991 31.7867 24.086 31.1861 23.6545C30.8382 23.3904 30.4486 23.152 30.0241 22.9434C30.964 22.3259 31.5977 21.5319 31.8405 20.6679C32.8543 20.6126 33.8383 20.4125 34.7254 20.0813L35.1127 22.3657H34.6452C34.1139 22.3657 33.6043 22.5061 33.2286 22.7562C32.8529 23.0062 32.6418 23.3453 32.6418 23.699C32.6418 24.0526 32.8529 24.3917 33.2286 24.6418C33.6043 24.8918 34.1139 25.0323 34.6452 25.0323H35.5802L35.7538 25.9922C35.7473 26.0544 35.7473 26.1168 35.7538 26.1789C36.9558 29.2633 39.6404 31.2277 42.0043 32.961C42.9501 33.6467 43.8417 34.3647 44.6755 35.1121L47.507 37.672L47.6673 37.7964L49.7241 39.2542C49.7616 39.2881 49.8066 39.3181 49.8576 39.3431C57.2167 43.6541 61.6108 50.5517 61.6108 57.8049C61.6108 71.298 47.1197 77.3601 32.7621 77.3601C15.5863 77.3334 4.00677 69.4847 4.00677 57.7782Z" fill="white"/>
<path d="M34.7086 49.9559V60.4629H33.4237L28.7886 53.3481V60.4629H27.2396V49.9559H28.5244L33.1595 57.0706V49.9559H34.7086Z" fill="white"/>
<path d="M24 54H38" stroke="white" stroke-miterlimit="10"/>
<path d="M24 56H38" stroke="white" stroke-miterlimit="10"/>
</svg>
