<svg width="17" height="17" viewBox="0 0 17 17" fill="none" xmlns="http://www.w3.org/2000/svg">
<path d="M5.5 16C4.30653 16 3.16193 15.5259 2.31802 14.682C1.47411 13.8381 1 12.6935 1 11.5V5.5C1 4.30653 1.47411 3.16193 2.31802 2.31802C3.16193 1.47411 4.30653 1 5.5 1H11.5C12.6935 1 13.8381 1.47411 14.682 2.31802C15.5259 3.16193 16 4.30653 16 5.5V11.5C16 12.6935 15.5259 13.8381 14.682 14.682C13.8381 15.5259 12.6935 16 11.5 16H5.5ZM5.5 15.25H11.5C11.993 15.252 12.4815 15.1563 12.9374 14.9686C13.3933 14.7808 13.8075 14.5047 14.1561 14.1561C14.5047 13.8075 14.7808 13.3933 14.9686 12.9374C15.1563 12.4815 15.252 11.993 15.25 11.5V5.5C15.252 5.00699 15.1563 4.51846 14.9686 4.06259C14.7808 3.60673 14.5047 3.19254 14.1561 2.84393C13.8075 2.49531 13.3933 2.21916 12.9374 2.03141C12.4815 1.84366 11.993 1.74802 11.5 1.75H5.5C5.00699 1.74802 4.51846 1.84366 4.06259 2.03141C3.60673 2.21916 3.19254 2.49531 2.84393 2.84393C2.49531 3.19254 2.21916 3.60673 2.03141 4.06259C1.84366 4.51846 1.74802 5.00699 1.75 5.5V11.5C1.74802 11.993 1.84366 12.4815 2.03141 12.9374C2.21916 13.3933 2.49531 13.8075 2.84393 14.1561C3.19254 14.5047 3.60673 14.7808 4.06259 14.9686C4.51846 15.1563 5.00699 15.252 5.5 15.25ZM8.5 13C8.40054 13 8.30516 12.9605 8.23483 12.8902C8.16451 12.8198 8.125 12.7245 8.125 12.625V5.875C8.125 5.77554 8.16451 5.68016 8.23483 5.60983C8.30516 5.53951 8.40054 5.5 8.5 5.5C8.59946 5.5 8.69484 5.53951 8.76517 5.60983C8.83549 5.68016 8.875 5.77554 8.875 5.875V12.625C8.875 12.7245 8.83549 12.8198 8.76517 12.8902C8.69484 12.9605 8.59946 13 8.5 13ZM8.5 5.125C8.38875 5.125 8.27999 5.09201 8.18749 5.0302C8.09499 4.96839 8.02289 4.88054 7.98032 4.77776C7.93774 4.67498 7.9266 4.56188 7.94831 4.45276C7.97001 4.34365 8.02359 4.24342 8.10225 4.16475C8.18092 4.08609 8.28115 4.03251 8.39026 4.01081C8.49938 3.9891 8.61248 4.00024 8.71526 4.04282C8.81804 4.08539 8.90589 4.15749 8.9677 4.24999C9.02951 4.34249 9.0625 4.45125 9.0625 4.5625C9.0625 4.71168 9.00324 4.85476 8.89775 4.96025C8.79226 5.06574 8.64918 5.125 8.5 5.125Z" fill="#6E9E3D" stroke="#6E9E3D" stroke-width="0.5" stroke-miterlimit="10"/>
</svg>
