<svg width="17" height="17" viewBox="0 0 17 17" fill="none" xmlns="http://www.w3.org/2000/svg">
<path d="M13.4722 7.62665C14.2471 7.62665 14.9113 7.46458 15.1696 7.23049C15.2309 7.17219 15.2789 7.10201 15.3107 7.02448C15.3425 6.94694 15.3573 6.86376 15.3541 6.78031C15.3541 5.14166 14.2656 4.15126 13.4722 4.15126C12.6789 4.15126 11.5903 5.15966 11.5903 6.78031C11.587 6.95387 11.6532 7.12185 11.7748 7.2485C12.0331 7.46458 12.6973 7.62665 13.4722 7.62665ZM15.3541 4.63745C15.7671 5.28023 15.9905 6.02167 15.9999 6.78031C16.0025 6.95534 15.9678 7.129 15.8979 7.29021C15.828 7.45143 15.7245 7.59667 15.594 7.71669C15.1881 8.09484 14.3947 8.31092 13.4353 8.31092C12.4759 8.31092 11.6826 8.09484 11.2951 7.71669C11.039 7.46874 10.8932 7.13236 10.8893 6.78031C10.8964 6.01877 11.1269 5.27516 11.5534 4.63745C11.7326 4.3519 11.9715 4.10646 12.2545 3.91717C12.273 3.88115 12.2914 3.86314 12.2914 3.82713C12.3001 3.79505 12.2995 3.76126 12.2898 3.72948C12.28 3.69771 12.2614 3.66918 12.2361 3.64706C12.0297 3.4172 11.8952 3.13429 11.8488 2.83201C11.8023 2.52972 11.8458 2.22077 11.9741 1.94192C12.1024 1.66307 12.31 1.42605 12.5723 1.25907C12.8347 1.09209 13.1406 1.00216 13.4538 1H13.4722C13.9027 1.00048 14.3154 1.16758 14.6197 1.46465C14.9241 1.76173 15.0953 2.16451 15.0958 2.58463C15.0983 2.97863 14.9465 3.35868 14.6715 3.64706C14.6524 3.6692 14.6392 3.69549 14.6327 3.72369C14.6263 3.7519 14.6269 3.7812 14.6346 3.80912C14.6354 3.84794 14.6483 3.8856 14.6715 3.91717C14.9489 4.10717 15.1816 4.35272 15.3541 4.63745ZM14.4316 2.56663C14.4297 2.31409 14.326 2.07243 14.1431 1.89386C13.9601 1.71528 13.7125 1.61413 13.4538 1.61224C13.1944 1.61224 12.9457 1.7128 12.7623 1.89178C12.579 2.07076 12.4759 2.31351 12.4759 2.56663C12.4759 2.81974 12.579 3.06249 12.7623 3.24148C12.9457 3.42046 13.1944 3.52101 13.4538 3.52101C13.7127 3.51959 13.9605 3.41858 14.1436 3.23991C14.3267 3.06123 14.4302 2.81931 14.4316 2.56663Z" fill="#6E9E3D" stroke="#6E9E3D" stroke-width="0.5" stroke-miterlimit="10"/>
<path d="M3.56467 1C3.99512 1.00048 4.4078 1.16758 4.71218 1.46465C5.01655 1.76173 5.18776 2.16451 5.18825 2.58463C5.19077 2.97863 5.03898 3.35868 4.76391 3.64706C4.74488 3.6692 4.7316 3.69549 4.72518 3.72369C4.71876 3.7519 4.71938 3.7812 4.72701 3.80912C4.72787 3.84794 4.74073 3.8856 4.76391 3.91717C5.0383 4.11613 5.27548 4.3598 5.465 4.63745C5.87795 5.28023 6.10138 6.02167 6.11074 6.78031C6.11341 6.95534 6.0787 7.129 6.00882 7.29021C5.93893 7.45143 5.83541 7.59667 5.70485 7.71669C5.29895 8.09484 4.50561 8.31092 3.54622 8.31092C2.58683 8.31092 1.79349 8.09484 1.40604 7.71669C1.27547 7.59667 1.17195 7.45143 1.10207 7.29021C1.03219 7.129 0.997474 6.95534 1.00014 6.78031C1.0073 6.01877 1.23778 5.27516 1.66434 4.63745C1.84226 4.35671 2.07405 4.11214 2.34698 3.91717C2.36543 3.88115 2.38388 3.86314 2.38388 3.82713C2.38901 3.79499 2.38671 3.76213 2.37713 3.73097C2.36755 3.69981 2.35094 3.67114 2.32853 3.64706C2.12209 3.4172 1.98765 3.13429 1.94121 2.83201C1.89476 2.52972 1.93826 2.22077 2.06654 1.94192C2.19481 1.66307 2.40246 1.42605 2.66478 1.25907C2.9271 1.09209 3.23305 1.00216 3.54622 1H3.56467ZM4.52406 2.56663C4.52213 2.31409 4.41849 2.07243 4.23552 1.89386C4.05256 1.71528 3.80496 1.61413 3.54622 1.61224C3.28688 1.61224 3.03816 1.7128 2.85478 1.89178C2.6714 2.07076 2.56838 2.31351 2.56838 2.56663C2.56838 2.81974 2.6714 3.06249 2.85478 3.24148C3.03816 3.42046 3.28688 3.52101 3.54622 3.52101C3.80511 3.51959 4.05298 3.41858 4.23605 3.23991C4.41912 3.06123 4.52261 2.81931 4.52406 2.56663ZM5.2436 7.23049C5.30486 7.17219 5.35293 7.10201 5.38471 7.02448C5.41649 6.94694 5.43127 6.86376 5.4281 6.78031C5.4281 5.14166 4.33956 4.15126 3.54622 4.15126C2.75288 4.15126 1.66434 5.15966 1.66434 6.78031C1.661 6.95387 1.72719 7.12185 1.84883 7.2485C2.10713 7.48259 2.75288 7.62665 3.52777 7.62665C4.30266 7.62665 4.9853 7.46458 5.2436 7.23049Z" fill="#6E9E3D" stroke="#6E9E3D" stroke-width="0.5" stroke-miterlimit="10"/>
<path d="M6.94098 4.83552H10.262C10.7047 4.83552 10.7047 4.15125 10.262 4.15125H6.94098C6.49819 4.16925 6.49819 4.83552 6.94098 4.83552Z" fill="#6E9E3D" stroke="#6E9E3D" stroke-width="0.5" stroke-miterlimit="10"/>
<path d="M8.58301 8.68909H8.60146C9.03191 8.68956 9.44459 8.85667 9.74897 9.15374C10.0533 9.45081 10.2246 9.8536 10.225 10.2737C10.2276 10.6677 10.0758 11.0478 9.8007 11.3361C9.78168 11.3583 9.7684 11.3846 9.76197 11.4128C9.75555 11.441 9.75618 11.4703 9.7638 11.4982C9.76467 11.537 9.77753 11.5747 9.8007 11.6063C10.0751 11.8052 10.3123 12.0489 10.5018 12.3265C10.9171 12.9683 11.1408 13.7104 11.1475 14.4694C11.1502 14.6444 11.1155 14.8181 11.0456 14.9793C10.9757 15.1405 10.8722 15.2858 10.7416 15.4058C10.3357 15.7839 9.5424 16 8.58301 16C7.62362 16 6.83028 15.7839 6.44283 15.4058C6.31116 15.2866 6.2069 15.1415 6.13693 14.9801C6.06696 14.8187 6.03288 14.6446 6.03694 14.4694C6.0463 13.7108 6.26973 12.9693 6.68268 12.3265C6.86187 12.041 7.10077 11.7956 7.38377 11.6063C7.40222 11.5702 7.42067 11.5522 7.42067 11.5162C7.42581 11.4841 7.4235 11.4512 7.41392 11.4201C7.40434 11.3889 7.38774 11.3602 7.36532 11.3361C7.10337 11.0413 6.95924 10.664 6.95943 10.2737C6.96328 9.85461 7.13557 9.45374 7.43922 9.15737C7.74287 8.861 8.1536 8.69285 8.58301 8.68909ZM8.60146 9.31934C8.4099 9.32113 8.22318 9.37832 8.06492 9.48368C7.90666 9.58903 7.78397 9.73783 7.71235 9.91125C7.64073 10.0847 7.62341 10.2749 7.66257 10.4579C7.70173 10.641 7.79562 10.8085 7.93237 10.9395C8.06911 11.0704 8.24257 11.1589 8.43081 11.1936C8.61904 11.2283 8.81361 11.2078 8.98989 11.1346C9.16617 11.0614 9.31626 10.9389 9.42118 10.7824C9.52609 10.626 9.58112 10.4427 9.5793 10.2557C9.574 10.0059 9.4687 9.768 9.28594 9.59299C9.10318 9.41798 8.85749 9.31976 8.60146 9.31934ZM10.2988 14.9196C10.3601 14.8613 10.4082 14.7911 10.44 14.7136C10.4717 14.636 10.4865 14.5529 10.4833 14.4694C10.4833 12.8307 9.3948 11.8403 8.60146 11.8403C7.80812 11.8403 6.71958 12.8487 6.71958 14.4694C6.71624 14.643 6.78244 14.8109 6.90408 14.9376C7.16238 15.1717 7.80812 15.3157 8.58301 15.3157C9.3579 15.3157 10.0221 15.1717 10.2988 14.9196Z" fill="#6E9E3D" stroke="#6E9E3D" stroke-width="0.5" stroke-miterlimit="10"/>
<path d="M3.14037 9.55343L5.48349 11.8403C5.79714 12.1465 6.29529 11.6783 5.98164 11.3541L3.63851 9.06723C3.32487 8.77912 2.82672 9.2473 3.14037 9.55343Z" fill="#6E9E3D" stroke="#6E9E3D" stroke-width="0.5" stroke-miterlimit="10"/>
<path d="M13.5645 9.08524L11.2214 11.3722C10.9077 11.6783 11.3874 12.1645 11.7195 11.8583L14.0626 9.57143C14.3763 9.2473 13.8781 8.77911 13.5645 9.08524Z" fill="#6E9E3D" stroke="#6E9E3D" stroke-width="0.5" stroke-miterlimit="10"/>
</svg>
