<svg width="80" height="80" viewBox="0 0 80 80" fill="none" xmlns="http://www.w3.org/2000/svg">
<path d="M26.25 56.2221C26.25 56.5725 26.3817 56.9085 26.6161 57.1562C26.8505 57.4039 27.1685 57.5431 27.5 57.5431C27.8315 57.5431 28.1495 57.4039 28.3839 57.1562C28.6183 56.9085 28.75 56.5725 28.75 56.2221V46.0902C28.75 40.9318 24.3313 36.4075 19.2938 36.4075H9.45625C4.41875 36.4075 0 40.9318 0 46.0902V56.2221C0 56.5725 0.131696 56.9085 0.366117 57.1562C0.600537 57.4039 0.918479 57.5431 1.25 57.5431C1.58152 57.5431 1.89946 57.4039 2.13388 57.1562C2.3683 56.9085 2.5 56.5725 2.5 56.2221V46.0902C2.5 42.4047 5.81875 39.0494 9.45625 39.0494H19.2938C22.9313 39.0494 26.25 42.4047 26.25 46.0902V56.2221Z" fill="white"/>
<path d="M14.375 33.7658C18.5171 33.7658 21.875 30.2173 21.875 25.8399C21.875 21.4626 18.5171 17.9141 14.375 17.9141C10.2329 17.9141 6.875 21.4626 6.875 25.8399C6.875 30.2173 10.2329 33.7658 14.375 33.7658Z" fill="white"/>
<path d="M21.25 48.9568C20.9185 48.9568 20.6005 49.096 20.3661 49.3437C20.1317 49.5914 20 49.9274 20 50.2778V56.2222C20 56.5725 20.1317 56.9085 20.3661 57.1562C20.6005 57.404 20.9185 57.5431 21.25 57.5431C21.5815 57.5431 21.8995 57.404 22.1339 57.1562C22.3683 56.9085 22.5 56.5725 22.5 56.2222V50.2778C22.5 49.9274 22.3683 49.5914 22.1339 49.3437C21.8995 49.096 21.5815 48.9568 21.25 48.9568Z" fill="white"/>
<path d="M7.5 48.9568C7.16848 48.9568 6.85054 49.096 6.61612 49.3437C6.3817 49.5914 6.25 49.9274 6.25 50.2778V56.2222C6.25 56.5725 6.3817 56.9085 6.61612 57.1562C6.85054 57.404 7.16848 57.5431 7.5 57.5431C7.83152 57.5431 8.14946 57.404 8.38388 57.1562C8.6183 56.9085 8.75 56.5725 8.75 56.2222V50.2778C8.75 49.9274 8.6183 49.5914 8.38388 49.3437C8.14946 49.096 7.83152 48.9568 7.5 48.9568Z" fill="white"/>
<path d="M70.5438 36.4075H60.7062C55.6687 36.4075 51.25 40.9318 51.25 46.0902V56.2221C51.25 56.5725 51.3817 56.9085 51.6161 57.1562C51.8505 57.4039 52.1685 57.5431 52.5 57.5431C52.8315 57.5431 53.1495 57.4039 53.3839 57.1562C53.6183 56.9085 53.75 56.5725 53.75 56.2221V46.0902C53.75 42.4047 57.0687 39.0494 60.7062 39.0494H70.5438C74.1813 39.0494 77.5 42.4047 77.5 46.0902V56.2221C77.5 56.5725 77.6317 56.9085 77.8661 57.1562C78.1005 57.4039 78.4185 57.5431 78.75 57.5431C79.0815 57.5431 79.3995 57.4039 79.6339 57.1562C79.8683 56.9085 80 56.5725 80 56.2221V46.0902C80 40.9318 75.5813 36.4075 70.5438 36.4075Z" fill="white"/>
<path d="M65.625 33.7658C69.7671 33.7658 73.125 30.2173 73.125 25.8399C73.125 21.4626 69.7671 17.9141 65.625 17.9141C61.4829 17.9141 58.125 21.4626 58.125 25.8399C58.125 30.2173 61.4829 33.7658 65.625 33.7658Z" fill="white"/>
<path d="M72.5 48.9568C72.1685 48.9568 71.8505 49.096 71.6161 49.3437C71.3817 49.5914 71.25 49.9274 71.25 50.2778V56.2222C71.25 56.5725 71.3817 56.9085 71.6161 57.1562C71.8505 57.404 72.1685 57.5431 72.5 57.5431C72.8315 57.5431 73.1495 57.404 73.3839 57.1562C73.6183 56.9085 73.75 56.5725 73.75 56.2222V50.2778C73.75 49.9274 73.6183 49.5914 73.3839 49.3437C73.1495 49.096 72.8315 48.9568 72.5 48.9568Z" fill="white"/>
<path d="M58.75 48.9568C58.4185 48.9568 58.1005 49.096 57.8661 49.3437C57.6317 49.5914 57.5 49.9274 57.5 50.2778V56.2222C57.5 56.5725 57.6317 56.9085 57.8661 57.1562C58.1005 57.404 58.4185 57.5431 58.75 57.5431C59.0815 57.5431 59.3995 57.404 59.6339 57.1562C59.8683 56.9085 60 56.5725 60 56.2222V50.2778C60 49.9274 59.8683 49.5914 59.6339 49.3437C59.3995 49.096 59.0815 48.9568 58.75 48.9568Z" fill="white"/>
<path d="M44.9188 58.8643H35.0813C30.0438 58.8643 25.625 63.3886 25.625 68.547V78.6789C25.625 79.0293 25.7567 79.3653 25.9911 79.613C26.2255 79.8607 26.5435 79.9999 26.875 79.9999C27.2065 79.9999 27.5245 79.8607 27.7589 79.613C27.9933 79.3653 28.125 79.0293 28.125 78.6789V68.547C28.125 64.8615 31.4438 61.5062 35.0813 61.5062H44.9188C48.5563 61.5062 51.875 64.8615 51.875 68.547V78.6789C51.875 79.0293 52.0067 79.3653 52.2411 79.613C52.4755 79.8607 52.7935 79.9999 53.125 79.9999C53.4565 79.9999 53.7745 79.8607 54.0089 79.613C54.2433 79.3653 54.375 79.0293 54.375 78.6789V68.547C54.375 63.3886 49.9563 58.8643 44.9188 58.8643Z" fill="white"/>
<path d="M40 56.2223C44.1421 56.2223 47.5 52.6738 47.5 48.2965C47.5 43.9191 44.1421 40.3706 40 40.3706C35.8579 40.3706 32.5 43.9191 32.5 48.2965C32.5 52.6738 35.8579 56.2223 40 56.2223Z" fill="white"/>
<path d="M46.875 71.4136C46.5435 71.4136 46.2255 71.5527 45.9911 71.8005C45.7567 72.0482 45.625 72.3842 45.625 72.7346V78.679C45.625 79.0293 45.7567 79.3653 45.9911 79.613C46.2255 79.8608 46.5435 79.9999 46.875 79.9999C47.2065 79.9999 47.5245 79.8608 47.7589 79.613C47.9933 79.3653 48.125 79.0293 48.125 78.679V72.7346C48.125 72.3842 47.9933 72.0482 47.7589 71.8005C47.5245 71.5527 47.2065 71.4136 46.875 71.4136Z" fill="white"/>
<path d="M33.125 71.4136C32.7935 71.4136 32.4755 71.5527 32.2411 71.8005C32.0067 72.0482 31.875 72.3842 31.875 72.7346V78.679C31.875 79.0293 32.0067 79.3653 32.2411 79.613C32.4755 79.8608 32.7935 79.9999 33.125 79.9999C33.4565 79.9999 33.7745 79.8608 34.0089 79.613C34.2433 79.3653 34.375 79.0293 34.375 78.679V72.7346C34.375 72.3842 34.2433 72.0482 34.0089 71.8005C33.7745 71.5527 33.4565 71.4136 33.125 71.4136Z" fill="white"/>
<path d="M42.475 29.2487C50.0551 29.2487 56.2 22.7548 56.2 14.7443C56.2 6.7338 50.0551 0.23999 42.475 0.23999C34.8949 0.23999 28.75 6.7338 28.75 14.7443C28.75 22.7548 34.8949 29.2487 42.475 29.2487Z" fill="white"/>
<path d="M33 13.958H52" stroke="black" stroke-width="2" stroke-miterlimit="10"/>
<path d="M33 16.9492H52" stroke="black" stroke-width="2" stroke-miterlimit="10"/>
<path d="M49.2317 6.131V22H46.806L38.0554 11.2544V22H35.131V6.131H37.5567L46.3073 16.8766V6.131H49.2317Z" fill="black"/>
</svg>
