<svg width="122" height="154" viewBox="0 0 122 154" fill="none" xmlns="http://www.w3.org/2000/svg">
<path d="M60.4074 0.0246401C59.6502 0.110581 58.9209 0.361018 58.2706 0.758413C57.6203 1.15581 57.0648 1.69056 56.6429 2.32521C50.9612 10.9872 39.9637 15.7103 27.8858 15.7103C20.8974 16.0109 14.0163 13.9139 8.38322 9.7672C7.6053 9.17865 6.67826 8.81945 5.70687 8.73021C4.73549 8.64097 3.75852 8.82526 2.88639 9.26223C2.01427 9.6992 1.28177 10.3714 0.771714 11.2029C0.261656 12.0344 -0.00562381 12.992 8.97194e-05 13.9675V80.6665C3.4858 115.053 33.6023 135.41 58.0023 152.42C58.8883 153.016 59.932 153.335 61 153.335C62.068 153.335 63.1118 153.016 63.9977 152.42C88.3977 135.41 118.514 115.053 122 80.6665V13.9675C122.006 12.992 121.738 12.0344 121.228 11.2029C120.718 10.3714 119.986 9.6992 119.114 9.26223C118.242 8.82526 117.265 8.64097 116.293 8.73021C115.322 8.81945 114.395 9.17865 113.617 9.7672C107.984 13.9139 101.103 16.0109 94.1142 15.7103C82.0363 15.7103 71.0388 11.0221 65.3571 2.36007C64.8187 1.56128 64.0747 0.92265 63.2035 0.511595C62.3323 0.10054 61.3663 -0.067697 60.4074 0.0246401ZM61 12.9043C65.3459 17.2257 70.5179 20.6273 76.2073 22.906C81.8967 25.1848 87.9868 26.294 94.1142 26.1675C100.097 26.1735 106.022 24.9886 111.543 22.6818V79.6382C108.824 107.071 84.5285 125.214 61 141.684C37.4715 125.214 13.1761 107.071 10.4572 79.6382V22.6818C15.9779 24.9886 21.9025 26.1735 27.8858 26.1675C34.0132 26.294 40.1033 25.1848 45.7927 22.906C51.4821 20.6273 56.6541 17.2257 61 12.9043ZM60.512 20.9389C59.7136 21.0201 58.9446 21.284 58.2646 21.7101C57.5846 22.1363 57.0118 22.7132 56.5906 23.3963C52.6866 29.6532 45.1575 34.8817 38.3429 34.8817C32.3649 34.8817 28.7572 34.7249 25.9338 32.494C25.1617 31.873 24.229 31.4842 23.2445 31.3729C22.2599 31.2615 21.264 31.4322 20.3727 31.8651C19.4815 32.2979 18.7315 32.9751 18.2103 33.8178C17.6891 34.6604 17.418 35.6338 17.4286 36.6246V80.6665C19.8338 106.06 41.1315 120.961 57.8977 133.179C58.8027 133.826 59.8874 134.174 61 134.174C62.1126 134.174 63.1973 133.826 64.1023 133.179C80.8685 120.979 102.166 106.06 104.571 80.6665V64.5103C104.571 63.1236 104.021 61.7937 103.04 60.8131C102.059 59.8326 100.73 59.2817 99.3428 59.2817C97.9561 59.2817 96.6262 59.8326 95.6456 60.8131C94.6651 61.7937 94.1142 63.1236 94.1142 64.5103V79.708C92.5457 96.2825 80.0668 108.082 66.2286 118.539V39.204C71.2206 43.082 77.3366 45.2348 83.6571 45.3389C87.1614 45.4431 90.6668 45.1744 94.1142 44.5371V50.5674C94.1142 51.9541 94.6651 53.284 95.6456 54.2646C96.6262 55.2451 97.9561 55.796 99.3428 55.796C100.73 55.796 102.059 55.2451 103.04 54.2646C104.021 53.284 104.571 51.9541 104.571 50.5674V36.6246C104.579 35.6369 104.307 34.6672 103.787 33.8277C103.267 32.9881 102.519 32.3132 101.631 31.881C100.743 31.4488 99.7504 31.277 98.7687 31.3855C97.7869 31.494 96.856 31.8783 96.0837 32.494C93.2428 34.69 89.6351 34.8817 83.6571 34.8817C76.8426 34.8817 69.3134 29.6532 65.4094 23.3963C64.8932 22.5806 64.1645 21.9209 63.3017 21.488C62.4389 21.055 61.4745 20.8652 60.512 20.9389ZM55.7714 39.204V118.539C41.9332 108.082 29.4543 96.2825 27.8858 79.6905V44.5023C31.3319 45.1512 34.8374 45.4316 38.3429 45.3389C44.6594 45.2448 50.775 43.1044 55.7714 39.2389V39.204Z" fill="#36A93F"/>
</svg>
