<svg width="80" height="80" viewBox="0 0 80 80" fill="none" xmlns="http://www.w3.org/2000/svg">
<path d="M11.7634 0.0146223C11.4615 -0.00385496 11.1617 0.0755046 10.9085 0.240905C10.6554 0.406306 10.4624 0.648919 10.3583 0.932682L8.0345 7.19708L1.38741 7.52111C1.09247 7.52481 0.806184 7.62117 0.569108 7.79654C0.332033 7.97191 0.156197 8.21739 0.0665177 8.49818C-0.023162 8.77898 -0.0221378 9.08086 0.0694464 9.36105C0.161031 9.64123 0.33853 9.88551 0.57679 10.0593L5.98093 14.2715L4.03544 20.698C3.93152 21.0561 3.96883 21.4403 4.1397 21.7718C4.31058 22.1033 4.60203 22.3567 4.95414 22.4801C5.32008 22.6167 5.72308 22.6167 6.08901 22.4801L11.4932 18.8078L16.8973 22.4801C17.0508 22.5875 17.2251 22.6618 17.4089 22.6983C17.5928 22.7348 17.7822 22.7326 17.9652 22.692C18.1482 22.6514 18.3207 22.5731 18.4718 22.4623C18.6229 22.3514 18.7492 22.2103 18.8428 22.048C18.9748 21.6815 18.9748 21.2805 18.8428 20.914L17.7079 14.2715L23.1121 10.0593C23.3503 9.88551 23.5278 9.64123 23.6194 9.36105C23.711 9.08086 23.712 8.77898 23.6223 8.49818C23.5327 8.21739 23.3568 7.97191 23.1197 7.79654C22.8827 7.62117 22.5964 7.52481 22.3014 7.52111L15.4382 7.19708L13.0604 0.932682C12.969 0.662322 12.7943 0.42784 12.5612 0.262899C12.3282 0.0979579 12.0489 0.0110394 11.7634 0.0146223ZM39.9189 0.0146223C39.6541 0.0395089 39.4018 0.138993 39.1914 0.301509C38.9809 0.464025 38.8209 0.682897 38.73 0.932682L36.1901 7.19708L29.543 7.52111C29.2481 7.52481 28.9618 7.62117 28.7247 7.79654C28.4876 7.97191 28.3118 8.21739 28.2221 8.49818C28.1324 8.77898 28.1334 9.08086 28.225 9.36105C28.3166 9.64123 28.4941 9.88551 28.7324 10.0593L34.1365 14.2715L31.9748 20.698C31.8735 21.0631 31.9183 21.4533 32.0999 21.7859C32.2815 22.1186 32.5855 22.3675 32.9476 22.4801C33.3285 22.6361 33.7556 22.6361 34.1365 22.4801L39.5406 18.8078L44.9448 22.4801C45.0983 22.5875 45.2726 22.6618 45.4564 22.6983C45.6403 22.7348 45.8297 22.7326 46.0127 22.692C46.1957 22.6514 46.3682 22.5731 46.5193 22.4623C46.6704 22.3514 46.7967 22.2103 46.8903 22.048C46.9692 21.8694 47.01 21.6763 47.01 21.481C47.01 21.2857 46.9692 21.0926 46.8903 20.914L45.8635 14.2715L51.2676 10.0593C51.5059 9.88551 51.6834 9.64123 51.775 9.36105C51.8666 9.08086 51.8676 8.77898 51.7779 8.49818C51.6882 8.21739 51.5124 7.97191 51.2753 7.79654C51.0382 7.62117 50.752 7.52481 50.457 7.52111L43.5938 7.19708L41.2159 0.932682C41.1246 0.662322 40.9498 0.42784 40.7168 0.262899C40.4838 0.0979579 40.2045 0.0110394 39.9189 0.0146223ZM68.0745 0.0146223C67.8097 0.0395089 67.5574 0.138993 67.3469 0.301509C67.1365 0.464025 66.9765 0.682897 66.8856 0.932682L64.3997 7.19708L57.7526 7.52111C57.4577 7.52481 57.1714 7.62117 56.9343 7.79654C56.6972 7.97191 56.5214 8.21739 56.4317 8.49818C56.342 8.77898 56.3431 9.08086 56.4346 9.36105C56.5262 9.64123 56.7037 9.88551 56.942 10.0593L62.3461 14.2715L60.6168 20.698C60.5154 21.0631 60.5603 21.4533 60.7419 21.7859C60.9234 22.1186 61.2275 22.3675 61.5895 22.4801C61.9705 22.6361 62.3975 22.6361 62.7785 22.4801L68.1826 18.8078L73.5867 22.4801C73.7403 22.5875 73.9145 22.6618 74.0984 22.6983C74.2822 22.7348 74.4717 22.7326 74.6547 22.692C74.8376 22.6514 75.0101 22.5731 75.1612 22.4623C75.3123 22.3514 75.4387 22.2103 75.5322 22.048C75.6112 21.8694 75.6519 21.6763 75.6519 21.481C75.6519 21.2857 75.6112 21.0926 75.5322 20.914L74.0191 14.2715L79.4232 10.0593C79.6615 9.88551 79.839 9.64123 79.9306 9.36105C80.0221 9.08086 80.0232 8.77898 79.9335 8.49818C79.8438 8.21739 79.668 7.97191 79.4309 7.79654C79.1938 7.62117 78.9075 7.52481 78.6126 7.52111L71.9655 7.19708L69.6417 0.932682C69.5228 0.625138 69.3031 0.366934 69.0185 0.200202C68.7339 0.0334695 68.4011 -0.0319483 68.0745 0.0146223ZM11.7634 5.41497L13.1144 9.0332C13.2091 9.29089 13.3773 9.51519 13.5982 9.67836C13.8191 9.84153 14.083 9.93641 14.3574 9.95126H18.1943L15.222 12.3274C14.9977 12.5009 14.8311 12.7382 14.7443 13.0081C14.6575 13.278 14.6545 13.5679 14.7356 13.8395L15.7624 17.8358L12.5199 15.8916C12.28 15.7593 12.0104 15.6898 11.7363 15.6898C11.4623 15.6898 11.1927 15.7593 10.9527 15.8916L7.7643 18.0518L8.79109 14.3255C8.85899 14.0483 8.84398 13.7573 8.74792 13.4885C8.65186 13.2197 8.47896 12.985 8.25067 12.8134L5.27839 10.4913H9.11533C9.46413 10.4636 9.7886 10.3019 10.0204 10.04C10.2523 9.77808 10.3734 9.43653 10.3583 9.08721L11.7634 5.41497ZM39.9189 5.41497L41.27 9.0332C41.3686 9.3465 41.574 9.61533 41.8505 9.79293C42.1269 9.97053 42.457 10.0457 42.7831 10.0053H46.6201L43.6478 12.3814C43.3175 12.5144 43.0472 12.7635 42.8879 13.0818C42.7287 13.4001 42.6914 13.7657 42.7831 14.1095L43.7559 17.8358L40.6755 15.8916C40.4356 15.7593 40.166 15.6898 39.8919 15.6898C39.6178 15.6898 39.3482 15.7593 39.1083 15.8916L35.9199 18.0518L36.9467 14.3255C37.0079 14.0531 36.995 13.7692 36.9095 13.5033C36.824 13.2374 36.6689 12.9993 36.4603 12.8134L33.434 10.4913H37.2709C37.5528 10.4799 37.8253 10.3872 38.0555 10.2242C38.2857 10.0613 38.4637 9.83517 38.5679 9.57324L39.9189 5.41497ZM68.0745 5.41497L69.4256 9.0332C69.5259 9.28718 69.6956 9.50789 69.9154 9.6702C70.1351 9.83251 70.3961 9.92989 70.6685 9.95126H74.5054L71.5332 12.3274C71.3145 12.5055 71.1522 12.7431 71.0659 13.0115C70.9795 13.2798 70.9729 13.5675 71.0468 13.8395L72.0736 17.5658L68.8311 15.4056C68.5912 15.2732 68.3216 15.2038 68.0475 15.2038C67.7734 15.2038 67.5038 15.2732 67.2639 15.4056L64.0754 17.5658L65.1022 13.8395C65.0919 13.5917 65.0229 13.3498 64.9007 13.1339C64.7786 12.9179 64.6069 12.7341 64.3997 12.5974L61.5895 10.4913H65.4265C65.7083 10.4799 65.9809 10.3872 66.2111 10.2242C66.4412 10.0613 66.6192 9.83517 66.7235 9.57324L68.0745 5.41497ZM41.324 30.3106C40.7009 30.1745 40.0557 30.1745 39.4326 30.3106C38.7595 30.551 38.189 31.0142 37.8155 31.6231C37.442 32.2321 37.288 32.9503 37.379 33.6588C37.7279 38.0613 36.7891 42.4703 34.6769 46.3496C33.7975 48.0642 32.5277 49.5487 30.9696 50.6836C29.4115 51.8185 27.6087 52.5722 25.706 52.884C25.3622 52.9239 25.0451 53.0893 24.8157 53.3484C24.5864 53.6075 24.4608 53.9422 24.4631 54.2881V78.5897C24.4555 78.7761 24.4866 78.9621 24.5545 79.1359C24.6224 79.3097 24.7257 79.4675 24.8577 79.5995C24.9897 79.7314 25.1477 79.8345 25.3216 79.9024C25.4955 79.9703 25.6816 80.0014 25.8682 79.9938H62.7785C63.845 80.053 64.8917 79.6891 65.6912 78.9812C66.4907 78.2733 66.9782 77.2787 67.0477 76.2135V73.8374C67.083 73.5143 67.083 73.1884 67.0477 72.8653C67.5802 72.902 68.1148 72.8332 68.6206 72.6628C69.1264 72.4925 69.5936 72.224 69.9953 71.8728C70.397 71.5215 70.7253 71.0944 70.9614 70.616C71.1975 70.1376 71.3367 69.6174 71.371 69.0851V66.7089C71.3827 66.2671 71.3022 65.8277 71.1348 65.4186C70.9673 65.0095 70.7165 64.6397 70.3983 64.3328C71.0192 63.6753 71.3669 62.8066 71.371 61.9026V59.5265C71.3843 58.6454 71.0549 57.7936 70.4523 57.1503C71.0549 56.507 71.3843 55.6552 71.371 54.7741V52.398C71.3436 51.861 71.2094 51.3349 70.9764 50.8503C70.7433 50.3656 70.416 49.9322 70.0136 49.5753C69.6112 49.2184 69.1417 48.9452 68.6325 48.7715C68.1233 48.5978 67.5845 48.5272 67.0477 48.5637H48.4575V38.5731C48.515 36.8615 48.021 35.1768 47.048 33.767C46.0751 32.3573 44.6748 31.297 43.0533 30.7426C42.5002 30.5177 41.918 30.3722 41.324 30.3106ZM41.324 33.1728C41.7013 33.1329 42.0816 33.1329 42.4589 33.1728C43.5169 33.6034 44.4111 34.3581 45.0131 35.3284C45.6151 36.2987 45.8939 37.4346 45.8095 38.5731V50.0218C45.8018 50.2083 45.833 50.3942 45.9009 50.568C45.9688 50.7418 46.072 50.8997 46.204 51.0316C46.3361 51.1636 46.494 51.2667 46.6679 51.3346C46.8419 51.4024 47.028 51.4335 47.2145 51.4259H67.2099C68.1826 51.4259 68.669 52.02 68.669 52.398V54.7741C68.669 55.2062 68.1826 55.7462 67.2099 55.7462H59.9143C59.5821 55.811 59.2827 55.9892 59.0675 56.2503C58.8523 56.5113 58.7346 56.8391 58.7346 57.1773C58.7346 57.5155 58.8523 57.8433 59.0675 58.1043C59.2827 58.3654 59.5821 58.5436 59.9143 58.6084H67.0477C68.0205 58.6084 68.5069 59.1484 68.5069 59.5265V61.9026C68.5069 62.3346 68.0205 62.8747 67.0477 62.8747H59.9143C59.5821 62.9395 59.2827 63.1176 59.0675 63.3787C58.8523 63.6398 58.7346 63.9675 58.7346 64.3058C58.7346 64.644 58.8523 64.9717 59.0675 65.2328C59.2827 65.4939 59.5821 65.6721 59.9143 65.7368H67.0477C68.0205 65.7368 68.5069 66.2769 68.5069 66.7089V69.0851C68.5069 69.4631 68.0205 70.0031 67.0477 70.0031H58.5092C58.2979 69.9619 58.08 69.9679 57.8713 70.0208C57.6626 70.0736 57.4682 70.172 57.302 70.3088C57.1358 70.4456 57.002 70.6174 56.9101 70.812C56.8182 71.0066 56.7706 71.2191 56.7706 71.4342C56.7706 71.6494 56.8182 71.8619 56.9101 72.0564C57.002 72.251 57.1358 72.4229 57.302 72.5597C57.4682 72.6965 57.6626 72.7948 57.8713 72.8476C58.08 72.9005 58.2979 72.9065 58.5092 72.8653H62.7785C63.6972 72.8653 64.2376 73.4053 64.2376 73.8374V76.2135C64.2376 76.5915 63.6972 77.1856 62.7785 77.1856H27.0571V55.5842C29.1312 55.0057 31.0691 54.02 32.7578 52.6849C34.4465 51.3497 35.8522 49.6917 36.8926 47.8077C39.3151 43.5064 40.3883 38.577 39.973 33.6588C39.973 33.6588 39.973 33.3348 40.2972 33.2268C40.5786 33.1491 40.873 33.1307 41.1619 33.1728H41.324ZM9.87191 52.884C9.49926 52.884 9.14188 53.032 8.87837 53.2953C8.61487 53.5586 8.46684 53.9157 8.46684 54.2881V78.5897C8.45921 78.7761 8.49034 78.9621 8.55825 79.1359C8.62617 79.3097 8.72939 79.4675 8.86142 79.5995C8.99344 79.7314 9.1514 79.8345 9.32532 79.9024C9.49925 79.9703 9.68536 80.0014 9.87191 79.9938H19.8696C20.047 79.9868 20.2214 79.945 20.3827 79.8706C20.5439 79.7963 20.6889 79.6909 20.8094 79.5604C20.9299 79.43 21.0234 79.2772 21.0847 79.1106C21.146 78.944 21.1738 78.767 21.1666 78.5897V54.2881C21.1526 53.9108 20.9927 53.5537 20.7206 53.2918C20.4484 53.0299 20.0852 52.8838 19.7075 52.884H9.87191ZM11.331 55.7462H18.4645V77.3476H11.331V55.7462Z" fill="white"/>
</svg>
