<svg width="80" height="80" viewBox="0 0 80 80" fill="none" xmlns="http://www.w3.org/2000/svg">
<path d="M66.6667 52V62.12L60.9467 56.3867L59.0533 58.28L66.6667 65.88V80H69.3333V65.88L76.9467 58.28L75.0533 56.3867L69.3333 62.12V52H66.6667Z" fill="white"/>
<path d="M57.3333 61.3333H54.6666V63.9999H57.3333V61.3333Z" fill="white"/>
<path d="M61.3333 76H58.6666V78.6667H61.3333V76Z" fill="white"/>
<path d="M80 64H77.3334V66.6667H80V64Z" fill="white"/>
<path d="M74.6667 72H72V74.6667H74.6667V72Z" fill="white"/>
<path d="M80 77.3333H77.3334V79.9999H80V77.3333Z" fill="white"/>
<path d="M62.6667 68H60V70.6667H62.6667V68Z" fill="white"/>
<path d="M5.33333 62.6667C6.25945 62.6732 7.17372 62.4584 8 62.04L13.3333 68.48V80H16V68.48L21.3333 62.04C22.1596 62.4584 23.0739 62.6732 24 62.6667C25.3251 62.7509 26.6297 62.3075 27.6289 61.4331C28.6282 60.5588 29.2409 59.3246 29.3333 58C29.2409 56.6755 28.6282 55.4413 27.6289 54.567C26.6297 53.6926 25.3251 53.2491 24 53.3334C22.6749 53.2491 21.3703 53.6926 20.3711 54.567C19.3718 55.4413 18.7591 56.6755 18.6667 58C18.6755 58.8084 18.9212 59.5965 19.3733 60.2667L16 64.2667V54.5067C17.0791 54.3206 18.0628 53.7732 18.7897 52.9542C19.5165 52.1353 19.9433 51.0936 20 50C19.9076 48.6755 19.2949 47.4413 18.2956 46.567C17.2964 45.6926 15.9918 45.2491 14.6667 45.3334C13.3416 45.2491 12.037 45.6926 11.0377 46.567C10.0385 47.4413 9.42575 48.6755 9.33333 50C9.39 51.0936 9.81681 52.1353 10.5437 52.9542C11.2705 53.7732 12.2543 54.3206 13.3333 54.5067V64.32L9.96 60.32C10.4222 59.6348 10.6684 58.8266 10.6667 58C10.5742 56.6755 9.96152 55.4413 8.96227 54.567C7.96303 53.6926 6.65843 53.2491 5.33333 53.3334C4.00824 53.2491 2.70364 53.6926 1.70439 54.567C0.705144 55.4413 0.0924182 56.6755 0 58C0.0924182 59.3246 0.705144 60.5588 1.70439 61.4331C2.70364 62.3075 4.00824 62.7509 5.33333 62.6667ZM24 56C25.44 56 26.6667 56.92 26.6667 58C26.6667 59.08 25.44 60 24 60C22.56 60 21.3333 59.08 21.3333 58C21.3333 56.92 22.56 56 24 56ZM12 50C12 48.92 13.2267 48 14.6667 48C16.1067 48 17.3333 48.92 17.3333 50C17.3333 51.08 16.1067 52 14.6667 52C13.2267 52 12 51.08 12 50ZM5.33333 56C6.77333 56 8 56.92 8 58C8 59.08 6.77333 60 5.33333 60C3.89333 60 2.66667 59.08 2.66667 58C2.66667 56.92 3.89333 56 5.33333 56Z" fill="white"/>
<path d="M5.33324 39.9999C5.33345 41.3901 5.41358 42.779 5.57324 44.1599L8.23991 43.8399C8.08648 42.5656 8.00635 41.2835 7.99991 39.9999C7.979 35.0284 9.12646 30.1216 11.3498 25.6749C13.5731 21.2282 16.8102 17.3661 20.7999 14.3999L19.1999 12.2666C14.8798 15.4819 11.3745 19.6662 8.96612 24.483C6.55772 29.2998 5.3134 34.6146 5.33324 39.9999Z" fill="white"/>
<path d="M22.0799 66.5198L20.5865 68.7198C25.8553 72.2752 32.0001 74.3137 38.3492 74.6123C44.6983 74.911 51.0073 73.4583 56.5865 70.4131L55.2532 68.0798C50.0913 70.9114 44.2482 72.264 38.3671 71.9887C32.486 71.7135 26.7948 69.8211 21.9199 66.5198H22.0799Z" fill="white"/>
<path d="M71.9998 39.9999C71.985 43.0437 71.5361 46.0697 70.6665 48.9866L73.3332 49.7333C75.3078 42.9549 75.1657 35.7352 72.926 29.0398C70.6862 22.3444 66.4556 16.4925 60.7998 12.2666L59.1998 14.3999C63.1896 17.3661 66.4266 21.2282 68.6499 25.6749C70.8733 30.1216 72.0207 35.0284 71.9998 39.9999Z" fill="white"/>
<path d="M30.8933 5.17333C26.8933 5.88 24 8.61333 24 11.84C24.0299 12.8354 24.3002 13.8088 24.7877 14.6771C25.2753 15.5455 25.9657 16.2829 26.8 16.8267C26.2153 17.7235 25.9006 18.7694 25.8933 19.84C25.8933 23.6 29.8933 26.6667 34.8 26.6667C36.1188 26.6683 37.4276 26.4382 38.6667 25.9867V42.6667H41.3333V26.28C42.2859 26.5346 43.2674 26.6646 44.2533 26.6667C49.1733 26.6667 53.16 23.6 53.16 19.84C53.1477 18.9656 52.9284 18.1066 52.52 17.3333C53.5371 16.811 54.396 16.0263 55.0079 15.0604C55.6197 14.0946 55.9623 12.9827 56 11.84C56 8.33333 52.56 5.45333 48.12 5.05333C47.1067 2.10667 43.64 0 39.5333 0C35.4267 0 31.84 2.16 30.8933 5.17333ZM33.3333 6.53333C33.56 4.36 36.2933 2.66667 39.5333 2.66667C42.7733 2.66667 45.4667 4.34667 45.7333 6.49333C45.7726 6.81855 45.9303 7.11791 46.1762 7.33432C46.4221 7.55073 46.7391 7.66903 47.0667 7.66667C50.4533 7.66667 53.3067 9.57333 53.3067 11.84C53.3067 13.3467 52.0533 14.7333 50.0267 15.48C49.7105 15.6207 49.4614 15.8788 49.332 16.1997C49.2026 16.5207 49.2031 16.8794 49.3333 17.2C49.3907 17.3706 49.4865 17.5257 49.6133 17.6533C50.1941 18.2363 50.5323 19.0176 50.56 19.84C50.56 22.0933 47.7067 24 44.32 24C43.3012 24.0086 42.2893 23.8325 41.3333 23.48V20.5467L46.28 15.6133L44.3867 13.72L41.3333 16.7867V10.6667H38.6667V16.7867L35.6133 13.72L33.72 15.6133L38.6667 20.5467V23.0667C37.4745 23.692 36.1461 24.0126 34.8 24C31.4133 24 28.56 22.0933 28.56 19.84C28.5795 19.3807 28.6938 18.9303 28.8957 18.5173C29.0976 18.1043 29.3828 17.7375 29.7333 17.44C29.8628 17.3205 29.9672 17.1766 30.0407 17.0165C30.1142 16.8564 30.1552 16.6833 30.1614 16.5072C30.1676 16.3312 30.1389 16.1557 30.0768 15.9908C30.0148 15.8259 29.9207 15.675 29.8 15.5467C29.6822 15.4234 29.5419 15.3238 29.3867 15.2533C28.6674 14.9907 28.0362 14.5317 27.5649 13.9283C27.0935 13.3249 26.8008 12.6014 26.72 11.84C26.72 9.78667 29.1067 7.97333 32.16 7.70667C32.4594 7.67246 32.7384 7.53784 32.9514 7.32476C33.1645 7.11169 33.2991 6.83272 33.3333 6.53333Z" fill="white"/>
</svg>
