<svg width="80" height="80" viewBox="0 0 80 80" fill="none" xmlns="http://www.w3.org/2000/svg">
<path d="M38.5198 31.0597L39.1119 31.3022L39.6916 31.0597C40.5953 30.739 41.3866 30.2621 42.0015 29.6675C42.6165 29.0728 43.0378 28.3771 43.2315 27.6366C43.9716 24.4933 40.1973 21.2101 40.0369 21.1075L39.1119 20.3147L38.1868 21.1075C35.6089 23.3274 34.4865 25.4354 34.9799 27.3848C35.1971 28.1505 35.6243 28.8733 36.2341 29.5063C36.8439 30.1394 37.6226 30.6686 38.5198 31.0597ZM39.0749 23.1968C40.0246 24.2788 41.1347 25.9297 40.8017 27.3101C40.7181 27.6923 40.5274 28.0564 40.2423 28.3782C39.9573 28.6999 39.5844 28.9718 39.1489 29.1756C38.2527 28.6501 37.6355 27.8988 37.4097 27.0583C37.3265 26.3629 37.4312 25.662 37.7175 24.9982C38.0038 24.3343 38.4656 23.7215 39.0749 23.1968Z" fill="white"/>
<path d="M33.6725 37.1413H34.4002H35.0786L35.3869 36.6936C35.8573 35.9899 36.1257 35.2189 36.1746 34.4313C36.2235 33.6437 36.0518 32.8571 35.6706 32.1232C34.6469 30.2577 32.217 28.9706 28.4674 28.1778L27.1106 27.8979L26.9133 28.9426C26.9133 29.1198 26.1115 33.2798 28.8004 35.6303C29.4147 36.1385 30.1701 36.5375 31.0124 36.7988C31.8548 37.06 32.7632 37.177 33.6725 37.1413ZM33.3888 32.7575C33.8075 33.5573 33.8338 34.444 33.4628 35.2572C32.9372 35.2603 32.4167 35.1788 31.9361 35.0179C31.4554 34.8571 31.0256 34.6207 30.6752 34.3244C29.6126 33.1241 29.1131 31.6888 29.2568 30.2484C30.1332 30.4351 30.9509 30.7535 31.6608 31.1846C32.3708 31.6157 32.9585 32.1506 33.3888 32.7575Z" fill="white"/>
<path d="M42.9602 32.0672C42.5809 32.7998 42.4101 33.5847 42.459 34.3706C42.5079 35.1565 42.7753 35.9258 43.2439 36.6282L43.5523 37.0759H44.2307H44.9584C45.8747 37.1147 46.7909 36.9983 47.6401 36.7353C48.4894 36.4723 49.2503 36.0693 49.8674 35.5556C52.5563 33.2051 51.7916 29.0265 51.7546 28.8679L51.5572 27.814L50.2005 28.1031C46.4015 28.9146 43.984 30.2391 42.9602 32.0672ZM47.9556 34.3524C47.6039 34.6498 47.172 34.8869 46.6891 35.0478C46.2062 35.2087 45.6834 35.2896 45.1557 35.2851C44.7821 34.4627 44.8084 33.5665 45.2298 32.7574C45.6661 32.1533 46.2573 31.6211 46.9689 31.1919C47.6805 30.7627 48.4982 30.4451 49.3741 30.2577C49.5233 31.7044 49.0237 33.1469 47.9556 34.3524Z" fill="white"/>
<path d="M33.6724 48.4179C33.9068 48.4179 34.1535 48.4179 34.4001 48.4179H35.0785L35.3869 47.9702C35.8573 47.2665 36.1257 46.4955 36.1746 45.7079C36.2235 44.9203 36.0517 44.1337 35.6706 43.3998C34.6468 41.5344 32.217 40.2565 28.4674 39.4637L27.1106 39.1746L26.9132 40.2192C26.9132 40.3871 26.1115 44.5471 28.8127 46.9069C29.4256 47.4138 30.179 47.8121 31.0191 48.0733C31.8592 48.3345 32.7652 48.4522 33.6724 48.4179ZM33.3887 44.062C33.8066 44.8587 33.8329 45.7423 33.4627 46.5524C32.9372 46.5556 32.4167 46.474 31.9361 46.3132C31.4554 46.1524 31.0256 45.916 30.6752 45.6197C29.6169 44.4144 29.1179 42.9774 29.2568 41.5344C30.1359 41.7222 30.9555 42.0431 31.6657 42.4776C32.376 42.9121 32.9622 43.4511 33.3887 44.062Z" fill="white"/>
<path d="M51.7176 40.1633L51.5202 39.1187L50.1634 39.3985C46.4015 40.1913 43.9963 41.5251 42.9602 43.3439C42.5818 44.0779 42.4104 44.8637 42.4571 45.6508C42.5038 46.4378 42.7676 47.2088 43.2316 47.9143L43.5523 48.362H44.2307C44.4773 48.362 44.724 48.362 44.9584 48.362C45.8743 48.4059 46.7915 48.2929 47.6415 48.0312C48.4916 47.7696 49.2525 47.3661 49.8674 46.851C52.5193 44.5005 51.7546 40.3405 51.7176 40.1633ZM48.0173 45.6384C47.6655 45.9359 47.2337 46.173 46.7508 46.3339C46.2679 46.4947 45.7451 46.5756 45.2174 46.5711C44.8525 45.7636 44.8787 44.8843 45.2914 44.0901C45.7229 43.4812 46.3123 42.9444 47.0244 42.5117C47.7365 42.079 48.5566 41.7593 49.4357 41.5717C49.5585 43.0144 49.0373 44.4464 47.9556 45.6384H48.0173Z" fill="white"/>
<path d="M33.6725 58.8739H34.4002H35.0662L35.3746 58.4262C35.845 57.7225 36.1134 56.9516 36.1623 56.164C36.2112 55.3763 36.0394 54.5898 35.6583 53.8559C34.6345 52.0371 32.2047 50.7126 28.4551 49.9198L27.0983 49.6306L26.9009 50.6846C26.9009 50.8525 26.0992 55.0124 28.7881 57.3722C29.4048 57.88 30.1628 58.2781 31.0073 58.5377C31.8519 58.7974 32.7621 58.9122 33.6725 58.8739ZM33.3888 54.5088C33.8108 55.3081 33.8371 56.1957 33.4628 57.0085C32.9372 57.0116 32.4167 56.9301 31.9361 56.7693C31.4554 56.6084 31.0256 56.372 30.6752 56.0758C29.6143 54.8748 29.1151 53.44 29.2568 51.9997C30.1382 52.1866 30.9597 52.5082 31.6704 52.9445C32.381 53.3809 32.9659 53.9228 33.3888 54.5368V54.5088Z" fill="white"/>
<path d="M51.7176 50.6472L51.5202 49.5933L50.1634 49.8824C46.4015 50.6752 43.9963 51.9997 42.9602 53.8185C42.5818 54.5526 42.4104 55.3383 42.4571 56.1254C42.5038 56.9125 42.7676 57.6834 43.2316 58.3889L43.5523 58.8366H44.2307L44.9337 58.8739C45.857 58.912 46.7797 58.7926 47.6338 58.5246C48.4878 58.2566 49.2511 57.8468 49.8674 57.3256C52.5193 54.9751 51.7546 50.8151 51.7176 50.6472ZM48.0173 56.113C47.6655 56.4105 47.2337 56.6476 46.7508 56.8085C46.2679 56.9693 45.7451 57.0502 45.2174 57.0458C44.8527 56.235 44.8789 55.3529 45.2914 54.5554C45.7248 53.9486 46.3149 53.4138 47.0269 52.9828C47.7388 52.5518 48.5579 52.2333 49.4357 52.0463C49.5399 53.4758 49.0198 54.8916 47.9556 56.0757L48.0173 56.113Z" fill="white"/>
<path d="M33.6724 69.3764H34.4001H35.0662L35.3869 68.9287C35.8573 68.225 36.1257 67.454 36.1746 66.6664C36.2235 65.8788 36.0517 65.0922 35.6706 64.3583C34.6468 62.4929 32.217 61.215 28.4674 60.4222L27.1106 60.1331L26.9132 61.187C26.9132 61.3643 26.1115 65.5149 28.8127 67.8747C29.4268 68.38 30.1807 68.7765 31.0207 69.0361C31.8607 69.2957 32.7662 69.4119 33.6724 69.3764ZM33.3887 65.0112C33.8077 65.8077 33.834 66.6916 33.4627 67.5016C32.9372 67.5048 32.4167 67.4232 31.9361 67.2624C31.4554 67.1016 31.0256 66.8651 30.6752 66.5689C29.6143 65.3679 29.115 63.9331 29.2568 62.4929C30.1351 62.6791 30.9543 62.9984 31.6646 63.4313C32.3749 63.8642 32.9615 64.4017 33.3887 65.0112Z" fill="white"/>
<path d="M50.1634 60.3568C46.4015 61.1496 43.9963 62.4741 42.9602 64.2929C42.5818 65.0269 42.4104 65.8127 42.4571 66.5998C42.5038 67.3868 42.7676 68.1578 43.2316 68.8632L43.5523 69.311H44.2307H44.9584C45.8737 69.3509 46.7893 69.236 47.6385 68.9746C48.4877 68.7132 49.2492 68.3119 49.8674 67.7999C52.5686 65.4495 51.8039 61.2708 51.7669 61.1123L51.5696 60.0676L50.1634 60.3568ZM47.9556 66.5874C47.6039 66.8848 47.172 67.122 46.6891 67.2828C46.2062 67.4437 45.6834 67.5246 45.1557 67.5201C44.7917 66.7157 44.8179 65.8395 45.2297 65.0484C45.6572 64.4373 46.2453 63.8986 46.958 63.4656C47.6706 63.0325 48.4928 62.7141 49.374 62.53C49.515 63.9644 49.0155 65.3931 47.9556 66.5874Z" fill="white"/>
<path d="M11.9147 39.6316L12.5068 39.8741L13.0988 39.6316C13.8536 39.3597 14.5141 38.9585 15.028 38.4598C15.5418 37.9611 15.8949 37.3787 16.0591 36.7588C16.6634 34.1565 13.5922 31.4609 13.4319 31.349L12.5068 30.5469L11.5817 31.349C9.47255 33.1585 8.58449 34.9027 8.96685 36.5257C9.14739 37.1694 9.50259 37.7778 10.01 38.3125C10.5174 38.8471 11.166 39.2963 11.9147 39.6316ZM12.4821 33.5036C13.2884 34.3548 13.6924 35.3864 13.6292 36.4324C13.4983 36.9381 13.1138 37.386 12.5561 37.6822C11.9574 37.3023 11.5484 36.779 11.3967 36.1992C11.2787 35.2279 11.6683 34.2603 12.4821 33.5036Z" fill="white"/>
<path d="M8.1527 44.519H8.76941L9.43546 44.4724L9.75615 44.0247C10.142 43.4373 10.3622 42.7957 10.4025 42.1406C10.4429 41.4854 10.3025 40.8311 9.9905 40.2192C9.13944 38.7081 7.14129 37.6075 4.05772 36.9546L2.70095 36.6748L2.5036 37.7195C2.5036 37.8687 1.84989 41.2825 4.08239 43.2225C4.59257 43.6521 5.22201 43.9911 5.92568 44.2152C6.62934 44.4394 7.38982 44.5431 8.1527 44.519ZM7.70866 40.9094C7.9987 41.4624 8.03774 42.0726 7.81967 42.6443C7.46443 42.6345 7.1154 42.5709 6.79333 42.4571C6.47125 42.3434 6.18272 42.1818 5.94486 41.982C5.1904 41.1357 4.81433 40.1289 4.87178 39.1092C6.09064 39.4079 7.10802 40.0535 7.70866 40.9094Z" fill="white"/>
<path d="M15.6027 44.006L15.9234 44.4538L16.5894 44.5004H17.1938C17.9614 44.5211 18.7255 44.4131 19.4314 44.1841C20.1372 43.9551 20.7673 43.6108 21.2765 43.1759C23.4966 41.2358 22.8799 37.8221 22.8429 37.6822L22.6456 36.6282L21.2888 36.9173C18.2052 37.5609 16.2194 38.6615 15.3683 40.1725C15.0456 40.7875 14.8995 41.4474 14.9399 42.1084C14.9803 42.7693 15.2063 43.4162 15.6027 44.006ZM17.6379 40.928C18.2364 40.0633 19.2593 39.4103 20.4871 39.1092C20.5462 40.1304 20.1653 41.1386 19.4017 41.982C19.1652 42.1807 18.8787 42.3416 18.5588 42.4553C18.239 42.5691 17.8923 42.6333 17.5392 42.6443C17.3102 42.0806 17.3451 41.4745 17.6379 40.928Z" fill="white"/>
<path d="M8.1527 53.5479H8.76941H9.43546L9.75615 53.1002C10.1434 52.5098 10.3642 51.8651 10.4045 51.2068C10.4448 50.5484 10.3039 49.891 9.9905 49.2761C9.13944 47.765 7.14129 46.6644 4.05772 46.0208L2.70095 45.7317L2.5036 46.7484C2.5036 46.8883 1.84989 50.3021 4.08239 52.2421C4.59141 52.6734 5.22034 53.0141 5.92407 53.2399C6.62779 53.4657 7.38886 53.5709 8.1527 53.5479ZM7.70866 49.9383C7.9987 50.4913 8.03774 51.1015 7.81967 51.6732C7.46443 51.6634 7.1154 51.5998 6.79333 51.486C6.47125 51.3723 6.18272 51.2107 5.94486 51.0109C5.1904 50.1646 4.81433 49.1578 4.87178 48.1381C6.09064 48.4369 7.10802 49.0824 7.70866 49.9383Z" fill="white"/>
<path d="M22.8429 46.7486L22.6455 45.6946L21.2888 45.9837C18.2052 46.6273 16.2194 47.7279 15.356 49.2389C15.0456 49.8544 14.9062 50.5115 14.9465 51.1695C14.9868 51.8274 15.206 52.4721 15.5903 53.0631L15.911 53.5108H16.5894H17.1938C17.9613 53.5309 18.7251 53.4226 19.4308 53.1936C20.1366 52.9647 20.7668 52.6207 21.2764 52.1864C23.4966 50.2836 22.8799 46.8698 22.8429 46.7486ZM19.4016 51.0111C19.1638 51.2109 18.8752 51.3725 18.5532 51.4862C18.2311 51.6 17.8821 51.6636 17.5268 51.6734C17.3104 51.1085 17.3451 50.5056 17.6255 49.9571C18.2352 49.0955 19.2598 48.4443 20.487 48.1383C20.5462 49.1595 20.1653 50.1677 19.4016 51.0111Z" fill="white"/>
<path d="M8.1527 61.9331H8.76941L9.43546 61.8865L9.75615 61.4481C10.1434 60.8578 10.3642 60.213 10.4045 59.5547C10.4448 58.8963 10.3039 58.2389 9.9905 57.624C9.13944 56.1129 7.14129 55.0123 4.05772 54.3687L2.70095 54.0796L2.5036 55.1429C2.5036 55.2828 1.84989 58.6966 4.08239 60.6367C4.59257 61.0662 5.22201 61.4052 5.92568 61.6294C6.62934 61.8535 7.38982 61.9572 8.1527 61.9331ZM7.70866 58.3235C7.9987 58.8765 8.03774 59.4867 7.81967 60.0584C7.46495 60.0466 7.11678 59.982 6.79508 59.8684C6.47339 59.7548 6.18447 59.5943 5.94486 59.3961C5.1904 58.5498 4.81433 57.543 4.87178 56.5233C6.09064 56.8221 7.10802 57.4676 7.70866 58.3235Z" fill="white"/>
<path d="M22.8429 55.1431L22.6455 54.0891L21.2888 54.3783C18.2052 55.0218 16.2194 56.1225 15.356 57.6335C15.0463 58.249 14.9073 58.9061 14.9476 59.564C14.9879 60.2218 15.2067 60.8664 15.5903 61.4576L15.911 61.9054H16.5894H17.1938C17.9613 61.9254 18.7251 61.8171 19.4308 61.5881C20.1366 61.3592 20.7668 61.0153 21.2764 60.5809C23.4966 58.6688 22.8799 55.255 22.8429 55.1431ZM19.4016 59.3963C19.1638 59.5961 18.8752 59.7577 18.5532 59.8714C18.2311 59.9852 17.8821 60.0488 17.5268 60.0586C17.3104 59.4937 17.3451 58.8908 17.6255 58.3423C18.2228 57.4631 19.249 56.7941 20.487 56.4769C20.5598 57.5138 20.1783 58.54 19.4016 59.3963Z" fill="white"/>
<path d="M4.05772 62.7354L2.70095 62.4463L2.5036 63.5376C2.5036 63.6868 1.84989 67.0913 4.08239 69.0407C4.58908 69.4753 5.21698 69.8196 5.92082 70.0486C6.62467 70.2776 7.38694 70.3857 8.1527 70.3651H8.75708H9.43546L9.75615 69.9174C10.1438 69.3288 10.3649 68.6855 10.4052 68.0287C10.4456 67.3718 10.3043 66.7158 9.9905 66.1026C9.16411 64.4703 7.14129 63.379 4.05772 62.7354ZM7.81967 68.4437C7.46495 68.4319 7.11678 68.3674 6.79508 68.2537C6.47339 68.1401 6.18447 67.9796 5.94486 67.7815C5.1904 66.9352 4.81433 65.9284 4.87178 64.9087C6.09064 65.2074 7.10802 65.853 7.70866 66.7089C7.9987 67.2619 8.03774 67.8721 7.81967 68.4437Z" fill="white"/>
<path d="M21.289 62.7353C18.2054 63.3789 16.2196 64.4795 15.3685 65.9905C15.0522 66.605 14.9096 67.2627 14.9499 67.9214C14.9903 68.58 15.2127 69.225 15.6029 69.8147L15.9236 70.2531H16.5896H17.194C17.9616 70.2738 18.7257 70.1657 19.4316 69.9367C20.1374 69.7078 20.7675 69.3635 21.2766 68.9286C23.4968 66.9792 22.8801 63.5747 22.8431 63.4255L22.6457 62.3809L21.289 62.7353ZM19.4018 67.772C19.1688 67.9745 18.8832 68.1386 18.5628 68.2541C18.2425 68.3696 17.8941 68.4341 17.5394 68.4436C17.3096 67.8737 17.3444 67.2616 17.638 66.7087C18.2416 65.851 19.2638 65.2052 20.4872 64.9085C20.5491 65.9271 20.1678 66.9329 19.4018 67.772Z" fill="white"/>
<path d="M65.1989 39.6316L65.7909 39.8741L66.383 39.6316C67.1349 39.358 67.7925 38.9561 68.304 38.4576C68.8156 37.9591 69.1671 37.3776 69.3309 36.7588C69.9352 34.1565 66.864 31.4609 66.716 31.349L65.7909 30.5469L64.8659 31.349C62.7444 33.1585 61.8686 34.9027 62.2017 36.4883C62.3837 37.1414 62.7445 37.7584 63.2606 38.2997C63.7768 38.841 64.437 39.2947 65.1989 39.6316ZM65.7539 33.5036C66.5602 34.3548 66.9642 35.3864 66.901 36.4324C66.7701 36.9381 66.3856 37.386 65.8279 37.6822C65.2357 37.2942 64.8284 36.7699 64.6685 36.1899C64.5537 35.2217 64.9432 34.2579 65.7539 33.5036Z" fill="white"/>
<path d="M61.437 44.5192H62.0414L62.7074 44.4726L63.0281 44.0248C63.4192 43.4387 63.6422 42.7968 63.6826 42.141C63.723 41.4852 63.5798 40.8304 63.2625 40.2193C62.4114 38.7083 60.4133 37.6077 57.3297 36.9641L56.0346 36.647L55.7879 37.701C55.7879 37.8409 55.1342 41.2546 57.3544 43.1947C57.8635 43.6296 58.4936 43.9739 59.1994 44.2029C59.9053 44.4319 60.6694 44.5399 61.437 44.5192ZM60.9683 40.9095C61.271 41.4605 61.3102 42.074 61.0793 42.6444C60.7259 42.6345 60.3788 42.5707 60.0588 42.4569C59.7387 42.3431 59.4524 42.1817 59.2168 41.9822C58.4532 41.1387 58.0723 40.1306 58.1314 39.1094C59.3503 39.4081 60.3677 40.0537 60.9683 40.9095Z" fill="white"/>
<path d="M68.8744 44.0062L69.1951 44.4539L69.8612 44.5005H70.4655C71.2294 44.5235 71.9904 44.4183 72.6942 44.1925C73.3979 43.9667 74.0268 43.626 74.5359 43.1947C76.7684 41.2453 76.1393 37.8409 76.1146 37.701L75.905 36.647L74.5359 36.9361C71.4523 37.5797 69.4541 38.6803 68.6031 40.1913C68.2896 40.8057 68.1517 41.4632 68.1985 42.1207C68.2452 42.7783 68.4756 43.4208 68.8744 44.0062ZM70.9096 40.9282C71.5081 40.0634 72.531 39.4105 73.7588 39.1094C73.8163 40.1291 73.4402 41.1359 72.6857 41.9822C72.4507 42.1797 72.1662 42.34 71.8485 42.4537C71.5309 42.5674 71.1866 42.6322 70.8356 42.6444C70.6113 42.0816 70.6373 41.4787 70.9096 40.9282Z" fill="white"/>
<path d="M61.437 53.548H62.0414H62.7074L63.0281 53.1003C63.4183 52.5106 63.6407 51.8656 63.6811 51.207C63.7214 50.5483 63.5789 49.8906 63.2625 49.2761C62.4114 47.7651 60.4133 46.6645 57.3297 46.0209L56.0346 45.6758L55.7879 46.7484C55.7879 46.8883 55.1342 50.3021 57.3544 52.2422C57.8658 52.6737 58.497 53.0144 59.2027 53.2402C59.9084 53.4659 60.6713 53.571 61.437 53.548ZM60.9683 49.9383C61.271 50.4893 61.3102 51.1028 61.0793 51.6732C60.7259 51.6633 60.3788 51.5995 60.0588 51.4858C59.7387 51.372 59.4524 51.2105 59.2168 51.011C58.4532 50.1675 58.0723 49.1594 58.1314 48.1382C59.3503 48.4369 60.3677 49.0825 60.9683 49.9383Z" fill="white"/>
<path d="M76.1269 46.7486L75.9296 45.6946L74.5728 45.9837C71.4892 46.6273 69.4911 47.7279 68.64 49.2389C68.3259 49.8538 68.1845 50.5113 68.2249 51.1697C68.2652 51.8281 68.4864 52.4729 68.8744 53.0631L69.1951 53.5108H69.8611H70.4655C71.2261 53.5353 71.9847 53.4336 72.6878 53.2129C73.391 52.9921 74.0217 52.6577 74.5358 52.233C76.7806 50.2836 76.1516 46.8698 76.1269 46.7486ZM72.6857 51.0111C72.4478 51.2109 72.1593 51.3725 71.8372 51.4862C71.5151 51.6 71.1661 51.6636 70.8108 51.6734C70.5944 51.1085 70.6291 50.5056 70.9095 49.9571C71.5081 49.0924 72.5309 48.4394 73.7587 48.1383C73.8162 49.158 73.4401 50.1648 72.6857 51.0111Z" fill="white"/>
<path d="M61.437 61.9333H62.0414L62.7074 61.8866L63.0281 61.4389C63.421 60.8515 63.645 60.208 63.6854 59.5505C63.7257 58.893 63.5816 58.2364 63.2625 57.6241C62.4114 56.113 60.4133 55.0124 57.3297 54.3688L56.0346 54.061L55.7879 55.143C55.7879 55.2922 55.1342 58.706 57.3544 60.6461C57.8681 61.0742 58.5003 61.4115 59.2059 61.6339C59.9115 61.8564 60.6733 61.9586 61.437 61.9333ZM60.9683 58.3236C61.271 58.8745 61.3102 59.488 61.0793 60.0585C60.7264 60.0465 60.3802 59.9818 60.0605 59.8681C59.7409 59.7545 59.4541 59.5941 59.2168 59.3962C58.4532 58.5528 58.0723 57.5447 58.1314 56.5234C59.3503 56.8222 60.3677 57.4678 60.9683 58.3236Z" fill="white"/>
<path d="M76.127 55.1431L75.9297 54.0891L74.5729 54.3783C71.4893 55.0218 69.4912 56.1225 68.6401 57.6335C68.3267 58.2484 68.1858 58.9059 68.2261 59.5642C68.2664 60.2225 68.4872 60.8673 68.8745 61.4576L69.1951 61.9054H69.8612H70.4656C71.2285 61.9294 71.9889 61.8257 72.6926 61.6016C73.3963 61.3774 74.0257 61.0385 74.5359 60.6089C76.7807 58.6688 76.1517 55.255 76.127 55.1431ZM72.6857 59.3963C72.4479 59.5961 72.1594 59.7577 71.8373 59.8714C71.5152 59.9852 71.1662 60.0488 70.8109 60.0586C70.5945 59.4937 70.6292 58.8908 70.9096 58.3423C71.4955 57.4599 72.5201 56.7891 73.7588 56.4769C73.8297 57.5123 73.453 58.5371 72.6857 59.3963Z" fill="white"/>
<path d="M61.437 70.3185H62.0414H62.7074L63.0281 69.8708C63.421 69.2834 63.645 68.6398 63.6854 67.9823C63.7257 67.3248 63.5816 66.6683 63.2625 66.0559C62.4114 64.5449 60.4133 63.4443 57.3297 62.7914L56.0346 62.4463L55.7879 63.5376C55.7879 63.6868 55.1342 67.0913 57.3544 69.0407C57.8693 69.4671 58.5019 69.8026 59.2075 70.0234C59.913 70.2443 60.6742 70.345 61.437 70.3185ZM60.9683 66.7089C61.271 67.2598 61.3102 67.8733 61.0793 68.4437C60.7264 68.4317 60.3802 68.367 60.0605 68.2534C59.7409 68.1397 59.4541 67.9793 59.2168 67.7815C58.4532 66.938 58.0723 65.9299 58.1314 64.9087C59.3503 65.2074 60.3677 65.853 60.9683 66.7089Z" fill="white"/>
<path d="M74.5359 62.7354C71.4523 63.379 69.4542 64.4796 68.6031 65.9906C68.284 66.603 68.1398 67.2595 68.1802 67.9171C68.2206 68.5746 68.4446 69.2181 68.8375 69.8055L69.1581 70.2532H69.8242H70.4286C71.1937 70.2861 71.959 70.1903 72.6693 69.9725C73.3795 69.7548 74.0171 69.4206 74.5359 68.994C76.7684 67.054 76.1393 63.6402 76.1147 63.5003L75.905 62.4463L74.5359 62.7354ZM72.6857 67.7815C72.4479 67.9813 72.1594 68.1428 71.8373 68.2566C71.5152 68.3704 71.1662 68.434 70.8109 68.4437C70.5945 67.8758 70.6291 67.2699 70.9096 66.7182C71.5107 65.8569 72.5332 65.2075 73.7588 64.9087C73.8163 65.9284 73.4402 66.9352 72.6857 67.7815Z" fill="white"/>
<path d="M78.2361 75.2524H67.0243V40.1912H64.5574V75.2524H40.3329V31.9646H37.8661V75.2524H13.7403V40.1912H11.2734V75.2524H1.72668V77.1179H78.2361V75.2524Z" fill="white"/>
<path d="M28.9115 78.1345H0V80H28.9115V78.1345Z" fill="white"/>
<path d="M79.9999 78.1345H37.8661V80H79.9999V78.1345Z" fill="white"/>
<path d="M39.112 4.43042C37.8922 4.43042 36.6999 4.70394 35.6857 5.21638C34.6715 5.72883 33.881 6.45719 33.4143 7.30936C32.9475 8.16153 32.8254 9.09923 33.0633 10.0039C33.3013 10.9085 33.8886 11.7395 34.7511 12.3917C35.6136 13.044 36.7125 13.4881 37.9088 13.6681C39.1051 13.848 40.3451 13.7557 41.472 13.4027C42.5989 13.0497 43.5621 12.452 44.2397 11.685C44.9174 10.9181 45.2791 10.0164 45.2791 9.09405C45.2791 7.85718 44.6293 6.67097 43.4728 5.79637C42.3162 4.92177 40.7476 4.43042 39.112 4.43042ZM39.112 11.8922C38.3801 11.8922 37.6647 11.7281 37.0562 11.4207C36.4477 11.1132 35.9734 10.6762 35.6933 10.1649C35.4133 9.65357 35.34 9.09095 35.4828 8.54816C35.6256 8.00536 35.978 7.50677 36.4955 7.11544C37.013 6.72411 37.6723 6.45761 38.3901 6.34964C39.1079 6.24167 39.8519 6.29708 40.528 6.50887C41.2041 6.72066 41.782 7.07931 42.1886 7.53947C42.5952 7.99963 42.8122 8.54063 42.8122 9.09405C42.8122 9.83618 42.4224 10.5479 41.7285 11.0727C41.0345 11.5974 40.0933 11.8922 39.112 11.8922Z" fill="white"/>
<path d="M40.3454 0H37.8785V3.81485H40.3454V0Z" fill="white"/>
<path d="M40.3454 14.4666H37.8785V18.2814H40.3454V14.4666Z" fill="white"/>
<path d="M51.187 8.20801H46.1423V10.0735H51.187V8.20801Z" fill="white"/>
<path d="M32.0567 8.20801H27.012V10.0735H32.0567V8.20801Z" fill="white"/>
<path d="M44.9612 12.2522L43.2169 13.5713L46.7841 16.2688L48.5284 14.9497L44.9612 12.2522Z" fill="white"/>
<path d="M31.4327 2.01395L29.6887 3.33325L33.2565 6.03029L35.0005 4.71098L31.4327 2.01395Z" fill="white"/>
<path d="M33.2534 12.2444L29.6869 14.9424L31.4315 16.2612L34.9981 13.5632L33.2534 12.2444Z" fill="white"/>
<path d="M46.7789 2.01367L43.2118 4.71118L44.9561 6.03026L48.5233 3.33275L46.7789 2.01367Z" fill="white"/>
</svg>
