<svg width="80" height="80" viewBox="0 0 80 80" fill="none" xmlns="http://www.w3.org/2000/svg">
<path d="M38.3332 38.6725H39.9998C40.8839 38.6725 41.7317 38.3916 42.3569 37.8915C42.982 37.3915 43.3332 36.7133 43.3332 36.0062V30.6736H51.6665C52.1085 30.6736 52.5325 30.5332 52.845 30.2831C53.1576 30.0331 53.3332 29.694 53.3332 29.3405C53.3332 28.9869 53.1576 28.6478 52.845 28.3978C52.5325 28.1478 52.1085 28.0073 51.6665 28.0073H43.3332C42.4491 28.0073 41.6013 28.2882 40.9761 28.7883C40.351 29.2883 39.9998 29.9665 39.9998 30.6736V36.0062H38.3332C37.8911 36.0062 37.4672 36.1466 37.1547 36.3967C36.8421 36.6467 36.6665 36.9858 36.6665 37.3393C36.6665 37.6929 36.8421 38.032 37.1547 38.282C37.4672 38.532 37.8911 38.6725 38.3332 38.6725Z" fill="white"/>
<path d="M28.3332 30.6736H34.9998C35.4419 30.6736 35.8658 30.5332 36.1783 30.2831C36.4909 30.0331 36.6665 29.694 36.6665 29.3405C36.6665 28.9869 36.4909 28.6478 36.1783 28.3978C35.8658 28.1478 35.4419 28.0073 34.9998 28.0073H28.3332C27.8911 28.0073 27.4672 28.1478 27.1547 28.3978C26.8421 28.6478 26.6665 28.9869 26.6665 29.3405C26.6665 29.694 26.8421 30.0331 27.1547 30.2831C27.4672 30.5332 27.8911 30.6736 28.3332 30.6736Z" fill="white"/>
<path d="M5 24.0079H16.6667V26.6742C14.8986 26.6742 13.2029 27.236 11.9526 28.2361C10.7024 29.2361 10 30.5925 10 32.0068C10 33.4211 10.7024 34.7774 11.9526 35.7775C13.2029 36.7775 14.8986 37.3393 16.6667 37.3393H16.75C17.1298 40.5178 18.6718 43.5364 21.1833 46.0181C17.4595 46.9517 14.2053 48.8114 11.8942 51.3266C9.58309 53.8418 8.33563 56.8813 8.33333 60.0028V79.9999H11.6667V68.0016H18.3333V79.9999H21.6667V48.6977C22.3975 48.485 23.1504 48.3244 23.9167 48.2178C24.7723 48.8073 25.6927 49.3338 26.6667 49.7909V50.6708C26.6696 53.2668 27.8562 55.7728 30.004 57.7191C32.1518 59.6653 35.1133 60.9181 38.3333 61.2426V64.0022H41.6667V61.2426C44.8867 60.9181 47.8482 59.6653 49.996 57.7191C52.1438 55.7728 53.3304 53.2668 53.3333 50.6708V49.7909C54.3073 49.3338 55.2277 48.8073 56.0833 48.2178C56.8496 48.3244 57.6025 48.485 58.3333 48.6977V79.9999H61.6667V68.0016H68.3333V79.9999H71.6667V60.0028C71.6644 56.8813 70.4169 53.8418 68.1058 51.3266C65.7947 48.8114 62.5405 46.9517 58.8167 46.0181C61.3583 43.5443 62.9296 40.525 63.3333 37.3393C65.1014 37.3393 66.7971 36.7775 68.0474 35.7775C69.2976 34.7774 70 33.4211 70 32.0068C70 30.5925 69.2976 29.2361 68.0474 28.2361C66.7971 27.236 65.1014 26.6742 63.3333 26.6742V24.0079H75C76.3261 24.0079 77.5978 23.5865 78.5355 22.8365C79.4732 22.0865 80 21.0692 80 20.0085C80 18.9478 79.4732 17.9305 78.5355 17.1805C77.5978 16.4304 76.3261 16.009 75 16.009H62.9667L60.1333 6.93034C59.6423 5.3615 58.6399 3.92487 57.2284 2.76694C55.8169 1.60901 54.0467 0.771182 52.0984 0.33889C50.1501 -0.093402 48.0934 -0.1047 46.1378 0.306148C44.1823 0.716996 42.3979 1.53529 40.9667 2.67761L40 3.46417L39.0333 2.67761C36.8893 0.963137 33.9817 0 30.95 0C27.9183 0 25.0107 0.963137 22.8667 2.67761C21.4105 3.85061 20.3745 5.31464 19.8667 6.91701L17.0333 16.009H5C3.67392 16.009 2.40215 16.4304 1.46447 17.1805C0.526784 17.9305 0 18.9478 0 20.0085C0 21.0692 0.526784 22.0865 1.46447 22.8365C2.40215 23.5865 3.67392 24.0079 5 24.0079ZM13.3333 32.0068C13.3333 31.2996 13.6845 30.6214 14.3096 30.1214C14.9348 29.6214 15.7826 29.3405 16.6667 29.3405V34.6731C15.7826 34.6731 14.9348 34.3921 14.3096 33.8921C13.6845 33.3921 13.3333 32.7139 13.3333 32.0068ZM18.3333 65.3354H11.6667V60.0028C11.6748 58.0315 12.2868 56.0918 13.449 54.3534C14.6112 52.615 16.2882 51.1309 18.3333 50.0309V65.3354ZM40 58.6696C37.4267 58.6719 34.9514 57.8806 33.0889 56.4603C31.2264 55.04 30.1201 53.1001 30 51.0441C32.1926 51.6735 34.5038 51.9981 36.8333 52.0039H43.1333C45.4632 52.0005 47.7748 51.6758 49.9667 51.0441C49.8469 53.0955 48.7452 55.0315 46.8898 56.4511C45.0344 57.8707 42.5675 58.665 40 58.6696ZM68.3333 60.0028V65.3354H61.6667V50.0309C63.7118 51.1309 65.3888 52.615 66.551 54.3534C67.7132 56.0918 68.3252 58.0315 68.3333 60.0028ZM66.6667 32.0068C66.6667 32.7139 66.3155 33.3921 65.6904 33.8921C65.0652 34.3921 64.2174 34.6731 63.3333 34.6731V29.3405C64.2174 29.3405 65.0652 29.6214 65.6904 30.1214C66.3155 30.6214 66.6667 31.2996 66.6667 32.0068ZM60 28.0073V35.8596C60 39.4342 58.2247 42.8624 55.0647 45.39C51.9048 47.9176 47.6189 49.3376 43.15 49.3376H36.85C32.3811 49.3376 28.0952 47.9176 24.9353 45.39C21.7753 42.8624 20 39.4342 20 35.8596V24.0079H60V28.0073ZM23.1 7.58358C23.4536 6.47658 24.1661 5.46382 25.1657 4.64759C26.1652 3.83137 27.4163 3.24059 28.7927 2.93493C30.169 2.62927 31.6218 2.61956 33.0044 2.90677C34.3869 3.19397 35.6502 3.76794 36.6667 4.57068L38.8 6.29043L42.1333 8.95672L44.5 7.06365L42.35 5.3439L43.3333 4.57068C44.8543 3.36012 46.9127 2.68054 49.0583 2.68054C51.204 2.68054 53.2623 3.36012 54.7833 4.57068C55.819 5.404 56.5558 6.44456 56.9167 7.58358L57.8667 10.6765H22.1333L23.1 7.58358ZM21.3 13.3428H58.7L59.5333 16.009H20.4667L21.3 13.3428ZM5 18.6753H75C75.442 18.6753 75.866 18.8158 76.1785 19.0658C76.4911 19.3158 76.6667 19.6549 76.6667 20.0085C76.6667 20.362 76.4911 20.7011 76.1785 20.9512C75.866 21.2012 75.442 21.3416 75 21.3416H5C4.55797 21.3416 4.13405 21.2012 3.82149 20.9512C3.50893 20.7011 3.33333 20.362 3.33333 20.0085C3.33333 19.6549 3.50893 19.3158 3.82149 19.0658C4.13405 18.8158 4.55797 18.6753 5 18.6753Z" fill="white"/>
<path d="M41.6665 44.0051H38.3332C37.8911 44.0051 37.4672 44.1456 37.1547 44.3956C36.8421 44.6456 36.6665 44.9847 36.6665 45.3383C36.6665 45.6918 36.8421 46.0309 37.1547 46.2809C37.4672 46.531 37.8911 46.6714 38.3332 46.6714H41.6665C42.1085 46.6714 42.5325 46.531 42.845 46.2809C43.1576 46.0309 43.3332 45.6918 43.3332 45.3383C43.3332 44.9847 43.1576 44.6456 42.845 44.3956C42.5325 44.1456 42.1085 44.0051 41.6665 44.0051Z" fill="white"/>
<path d="M78.3333 68.0017H75V70.668H78.3333V68.0017Z" fill="white"/>
<path d="M78.3333 60.0028C78.33 57.0883 77.5302 54.2095 75.9899 51.5682C74.4497 48.9268 72.2062 46.5867 69.4167 44.7117L67.25 46.7514C69.6768 48.371 71.6289 50.3975 72.9681 52.6874C74.3074 54.9773 75.001 57.4747 75 60.0028V65.3354H78.3333V60.0028Z" fill="white"/>
<path d="M38.3333 80.0001V70.6681C38.3333 70.3145 38.1577 69.9754 37.8452 69.7254C37.5326 69.4754 37.1087 69.335 36.6667 69.335H26.6667C26.2246 69.335 25.8007 69.4754 25.4882 69.7254C25.1756 69.9754 25 70.3145 25 70.6681V80.0001H28.3333V77.3338H35V80.0001H38.3333ZM28.3333 74.6675V72.0012H35V74.6675H28.3333Z" fill="white"/>
<path d="M54.9998 80.0001V70.6681C54.9998 70.3145 54.8242 69.9754 54.5117 69.7254C54.1991 69.4754 53.7752 69.335 53.3332 69.335H43.3332C42.8911 69.335 42.4672 69.4754 42.1547 69.7254C41.8421 69.9754 41.6665 70.3145 41.6665 70.6681V80.0001H44.9998V77.3338H51.6665V80.0001H54.9998ZM44.9998 74.6675V72.0012H51.6665V74.6675H44.9998Z" fill="white"/>
<path d="M28.3333 61.3359H25V64.0022H28.3333V61.3359Z" fill="white"/>
<path d="M54.9998 61.3359H51.6665V64.0022H54.9998V61.3359Z" fill="white"/>
<path d="M4.99996 58.6697H1.66663V77.3337H4.99996V58.6697Z" fill="white"/>
<path d="M31.6667 34.6731C32.5871 34.6731 33.3333 34.0763 33.3333 33.34C33.3333 32.6037 32.5871 32.0068 31.6667 32.0068C30.7462 32.0068 30 32.6037 30 33.34C30 34.0763 30.7462 34.6731 31.6667 34.6731Z" fill="white"/>
<path d="M48.3332 34.6731C49.2536 34.6731 49.9998 34.0763 49.9998 33.34C49.9998 32.6037 49.2536 32.0068 48.3332 32.0068C47.4127 32.0068 46.6665 32.6037 46.6665 33.34C46.6665 34.0763 47.4127 34.6731 48.3332 34.6731Z" fill="white"/>
</svg>
