<svg width="25" height="26" viewBox="0 0 25 26" fill="none" xmlns="http://www.w3.org/2000/svg">
<circle cx="12.418" cy="12.929" r="12.3902" fill="#1AB56D" fill-opacity="0.7"/>
<path d="M12.613 6.50293C8.76438 6.50293 5.64404 9.62298 5.64404 13.4719C5.64404 17.3207 8.76409 20.4408 12.613 20.4408C16.4621 20.4408 19.5819 17.3207 19.5819 13.4719C19.5819 9.62298 16.4621 6.50293 12.613 6.50293ZM16.1729 11.038C16.1831 11.0263 16.1921 11.011 16.2063 11.0081C16.2063 11.0081 16.204 11.0127 16.1825 11.0528C16.1933 11.0708 16.204 11.0885 16.2142 11.1068C16.5951 11.1805 16.8777 11.2758 16.8777 11.3376C16.8777 11.3864 16.7049 11.4811 16.4482 11.5827C16.5565 11.8446 16.6454 12.128 16.7078 12.4286C16.9012 13.3577 16.8036 14.2402 16.4961 14.8613C15.9761 16.5774 14.3834 17.8277 12.4965 17.8277C10.7238 17.8277 9.21243 16.722 8.60497 15.1644C9.29867 15.6775 10.1538 15.9836 11.0827 15.9836C11.6007 15.9836 12.0947 15.8849 12.5526 15.7118C12.0546 15.7469 11.5418 15.6813 11.0441 15.4923C9.36719 14.8569 9.05504 12.8513 9.05504 12.8513C8.93018 12.0493 9.11021 11.9947 9.45489 12.7294C9.45489 12.7294 9.86344 13.5993 11.063 14.0538C11.0946 14.066 11.1271 14.0738 11.1594 14.084C11.139 14.0744 11.1178 14.066 11.0975 14.0549C9.51557 13.2117 9.46186 11.1817 9.46186 11.1817C9.44037 10.3707 9.62592 10.3393 9.87418 11.1114C9.87418 11.1114 10.1683 12.0267 11.2999 12.6301C11.8682 12.9335 12.4811 13.0639 13.0819 13.0456C12.8017 11.486 13.3311 10.0861 14.2992 9.88402C14.7347 9.79343 15.1863 9.96097 15.5844 10.3126C15.6993 10.2981 15.8271 10.2987 15.9624 10.3187C16.465 10.3942 16.8768 10.5179 16.8768 10.5931C16.8768 10.6605 16.5484 10.815 16.1207 10.9549C16.139 10.984 16.1558 11.0098 16.1729 11.038Z" fill="black"/>
</svg>
