<svg width="25" height="27" viewBox="0 0 25 27" fill="none" xmlns="http://www.w3.org/2000/svg">
<circle cx="12.3902" cy="12.3902" r="12.3902" fill="#1AB56D" fill-opacity="0.7"/>
<path d="M8.82 11.66H10.07V17H8.82V11.66ZM9.45 10.78C9.22333 10.78 9.03333 10.71 8.88 10.57C8.72667 10.4233 8.65 10.2433 8.65 10.03C8.65 9.81667 8.72667 9.64 8.88 9.5C9.03333 9.35333 9.22333 9.28 9.45 9.28C9.67667 9.28 9.86667 9.35 10.02 9.49C10.1733 9.62333 10.25 9.79333 10.25 10C10.25 10.22 10.1733 10.4067 10.02 10.56C9.87333 10.7067 9.68333 10.78 9.45 10.78ZM14.7406 11.6C15.414 11.6 15.954 11.7967 16.3606 12.19C16.7673 12.5833 16.9706 13.1667 16.9706 13.94V17H15.7206V14.1C15.7206 13.6333 15.6106 13.2833 15.3906 13.05C15.1706 12.81 14.8573 12.69 14.4506 12.69C13.9906 12.69 13.6273 12.83 13.3606 13.11C13.094 13.3833 12.9606 13.78 12.9606 14.3V17H11.7106V11.66H12.9006V12.35C13.1073 12.1033 13.3673 11.9167 13.6806 11.79C13.994 11.6633 14.3473 11.6 14.7406 11.6Z" fill="black"/>
<rect x="6.5" y="6.5" width="12" height="13" stroke="black"/>
</svg>
