<svg width="350" height="141" viewBox="0 0 350 141" fill="none" xmlns="http://www.w3.org/2000/svg">
<rect width="350" height="141" rx="20" fill="#20A94B"/>
<path d="M65 0H331C341.493 0 350 8.50659 350 19V121C350 132.046 341.046 141 330 141H65V0Z" fill="#5FF68E"/>
<path d="M31.9668 70.418C31.9668 73.957 31.2344 76.6641 29.7695 78.5391C28.3047 80.4141 26.1602 81.3516 23.3359 81.3516C20.5469 81.3516 18.4141 80.4316 16.9375 78.5918C15.4609 76.752 14.7051 74.1152 14.6699 70.6816V65.9707C14.6699 62.3965 15.4082 59.6836 16.8848 57.832C18.373 55.9805 20.5117 55.0547 23.3008 55.0547C26.0898 55.0547 28.2227 55.9746 29.6992 57.8145C31.1758 59.6426 31.9316 62.2734 31.9668 65.707V70.418ZM26.8867 65.25C26.8867 63.1289 26.5938 61.5879 26.0078 60.627C25.4336 59.6543 24.5312 59.168 23.3008 59.168C22.1055 59.168 21.2207 59.6309 20.6465 60.5566C20.084 61.4707 19.7852 62.9062 19.75 64.8633V71.0859C19.75 73.1719 20.0312 74.7246 20.5938 75.7441C21.168 76.752 22.082 77.2559 23.3359 77.2559C24.5781 77.2559 25.4746 76.7695 26.0254 75.7969C26.5762 74.8242 26.8633 73.3359 26.8867 71.332V65.25ZM40.5801 65.9531H43.2871C44.5762 65.9531 45.5312 65.6309 46.1523 64.9863C46.7734 64.3418 47.084 63.4863 47.084 62.4199C47.084 61.3887 46.7734 60.5859 46.1523 60.0117C45.543 59.4375 44.6992 59.1504 43.6211 59.1504C42.6484 59.1504 41.834 59.4199 41.1777 59.959C40.5215 60.4863 40.1934 61.1777 40.1934 62.0332H35.1133C35.1133 60.6973 35.4707 59.502 36.1855 58.4473C36.9121 57.3809 37.9199 56.5488 39.209 55.9512C40.5098 55.3535 41.9395 55.0547 43.498 55.0547C46.2051 55.0547 48.3262 55.7051 49.8613 57.0059C51.3965 58.2949 52.1641 60.0762 52.1641 62.3496C52.1641 63.5215 51.8066 64.5996 51.0918 65.584C50.377 66.5684 49.4395 67.3242 48.2793 67.8516C49.7207 68.3672 50.793 69.1406 51.4961 70.1719C52.2109 71.2031 52.5684 72.4219 52.5684 73.8281C52.5684 76.1016 51.7363 77.9238 50.0723 79.2949C48.4199 80.666 46.2285 81.3516 43.498 81.3516C40.9434 81.3516 38.8516 80.6777 37.2227 79.3301C35.6055 77.9824 34.7969 76.2012 34.7969 73.9863H39.877C39.877 74.9473 40.2344 75.7324 40.9492 76.3418C41.6758 76.9512 42.5664 77.2559 43.6211 77.2559C44.8281 77.2559 45.7715 76.9395 46.4512 76.3066C47.1426 75.6621 47.4883 74.8125 47.4883 73.7578C47.4883 71.2031 46.082 69.9258 43.2695 69.9258H40.5801V65.9531Z" fill="white"/>
<path d="M175.889 44H163.101C161.849 40.52 158.487 38 154.5 38C150.513 38 147.151 40.52 145.899 44H133.111C129.735 44 127 46.685 127 50V92C127 95.315 129.735 98 133.111 98H175.889C179.265 98 182 95.315 182 92V50C182 46.685 179.265 44 175.889 44ZM154.5 44C156.181 44 157.556 45.335 157.556 47C157.556 48.665 156.181 50 154.5 50C152.819 50 151.444 48.665 151.444 47C151.444 45.335 152.819 44 154.5 44ZM148.389 86L136.167 74L140.49 69.755L148.389 77.51L168.51 57.755L172.833 62L148.389 86Z" fill="white"/>
<path d="M272.9 39H224.1C220.73 39 218 41.7297 218 45.1V78.65C218 82.0202 220.73 84.75 224.1 84.75H236.3V100L248.5 93.9L260.7 100V84.75H272.9C276.27 84.75 279 82.0202 279 78.65V45.1C279 41.7297 276.27 39 272.9 39ZM272.9 78.65H224.1V72.55H272.9V78.65ZM272.9 63.4H224.1V45.1H272.9V63.4Z" fill="white"/>
</svg>
