<svg width="350" height="141" viewBox="0 0 350 141" fill="none" xmlns="http://www.w3.org/2000/svg">
<rect width="350" height="141" rx="20" fill="#475728"/>
<path d="M65 0H331C341.493 0 350 8.50659 350 19V121C350 132.046 341.046 141 330 141H65V0Z" fill="#92A560"/>
<path d="M34.9668 76.418C34.9668 79.957 34.2344 82.6641 32.7695 84.5391C31.3047 86.4141 29.1602 87.3516 26.3359 87.3516C23.5469 87.3516 21.4141 86.4316 19.9375 84.5918C18.4609 82.752 17.7051 80.1152 17.6699 76.6816V71.9707C17.6699 68.3965 18.4082 65.6836 19.8848 63.832C21.373 61.9805 23.5117 61.0547 26.3008 61.0547C29.0898 61.0547 31.2227 61.9746 32.6992 63.8145C34.1758 65.6426 34.9316 68.2734 34.9668 71.707V76.418ZM29.8867 71.25C29.8867 69.1289 29.5938 67.5879 29.0078 66.627C28.4336 65.6543 27.5312 65.168 26.3008 65.168C25.1055 65.168 24.2207 65.6309 23.6465 66.5566C23.084 67.4707 22.7852 68.9062 22.75 70.8633V77.0859C22.75 79.1719 23.0312 80.7246 23.5938 81.7441C24.168 82.752 25.082 83.2559 26.3359 83.2559C27.5781 83.2559 28.4746 82.7695 29.0254 81.7969C29.5762 80.8242 29.8633 79.3359 29.8867 77.332V71.25ZM50.752 87H45.6719V67.418L39.6074 69.2988V65.168L50.207 61.3711H50.752V87Z" fill="white"/>
<path d="M173.947 86.8333V89.8889C173.947 93.2653 171.215 96 167.842 96H125.105C121.732 96 119 93.2653 119 89.8889V47.1111C119 43.7347 121.732 41 125.105 41H167.842C171.215 41 173.947 43.7347 173.947 47.1111V50.1667H146.474C143.101 50.1667 140.368 52.9014 140.368 56.2778V80.7222C140.368 84.0986 143.101 86.8333 146.474 86.8333H173.947ZM146.474 80.7222H177V56.2778H146.474V80.7222ZM158.684 73.0833C156.151 73.0833 154.105 71.0361 154.105 68.5C154.105 65.9639 156.151 63.9167 158.684 63.9167C161.218 63.9167 163.263 65.9639 163.263 68.5C163.263 71.0361 161.218 73.0833 158.684 73.0833Z" fill="white"/>
<path d="M214 47.1111V89.8889C214 93.2653 216.685 96 220 96H262C265.315 96 268 93.2653 268 89.8889V47.1111C268 43.7347 265.315 41 262 41H220C216.685 41 214 43.7347 214 47.1111ZM250 59.3333C250 64.4056 245.965 68.5 241 68.5C236.035 68.5 232 64.4056 232 59.3333C232 54.2764 236.035 50.1667 241 50.1667C245.965 50.1667 250 54.2764 250 59.3333ZM223 83.7778C223 77.6667 235 74.3056 241 74.3056C247 74.3056 259 77.6667 259 83.7778V86.8333H223V83.7778Z" fill="white"/>
</svg>
