<svg width="350" height="141" viewBox="0 0 350 141" fill="none" xmlns="http://www.w3.org/2000/svg">
<rect width="350" height="141" rx="20" fill="#507A4A"/>
<path d="M65 0H331C341.493 0 350 8.50659 350 19V121C350 132.046 341.046 141 330 141H65V0Z" fill="#C0C480"/>
<path d="M28.9668 71.418C28.9668 74.957 28.2344 77.6641 26.7695 79.5391C25.3047 81.4141 23.1602 82.3516 20.3359 82.3516C17.5469 82.3516 15.4141 81.4316 13.9375 79.5918C12.4609 77.752 11.7051 75.1152 11.6699 71.6816V66.9707C11.6699 63.3965 12.4082 60.6836 13.8848 58.832C15.373 56.9805 17.5117 56.0547 20.3008 56.0547C23.0898 56.0547 25.2227 56.9746 26.6992 58.8145C28.1758 60.6426 28.9316 63.2734 28.9668 66.707V71.418ZM23.8867 66.25C23.8867 64.1289 23.5938 62.5879 23.0078 61.627C22.4336 60.6543 21.5312 60.168 20.3008 60.168C19.1055 60.168 18.2207 60.6309 17.6465 61.5566C17.084 62.4707 16.7852 63.9062 16.75 65.8633V72.0859C16.75 74.1719 17.0312 75.7246 17.5938 76.7441C18.168 77.752 19.082 78.2559 20.3359 78.2559C21.5781 78.2559 22.4746 77.7695 23.0254 76.7969C23.5762 75.8242 23.8633 74.3359 23.8867 72.332V66.25ZM49.9551 82H32.4121V78.5195L40.6914 69.6953C41.8281 68.4531 42.666 67.3691 43.2051 66.4434C43.7559 65.5176 44.0312 64.6387 44.0312 63.8066C44.0312 62.6699 43.7441 61.7793 43.1699 61.1348C42.5957 60.4785 41.7754 60.1504 40.709 60.1504C39.5605 60.1504 38.6523 60.5488 37.9844 61.3457C37.3281 62.1309 37 63.168 37 64.457H31.9023C31.9023 62.8984 32.2715 61.4746 33.0098 60.1855C33.7598 58.8965 34.8145 57.8887 36.1738 57.1621C37.5332 56.4238 39.0742 56.0547 40.7969 56.0547C43.4336 56.0547 45.4785 56.6875 46.9316 57.9531C48.3965 59.2188 49.1289 61.0059 49.1289 63.3145C49.1289 64.5801 48.8008 65.8691 48.1445 67.1816C47.4883 68.4941 46.3633 70.0234 44.7695 71.7695L38.9512 77.9043H49.9551V82Z" fill="white"/>
<path d="M250.93 89L258.25 81.68L265.57 89L268.75 85.82L261.43 78.5L268.75 71.18L265.57 68L258.25 75.32L250.93 68L247.75 71.18L255.07 78.5L247.75 85.82L250.93 89ZM280 47H277V41H271V47H247V41H241V47H238C234.685 47 232.03 49.685 232.03 53L232 95C232 98.315 234.685 101 238 101H280C283.315 101 286 98.315 286 95V53C286 49.685 283.315 47 280 47ZM280 95H238V62H280V95Z" fill="white"/>
<path d="M181.944 71H133.056C131.375 71 130 72.35 130 74V92C130 93.65 131.375 95 133.056 95H181.944C183.625 95 185 93.65 185 92V74C185 72.35 183.625 71 181.944 71ZM142.222 89C138.846 89 136.111 86.315 136.111 83C136.111 79.685 138.846 77 142.222 77C145.599 77 148.333 79.685 148.333 83C148.333 86.315 145.599 89 142.222 89ZM181.944 41H133.056C131.375 41 130 42.35 130 44V62C130 63.65 131.375 65 133.056 65H181.944C183.625 65 185 63.65 185 62V44C185 42.35 183.625 41 181.944 41ZM142.222 59C138.846 59 136.111 56.315 136.111 53C136.111 49.685 138.846 47 142.222 47C145.599 47 148.333 49.685 148.333 53C148.333 56.315 145.599 59 142.222 59Z" fill="white"/>
</svg>
