<svg width="32" height="32" viewBox="0 0 32 32" fill="none" xmlns="http://www.w3.org/2000/svg">
<path opacity="0.1" fill-rule="evenodd" clip-rule="evenodd" d="M15.9874 32C24.8171 32 31.9749 24.8366 31.9749 16C31.9749 7.16344 24.8171 0 15.9874 0C7.15783 0 0 7.16344 0 16C0 24.8366 7.15783 32 15.9874 32Z" fill="white"/>
<path fill-rule="evenodd" clip-rule="evenodd" d="M16.0893 12.405L16.1239 12.9587L15.5463 12.8909C13.4439 12.631 11.6071 11.7497 10.0476 10.2695L9.28522 9.53513L9.08884 10.0775C8.67297 11.2864 8.93867 12.5632 9.80506 13.4219C10.2671 13.8965 10.1632 13.9642 9.36609 13.6818C9.08884 13.5914 8.84625 13.5236 8.82315 13.5575C8.74228 13.6366 9.01953 14.6648 9.23902 15.0715C9.53937 15.6364 10.1516 16.1901 10.8216 16.5177L11.3877 16.7776L10.7177 16.7889C10.0707 16.7889 10.0476 16.8002 10.117 17.0375C10.348 17.7719 11.2606 18.5515 12.2772 18.8905L12.9934 19.1278L12.3696 19.4893C11.4454 20.0091 10.3595 20.3028 9.27367 20.3254C8.75384 20.3367 8.32642 20.3819 8.32642 20.4158C8.32642 20.5288 9.73575 21.1615 10.5559 21.4101C13.0165 22.1445 15.9391 21.8282 18.1339 20.574C19.6934 19.6814 21.2529 17.9075 21.9807 16.1901C22.3735 15.2749 22.7662 13.6027 22.7662 12.8005C22.7662 12.2807 22.8009 12.2129 23.4478 11.5915C23.829 11.2299 24.1871 10.8345 24.2564 10.7215C24.3719 10.5068 24.3604 10.5068 23.7712 10.6989C22.7893 11.0379 22.6507 10.9927 23.1359 10.4842C23.494 10.1227 23.9214 9.46734 23.9214 9.27526C23.9214 9.24137 23.7481 9.29786 23.5518 9.39955C23.3438 9.51254 22.8818 9.68202 22.5352 9.78371L21.9114 9.97578L21.3454 9.60293C21.0335 9.39955 20.5945 9.17357 20.3634 9.10578C19.7743 8.9476 18.8732 8.9702 18.3419 9.15098C16.8979 9.65942 15.9853 10.9701 16.0893 12.405Z" fill="#EEF2F5"/>
</svg>
