<svg width="31" height="32" viewBox="0 0 31 32" fill="none" xmlns="http://www.w3.org/2000/svg">
<path opacity="0.1" fill-rule="evenodd" clip-rule="evenodd" d="M15.0326 32C23.335 32 30.0653 24.8366 30.0653 16C30.0653 7.16344 23.335 0 15.0326 0C6.73034 0 0 7.16344 0 16C0 24.8366 6.73034 32 15.0326 32Z" fill="white"/>
<path fill-rule="evenodd" clip-rule="evenodd" d="M15.0893 12.405L15.1239 12.9587L14.5463 12.8909C12.4439 12.631 10.6071 11.7497 9.04765 10.2695L8.28522 9.53513L8.08884 10.0775C7.67297 11.2864 7.93867 12.5632 8.80506 13.4219C9.26713 13.8965 9.16317 13.9642 8.36609 13.6818C8.08884 13.5914 7.84625 13.5236 7.82315 13.5575C7.74228 13.6366 8.01953 14.6648 8.23902 15.0715C8.53937 15.6364 9.15161 16.1901 9.82162 16.5177L10.3877 16.7776L9.71766 16.7889C9.07075 16.7889 9.04765 16.8002 9.11696 17.0375C9.348 17.7719 10.2606 18.5515 11.2772 18.8905L11.9934 19.1278L11.3696 19.4893C10.4454 20.0091 9.35955 20.3028 8.27367 20.3254C7.75384 20.3367 7.32642 20.3819 7.32642 20.4158C7.32642 20.5288 8.73575 21.1615 9.55593 21.4101C12.0165 22.1445 14.9391 21.8282 17.1339 20.574C18.6934 19.6814 20.2529 17.9075 20.9807 16.1901C21.3735 15.2749 21.7662 13.6027 21.7662 12.8005C21.7662 12.2807 21.8009 12.2129 22.4478 11.5915C22.829 11.2299 23.1871 10.8345 23.2564 10.7215C23.3719 10.5068 23.3604 10.5068 22.7712 10.6989C21.7893 11.0379 21.6507 10.9927 22.1359 10.4842C22.494 10.1227 22.9214 9.46734 22.9214 9.27526C22.9214 9.24137 22.7481 9.29786 22.5518 9.39955C22.3438 9.51254 21.8818 9.68202 21.5352 9.78371L20.9114 9.97578L20.3454 9.60293C20.0335 9.39955 19.5945 9.17357 19.3634 9.10578C18.7743 8.9476 17.8732 8.9702 17.3419 9.15098C15.8979 9.65942 14.9853 10.9701 15.0893 12.405Z" fill="#EEF2F5"/>
</svg>
