<svg width="75" height="80" viewBox="0 0 75 80" fill="none" xmlns="http://www.w3.org/2000/svg">
<path d="M37.4999 12.2936C39.4911 12.2812 41.4647 12.6904 43.3066 13.4974C45.1484 14.3045 46.8218 15.4934 48.2298 16.9952C49.6378 18.4971 50.7523 20.282 51.509 22.2466C52.2656 24.2113 52.6492 26.3165 52.6375 28.4404C52.6375 37.2477 45.9288 44.4037 37.4999 44.4037C29.071 44.4037 22.3623 37.2477 22.3623 28.4404C22.3623 19.4496 29.243 12.2936 37.4999 12.2936ZM37.4999 15.9633C31.1352 15.9633 25.9747 21.4679 25.9747 28.4404C25.9747 31.7009 27.189 34.8278 29.3504 37.1333C31.5118 39.4388 34.4432 40.734 37.4999 40.734C40.5566 40.734 43.4881 39.4388 45.6495 37.1333C47.8109 34.8278 49.0251 31.7009 49.0251 28.4404C49.0251 21.4679 43.8646 15.9633 37.4999 15.9633Z" fill="white"/>
<path d="M37.5 0C58.1422 0 75 17.9817 75 40C75 62.0183 58.1422 80 37.5 80C16.8578 80 0 62.0183 0 40C0 17.9817 16.8578 0 37.5 0ZM30.4472 45.3211H44.5528C54.1858 45.3211 62.2706 52.6605 64.1628 62.3853C68.8073 56.1468 71.3876 48.4404 71.3876 40C71.3876 30.4133 67.8173 21.2192 61.4622 14.4404C55.107 7.66152 46.4876 3.85321 37.5 3.85321C28.5124 3.85321 19.893 7.66152 13.5378 14.4404C7.18268 21.2192 3.61239 30.4133 3.61239 40C3.61239 48.4404 6.36468 56.1468 10.8372 62.3853C12.7294 52.6605 20.8142 45.3211 30.4472 45.3211ZM61.0665 66.055C60.7225 56.6972 53.3257 49.1743 44.5528 49.1743H30.4472C21.6743 49.1743 14.2775 56.6972 13.9335 66.055C20.1261 72.2936 28.383 76.1468 37.5 76.1468C46.617 76.1468 54.8739 72.2936 61.0665 66.055Z" fill="white"/>
</svg>
