<svg width="537" height="419" viewBox="0 0 537 419" fill="none" xmlns="http://www.w3.org/2000/svg">
<path opacity="0.2" d="M71.1343 212.221C64.0731 214.489 57.4638 219.983 55.6998 227.604C53.6823 236.362 58.3347 245.191 59.0072 254.184C61.1791 283.649 21.766 304.437 27.3886 333.38C29.6211 344.888 38.6447 353.353 47.5361 360.347C61.7799 371.515 77.5838 381.381 95.0854 384.166C121.649 388.399 149.404 375.959 175.223 383.82C196.049 390.163 211.985 408.753 232.667 415.612C248.411 420.836 265.372 418.778 281.727 416.661C290.547 415.524 299.785 414.211 306.902 408.583C320.131 398.107 320.964 377.418 329.822 362.592C343.504 339.729 373.502 335.238 398.654 339.682C423.807 344.126 448.232 355.065 473.716 354.174C479.162 353.98 484.74 353.195 489.492 350.351C495.269 346.898 499.172 340.813 502.622 334.793C524.189 297.02 536.027 253.875 536.947 209.694C537.096 202.102 536.843 194.182 533.486 187.481C529.241 179.004 520.758 173.933 512.313 170.521C492.033 162.314 469.631 160.971 449.759 151.714C430.593 142.786 415.07 127.127 398.379 113.708C365.116 87.018 326.563 68.7575 285.657 60.319C276.071 58.3492 266.122 56.9423 256.596 59.2169C245.621 61.8374 236.162 69.1127 227.657 76.9449C205.029 97.78 186.893 123.487 166.04 146.321C151.655 162.068 135.99 176.434 119.229 189.252C111.512 195.167 103.31 202.19 94.7105 206.563C86.839 210.562 79.4579 209.553 71.1343 212.221Z" fill="#009688"/>
<path d="M171.999 27.0497C171.999 27.0497 150.694 57.1416 165.935 92.2165C181.177 127.291 139.371 183.647 139.371 183.647" stroke="#535461" stroke-width="2" stroke-miterlimit="10"/>
<path d="M181.552 15.7879C179.859 23.5322 171.762 28.1459 171.762 28.1459C171.762 28.1459 166.415 20.2023 168.107 12.458C169.799 4.71377 174.171 -0.820372 177.897 0.100031C181.623 1.02043 183.244 8.04363 181.552 15.7879Z" fill="#8ED16F"/>
<path d="M176.113 14.4384C176.645 12.0071 176.381 9.86421 175.525 9.65213C174.668 9.44005 173.542 11.2391 173.01 13.6704C172.478 16.1018 172.741 18.2447 173.598 18.4568C174.455 18.6688 175.581 16.8698 176.113 14.4384Z" fill="#8ED16F"/>
<path opacity="0.3" d="M176.113 14.4384C176.645 12.0071 176.381 9.86421 175.525 9.65213C174.668 9.44005 173.542 11.2391 173.01 13.6704C172.478 16.1018 172.741 18.2447 173.598 18.4568C174.455 18.6688 175.581 16.8698 176.113 14.4384Z" fill="black"/>
<path d="M177.869 50.1945C170.836 52.8913 162.793 48.1661 162.793 48.1661C162.793 48.1661 166.156 39.0735 173.195 36.3826C180.234 33.6918 186.976 34.6239 188.271 38.411C189.567 42.1982 184.903 47.4978 177.869 50.1945Z" fill="#8ED16F"/>
<path d="M175.894 44.2238C178.1 43.375 179.646 41.974 179.347 41.0944C179.048 40.2149 177.017 40.1899 174.81 41.0386C172.604 41.8873 171.058 43.2884 171.357 44.168C171.656 45.0475 173.687 45.0725 175.894 44.2238Z" fill="#8ED16F"/>
<path opacity="0.3" d="M175.894 44.2238C178.1 43.375 179.646 41.974 179.347 41.0944C179.048 40.2149 177.017 40.1899 174.81 41.0386C172.604 41.8873 171.058 43.2884 171.357 44.168C171.656 45.0475 173.687 45.0725 175.894 44.2238Z" fill="black"/>
<path d="M176.232 77.6132C169.198 80.3099 161.156 75.5848 161.156 75.5848C161.156 75.5848 164.519 66.4921 171.558 63.8013C178.597 61.1104 185.339 62.0425 186.634 65.8297C187.929 69.6168 183.266 74.9223 176.232 77.6132Z" fill="#8ED16F"/>
<path d="M174.338 72.0568C176.547 71.2112 178.096 69.8121 177.798 68.9317C177.5 68.0513 175.468 68.0231 173.259 68.8687C171.051 69.7142 169.502 71.1134 169.8 71.9938C170.098 72.8742 172.13 72.9024 174.338 72.0568Z" fill="#8ED16F"/>
<path opacity="0.3" d="M174.338 72.0568C176.547 71.2112 178.096 69.8121 177.798 68.9317C177.5 68.0513 175.468 68.0231 173.259 68.8687C171.051 69.7142 169.502 71.1134 169.8 71.9938C170.098 72.8742 172.13 72.9024 174.338 72.0568Z" fill="black"/>
<path d="M184.451 109.78C177.417 112.477 169.375 107.752 169.375 107.752C169.375 107.752 172.738 98.6593 179.777 95.9684C186.816 93.2776 193.558 94.2097 194.853 97.9968C196.148 101.784 191.485 107.101 184.451 109.78Z" fill="#8ED16F"/>
<path d="M182.558 104.238C184.767 103.393 186.316 101.993 186.018 101.113C185.72 100.233 183.688 100.204 181.479 101.05C179.271 101.896 177.722 103.295 178.02 104.175C178.318 105.056 180.35 105.084 182.558 104.238Z" fill="#8ED16F"/>
<path opacity="0.3" d="M182.558 104.238C184.767 103.393 186.316 101.993 186.018 101.113C185.72 100.233 183.688 100.204 181.479 101.05C179.271 101.896 177.722 103.295 178.02 104.175C178.318 105.056 180.35 105.084 182.558 104.238Z" fill="black"/>
<path d="M179.104 139.198C172.07 141.895 164.028 137.17 164.028 137.17C164.028 137.17 167.39 128.077 174.43 125.386C181.469 122.695 188.21 123.627 189.506 127.415C190.801 131.202 186.143 136.507 179.104 139.198Z" fill="#8ED16F"/>
<path d="M177.226 133.156C179.433 132.307 180.979 130.906 180.68 130.027C180.38 129.147 178.349 129.122 176.143 129.971C173.937 130.82 172.39 132.221 172.69 133.1C172.989 133.98 175.02 134.005 177.226 133.156Z" fill="#8ED16F"/>
<path opacity="0.3" d="M177.226 133.156C179.433 132.307 180.979 130.906 180.68 130.027C180.38 129.147 178.349 129.122 176.143 129.971C173.937 130.82 172.39 132.221 172.69 133.1C172.989 133.98 175.02 134.005 177.226 133.156Z" fill="black"/>
<path d="M146.113 57.9857C151.306 63.7075 160.484 63.2619 160.484 63.2619C160.484 63.2619 161.239 53.5244 156.046 47.8027C150.854 42.0809 144.421 39.7242 141.675 42.5265C138.93 45.3287 140.92 52.264 146.113 57.9857Z" fill="#8ED16F"/>
<path d="M154.229 55.9552C154.862 55.3053 154.053 53.3226 152.423 51.5266C150.793 49.7306 148.958 48.8015 148.325 49.4514C147.692 50.1012 148.501 52.084 150.131 53.88C151.761 55.676 153.596 56.6051 154.229 55.9552Z" fill="#8ED16F"/>
<path opacity="0.3" d="M154.229 55.9552C154.862 55.3053 154.053 53.3226 152.423 51.5266C150.793 49.7306 148.958 48.8015 148.325 49.4514C147.692 50.1012 148.501 52.084 150.131 53.88C151.761 55.676 153.596 56.6051 154.229 55.9552Z" fill="black"/>
<path d="M143.131 148.848C148.323 154.569 157.501 154.124 157.501 154.124C157.501 154.124 158.257 144.386 153.064 138.665C147.871 132.943 141.438 130.586 138.693 133.388C135.948 136.191 137.938 143.126 143.131 148.848Z" fill="#8ED16F"/>
<path d="M151.239 146.825C151.872 146.175 151.064 144.192 149.433 142.396C147.803 140.6 145.969 139.671 145.336 140.321C144.703 140.971 145.511 142.954 147.141 144.75C148.771 146.546 150.606 147.475 151.239 146.825Z" fill="#8ED16F"/>
<path opacity="0.3" d="M151.239 146.825C151.872 146.175 151.064 144.192 149.433 142.396C147.803 140.6 145.969 139.671 145.336 140.321C144.703 140.971 145.511 142.954 147.141 144.75C148.771 146.546 150.606 147.475 151.239 146.825Z" fill="black"/>
<path d="M150.016 90.1002C156.708 93.6529 165.213 89.9595 165.213 89.9595C165.213 89.9595 162.87 80.5151 156.184 76.9625C149.498 73.4098 142.69 73.445 140.986 77.1032C139.283 80.7613 143.324 86.5476 150.016 90.1002Z" fill="#8ED16F"/>
<path d="M157.01 85.2893C157.403 84.452 156.019 82.8697 153.919 81.7551C151.819 80.6405 149.798 80.4157 149.405 81.2529C149.012 82.0902 150.396 83.6724 152.496 84.7871C154.596 85.9017 156.617 86.1265 157.01 85.2893Z" fill="#8ED16F"/>
<path opacity="0.3" d="M157.01 85.2893C157.403 84.452 156.019 82.8697 153.919 81.7551C151.819 80.6405 149.798 80.4157 149.405 81.2529C149.012 82.0902 150.396 83.6724 152.496 84.7871C154.596 85.9017 156.617 86.1265 157.01 85.2893Z" fill="black"/>
<path d="M152.821 122.091C159.513 125.644 168.019 121.951 168.019 121.951C168.019 121.951 165.676 112.506 158.99 108.954C152.303 105.401 145.496 105.436 143.792 109.094C142.089 112.753 146.157 118.574 152.821 122.091Z" fill="#8ED16F"/>
<path d="M159.818 117.285C160.211 116.448 158.827 114.865 156.727 113.751C154.627 112.636 152.606 112.411 152.213 113.248C151.82 114.086 153.204 115.668 155.304 116.783C157.404 117.897 159.425 118.122 159.818 117.285Z" fill="#8ED16F"/>
<path opacity="0.3" d="M159.818 117.285C160.211 116.448 158.827 114.865 156.727 113.751C154.627 112.636 152.606 112.411 152.213 113.248C151.82 114.086 153.204 115.668 155.304 116.783C157.404 117.897 159.425 118.122 159.818 117.285Z" fill="black"/>
<path d="M69.387 91.7299C69.387 91.7299 108.298 133.113 86.3319 194.522C64.3653 255.931 123.987 358.049 123.987 358.049C123.987 358.049 123.347 357.949 122.162 357.726C42.2333 342.724 2.54455 245.513 46.9739 173.3C63.4723 146.45 77.0601 114.957 69.387 91.7299Z" fill="#8ED16F"/>
<path d="M0.0805664 259.108C0.0805664 259.108 44.4823 251.587 48.5284 293.908C52.5744 336.229 133.909 342.097 133.909 342.097C133.909 342.097 133.357 342.484 132.382 343.176C65.2252 390.075 1.02869 373.039 10.7028 310.786C14.3079 287.635 14.0102 264.39 0.0805664 259.108Z" fill="#8ED16F"/>
<g opacity="0.3">
<path opacity="0.3" d="M0.0805664 259.108C0.0805664 259.108 44.4823 251.587 48.5284 293.908C52.5744 336.229 133.909 342.097 133.909 342.097C133.909 342.097 133.357 342.484 132.382 343.176C65.2252 390.075 1.02869 373.039 10.7028 310.786C14.3079 287.635 14.0102 264.39 0.0805664 259.108Z" fill="white"/>
</g>
<path d="M58.1473 258.587C64.8906 258.587 70.3571 243.419 70.3571 224.708C70.3571 205.997 64.8906 190.829 58.1473 190.829C51.404 190.829 45.9375 205.997 45.9375 224.708C45.9375 243.419 51.404 258.587 58.1473 258.587Z" fill="#8ED16F"/>
<path opacity="0.3" d="M58.1473 258.587C64.8906 258.587 70.3571 243.419 70.3571 224.708C70.3571 205.997 64.8906 190.829 58.1473 190.829C51.404 190.829 45.9375 205.997 45.9375 224.708C45.9375 243.419 51.404 258.587 58.1473 258.587Z" fill="black"/>
<path d="M57.0318 347.749C60.2458 344.331 57.0522 335.393 49.8988 327.785C42.7454 320.178 34.341 316.781 31.127 320.199C27.9131 323.617 31.1066 332.556 38.26 340.163C45.4134 347.771 53.8178 351.168 57.0318 347.749Z" fill="#8ED16F"/>
<path opacity="0.3" d="M57.0318 347.749C60.2458 344.331 57.0522 335.393 49.8988 327.785C42.7454 320.178 34.341 316.781 31.127 320.199C27.9131 323.617 31.1066 332.556 38.26 340.163C45.4134 347.771 53.8178 351.168 57.0318 347.749Z" fill="black"/>
<path d="M399.112 155.625H110.079C106.586 155.625 103.237 157.1 100.767 159.727C98.2974 162.353 96.9099 165.916 96.9099 169.63V349.8C96.9099 353.515 98.2974 357.077 100.767 359.704C103.237 362.33 106.586 363.806 110.079 363.806H399.112C402.604 363.806 405.954 362.33 408.424 359.704C410.893 357.077 412.281 353.515 412.281 349.8V169.63C412.281 165.916 410.893 162.353 408.424 159.727C405.954 157.1 402.604 155.625 399.112 155.625Z" fill="url(#paint0_linear)"/>
<path d="M394.889 158.075H114.296C106.743 158.075 100.62 164.587 100.62 172.62V346.811C100.62 354.843 106.743 361.355 114.296 361.355H394.889C402.442 361.355 408.565 354.843 408.565 346.811V172.62C408.565 164.587 402.442 158.075 394.889 158.075Z" fill="#009688"/>
<path d="M408.565 193.648H100.62V230.916H408.565V193.648Z" fill="#009688"/>
<path opacity="0.3" d="M408.565 193.648H100.62V230.916H408.565V193.648Z" fill="black"/>
<path d="M379.367 258.587H129.824V276.655H379.367V258.587Z" fill="#D6D6E3"/>
<path d="M150.528 347.807C164.018 347.807 174.953 336.177 174.953 321.831C174.953 307.484 164.018 295.854 150.528 295.854C137.039 295.854 126.103 307.484 126.103 321.831C126.103 336.177 137.039 347.807 150.528 347.807Z" fill="#009688"/>
<path opacity="0.3" d="M150.528 347.807C164.018 347.807 174.953 336.177 174.953 321.831C174.953 307.484 164.018 295.854 150.528 295.854C137.039 295.854 126.103 307.484 126.103 321.831C126.103 336.177 137.039 347.807 150.528 347.807Z" fill="black"/>
<path d="M391.059 107.951C391.453 109.277 392.29 110.403 393.412 111.117C398.478 114.676 409.492 113.919 410.815 113.919C411.096 113.919 411.465 114.453 411.873 115.35C413.819 119.618 416.834 132.128 417.038 134.942C417.308 138.348 420.285 154.288 425.158 160.227C425.307 160.408 425.455 160.578 425.599 160.737C430.378 165.843 435.984 160.227 435.984 160.227L436.789 157.254C436.563 158.427 436.309 159.793 436.056 161.323C435.929 162.091 435.802 162.906 435.681 163.744C434.955 168.468 434.573 173.244 434.54 178.031C434.527 179.769 434.597 181.506 434.749 183.237C434.793 183.717 434.843 184.192 434.904 184.655C435.152 186.763 435.274 188.886 435.267 191.01C435.223 203.626 432.197 219.32 432.197 219.32L432.313 219.279C432.241 219.672 432.197 219.865 432.197 219.865L432.373 219.807C432.289 220.389 432.208 220.985 432.131 221.595C431.106 229.509 430.516 239.358 430.235 245.044C430.089 248.044 430.215 251.052 430.609 254.026L435.989 294.306V313.066C435.971 315.909 436.297 318.742 436.96 321.496C438.713 328.584 437.268 353.324 436.458 365.06C436.232 368.261 436.056 370.501 436.006 371.145V371.339L436.16 371.274C436.16 371.409 436.16 371.48 436.16 371.48C436.39 371.375 436.631 371.3 436.877 371.257C434.744 374.774 430.88 380.59 427.908 381.569C426.157 382.136 424.6 383.234 423.427 384.729L423.35 384.84L423.239 385.004C422.872 385.527 422.649 386.148 422.595 386.798C422.552 386.686 422.518 386.571 422.495 386.452C422.269 387.76 423.008 388.956 425.329 389.536C426.682 389.811 428.058 389.928 429.435 389.888C437.483 389.888 451.766 387.255 453.342 384.424V374.657L453.601 374.745V374.833L454.588 375.179L457.295 365.518C460.541 362.961 457.846 317.217 457.295 306.706C456.798 297.126 462.371 259.02 463.358 252.308L463.226 252.138L463.375 251.159C463.573 251.312 463.758 251.485 463.926 251.675C464.25 252.084 464.532 252.528 464.769 253C465.235 253.839 465.635 254.717 465.965 255.626C471.412 270.071 473.865 311.378 473.865 315.083V353.927C473.853 357.761 474.354 361.576 475.353 365.26C475.853 367.198 476.24 369.168 476.51 371.157C476.626 371.937 476.725 372.711 476.819 373.449C476.913 374.188 477.007 375.032 477.078 375.724C477.078 375.906 477.117 376.082 477.133 376.246C477.15 376.41 477.133 376.404 477.133 376.486C477.282 378.016 477.359 379.019 477.359 379.019C477.38 378.935 477.417 378.857 477.47 378.79L477.497 379.159C477.536 379.02 477.61 378.894 477.712 378.796C477.936 378.562 478.18 378.35 478.44 378.163V383.099L478.308 382.993V383.844C483.919 388.346 493.053 389.706 500.065 389.653C504.612 389.653 508.295 389.067 509.573 388.387C511.403 387.431 510.4 385.204 508.736 383.498C507.446 382.173 505.764 381.153 504.7 381.282C502.925 381.487 496.856 374.176 493.676 370.172L494.034 370.002L494.541 369.768V305C494.541 305 495.357 279.428 497.788 254.137C498.942 241.388 497.523 228.525 493.626 216.406L493.549 216.166L494.288 216.289C495.07 216.418 495.489 216.494 495.489 216.494C495.489 216.494 495.489 216.295 495.44 215.908H495.489C495.489 215.908 494.541 204.939 494.53 191.163C494.53 175.545 495.771 156.504 500.903 145.729C503.857 139.526 504.844 134.59 504.761 130.698C504.89 127.272 503.963 123.896 502.121 121.083C501.348 119.951 500.297 119.067 499.083 118.527L498.979 118.463H498.924C498.037 118.081 497.091 117.882 496.134 117.876H485.049C483.766 117.878 482.505 117.524 481.389 116.85L477.051 114.236C475.606 110.877 475.397 106.714 475.706 102.81C475.706 102.499 475.761 102.189 475.788 101.884L476.103 101.532C476.345 101.256 476.571 100.946 476.792 100.682C476.787 100.913 476.77 101.144 476.742 101.374C476.687 101.743 476.593 101.96 476.444 102.007C478.815 101.678 481.461 101.18 482.916 99.2339C482.976 99.1577 483.032 99.0756 483.087 98.9935C483.517 98.2531 483.873 97.4673 484.151 96.6485C484.354 96.0892 484.627 95.5609 484.961 95.0774C485.325 94.5732 485.799 94.1628 486.19 93.6821L486.256 93.6001C487.651 91.8413 487.728 89.3205 487.745 87.0224C487.772 81.4414 487.618 75.2975 484.106 71.1117C481.19 67.6295 476.538 66.3104 472.123 66.158C467.707 66.0056 463.303 66.8498 458.893 66.8732C455.894 66.8732 452.278 66.8204 450.625 69.4585C449.814 70.7541 449.715 72.4484 448.833 73.6912C448.326 74.4064 447.549 75.022 447.505 75.9131C447.499 76.3242 447.598 76.7294 447.791 77.0856V77.1266C448.861 79.3661 451.132 80.7613 453.502 81.201C453.101 81.7139 452.733 82.2544 452.4 82.819C450.952 85.2794 450.188 88.1244 450.195 91.0264C450.195 91.3665 450.195 91.7006 450.228 92.0348C450.474 95.9765 452.126 99.6694 454.847 102.359C454.803 102.687 454.759 103.015 454.709 103.338L454.809 103.431C455.121 103.732 455.446 104.018 455.784 104.287L455.905 104.387C455.905 104.592 455.905 104.797 455.905 104.973C455.905 105.313 455.905 105.659 455.872 105.993C455.839 106.327 455.872 106.533 455.839 106.802L455.768 106.738L450.382 101.954L441.722 93.43C441.722 93.43 420.07 76.6693 418.984 84.6364C418.853 86.0514 419.22 87.4677 420.015 88.6111C423.989 95.0598 437.654 100.547 437.654 100.547C437.654 100.547 445.801 109.71 451.253 119.588C451.06 119.7 450.867 119.805 450.663 119.905C445.812 122.303 438.735 121.288 438.735 121.288C430.56 122.643 429.821 132.169 429.865 136.021C429.865 136.202 429.865 136.378 429.865 136.537C429.865 136.695 429.865 136.73 429.865 136.818L419.017 109.728L418.984 109.646C418.63 108.764 418.073 107.991 417.364 107.399C416.655 106.806 415.816 106.414 414.927 106.257C407.673 104.961 389.543 102.259 391.059 107.951ZM436.475 371.175C436.633 371.135 436.793 371.103 436.954 371.081L436.904 371.163L436.475 371.175Z" fill="url(#paint1_linear)"/>
<path d="M490.677 365.635C490.677 365.635 500.952 379.37 503.328 379.089C505.704 378.808 511.233 384.412 508.074 386.124C504.916 387.836 486.73 388.926 477.756 381.639V370.659L490.677 365.635Z" fill="#ACA9C9"/>
<path d="M438.757 366.473C438.757 366.473 432.693 377.964 428.482 379.371C424.27 380.777 420.577 385.819 426.111 387.22C431.646 388.621 451.413 385.538 453.254 382.173V367.311L438.757 366.473Z" fill="#ACA9C9"/>
<path d="M431.144 253.592L436.381 293.328V311.8C436.365 314.603 436.683 317.396 437.329 320.113C439.038 327.107 437.632 351.506 436.838 363.085C436.579 366.86 436.381 369.275 436.381 369.275C439.804 367.593 454.301 372.916 454.301 372.916L455.768 367.61L456.936 363.389C460.1 360.869 457.487 315.745 456.936 305.351C456.578 298.252 459.555 275.236 461.462 261.442C462.013 257.543 462.46 254.407 462.73 252.519C462.901 251.347 462.994 250.696 462.994 250.696C463.575 251.2 464.058 251.819 464.416 252.519C464.87 253.348 465.259 254.214 465.58 255.11C470.882 269.362 473.297 310.106 473.297 313.735V352.052C473.286 355.832 473.774 359.595 474.747 363.231C475.399 365.883 475.876 368.581 476.174 371.304C476.549 374.346 476.725 376.797 476.725 376.797C476.99 375.114 493.329 367.546 493.329 367.546V303.645C493.329 303.645 494.117 278.437 496.493 253.475C497.514 242.12 496.485 230.662 493.461 219.719C492.805 217.333 492.149 215.31 491.581 213.71C490.617 210.984 489.927 209.477 489.927 209.477H436.105C435.201 209.659 434.451 211.593 433.773 214.53C433.332 216.5 432.947 218.916 432.61 221.565C431.613 229.368 431.039 239.082 430.764 244.699C430.625 247.669 430.752 250.647 431.144 253.592Z" fill="#618FD8"/>
<g opacity="0.1">
<path opacity="0.1" d="M492.381 367.728V303.827C492.381 303.827 493.169 278.619 495.545 253.656C497.92 228.694 488.93 209.653 488.93 209.653H489.983C489.983 209.653 498.94 228.712 496.597 253.656C494.255 278.601 493.433 303.827 493.433 303.827V367.728C493.433 367.728 477.095 375.296 476.83 376.979C476.83 376.979 476.83 376.603 476.748 375.959C480.309 373.326 492.381 367.728 492.381 367.728Z" fill="black"/>
<path opacity="0.1" d="M437.963 369.1C437.466 369.11 436.974 369.218 436.513 369.416V369.135C436.995 369.083 437.48 369.072 437.963 369.1Z" fill="black"/>
<path opacity="0.1" d="M456.016 363.53C459.18 361.009 456.567 315.886 456.016 305.492C455.464 295.098 462.079 250.842 462.079 250.842C462.425 251.127 462.732 251.462 462.989 251.839C462.019 258.452 456.594 296.048 457.074 305.492C457.625 315.863 460.238 360.986 457.074 363.53L454.439 373.057L453.48 372.717L456.016 363.53Z" fill="black"/>
</g>
<path d="M441.915 140.294L436.403 161.036C436.403 161.036 430.604 166.898 425.863 161.036C421.122 155.173 418.201 139.456 417.914 136.091C417.628 132.726 413.433 115.35 411.851 115.35C410.269 115.35 394.459 116.469 392.613 109.487C391.135 103.871 408.786 106.556 415.853 107.816C416.723 107.974 417.542 108.363 418.233 108.947C418.924 109.531 419.464 110.292 419.805 111.158L430.642 138.682C430.642 138.682 436.381 131.606 441.915 140.294Z" fill="#F7C4A7"/>
<path d="M477.492 92.0875C477.492 92.0875 470.64 112.547 479.338 119.834C488.037 127.121 448.232 129.085 448.232 129.085L453.634 123.622C453.634 123.622 457.454 107.506 454.819 94.0514L477.492 92.0875Z" fill="#F7C4A7"/>
<path opacity="0.1" d="M469.058 119.834C469.058 119.834 476.042 118.011 476.042 116.053L482.232 119.834H497.783C497.783 119.834 509.116 126.559 499.629 146.743C490.142 166.927 494.359 216.506 494.359 216.506C494.359 216.506 460.629 210.057 432.693 219.871C432.693 219.871 436.91 197.729 435.328 185.119C433.746 172.508 437.963 154.851 437.963 154.851L440.333 144.199C440.333 144.199 440.201 134.233 430.45 139.292C430.45 139.292 429 124.859 439.016 123.176C439.016 123.176 450.592 124.859 454.037 118.691C454.037 118.715 461.682 123.481 469.058 119.834Z" fill="black"/>
<path d="M469.058 119.278C469.058 119.278 476.042 117.454 476.042 115.496L480.578 118.269C481.662 118.93 482.89 119.277 484.139 119.278H495.015C496.152 119.274 497.273 119.558 498.286 120.107C499.299 120.655 500.175 121.452 500.842 122.432C503.339 126.166 505.577 133.529 499.629 146.186C490.142 166.365 494.359 215.949 494.359 215.949C494.359 215.949 460.629 209.5 432.693 219.314C432.693 219.314 436.91 197.172 435.328 184.562C433.746 171.952 437.963 154.335 437.963 154.335L440.333 143.683C440.333 143.683 440.201 133.717 430.449 138.776C430.449 138.776 429.038 124.741 438.602 122.736C438.868 122.674 439.141 122.654 439.412 122.678C441.457 122.906 450.988 123.639 454.042 118.146C454.036 118.152 461.682 122.918 469.058 119.278Z" fill="#E14B5A"/>
<path opacity="0.1" d="M495.677 144.779C495.677 144.779 487.243 150.384 473.539 144.779C473.539 144.779 458.518 138.917 453.772 127.403C449.026 115.889 477.751 129.367 477.751 129.367C477.751 129.367 483.814 129.367 485.655 127.966C487.496 126.565 500.417 138.612 495.677 144.779Z" fill="black"/>
<path d="M495.677 143.659C495.677 143.659 487.243 149.264 473.539 143.659C473.539 143.659 458.518 137.797 453.772 126.283C449.026 114.769 437.963 102.159 437.963 102.159C437.963 102.159 418.725 94.3094 419.772 86.4654C420.82 78.6215 441.91 95.1536 441.91 95.1536L450.344 103.56L477.751 128.224C477.751 128.224 483.814 128.224 485.655 126.822C487.497 125.421 500.417 137.492 495.677 143.659Z" fill="#F7C4A7"/>
<path opacity="0.1" d="M454.566 94.8898L477.227 92.9259C476.062 96.6311 475.269 100.457 474.862 104.34C472.228 107.245 468.626 108.934 464.832 109.044C461.039 109.154 457.356 107.675 454.577 104.926C455.154 101.609 455.151 98.206 454.566 94.8898Z" fill="black"/>
<path d="M464.714 108.203C472.718 108.203 479.206 101.303 479.206 92.791C479.206 84.279 472.718 77.3787 464.714 77.3787C456.71 77.3787 450.222 84.279 450.222 92.791C450.222 101.303 456.71 108.203 464.714 108.203Z" fill="#F7C4A7"/>
<path opacity="0.1" d="M472.668 96.1385C471.82 94.6494 473.545 92.709 472.977 91.0792C472.453 89.5784 470.37 89.3205 469.67 87.9194C469.118 86.7879 469.67 85.3985 469.449 84.1498C469.135 82.5377 467.503 81.5352 465.954 81.4531C464.405 81.371 462.912 81.9866 461.44 82.5142C459.042 83.376 456.517 84.0384 454.004 83.7336C451.49 83.4287 448.982 81.9749 447.863 79.5889C447.68 79.2413 447.583 78.8499 447.582 78.4515C447.626 77.5722 448.387 76.9683 448.877 76.2649C449.737 75.0396 449.836 73.3688 450.619 72.0908C452.218 69.4879 455.729 69.5524 458.651 69.5406C462.95 69.5406 467.228 68.6847 471.527 68.8372C475.827 68.9896 480.347 70.2852 483.197 73.7206C486.615 77.8536 486.769 83.9036 486.741 89.4143C486.741 91.683 486.653 94.1511 485.292 95.904C484.895 96.414 484.41 96.8361 484.029 97.3579C483.202 98.5304 482.982 100.031 482.205 101.221C480.827 103.338 478.137 103.853 475.739 104.193C476.444 104.094 475.86 99.0697 475.739 98.6066C475.276 96.2968 474.774 96.3437 472.668 96.1385Z" fill="black"/>
<path d="M472.668 95.5815C471.82 94.0925 473.545 92.152 472.977 90.5223C472.453 89.0215 470.37 88.7635 469.67 87.3624C469.118 86.2309 469.67 84.8415 469.449 83.5928C469.135 81.9807 467.503 80.9782 465.954 80.8961C464.405 80.814 462.912 81.4296 461.44 81.9572C459.042 82.819 456.517 83.4815 454.004 83.1766C451.49 82.8718 448.982 81.4179 447.863 79.0319C447.68 78.6843 447.583 78.2929 447.582 77.8946C447.626 77.0152 448.387 76.4114 448.877 75.7079C449.737 74.4826 449.836 72.8118 450.619 71.5338C452.218 68.9309 455.729 68.9954 458.651 68.9836C462.95 68.9836 467.228 68.1277 471.527 68.2801C475.827 68.4326 480.347 69.7282 483.197 73.1636C486.615 77.2966 486.769 83.3466 486.741 88.8573C486.741 91.1261 486.653 93.5942 485.292 95.347C484.895 95.8571 484.41 96.2792 484.029 96.8009C483.202 97.9734 482.982 99.4742 482.205 100.664C480.827 102.781 478.137 103.297 475.739 103.637C476.444 103.537 475.86 98.5128 475.739 98.0496C475.276 95.7105 474.774 95.7809 472.668 95.5815Z" fill="#281C1C"/>
<path opacity="0.1" d="M495.544 145.483C495.544 145.483 488.428 125.861 482.894 125.304C477.359 124.747 493.433 125.304 493.433 125.304L498.703 135.393L495.544 145.483Z" fill="black"/>
<path d="M496.074 145.483C496.074 145.483 488.957 125.861 483.423 125.304C477.888 124.747 493.962 125.304 493.962 125.304L499.232 135.393L496.074 145.483Z" fill="#E14B5A"/>
<path d="M476.152 371.351C476.527 374.393 476.703 376.844 476.703 376.844C476.968 375.161 493.306 367.593 493.306 367.593V363.038C492.89 363.021 492.473 363.043 492.061 363.102C488.891 363.554 485.953 365.189 483.241 366.936C480.95 368.535 478.584 370.009 476.152 371.351Z" fill="#618FD8"/>
<path opacity="0.3" d="M476.152 371.351C476.527 374.393 476.703 376.844 476.703 376.844C476.968 375.161 493.306 367.593 493.306 367.593V363.038C492.89 363.021 492.473 363.043 492.061 363.102C488.891 363.554 485.953 365.189 483.241 366.936C480.95 368.535 478.584 370.009 476.152 371.351Z" fill="black"/>
<path d="M436.381 369.275C439.804 367.593 454.301 372.916 454.301 372.916L455.768 367.61C453.238 367.065 450.724 366.385 448.254 365.576C447.101 365.221 445.974 364.778 444.881 364.251C444.151 363.836 443.4 363.465 442.632 363.137C440.741 362.446 438.773 362.739 436.833 363.085C436.579 366.86 436.381 369.275 436.381 369.275Z" fill="#618FD8"/>
<path opacity="0.3" d="M436.381 369.275C439.804 367.593 454.301 372.916 454.301 372.916L455.768 367.61C453.238 367.065 450.724 366.385 448.254 365.576C447.101 365.221 445.974 364.778 444.881 364.251C444.151 363.836 443.4 363.465 442.632 363.137C440.741 362.446 438.773 362.739 436.833 363.085C436.579 366.86 436.381 369.275 436.381 369.275Z" fill="black"/>
<path opacity="0.4" d="M507.931 385.251C508.151 385.15 508.347 384.998 508.504 384.805C508.66 384.612 508.773 384.383 508.835 384.137C508.933 384.523 508.895 384.935 508.729 385.294C508.562 385.653 508.279 385.936 507.931 386.089C504.766 387.771 486.587 388.891 477.613 381.604V380.766C486.587 388.053 504.766 386.933 507.931 385.251Z" fill="white"/>
<path opacity="0.4" d="M425.973 386.37C431.486 387.771 451.275 384.688 453.116 381.323V382.161C451.269 385.526 431.508 388.61 425.973 387.209C423.713 386.622 422.991 385.45 423.217 384.166C423.394 385.116 424.22 385.901 425.973 386.37Z" fill="white"/>
<path opacity="0.1" d="M458.121 182.199C458.121 182.199 452.322 180.235 450.74 182.199C449.158 184.163 435.636 188.765 435.636 188.765" fill="black"/>
<path d="M392.508 105.19H420.704V104.557H392.508V105.19Z" fill="#8ED16F"/>
<path d="M392.508 105.823H420.704V105.19H392.508V105.823Z" fill="#8ED16F"/>
<path opacity="0.1" d="M392.508 105.823H420.704V105.19H392.508V105.823Z" fill="black"/>
<path d="M392.508 106.456H420.704V105.823H392.508V106.456Z" fill="#8ED16F"/>
<path d="M392.508 107.084H420.704V106.451H392.508V107.084Z" fill="#8ED16F"/>
<path opacity="0.1" d="M392.508 107.084H420.704V106.451H392.508V107.084Z" fill="black"/>
<path d="M392.508 107.717H420.704V107.084H392.508V107.717Z" fill="#8ED16F"/>
<path d="M392.508 108.344H420.704V107.711H392.508V108.344Z" fill="#8ED16F"/>
<path opacity="0.1" d="M392.508 108.344H420.704V107.711H392.508V108.344Z" fill="black"/>
<path d="M392.508 108.977H420.704V108.344H392.508V108.977Z" fill="#8ED16F"/>
<path d="M392.508 109.604H420.704V108.971H392.508V109.604Z" fill="#8ED16F"/>
<path opacity="0.1" d="M392.508 109.604H420.704V108.971H392.508V109.604Z" fill="black"/>
<path d="M392.508 100.148H420.704V99.5153H392.508V100.148Z" fill="#8ED16F"/>
<path d="M412.451 85.1584L434.129 104.333L434.51 103.846L412.832 84.6716L412.451 85.1584Z" fill="#8ED16F"/>
<path d="M392.688 75.0703L414.366 94.2448L414.746 93.758L393.068 74.5836L392.688 75.0703Z" fill="#8ED16F"/>
<path d="M392.508 100.776H420.704V100.143H392.508V100.776Z" fill="#8ED16F"/>
<path opacity="0.1" d="M392.508 100.776H420.704V100.143H392.508V100.776Z" fill="black"/>
<path d="M392.508 101.415H420.704V100.782H392.508V101.415Z" fill="#8ED16F"/>
<path d="M392.508 102.042H420.704V101.409H392.508V102.042Z" fill="#8ED16F"/>
<path opacity="0.1" d="M392.508 102.042H420.704V101.409H392.508V102.042Z" fill="black"/>
<path d="M392.508 102.669H420.704V102.036H392.508V102.669Z" fill="#8ED16F"/>
<path d="M392.508 103.302H420.704V102.669H392.508V103.302Z" fill="#8ED16F"/>
<path opacity="0.1" d="M392.508 103.302H420.704V102.669H392.508V103.302Z" fill="black"/>
<path d="M392.508 103.93H420.704V103.297H392.508V103.93Z" fill="#8ED16F"/>
<path d="M392.508 104.563H420.704V103.93H392.508V104.563Z" fill="#8ED16F"/>
<path opacity="0.1" d="M392.508 104.563H420.704V103.93H392.508V104.563Z" fill="black"/>
<path d="M388.934 129.146L399.037 131.141L402.693 110.201L392.591 108.205L388.934 129.146Z" fill="#8ED16F"/>
<path d="M398.025 120.149C398.45 117.713 397.868 115.556 396.724 115.33C395.581 115.105 394.309 116.896 393.884 119.331C393.459 121.766 394.041 123.923 395.184 124.149C396.328 124.375 397.599 122.584 398.025 120.149Z" fill="#8ED16F"/>
<path opacity="0.1" d="M398.025 120.149C398.45 117.713 397.868 115.556 396.724 115.33C395.581 115.105 394.309 116.896 393.884 119.331C393.459 121.766 394.041 123.923 395.184 124.149C396.328 124.375 397.599 122.584 398.025 120.149Z" fill="black"/>
<path d="M390.663 173.345L400.765 175.34L404.421 154.4L394.319 152.405L390.663 173.345Z" fill="#8ED16F"/>
<path d="M399.748 164.343C400.173 161.908 399.591 159.75 398.448 159.525C397.304 159.299 396.033 161.09 395.607 163.525C395.182 165.96 395.764 168.118 396.908 168.343C398.051 168.569 399.323 166.778 399.748 164.343Z" fill="#8ED16F"/>
<path opacity="0.1" d="M399.748 164.343C400.173 161.908 399.591 159.75 398.448 159.525C397.304 159.299 396.033 161.09 395.607 163.525C395.182 165.96 395.764 168.118 396.908 168.343C398.051 168.569 399.323 166.778 399.748 164.343Z" fill="black"/>
<path d="M354.124 64.7044L349.234 74.315L366.847 84.4515L371.737 74.8409L354.124 64.7044Z" fill="#8ED16F"/>
<path d="M365.911 77.143C366.469 76.0546 365.26 74.2085 363.211 73.0196C361.161 71.8307 359.047 71.7492 358.489 72.8376C357.931 73.926 359.14 75.7721 361.189 76.961C363.239 78.1499 365.353 78.2314 365.911 77.143Z" fill="#8ED16F"/>
<path opacity="0.1" d="M365.911 77.143C366.469 76.0546 365.26 74.2085 363.211 73.0196C361.161 71.8307 359.047 71.7492 358.489 72.8376C357.931 73.926 359.14 75.7721 361.189 76.961C363.239 78.1499 365.353 78.2314 365.911 77.143Z" fill="black"/>
<path d="M315.451 254.368L310.561 263.979L328.173 274.115L333.063 264.505L315.451 254.368Z" fill="#8ED16F"/>
<path d="M325.464 266.505C326.017 265.417 324.806 263.58 322.757 262.401C320.709 261.222 318.6 261.148 318.046 262.236C317.493 263.324 318.705 265.161 320.753 266.34C322.801 267.519 324.91 267.592 325.464 266.505Z" fill="#8ED16F"/>
<path opacity="0.1" d="M325.464 266.505C326.017 265.417 324.806 263.58 322.757 262.401C320.709 261.222 318.6 261.148 318.046 262.236C317.493 263.324 318.705 265.161 320.753 266.34C322.801 267.519 324.91 267.592 325.464 266.505Z" fill="black"/>
<path d="M291.789 97.8513L286.899 107.462L304.512 117.598L309.402 107.988L291.789 97.8513Z" fill="#8ED16F"/>
<path d="M301.798 109.979C302.351 108.891 301.139 107.054 299.091 105.875C297.043 104.696 294.934 104.622 294.38 105.71C293.827 106.798 295.038 108.635 297.087 109.814C299.135 110.993 301.244 111.067 301.798 109.979Z" fill="#8ED16F"/>
<path opacity="0.1" d="M301.798 109.979C302.351 108.891 301.139 107.054 299.091 105.875C297.043 104.696 294.934 104.622 294.38 105.71C293.827 106.798 295.038 108.635 297.087 109.814C299.135 110.993 301.244 111.067 301.798 109.979Z" fill="black"/>
<path d="M321.445 64.702L316.555 74.3126L334.168 84.449L339.058 74.8385L321.445 64.702Z" fill="#8ED16F"/>
<path d="M331.453 76.8297C332.007 75.7419 330.795 73.9045 328.747 72.7257C326.698 71.5469 324.589 71.4731 324.036 72.5608C323.482 73.6486 324.694 75.486 326.742 76.6648C328.791 77.8436 330.9 77.9174 331.453 76.8297Z" fill="#8ED16F"/>
<path opacity="0.1" d="M331.453 76.8297C332.007 75.7419 330.795 73.9045 328.747 72.7257C326.698 71.5469 324.589 71.4731 324.036 72.5608C323.482 73.6486 324.694 75.486 326.742 76.6648C328.791 77.8436 330.9 77.9174 331.453 76.8297Z" fill="black"/>
<path d="M351.053 103.816L340.839 105.004L343.016 126.176L353.23 124.988L351.053 103.816Z" fill="#8ED16F"/>
<path d="M347.358 119.472C348.514 119.338 349.246 117.233 348.993 114.771C348.74 112.308 347.597 110.421 346.441 110.556C345.285 110.69 344.553 112.795 344.806 115.257C345.06 117.72 346.202 119.607 347.358 119.472Z" fill="#8ED16F"/>
<path opacity="0.1" d="M347.358 119.472C348.514 119.338 349.246 117.233 348.993 114.771C348.74 112.308 347.597 110.421 346.441 110.556C345.285 110.69 344.553 112.795 344.806 115.257C345.06 117.72 346.202 119.607 347.358 119.472Z" fill="black"/>
<path d="M421.083 219.75L410.868 220.938L413.045 242.11L423.259 240.922L421.083 219.75Z" fill="#8ED16F"/>
<path d="M417.392 235.407C418.548 235.272 419.28 233.167 419.027 230.705C418.774 228.243 417.632 226.356 416.476 226.49C415.319 226.625 414.588 228.73 414.841 231.192C415.094 233.654 416.236 235.541 417.392 235.407Z" fill="#8ED16F"/>
<path opacity="0.1" d="M417.392 235.407C418.548 235.272 419.28 233.167 419.027 230.705C418.774 228.243 417.632 226.356 416.476 226.49C415.319 226.625 414.588 228.73 414.841 231.192C415.094 233.654 416.236 235.541 417.392 235.407Z" fill="black"/>
<path d="M311.058 148.791L306.168 158.402L323.78 168.538L328.671 158.928L311.058 148.791Z" fill="#8ED16F"/>
<path d="M321.063 160.927C321.616 159.839 320.405 158.002 318.356 156.823C316.308 155.644 314.199 155.57 313.645 156.658C313.092 157.746 314.304 159.583 316.352 160.762C318.4 161.941 320.509 162.015 321.063 160.927Z" fill="#8ED16F"/>
<path opacity="0.1" d="M321.063 160.927C321.616 159.839 320.405 158.002 318.356 156.823C316.308 155.644 314.199 155.57 313.645 156.658C313.092 157.746 314.304 159.583 316.352 160.762C318.4 161.941 320.509 162.015 321.063 160.927Z" fill="black"/>
<path d="M266.613 135.291L261.723 144.902L279.335 155.038L284.226 145.428L266.613 135.291Z" fill="#8ED16F"/>
<path d="M278.084 148.065C278.642 146.977 277.433 145.13 275.384 143.942C273.334 142.753 271.22 142.671 270.662 143.76C270.104 144.848 271.313 146.694 273.362 147.883C275.412 149.072 277.526 149.153 278.084 148.065Z" fill="#8ED16F"/>
<path opacity="0.1" d="M278.084 148.065C278.642 146.977 277.433 145.13 275.384 143.942C273.334 142.753 271.22 142.671 270.662 143.76C270.104 144.848 271.313 146.694 273.362 147.883C275.412 149.072 277.526 149.153 278.084 148.065Z" fill="black"/>
<path d="M252.378 362.582L247.488 372.192L265.101 382.329L269.991 372.718L252.378 362.582Z" fill="#8ED16F"/>
<path d="M262.386 374.712C262.939 373.624 261.727 371.787 259.679 370.608C257.631 369.429 255.522 369.356 254.968 370.443C254.415 371.531 255.627 373.369 257.675 374.547C259.723 375.726 261.832 375.8 262.386 374.712Z" fill="#8ED16F"/>
<path opacity="0.1" d="M262.386 374.712C262.939 373.624 261.727 371.787 259.679 370.608C257.631 369.429 255.522 369.356 254.968 370.443C254.415 371.531 255.627 373.369 257.675 374.547C259.723 375.726 261.832 375.8 262.386 374.712Z" fill="black"/>
<path d="M239.564 366.286L237.689 377.03L257.38 380.915L259.254 370.171L239.564 366.286Z" fill="#8ED16F"/>
<path opacity="0.05" d="M239.564 366.286L237.689 377.03L257.38 380.915L259.254 370.171L239.564 366.286Z" fill="black"/>
<path d="M252.598 374.555C252.81 373.339 251.126 371.987 248.836 371.535C246.546 371.083 244.518 371.703 244.306 372.919C244.094 374.135 245.778 375.487 248.068 375.939C250.358 376.39 252.386 375.771 252.598 374.555Z" fill="#8ED16F"/>
<path opacity="0.1" d="M252.598 374.555C252.81 373.339 251.126 371.987 248.836 371.535C246.546 371.083 244.518 371.703 244.306 372.919C244.094 374.135 245.778 375.487 248.068 375.939C250.358 376.39 252.386 375.771 252.598 374.555Z" fill="black"/>
<path d="M241.409 372.729L239.534 383.474L259.225 387.359L261.099 376.614L241.409 372.729Z" fill="#8ED16F"/>
<path d="M254.437 380.998C254.65 379.782 252.965 378.43 250.675 377.978C248.385 377.526 246.357 378.146 246.145 379.362C245.933 380.578 247.617 381.93 249.907 382.382C252.197 382.834 254.225 382.214 254.437 380.998Z" fill="#8ED16F"/>
<path opacity="0.1" d="M254.437 380.998C254.65 379.782 252.965 378.43 250.675 377.978C248.385 377.526 246.357 378.146 246.145 379.362C245.933 380.578 247.617 381.93 249.907 382.382C252.197 382.834 254.225 382.214 254.437 380.998Z" fill="black"/>
<path d="M273.154 390.204L268.263 399.815L285.876 409.952L290.766 400.341L273.154 390.204Z" fill="#8ED16F"/>
<path d="M283.167 402.335C283.72 401.247 282.508 399.41 280.46 398.231C278.412 397.052 276.303 396.978 275.749 398.066C275.196 399.154 276.408 400.991 278.456 402.17C280.504 403.349 282.613 403.423 283.167 402.335Z" fill="#8ED16F"/>
<path opacity="0.1" d="M283.167 402.335C283.72 401.247 282.508 399.41 280.46 398.231C278.412 397.052 276.303 396.978 275.749 398.066C275.196 399.154 276.408 400.991 278.456 402.17C280.504 403.349 282.613 403.423 283.167 402.335Z" fill="black"/>
<path d="M260.343 393.901L258.469 404.646L278.159 408.531L280.033 397.786L260.343 393.901Z" fill="#8ED16F"/>
<path opacity="0.05" d="M260.343 393.901L258.469 404.646L278.159 408.531L280.033 397.786L260.343 393.901Z" fill="black"/>
<path d="M273.372 402.17C273.584 400.954 271.9 399.602 269.61 399.15C267.32 398.698 265.292 399.318 265.08 400.534C264.868 401.75 266.552 403.102 268.842 403.554C271.132 404.006 273.16 403.386 273.372 402.17Z" fill="#8ED16F"/>
<path opacity="0.1" d="M273.372 402.17C273.584 400.954 271.9 399.602 269.61 399.15C267.32 398.698 265.292 399.318 265.08 400.534C264.868 401.75 266.552 403.102 268.842 403.554C271.132 404.006 273.16 403.386 273.372 402.17Z" fill="black"/>
<path d="M262.187 400.352L260.312 411.096L280.003 414.981L281.877 404.237L262.187 400.352Z" fill="#8ED16F"/>
<path d="M275.221 408.62C275.433 407.404 273.749 406.052 271.459 405.6C269.169 405.149 267.141 405.768 266.929 406.984C266.717 408.2 268.401 409.552 270.691 410.004C272.981 410.456 275.009 409.836 275.221 408.62Z" fill="#8ED16F"/>
<path opacity="0.1" d="M275.221 408.62C275.433 407.404 273.749 406.052 271.459 405.6C269.169 405.149 267.141 405.768 266.929 406.984C266.717 408.2 268.401 409.552 270.691 410.004C272.981 410.456 275.009 409.836 275.221 408.62Z" fill="black"/>
<path d="M304.325 372.403L299.435 382.014L317.047 392.15L321.937 382.54L304.325 372.403Z" fill="#8ED16F"/>
<path d="M314.327 384.531C314.881 383.443 313.669 381.606 311.621 380.427C309.572 379.248 307.463 379.174 306.91 380.262C306.356 381.35 307.568 383.187 309.616 384.366C311.665 385.545 313.774 385.619 314.327 384.531Z" fill="#8ED16F"/>
<path opacity="0.1" d="M314.327 384.531C314.881 383.443 313.669 381.606 311.621 380.427C309.572 379.248 307.463 379.174 306.91 380.262C306.356 381.35 307.568 383.187 309.616 384.366C311.665 385.545 313.774 385.619 314.327 384.531Z" fill="black"/>
<path d="M291.511 376.103L289.637 386.848L309.327 390.733L311.202 379.988L291.511 376.103Z" fill="#8ED16F"/>
<path opacity="0.05" d="M291.511 376.103L289.637 386.848L309.327 390.733L311.202 379.988L291.511 376.103Z" fill="black"/>
<path d="M304.54 384.372C304.752 383.156 303.068 381.804 300.778 381.352C298.488 380.901 296.46 381.52 296.248 382.736C296.036 383.952 297.72 385.304 300.01 385.756C302.3 386.208 304.328 385.588 304.54 384.372Z" fill="#8ED16F"/>
<path opacity="0.1" d="M304.54 384.372C304.752 383.156 303.068 381.804 300.778 381.352C298.488 380.901 296.46 381.52 296.248 382.736C296.036 383.952 297.72 385.304 300.01 385.756C302.3 386.208 304.328 385.588 304.54 384.372Z" fill="black"/>
<path d="M293.355 382.553L291.481 393.297L311.171 397.182L313.045 386.438L293.355 382.553Z" fill="#8ED16F"/>
<path d="M306.389 390.822C306.601 389.606 304.917 388.254 302.627 387.802C300.337 387.351 298.309 387.97 298.097 389.186C297.885 390.402 299.569 391.754 301.859 392.206C304.149 392.658 306.177 392.038 306.389 390.822Z" fill="#8ED16F"/>
<path opacity="0.1" d="M306.389 390.822C306.601 389.606 304.917 388.254 302.627 387.802C300.337 387.351 298.309 387.97 298.097 389.186C297.885 390.402 299.569 391.754 301.859 392.206C304.149 392.658 306.177 392.038 306.389 390.822Z" fill="black"/>
<defs>
<linearGradient id="paint0_linear" x1="254.595" y1="363.806" x2="254.595" y2="155.625" gradientUnits="userSpaceOnUse">
<stop stop-color="#808080" stop-opacity="0.25"/>
<stop offset="0.54" stop-color="#808080" stop-opacity="0.12"/>
<stop offset="1" stop-color="#808080" stop-opacity="0.1"/>
</linearGradient>
<linearGradient id="paint1_linear" x1="-354166" y1="245402" x2="-354166" y2="66630.4" gradientUnits="userSpaceOnUse">
<stop stop-color="#808080" stop-opacity="0.25"/>
<stop offset="0.54" stop-color="#808080" stop-opacity="0.12"/>
<stop offset="1" stop-color="#808080" stop-opacity="0.1"/>
</linearGradient>
</defs>
</svg>
