<svg width="18" height="23" viewBox="0 0 18 23" fill="none" xmlns="http://www.w3.org/2000/svg">
<path d="M17.5925 20.216V23H1.4965V20.824L10.6165 12.024C11.7258 10.9573 12.4725 10.04 12.8565 9.272C13.2405 8.48267 13.4325 7.69333 13.4325 6.904C13.4325 5.73067 13.0165 4.824 12.1845 4.184C11.3738 3.52267 10.2005 3.192 8.6645 3.192C6.18983 3.192 4.2805 4.00267 2.9365 5.624L0.7605 3.736C1.63517 2.66933 2.7765 1.83733 4.1845 1.24C5.61383 0.642666 7.20317 0.344 8.9525 0.344C11.2992 0.344 13.1658 0.909333 14.5525 2.04C15.9392 3.14933 16.6325 4.664 16.6325 6.584C16.6325 7.77867 16.3765 8.90933 15.8645 9.976C15.3525 11.0427 14.3818 12.2587 12.9525 13.624L6.1045 20.216H17.5925Z" fill="#011633"/>
</svg>
